<svg width="54" height="67" viewBox="0 0 54 67" fill="none" xmlns="http://www.w3.org/2000/svg">
<path d="M0 8.08105C0 3.66278 3.58172 0.0810547 8 0.0810547H53.4394V66.0811H8C3.58172 66.0811 0 62.4993 0 58.0811V8.08105Z" fill="#FAB19E"/>
<path d="M19.6827 48.7607C17.6139 48.7607 15.6763 47.8727 14.2779 46.4567C11.5659 43.7111 10.8107 38.9191 14.6123 35.0711L30.2091 19.2791C31.7899 17.6791 33.8011 17.0599 35.7259 17.5831C37.6187 18.0951 39.1675 19.6647 39.6747 21.5799C40.1899 23.5319 39.5803 25.5687 38.0011 27.1687L23.0843 42.2727C22.2331 43.1351 21.2699 43.6455 20.3035 43.7479C19.3451 43.8503 18.4315 43.5399 17.7915 42.8919C16.6331 41.7143 16.4667 39.5047 18.3963 37.5527L28.8731 26.9447C29.3035 26.5095 30.0011 26.5095 30.4315 26.9447C30.8619 27.3799 30.8619 28.0871 30.4315 28.5223L19.9531 39.1319C19.0475 40.0471 18.9643 40.9223 19.3499 41.3143C19.5195 41.4839 19.7755 41.5623 20.0715 41.5287C20.5243 41.4823 21.0411 41.1831 21.5259 40.6951L36.4427 25.5927C37.4667 24.5559 37.8587 23.3367 37.5467 22.1607C37.3908 21.5856 37.0889 21.0606 36.6704 20.6364C36.2519 20.2123 35.7309 19.9035 35.1579 19.7399C33.9963 19.4247 32.7899 19.8231 31.7659 20.8599L16.1691 36.6519C13.2635 39.5943 13.9595 42.9815 15.8347 44.8807C17.7115 46.7799 21.0539 47.4871 23.9611 44.5415L39.5579 28.7495C39.6596 28.646 39.7809 28.5639 39.9147 28.5078C40.0485 28.4517 40.1921 28.4229 40.3371 28.4229C40.4822 28.4229 40.6258 28.4517 40.7596 28.5078C40.8934 28.5639 41.0146 28.646 41.1163 28.7495C41.3234 28.9601 41.4394 29.2437 41.4394 29.5391C41.4394 29.8345 41.3234 30.118 41.1163 30.3287L25.5195 46.1207C23.6811 47.9799 21.6219 48.7607 19.6827 48.7607Z" fill="#D75330"/>
</svg>
