<svg width="652" height="834" viewBox="0 0 652 834" fill="none" xmlns="http://www.w3.org/2000/svg">
<g clip-path="url(#clip0_7565_9367)">
<path d="M514.356 549.38C406.824 576.458 374.862 823.853 427.851 928.323C489.957 1050.94 737.782 984.855 788.421 963.37C820.139 949.903 661.791 829.35 674.7 701.02C688.297 565.967 791.681 513.444 766.595 518.413C748.252 512.484 644.113 516.757 514.356 549.38Z" stroke="#888888" stroke-opacity="0.25" stroke-width="1.41775" stroke-miterlimit="10"/>
<path d="M492.083 538.674C372.551 560.279 342.696 839.313 403.626 952.833C476.024 1087.74 736.336 999.354 800.527 982.287C836.549 972.685 686.031 832.927 694.659 688.009C703.531 537.162 796.69 473.14 762.133 486.175C739.996 494.505 637.832 512.317 492.083 538.674Z" stroke="#888888" stroke-opacity="0.25" stroke-width="1.41775" stroke-miterlimit="10"/>
<path d="M469.836 527.896C338.283 544.147 310.557 854.724 379.472 977.246C462.228 1124.42 735.295 988.144 812.728 1001.25C852.853 1008 710.43 836.528 714.689 674.998C719.125 508.404 800.085 425.563 757.742 453.984C731.391 471.556 631.578 507.948 469.836 527.896Z" stroke="#888888" stroke-opacity="0.25" stroke-width="1.41775" stroke-miterlimit="10"/>
<path d="M447.57 517.142C304.017 528.04 278.442 870.015 355.298 1001.68C448.457 1161.08 736.252 998.034 824.886 1020C868.249 1030.75 734.81 839.961 734.677 661.82C734.544 479.382 802.772 378.081 753.331 421.578C722.322 448.871 625.326 503.627 447.57 517.142Z" stroke="#888888" stroke-opacity="0.25" stroke-width="1.41775" stroke-miterlimit="10"/>
<path d="M425.293 506.362C269.74 511.979 246.384 885.449 331.136 1026.12C434.631 1197.73 737.442 1007.56 837.056 1038.87C883.768 1053.53 759.246 843.416 754.699 648.736C750.063 450.55 805.271 330.981 748.932 389.29C713.088 426.353 619.02 499.376 425.293 506.362Z" stroke="#888888" stroke-opacity="0.25" stroke-width="1.41775" stroke-miterlimit="10"/>
<path d="M403.031 495.584C235.478 495.944 214.229 900.812 306.988 1050.56C420.864 1234.39 738.847 1016.95 849.24 1057.76C899.413 1076.31 783.718 846.945 774.713 635.677C765.597 421.696 807.74 284.099 744.547 357.003C703.779 403.98 612.794 495.151 403.031 495.584Z" stroke="#888888" stroke-opacity="0.25" stroke-width="1.41775" stroke-miterlimit="10"/>
<path d="M380.756 484.831C201.092 480.03 182.128 916.153 282.828 1074.97C407.04 1271 740.416 1026.07 861.412 1076.58C915.133 1099 808.178 850.403 794.714 622.572C781.14 392.796 810.241 237.268 740.128 324.67C694.435 381.682 606.511 490.977 380.756 484.831Z" stroke="#888888" stroke-opacity="0.25" stroke-width="1.41775" stroke-miterlimit="10"/>
<path d="M358.491 474.05C166.894 463.944 149.993 931.49 258.678 1099.4C393.359 1307.62 742.217 1035.17 873.594 1095.44C930.931 1121.71 832.692 853.881 814.748 609.486C796.715 363.891 812.663 190.551 735.741 292.38C685.08 359.426 600.217 486.821 358.491 474.05Z" stroke="#888888" stroke-opacity="0.25" stroke-width="1.41775" stroke-miterlimit="10"/>
<path d="M336.219 463.273C132.6 447.958 117.983 946.83 234.52 1123.84C379.626 1344.23 743.922 1044.19 885.768 1114.24C946.742 1144.39 857.177 857.387 834.752 596.333C812.283 334.943 815.122 143.815 731.346 260.023C675.739 337.199 593.914 482.669 336.219 463.273Z" stroke="#888888" stroke-opacity="0.25" stroke-width="1.41775" stroke-miterlimit="10"/>
<path d="M313.952 452.519C98.2895 431.995 85.9126 962.265 210.369 1148.26C365.9 1380.84 745.811 1053.2 897.97 1133.16C962.649 1167.15 881.712 860.82 854.784 583.298C827.857 305.777 817.587 97.221 726.957 227.712C666.382 314.994 587.618 478.565 313.952 452.519Z" stroke="#888888" stroke-opacity="0.25" stroke-width="1.41775" stroke-miterlimit="10"/>
<path d="M291.68 441.74C63.9725 416.031 53.836 977.484 186.188 1172.69C352.166 1417.54 747.781 1062.27 910.122 1152.02C978.549 1189.88 906.218 864.276 874.788 570.215C843.447 277.186 820.068 50.6265 722.54 195.473C657.018 292.813 581.315 474.435 291.68 441.74Z" stroke="#888888" stroke-opacity="0.25" stroke-width="1.41775" stroke-miterlimit="10"/>
<path d="M269.412 430.962C29.6607 400.068 22.1193 992.535 162.102 1197.13C338.948 1453.7 749.89 1071.1 922.367 1170.87C994.543 1212.61 930.818 867.733 894.863 557.132C859.108 248.284 822.621 4.00901 718.216 163.162C647.659 270.633 574.973 470.354 269.412 430.962Z" stroke="#888888" stroke-opacity="0.25" stroke-width="1.41775" stroke-miterlimit="10"/>
<path d="M247.147 420.208C-4.64831 384.129 -9.97168 1007.87 137.885 1221.52C325.112 1490.38 751.869 1079.89 934.482 1189.69C1010.45 1235.3 955.288 871.142 914.808 543.954C874.661 219.262 825.043 -42.6563 713.762 130.756C638.304 248.452 568.656 466.25 247.147 420.208Z" stroke="#888888" stroke-opacity="0.25" stroke-width="1.41775" stroke-miterlimit="10"/>
<path d="M224.876 409.43C-39.0739 368.189 -42.0904 1023.24 113.729 1245.98C311.337 1526.84 753.953 1088.96 946.659 1208.58C1026.51 1258.1 980.351 874.575 934.814 530.943C890.785 190.36 827.526 -89.1539 709.369 98.5652C628.942 226.296 562.311 462.169 224.876 409.43Z" stroke="#888888" stroke-opacity="0.25" stroke-width="1.41775" stroke-miterlimit="10"/>
<path d="M202.602 398.651C-73.3927 352.777 -74.2134 1038.6 89.5689 1270.42C297.557 1563.61 756.077 1097.89 958.853 1227.45C1042.41 1280.83 1004.77 878.031 954.838 517.86C906.284 161.457 830.005 -135.701 704.95 66.2536C619.577 204.138 555.874 458.759 202.602 398.651Z" stroke="#888888" stroke-opacity="0.25" stroke-width="1.41775" stroke-miterlimit="10"/>
<path d="M180.333 387.898C-107.705 336.72 -106.286 1053.94 65.4152 1294.86C283.762 1600.25 758.229 1106.8 971.031 1246.32C1058.4 1303.59 1029.21 881.441 974.846 504.779C921.79 132.557 832.512 -182.269 700.559 33.9686C610.151 182.103 549.553 454.536 180.333 387.898Z" stroke="#888888" stroke-opacity="0.25" stroke-width="1.41775" stroke-miterlimit="10"/>
<path d="M158.065 377.12C-142.018 320.661 -138.424 1069.3 41.2614 1319.27C269.989 1636.81 760.426 1115.73 983.209 1265.16C1074.42 1326.35 1053.77 884.97 994.854 491.768C937.184 103.727 834.643 -229.006 696.169 1.73012C600.592 159.659 543.233 450.288 158.065 377.12Z" stroke="#888888" stroke-opacity="0.25" stroke-width="1.41775" stroke-miterlimit="10"/>
<path d="M135.798 366.341C-176.329 304.528 -170.607 1084.69 17.1087 1343.7C256.217 1673.51 762.624 1124.66 995.388 1283.93C1090.45 1349.03 1078.1 888.33 1014.89 478.516C952.801 74.7282 837.329 -275.481 691.779 -30.6538C591.367 137.621 536.958 446.158 135.798 366.341Z" stroke="#888888" stroke-opacity="0.25" stroke-width="1.41775" stroke-miterlimit="10"/>
<path d="M687.363 -62.9403C582.138 115.561 530.568 441.813 113.527 355.587C-210.667 288.541 -202.659 1100.01 -7.06994 1368.14C242.441 1710.17 764.818 1133.59 1007.56 1302.87C1203.86 1439.8 995.076 -584.977 687.363 -62.9403Z" stroke="#888888" stroke-opacity="0.25" stroke-width="1.41775" stroke-miterlimit="10"/>
</g>
<defs>
<clipPath id="clip0_7565_9367">
<rect width="652" height="834" fill="white"/>
</clipPath>
</defs>
</svg>
