<svg width="1464" height="430" viewBox="0 0 1464 430" fill="none" xmlns="http://www.w3.org/2000/svg">
<path d="M537.756 173.116V231.523C537.756 250.296 546.332 259.683 563.483 259.683C576.694 259.683 585.385 253.425 589.557 240.91C590.716 236.97 592.107 234.304 593.729 232.914C595.583 231.523 598.481 230.828 602.421 230.828H673.343C675.429 230.828 677.167 231.639 678.558 233.261C680.18 234.652 680.992 236.39 680.992 238.476C680.992 258.64 675.197 275.56 663.609 289.234C642.286 314.729 609.026 327.477 563.831 327.477C528.369 327.477 500.093 319.712 479.002 304.183C457.911 288.423 447.365 264.319 447.365 231.871V172.769C447.365 141.016 458.142 117.143 479.697 101.151C501.252 85.1587 529.297 77.1626 563.831 77.1626C609.026 77.1626 642.286 89.91 663.609 115.405C675.197 129.08 680.992 145.999 680.992 166.163C680.992 168.249 680.18 170.103 678.558 171.726C677.167 173.116 675.429 173.812 673.343 173.812H602.421C598.712 173.812 595.931 173.116 594.077 171.726C592.455 170.335 590.948 167.67 589.557 163.729C585.154 151.214 576.462 144.956 563.483 144.956C546.332 144.956 537.756 154.343 537.756 173.116ZM788.442 221.093V314.613C788.442 317.163 787.515 319.365 785.661 321.219C783.807 323.073 781.605 324 779.056 324H711.262C708.713 324 706.511 323.073 704.657 321.219C702.803 319.365 701.875 317.163 701.875 314.613V86.5493C701.875 83.9998 702.803 81.798 704.657 79.9438C706.511 78.0896 708.713 77.1626 711.262 77.1626H779.056C781.605 77.1626 783.807 78.0896 785.661 79.9438C787.515 81.798 788.442 83.9998 788.442 86.5493V161.296C801.653 146.926 818.573 139.741 839.201 139.741C859.828 139.741 876.864 146.462 890.306 159.905C903.749 173.348 910.47 192.933 910.47 218.66V314.266C910.47 316.815 909.543 319.017 907.689 320.871C905.835 322.725 903.633 323.652 901.084 323.652H832.943C830.393 323.652 828.191 322.725 826.337 320.871C824.483 319.017 823.556 316.815 823.556 314.266V221.093C823.556 208.346 817.646 201.972 805.825 201.972C794.237 201.972 788.442 208.346 788.442 221.093ZM1008.27 324H946.04C943.491 324 941.289 323.073 939.435 321.219C937.581 319.365 936.653 317.163 936.653 314.613V152.604C936.653 150.055 937.581 147.853 939.435 145.999C941.289 144.145 943.491 143.218 946.04 143.218H1008.27C1010.82 143.218 1013.02 144.145 1014.88 145.999C1016.73 147.853 1017.66 150.055 1017.66 152.604V314.613C1017.66 317.163 1016.73 319.365 1014.88 321.219C1013.02 323.073 1010.82 324 1008.27 324ZM1015.92 76.1196V118.186C1015.92 120.736 1014.99 122.938 1013.14 124.792C1011.28 126.646 1009.08 127.573 1006.53 127.573H947.779C945.229 127.573 943.027 126.646 941.173 124.792C939.319 122.938 938.392 120.736 938.392 118.186V76.1196C938.392 73.5701 939.319 71.3682 941.173 69.5141C943.027 67.6599 945.229 66.7328 947.779 66.7328H1006.53C1009.08 66.7328 1011.28 67.6599 1013.14 69.5141C1014.99 71.3682 1015.92 73.5701 1015.92 76.1196ZM1248.51 220.05V247.515C1248.51 273.474 1241.55 293.29 1227.65 306.965C1213.74 320.639 1196.7 327.477 1176.54 327.477C1156.61 327.477 1140.62 322.03 1128.56 311.137V380.668C1128.56 383.218 1127.64 385.42 1125.78 387.274C1123.93 389.128 1121.73 390.055 1119.18 390.055H1054.86C1052.31 390.055 1050.11 389.128 1048.25 387.274C1046.4 385.42 1045.47 383.218 1045.47 380.668V152.604C1045.47 150.055 1046.4 147.853 1048.25 145.999C1050.11 144.145 1052.31 143.218 1054.86 143.218H1113.96C1116.51 143.218 1118.71 144.145 1120.57 145.999C1122.42 147.853 1123.35 150.055 1123.35 152.604V163.034C1135.4 147.505 1152.44 139.741 1174.45 139.741C1196.47 139.741 1214.32 146.347 1227.99 159.558C1241.67 172.537 1248.51 192.701 1248.51 220.05ZM1128.56 222.136V247.863C1129.26 259.451 1135.05 265.246 1145.95 265.246C1157.54 265.246 1163.33 258.524 1163.33 245.082V222.136C1163.33 208.693 1157.54 201.972 1145.95 201.972C1134.36 201.972 1128.56 208.693 1128.56 222.136ZM1367.39 273.937C1367.39 271.619 1366.81 269.765 1365.65 268.375C1362.63 264.666 1351.51 261.074 1332.27 257.597C1313.04 253.889 1297.39 247.515 1285.34 238.476C1273.52 229.205 1267.61 216.342 1267.61 199.886C1267.61 183.43 1275.49 169.292 1291.25 157.472C1307.01 145.651 1328.22 139.741 1354.87 139.741C1381.76 139.741 1403.77 145.304 1420.93 156.429C1438.08 167.554 1446.65 178.795 1446.65 190.152C1446.65 192.701 1445.84 194.903 1444.22 196.757C1442.83 198.611 1441.09 199.538 1439 199.538H1380.6C1377.12 199.538 1372.83 197.684 1367.73 193.976C1362.63 190.267 1358.81 188.413 1356.26 188.413C1350.93 188.413 1348.26 190.267 1348.26 193.976C1348.26 196.293 1348.84 198.148 1350 199.538C1353.02 203.015 1365.65 206.376 1387.9 209.62C1410.15 212.865 1426.72 220.05 1437.61 231.175C1448.74 242.069 1454.3 254.237 1454.3 267.679C1454.3 286.453 1445.84 301.17 1428.92 311.832C1412 322.493 1388.01 327.824 1356.96 327.824C1340.5 327.824 1325.9 325.97 1313.15 322.262C1300.4 318.553 1290.67 313.918 1283.95 308.355C1270.74 297.462 1264.13 287.264 1264.13 277.761C1264.13 275.212 1264.94 273.01 1266.56 271.156C1268.19 269.302 1270.16 268.375 1272.48 268.375H1332.97C1336.21 268.375 1340.38 270.229 1345.48 273.937C1350.81 277.414 1355.8 279.152 1360.43 279.152C1365.07 279.152 1367.39 277.414 1367.39 273.937Z" fill="white"/>
<rect y="27.6348" width="367.72" height="367.72" rx="44.6882" fill="white"/>
<rect x="209.663" y="174.674" width="71.9361" height="71.9361" fill="#5A00FF"/>
<path fill-rule="evenodd" clip-rule="evenodd" d="M209.648 120.731H83.76V300.571H209.648V246.615H137.726V174.679H209.648V120.731Z" fill="#5A00FF"/>
</svg>
