<svg width="40" height="44" viewBox="0 0 40 44" fill="none" xmlns="http://www.w3.org/2000/svg">
<g id="Group 1171275390">
<path id="Rectangle 42295" d="M0 4.82535C0 2.16038 2.16038 0 4.82535 0H40V44H4.82535C2.16038 44 0 41.8396 0 39.1747V4.82535Z" fill="#FF3717"/>
<g id="Group 1171275392">
<path id="Vector" d="M31.289 10.105V33.0331C31.289 33.3114 31.1744 33.5783 30.9704 33.7751C30.7665 33.9719 30.4899 34.0825 30.2015 34.0825H13.193C12.9045 34.0825 12.6279 33.9719 12.424 33.7751C12.22 33.5783 12.1055 33.3114 12.1055 33.0331V16.8942L18.0867 9.05566H30.2015C30.4899 9.05566 30.7665 9.16622 30.9704 9.36301C31.1744 9.5598 31.289 9.8267 31.289 10.105Z" fill="#EDEEEF"/>
<path id="Vector_2" d="M18.0869 9.06543V15.797C18.0869 16.0753 17.9723 16.3422 17.7684 16.539C17.5644 16.7357 17.2878 16.8463 16.9994 16.8463H12.1328L18.0869 9.06543Z" fill="#CFD0D1"/>
<path id="Vector_3" d="M23.9428 23.3896H9.0875C8.48689 23.3896 8 23.8595 8 24.439V29.7067C8 30.2862 8.48689 30.756 9.0875 30.756H23.9428C24.5434 30.756 25.0303 30.2862 25.0303 29.7067V24.439C25.0303 23.8595 24.5434 23.3896 23.9428 23.3896Z" fill="#FF3717"/>
<path id="Vector_4" d="M13.5203 27.4955V28.6288H12.5742V25.5175H13.8792C14.1332 25.5042 14.3872 25.5436 14.6242 25.6329C14.7928 25.7066 14.9348 25.8271 15.032 25.9792C15.1303 26.1376 15.1811 26.3192 15.1788 26.5038C15.1852 26.6378 15.1612 26.7715 15.1086 26.8956C15.0561 27.0198 14.9761 27.1313 14.8743 27.2226C14.6476 27.4129 14.3532 27.5107 14.0532 27.4955H13.5203ZM13.5203 26.8291H13.8357C14.113 26.8291 14.249 26.7242 14.249 26.5196C14.249 26.315 14.1239 26.2258 13.8683 26.2258H13.5203V26.8291ZM15.5322 28.6288V25.5175H16.723C16.94 25.5017 17.1579 25.5353 17.359 25.6154C17.5602 25.6956 17.739 25.8202 17.8812 25.9792C18.1374 26.2825 18.2742 26.6635 18.2673 27.0547C18.2902 27.4704 18.1416 27.8779 17.854 28.188C17.7175 28.3341 17.5492 28.4494 17.3613 28.5255C17.1733 28.6017 16.9702 28.637 16.7665 28.6288H15.5322ZM16.4783 27.91H16.723C16.8044 27.9086 16.884 27.8865 16.9537 27.846C17.0234 27.8055 17.0807 27.7479 17.12 27.6791C17.2339 27.49 17.2886 27.2732 17.2777 27.0547C17.2819 26.8506 17.2333 26.6486 17.1363 26.4671C17.0982 26.3932 17.0391 26.3313 16.9659 26.2886C16.8928 26.2459 16.8085 26.2241 16.723 26.2258H16.4783V27.91ZM20.5891 27.464H19.5886V28.6288H18.6697V25.5175H20.8936V26.2572H19.5886V26.7819H20.5891V27.464Z" fill="#EDEEEF"/>
</g>
</g>
</svg>
