<svg width="41" height="32" viewBox="0 0 41 32" fill="none" xmlns="http://www.w3.org/2000/svg">
<g id="Group 1171275344">
<path id="Vector" d="M5.21774 32.0015H0.532073C-0.174468 24.5571 0.606091 13.9461 4.71868 8.10102C12.0795 -2.36021 28.7189 -2.99305 36.0635 7.91214C39.3519 12.7946 40.0331 20.9724 40.5707 27.4245C40.6368 28.2175 40.7006 28.9843 40.767 29.7159C40.7759 29.8147 40.7964 30.0024 40.8226 30.2422C40.8745 30.7188 40.9489 31.4012 41 32.0015H36.1468C36.1121 31.7269 36.0857 31.4694 36.0637 31.2523C35.9397 30.0348 35.8185 28.4556 35.6889 26.7681C35.4459 23.6009 35.1735 20.0518 34.7985 17.7942C32.9944 6.93631 22.9434 2.61702 15.0013 6.80522C10.3968 9.23366 6.49013 13.7966 5.54638 19.8952C5.22435 21.9765 5.25097 24.3908 5.27812 26.8536C5.29676 28.5434 5.31563 30.2561 5.22232 31.8995C5.22036 31.934 5.21893 31.9679 5.21774 32.0015Z" fill="#FEC100"/>
<path id="Vector_2" d="M12.1939 32.0097H8.09051C7.93936 30.71 7.89844 28.5765 7.89844 28.2927C7.89844 27.2003 7.99951 26.1555 8.10251 25.0907C8.12433 24.8652 8.14624 24.6387 8.16729 24.4108C8.56138 20.1399 10.7959 15.5867 13.4754 12.7643C17.9696 8.03096 27.2493 8.76616 31.2142 14.2203C31.6466 14.8151 31.9611 15.6543 32.2643 16.4633C32.4271 16.8977 32.5867 17.3234 32.7594 17.6978C34.0405 20.4734 34.2378 24.3823 34.2378 27.4839C34.2378 27.5768 34.2612 27.9276 34.2935 28.4118C34.36 29.4082 34.4643 30.9697 34.4796 32.0097H31.514C31.4831 31.3473 31.4627 30.5583 31.4472 29.9552C31.4345 29.4666 31.425 29.0999 31.4156 29.0207C31.2629 27.7332 31.0571 26.3964 30.7437 25.1385C30.1764 22.8627 29.4721 20.541 28.5936 18.4259C28.2976 17.7131 27.5414 17.1892 26.9416 16.7738C26.8369 16.7012 26.7369 16.6318 26.645 16.5655C24.4815 15.0031 22.4676 13.8624 19.7915 14.2203C14.9275 14.8708 12.898 19.2459 12.2659 24.5726C12.1199 25.8018 11.9972 27.1383 11.9972 28.3738C11.9972 28.4164 12.0125 28.6531 12.0347 28.9954C12.0868 29.8004 12.1767 31.1892 12.1939 32.0097Z" fill="#FEC100"/>
<path id="Vector_3" d="M17.2238 32.0018H13.8828C14.2092 24.9008 15.4634 21.4827 18.2471 19.3885C21.2551 17.1257 25.9414 17.2061 27.7213 21.4912C28.5638 23.5193 28.808 25.8794 29.0374 28.0983C29.0467 28.1877 29.056 28.2769 29.0651 28.3658C29.0969 28.6718 29.2693 30.5546 29.2832 32.0018H26.6123C26.5809 31.102 26.5896 30.0046 26.5969 29.0904C26.6038 28.2308 26.6094 27.5332 26.579 27.3142C26.5587 27.1674 26.5386 27.0186 26.5183 26.8681C26.1714 24.3013 25.7651 21.2953 23.2193 20.6824C20.4202 20.0086 18.4131 24.2875 17.5081 26.8291C17.4163 27.5648 17.3739 28.6664 17.3312 29.7762C17.3013 30.5553 17.2713 31.3385 17.2238 32.0018Z" fill="#FEC100"/>
</g>
</svg>
