<svg width="258" height="201" viewBox="0 0 258 201" fill="none" xmlns="http://www.w3.org/2000/svg">
<rect y="0.179688" width="258" height="200" rx="9.62367" fill="#689FFF"/>
<g clip-path="url(#clip0_10172_9817)">
<path d="M39.1313 21.0341C32.9922 24.648 29.7579 31.8721 31.0723 39.031C32.4519 46.5578 35.8088 53.1993 40.5721 59.0974C48.0332 68.3373 57.3262 75.1244 68.5236 79.1868C71.1371 80.1334 73.8349 80.85 76.6783 80.5817C79.9356 80.2752 81.8555 78.3705 82.1467 75.0899C82.3805 72.4456 81.6179 69.9852 80.6062 67.6014C78.4143 62.443 75.2911 57.8288 71.9916 53.3411C63.5227 41.8248 54.0459 31.2474 42.9595 22.1646C42.8331 22.0611 42.6606 21.973 42.676 21.6472C45.5884 21.1759 48.5123 21.149 51.3979 21.8925C56.7398 23.2683 61.3039 26.0545 65.3008 29.8102C67.2552 31.646 69.0524 33.6426 70.9685 35.5052C74.8619 39.2916 78.3913 43.4114 82.1429 47.3243C82.5108 47.7075 82.9821 47.7765 83.4458 47.9183C84.6989 48.3092 85.8333 48.6043 86.477 50.1296C87.6918 53.0039 89.9298 55.1538 92.4283 56.9934C95.5208 59.2698 98.9007 61.0557 102.361 62.696C102.89 62.9451 103.676 63.0332 102.894 63.9147C102.641 64.1983 102.752 64.6888 103.212 64.8613C105.423 65.6929 107.366 67.0074 109.328 68.2759C113.474 70.9586 117.563 73.7294 121.694 76.4389C122.254 76.8068 122.307 76.987 121.782 77.4698C114.448 84.234 108.88 92.2974 104.45 101.189C103.71 102.668 103.821 103.013 105.101 103.967C105.967 104.611 106.822 105.27 107.676 105.925C107.73 105.964 107.761 106.033 107.841 106.148C107.04 106.646 106.117 106.803 105.27 107.136C105.028 107.232 104.883 107.14 104.722 106.987C103.273 105.6 101.418 105.442 99.5752 105.366C94.6471 105.159 89.8914 106.167 85.2086 107.577C84.4192 107.815 83.7217 107.88 82.8902 107.631C81.2194 107.133 79.6405 107.382 78.4219 108.792C77.575 109.773 77.6517 110.436 78.7553 111.08C83.7792 114.012 88.4122 117.526 93.2254 120.776C98.644 124.436 104.017 128.172 109.412 131.867C110.949 132.921 112.076 132.499 112.647 130.706C112.945 129.767 112.98 128.809 112.524 127.962C112.156 127.279 112.409 126.923 112.811 126.436C114.701 124.156 116.214 121.684 116.517 118.645C116.647 117.319 116.463 116.062 115.532 115.035C115.157 114.621 115.18 114.487 115.731 114.295C117.138 113.812 118.441 113.621 119.613 114.859C120.472 115.763 121.526 115.824 122.691 115.422C125.634 114.399 128.009 112.559 130.09 110.317C133.704 106.42 136.229 101.901 137.502 96.7238C137.689 95.965 138.076 95.9381 138.693 96.0071C146.093 96.8119 153.497 97.5937 160.897 98.3909C167.572 99.1075 174.24 99.8893 180.923 100.506C182 100.606 182.173 101.077 182.422 101.848C189.917 125.053 197.436 148.254 204.905 171.471C205.273 172.613 205.763 173.142 206.959 172.87C207.917 172.651 208.189 173.015 208.139 173.996C208.097 174.851 207.622 174.755 207.112 174.728C203.234 174.533 199.735 175.583 196.692 177.99C193.405 180.592 191.462 184.075 190.366 188.065C190.274 188.398 190.243 188.69 189.887 188.912C188.082 190.042 187.664 191.825 187.718 193.794C187.741 194.622 188.116 195.021 189.013 195.048C192.803 195.163 196.589 195.35 200.379 195.488C208.097 195.768 215.815 196.029 223.533 196.297C224.609 196.335 225.686 196.397 226.767 196.4C227.671 196.4 228.235 195.845 228.33 195.013C228.618 192.549 228.514 190.169 226.165 188.582C225.59 188.195 225.893 187.689 225.947 187.26C226.296 184.447 226.353 181.642 225.863 178.84C225.59 177.277 225.119 175.797 223.854 174.701C223.559 174.445 223.414 172.314 223.651 172.038C223.831 171.831 224.104 171.908 224.341 171.892C225.211 171.839 226.077 171.758 226.947 171.747C227.901 171.735 228.227 171.21 228.238 170.352C228.334 164.143 227.92 157.973 226.813 151.857C222.923 130.357 215.06 110.313 204.613 91.2205C204.449 90.9215 204.295 90.6111 204.081 90.1972C205.422 90.4118 206.56 90.9024 207.729 91.2779C217.091 94.2787 226.449 97.2871 235.799 100.319C236.615 100.583 236.991 100.345 237.596 99.7054C239.869 97.3063 240.601 94.2787 241.386 91.255C241.429 91.0863 241.475 90.9177 241.498 90.7452C241.655 89.5955 241.712 88.4075 241.402 87.3191C241.042 86.0582 239.631 86.1349 238.658 85.7401C228.878 81.7736 219.083 77.8531 209.281 73.9555C208.553 73.6681 208.311 73.3347 208.288 72.5491C208.227 70.4757 207.223 68.755 205.962 67.1914C203.046 63.5736 199.245 61.0634 195.282 58.7793C187.718 54.4142 179.605 51.3253 171.335 48.6119C170.669 48.3935 170.446 48.1291 170.282 47.3817C169.094 42.0432 166.997 37.1416 162.495 33.7231C158.088 30.3813 152.995 31.5885 150.512 36.5322C149.933 37.6896 150.006 39.1306 149.711 40.4336C149.243 42.4763 149.124 44.5649 149.592 46.6421C149.983 48.3743 150.872 49.7042 152.822 50.4017C151.186 51.3483 149.699 52.2067 148.209 53.0652C147.887 53.2491 147.603 53.0652 147.312 52.9617C127.983 46.3432 108.65 39.7438 89.3358 33.0831C87.4274 32.4239 85.6416 32.9873 83.8176 33.1751C80.1157 33.5545 76.4292 34.0527 72.7427 34.5432C72.0568 34.6352 71.6812 34.3784 71.2482 33.8994C66.734 28.9288 61.9822 24.2801 55.5787 21.7009C51.1564 19.9188 46.6499 19.3938 41.9862 20.3136C41.2044 20.4669 40.6373 20.3289 40.0011 19.8422C35.851 16.6613 31.5437 13.7219 26.7267 11.6217C23.9906 10.426 21.1701 9.6442 18.1313 9.84348C15.0043 10.0504 12.7165 11.5144 11.3484 14.3159C9.69298 17.7037 9.5435 21.3713 9.65846 25.0351C9.92671 33.5775 12.6284 41.476 16.2919 49.091C20.7831 58.419 26.355 67.1224 31.8541 75.8679C36.2955 82.9348 40.9553 89.8715 44.7683 97.3178C47.217 102.101 49.2596 107.037 50.0796 112.398C50.39 114.441 50.4475 116.484 50.1026 118.53C49.4933 122.171 47.4738 124.842 44.4081 126.758C39.7252 129.682 34.7282 131.782 29.1793 132.365C28.8689 132.399 28.5623 132.468 28.2519 132.503C27.7729 132.557 27.428 132.798 27.4701 133.292C27.5161 133.867 27.9722 134.017 28.4665 133.944C30.0491 133.71 31.6548 133.561 33.203 133.177C37.7977 132.039 42.0897 130.181 45.9831 127.463C50.2866 124.463 51.9229 120.224 51.7543 115.096C51.5627 109.256 49.5776 103.94 47.1289 98.7588C43.8793 91.8835 39.7252 85.5332 35.6747 79.1216C30.0453 70.2113 24.301 61.37 19.4074 52.0189C15.8435 45.2126 12.9043 38.1725 11.6588 30.5346C10.9499 26.1771 10.7775 21.8082 11.77 17.4661C12.3601 14.8831 13.5327 12.6948 16.2152 11.706C17.9013 11.0852 19.6181 11.1235 21.3579 11.4646C25.6805 12.3115 29.4092 14.4615 33.0727 16.7571C35.1612 18.064 37.1577 19.5011 39.1351 21.0379L39.1313 21.0341Z" fill="black"/>
<path d="M226.943 167.136C226.943 167.86 226.92 168.73 226.951 169.6C226.97 170.141 226.767 170.302 226.226 170.328C220.114 170.654 214.006 170.991 207.897 171.375C206.84 171.44 206.357 171.164 206.012 170.087C199.348 149.346 192.638 128.621 185.936 107.891C185.069 105.212 184.2 102.537 183.33 99.8584C183.081 99.0881 182.805 98.4711 181.782 99.0345C181.471 99.2069 180.965 99.0613 180.555 99.0191C174.194 98.3446 167.836 97.6625 161.479 96.9765C155.949 96.3825 150.42 95.7769 144.89 95.1791C142.713 94.9453 140.536 94.7 138.356 94.4969C136.888 94.3628 136.505 94.6694 136.164 96.072C134.915 101.146 132.478 105.588 128.921 109.397C127.101 111.348 125.024 112.961 122.487 113.923C121.702 114.222 121.081 114.13 120.387 113.601C115.681 110.018 110.949 106.469 106.205 102.94C105.649 102.526 105.561 102.219 105.883 101.594C110.569 92.4428 116.287 84.0881 124.189 77.3585C126.91 75.0399 129.872 73.6794 133.512 73.6525C143.081 73.5836 152.65 73.3843 162.222 73.2578C171.063 73.1428 179.9 73.0624 188.741 72.9627C188.982 72.9627 189.281 73.024 189.461 72.9091C190.293 72.384 190.63 72.9206 191.078 73.5031C198.432 83.0917 204.621 93.3817 209.698 104.346C215.615 117.12 220.528 130.245 223.72 143.981C225.479 151.55 226.721 159.199 226.947 167.136H226.943Z" fill="white"/>
<path d="M32.2374 35.7362C32.2604 32.0647 33.6514 28.7497 35.7399 25.6646C36.7478 24.17 38.089 23.1353 39.7522 22.4646C40.327 22.2347 40.76 22.2385 41.2505 22.6639C42.6684 23.8979 44.1553 25.0476 45.5616 26.2932C55.529 35.123 64.2854 45.045 71.9956 55.8869C75.0191 60.1408 77.897 64.4906 79.7288 69.4305C80.3726 71.1705 80.8171 72.9525 80.6945 74.8342C80.5374 77.2716 79.2958 78.6589 76.916 79.115C75.6514 79.3603 74.4175 79.1648 73.1912 78.9195C67.7688 77.8235 62.8483 75.4972 58.2 72.5884C48.2326 66.3531 40.0856 58.4278 35.2609 47.4863C33.6246 43.7765 32.3408 39.9748 32.2374 35.7362Z" fill="#689FFF"/>
<path d="M148.68 72.0086C150.699 69.8701 152.543 67.9079 154.405 65.9649C154.8 65.5548 155.187 65.118 154.708 64.6427C154.183 64.1215 153.754 64.6197 153.42 65.026C151.535 67.3177 149.335 69.2991 147.224 71.3686C146.614 71.9664 145.997 72.1274 145.196 72.1274C141.403 72.1236 137.605 72.2385 133.815 72.1657C130.205 72.0929 127.032 73.143 124.269 75.4309C123.66 75.9368 123.238 75.933 122.575 75.4884C116.854 71.6637 111.386 67.4442 105.296 64.1828C104.676 63.8494 105.059 63.6233 105.296 63.3589C106.653 61.8643 108.036 60.3888 109.366 58.8712C109.834 58.3385 110.305 58.1852 111.006 58.2886C115.796 58.9976 120.177 60.7835 124.292 63.2707C126.446 64.5699 128.458 66.0607 129.975 68.1187C130.297 68.5518 130.715 68.8545 131.209 68.4675C131.719 68.0689 131.443 67.5822 131.148 67.1759C130.86 66.7812 130.573 66.375 130.209 66.0607C129.653 65.5778 129.814 65.3632 130.378 65.0413C134.727 62.5617 139.057 60.0477 143.395 57.549C147.657 55.0962 151.922 52.6435 156.198 50.187C156.662 52.0917 157.099 52.3561 158.927 51.8617C161.847 51.0722 164.767 50.2828 167.679 49.478C168.27 49.3132 168.821 49.3093 169.412 49.5163C171.971 50.4016 174.566 51.1987 177.106 52.1338C184.491 54.8548 191.711 57.9437 198.275 62.3548C201.03 64.2058 203.636 66.2408 205.506 69.05C206.257 70.1805 206.847 71.3877 206.851 72.8517C206.641 72.8172 206.499 72.8134 206.376 72.7674C199.375 69.9698 192.374 67.1721 185.372 64.3706C184.889 64.179 184.621 63.8609 184.476 63.3244C184.008 61.6151 183.422 59.9442 182.732 58.3116C182.529 57.8287 182.28 57.2462 181.613 57.5107C180.881 57.8019 181.264 58.3461 181.46 58.8252C181.808 59.6798 182.257 60.4999 182.422 61.481C181.927 61.3162 181.793 60.864 181.456 60.6302C181.134 60.4079 180.812 60.3428 180.502 60.6034C180.222 60.8372 180.23 61.1706 180.364 61.4657C180.479 61.7148 180.67 61.9256 180.843 62.144C182.107 63.7306 183.725 64.9685 185.1 66.4478C186.556 68.0114 188.009 69.5789 189.404 71.4682C175.75 71.6483 162.311 71.8285 148.668 72.0086H148.68Z" fill="white"/>
<path d="M146.208 54.1635C145.756 54.4433 145.476 54.6234 145.189 54.792C139.977 57.7928 134.742 60.7552 129.581 63.8326C128.684 64.3653 128.255 64.235 127.5 63.6832C122.246 59.8278 116.417 57.3521 109.891 56.7005C109.336 56.6431 109.121 56.3595 108.895 55.9532C107.718 53.8531 106.331 51.8986 104.783 50.059C103.587 48.6449 102.292 47.338 100.648 46.4336C99.7936 45.966 99.2456 46.1768 99.0157 47.1119C98.8241 47.8975 98.8701 48.6985 98.9429 49.4995C99.0463 50.6262 99.4832 51.6648 99.8779 52.7647C99.6595 52.7417 99.5483 52.7532 99.4602 52.7149C94.4708 50.699 89.4852 48.6679 84.4881 46.6673C83.9938 46.4719 83.9057 46.1155 83.829 45.7093C83.2312 42.4747 83.6834 39.4011 85.335 36.5498C86.6533 34.2772 87.4389 34.0281 89.9106 34.8751C106.768 40.639 123.626 46.4029 140.483 52.1707C142.342 52.8068 144.192 53.4583 146.216 54.1635H146.208Z" fill="white"/>
<path d="M187.576 66.9043C188.028 67.0461 188.292 67.1074 188.537 67.2032C202.716 72.8828 216.895 78.5624 231.074 84.242C232.676 84.882 233.174 85.5872 233.212 87.3041C233.285 90.6 231.936 93.2903 229.706 95.6166C229.07 96.2796 228.434 96.4405 227.491 96.1301C220.44 93.8038 213.389 91.4661 206.28 89.3161C203.893 88.5918 201.927 87.6682 201.076 85.1618C200.988 84.905 200.789 84.6904 200.632 84.4605C196.558 78.4896 192.504 72.5034 187.572 66.9043H187.576Z" fill="white"/>
<path d="M208.135 188.083C205.594 188.083 203.053 188.083 200.513 188.083C197.937 188.083 195.362 188.087 192.787 188.075C192.396 188.075 191.76 188.286 192.036 187.443C192.99 184.515 194.485 181.92 196.742 179.793C197.102 179.452 197.34 179.452 197.669 179.839C198.394 180.686 199.118 181.537 199.915 182.311C204.533 186.803 209.495 187.47 215.14 184.392C215.964 183.944 216.776 183.465 217.612 183.047C219.558 182.074 221.593 181.637 223.77 182.081C224.479 182.227 224.831 182.507 224.808 183.331C224.774 184.549 224.601 185.757 224.552 186.971C224.517 187.822 224.195 188.117 223.279 188.11C218.232 188.056 213.185 188.083 208.139 188.083H208.135Z" fill="white"/>
<path d="M113.689 122.462C113.244 123.504 112.566 124.301 111.984 125.16C111.497 125.876 111.083 125.953 110.313 125.44C103.71 121.044 97.0727 116.702 90.447 112.344C88.8299 111.279 87.2127 110.213 85.4346 109.045C89.0445 107.903 92.5279 107.174 96.0956 106.864C96.7815 106.806 97.5786 106.623 98.1419 106.887C98.7091 107.151 98.2799 108.044 98.4945 108.623C98.5328 108.719 98.5596 108.822 98.5826 108.922C99.1919 111.34 100.453 113.421 102.043 115.284C105.12 118.886 108.542 121.983 113.693 122.462H113.689Z" fill="white"/>
<path d="M208.495 184.789C207.25 184.885 205.977 184.593 204.77 183.995C202.348 182.8 200.459 180.979 198.773 178.914C198.424 178.484 198.635 178.339 198.969 178.136C201.548 176.587 204.353 175.955 207.338 176.062C207.744 176.078 208.074 176.139 208.032 176.714C207.989 177.308 208.453 177.553 208.951 177.68C213.646 178.879 218.233 178.845 222.586 176.426C223.119 176.131 223.375 176.166 223.647 176.679C224.241 177.806 224.471 179.032 224.621 180.274C224.697 180.895 224.314 180.707 223.969 180.646C221.413 180.205 218.995 180.654 216.715 181.861C215.703 182.397 214.711 182.976 213.695 183.505C212.101 184.333 210.423 184.854 208.495 184.785V184.789Z" fill="white"/>
<path d="M100.166 48.0605C100.759 48.1295 101.104 48.436 101.434 48.7273C104.189 51.1379 106.278 54.0697 108.102 57.2161C108.374 57.6874 108.236 57.971 107.918 58.3083C107.201 59.0671 106.5 59.8374 105.803 60.6154C104.388 62.1867 104.373 62.225 102.476 61.2707C98.1881 59.1131 93.9575 56.8481 90.5354 53.3722C89.5161 52.3374 88.6692 51.1839 87.9219 49.8195C88.1672 49.8195 88.2745 49.7889 88.3588 49.8234C92.0567 51.3295 95.7279 52.897 99.4566 54.3188C100.74 54.8093 101.733 55.3995 102.216 56.7332C102.396 57.2276 102.848 57.5533 103.381 57.2084C103.883 56.8826 103.649 56.4074 103.419 56.005C102.714 54.7672 102.001 53.5331 101.277 52.3068C100.518 51.0191 100.158 49.6356 100.162 48.0566L100.166 48.0605Z" fill="black"/>
<path d="M112.846 120.881C111.899 120.869 110.734 120.429 109.631 119.827C105.864 117.777 103.02 114.803 100.962 111.062C100.372 109.993 99.9813 108.839 99.782 107.632C99.7246 107.28 99.5789 106.797 100.238 106.854C101.388 106.95 102.56 107.077 103.476 107.835C105.81 109.767 108.32 111.442 110.819 113.136C112.018 113.952 113.233 114.741 114.256 115.803C115.252 116.838 115.513 118.003 115.187 119.336C114.896 120.524 114.394 120.881 112.85 120.881H112.846Z" fill="white"/>
<path d="M82.1504 44.8745C81.9894 44.84 81.9089 44.8477 81.8744 44.8094C80.7095 43.5715 79.5522 42.326 78.3834 41.0919C77.0064 39.6331 76.6628 37.9762 77.3525 36.1213C77.364 36.0907 77.3794 36.0562 77.387 36.0217C77.5058 35.5733 77.7626 35.3778 78.2608 35.328C80.2611 35.1134 82.2538 34.8336 84.2504 34.5922C84.4151 34.573 84.6681 34.4082 84.7485 34.7455C82.5527 37.7692 81.8936 41.2031 82.1542 44.8745H82.1504Z" fill="black"/>
<path d="M151.462 39.2538C152.021 39.867 152.389 40.3307 152.818 40.7293C153.451 41.3195 154.136 41.239 154.638 40.5185C154.983 40.0203 155.443 39.8134 155.976 40.0241C156.547 40.2503 156.796 40.7561 156.696 41.3808C156.589 42.0361 156.47 42.7835 156.022 43.2127C154.711 44.4697 155.202 45.8379 155.554 47.2329C155.616 47.4666 155.639 47.7158 155.715 47.9419C155.861 48.3596 155.727 48.5321 155.309 48.6892C153.286 49.4442 151.707 48.7007 151.094 46.6235C150.377 44.1976 150.86 41.833 151.462 39.25V39.2538Z" fill="white"/>
<path d="M163.008 26.9809C162.954 27.5289 163.073 27.7589 163.299 27.9581C164.265 28.8089 165.192 29.7019 166.192 30.5067C166.794 30.9934 167.43 31.0164 168.013 30.3227C170.983 26.7778 173.972 23.2481 176.965 19.7223C177.474 19.1245 177.409 18.6454 176.735 18.2852C174.405 17.0435 172.075 15.8018 169.726 14.5984C168.89 14.1692 168.292 14.495 167.821 15.6025C166.522 18.6339 165.254 21.6769 163.97 24.7159C163.621 25.5437 163.265 26.3715 163.004 26.9809H163.008Z" fill="black"/>
<path d="M171.278 35.9918C171.6 35.8998 172.132 35.7465 172.665 35.597C174.968 34.957 177.275 34.3285 179.578 33.6808C180.594 33.3973 180.954 32.7074 180.44 31.7953C179.306 29.768 178.11 27.7675 176.892 25.79C176.382 24.9622 175.413 24.9008 174.669 25.5677C172.627 27.3996 170.6 29.2544 168.553 31.0825C167.925 31.6458 167.768 32.1287 168.457 32.8071C169.178 33.5161 169.603 34.455 170.109 35.3249C170.324 35.6929 170.554 36.0454 171.278 35.9956V35.9918Z" fill="black"/>
</g>
<defs>
<clipPath id="clip0_10172_9817">
<rect width="232" height="186.588" fill="white" transform="matrix(-1 0 0 1 241.624 9.80273)"/>
</clipPath>
</defs>
</svg>
