<svg width="127" height="127" viewBox="0 0 127 127" fill="none" xmlns="http://www.w3.org/2000/svg">
<rect y="0.179688" width="126.82" height="126.82" rx="6.08342" fill="#D9D9D9"/>
<g clip-path="url(#clip0_10173_2417)">
<path d="M90.9019 85.4264C91.0903 85.4096 91.2227 85.1933 91.3906 85.044C94.5783 82.2109 97.7623 79.3722 100.948 76.5353C101.09 76.4085 101.224 76.2705 101.383 76.1698C101.638 76.0094 101.864 76.1306 101.86 76.4346C101.856 76.6677 101.802 76.9028 101.754 77.134C100.499 83.136 99.2395 89.138 97.9824 95.1381C97.9581 95.2538 97.9544 95.3769 97.9134 95.485C97.7921 95.8096 97.8947 95.942 98.2398 96.0147C99.9073 96.3691 101.567 96.7533 103.231 97.1208C105.22 97.5609 107.21 97.9918 109.194 98.4431C109.448 98.5009 109.836 98.4506 109.886 98.818C109.937 99.1854 109.556 99.2395 109.321 99.3608C106.605 100.76 103.878 102.136 101.174 103.555C100.672 103.818 100.334 103.768 99.8943 103.449C97.9936 102.076 96.0686 100.735 94.1493 99.3869C93.918 99.2246 93.7091 99.025 93.42 98.956C93.267 98.943 93.3024 99.0735 93.2838 99.15C93.2446 99.3085 93.1588 99.4037 92.9891 99.3943C92.8193 99.385 92.741 99.2638 92.7093 99.1183C92.6235 98.7248 92.5321 98.3312 92.4687 97.9358C91.9184 94.5226 91.1443 91.1505 90.5251 87.7503C90.07 85.2511 89.8405 82.735 89.6708 80.204C89.4414 76.7461 89.8293 73.346 90.5754 69.9813C90.9037 68.5022 91.4316 67.0754 91.9856 65.6635C92.0714 65.4434 92.1423 65.242 92.1049 64.9846C91.7711 62.6886 91.4316 60.3926 91.1537 58.0892C91.066 57.3693 90.8198 56.9104 90.1408 56.571C88.7232 55.8622 87.3541 55.0565 85.9664 54.2843C85.6978 54.1351 85.4516 53.9337 85.1438 54.2209C85.0394 54.3179 84.8734 54.2974 84.7316 54.2825C79.4828 53.7229 75.0267 51.6489 71.7476 47.3964C69.9513 45.065 68.9609 42.4109 68.8042 39.4584C68.7986 39.3484 68.8303 39.2216 68.7277 39.1395C68.6456 39.1059 68.586 39.132 68.5281 39.1824C66.7468 40.7435 64.6204 41.5791 62.3355 42.0174C57.4485 42.9555 52.7182 42.4314 48.1838 40.3537C46.8632 39.7475 45.6359 38.9754 44.6137 37.9328C44.2462 37.5579 43.9553 37.5485 43.5039 37.7313C39.488 39.3558 35.4628 40.958 31.4413 42.5657C30.8705 42.7951 30.2979 43.0227 29.7271 43.254C29.5741 43.3155 29.4305 43.4069 29.2552 43.3883C29.0071 43.3603 28.9381 43.2129 28.9941 42.9891C29.037 42.8157 29.1918 42.728 29.3111 42.618C32.262 39.8743 35.2147 37.1345 38.1655 34.3909C38.74 33.8556 38.727 33.8593 38.4546 33.1524C36.2984 27.5477 36.6789 22.1761 40.1184 17.1832C42.6179 13.5555 46.1544 11.3491 50.4109 10.3232C59.1925 8.20633 68.5673 12.2891 72.9749 19.9977C74.0194 21.8236 74.745 23.7652 75.0957 25.843C75.1237 26.0053 75.1311 26.1731 75.2393 26.3223C75.4333 26.3969 75.534 26.2253 75.6553 26.1395C78.483 24.1867 81.6036 23.0658 85.0244 22.717C86.3693 22.5809 87.7067 22.4167 89.0627 22.4522C91.6032 22.5156 94.0243 23.1591 96.4062 23.9741C97.4582 24.3341 98.4934 24.7426 99.5287 25.1529C99.9204 25.3077 100.278 25.3263 100.694 25.2088C106.939 23.4538 113.188 21.7173 119.435 19.9772C119.685 19.9081 119.936 19.8335 120.19 19.7832C120.386 19.744 120.576 19.785 120.681 19.9809C120.781 20.1674 120.738 20.3353 120.606 20.5031C120.224 20.9862 119.841 21.4693 119.479 21.9672C116.779 25.6863 114.137 29.4464 111.629 33.2998C111.28 33.8351 110.981 34.4021 110.653 34.9523C110.521 35.1724 110.463 35.3365 110.715 35.5491C111.125 35.8979 111.175 36.4108 111.188 36.9163C111.196 37.2464 111.188 37.5765 111.188 37.8973C111.444 38.0484 111.61 37.8376 111.798 37.791C112.429 37.6306 112.871 37.8656 113.033 38.5035C113.132 38.8952 113.154 39.2943 113.119 39.7028C113.031 40.6987 112.802 41.6649 112.531 42.6236C112.5 42.7355 112.449 42.8474 112.535 42.9966C112.979 42.7299 113.417 42.4632 113.861 42.2039C114.171 42.023 114.499 41.8831 114.855 41.8383C115.385 41.7731 115.721 42.0547 115.768 42.5881C115.809 43.0488 115.674 43.4778 115.51 43.9012C115.115 44.9233 114.563 45.8633 113.96 46.7716C112.145 49.5115 110.01 51.9772 107.605 54.2153C107.277 54.5212 106.924 54.8028 106.605 55.1199C106.111 55.6123 105.753 56.1737 105.596 56.8787C105.365 57.9232 105.369 58.9472 105.708 59.9599C106.135 61.2375 106.576 62.5114 107.027 63.7797C107.156 64.1434 107.281 64.522 107.223 64.8857C107.154 65.311 107.26 65.6765 107.383 66.057C110.894 76.9139 114.395 87.7746 117.928 98.6259C118.26 99.648 118.677 100.648 119.062 101.655C119.306 102.298 119.299 102.308 118.793 102.746C117.7 103.693 116.62 104.654 115.503 105.57C115.128 105.878 115.07 106.148 115.204 106.599C116.398 110.639 117.569 114.688 118.745 118.734C119.05 119.79 118.959 119.879 117.853 119.685C113.026 118.842 108.198 118.003 103.369 117.169C102.366 116.996 102.323 116.928 102.785 116.009C106.637 108.351 110.491 100.692 114.341 93.0324C114.551 92.6127 114.721 92.1726 114.932 91.7529C115.063 91.4937 114.904 91.2904 114.837 91.0796C113.899 88.1495 112.947 85.2212 112 82.293C111.336 80.2432 110.677 78.1916 110.008 76.1455C109.935 75.9236 109.911 75.6774 109.691 75.433C109.301 75.6997 108.902 75.9721 108.501 76.2462C108.305 76.3805 108.12 76.5335 107.913 76.6435C107.601 76.8095 107.411 76.72 107.361 76.3693C107.294 75.9012 107.262 75.4274 107.221 74.9556C107.115 73.7302 107.012 72.5048 106.908 71.2775C106.643 71.2775 106.66 71.4864 106.605 71.6263C106.244 72.5775 105.887 73.5325 105.527 74.4837C105.47 74.6385 105.41 74.7952 105.326 74.9369C105.225 75.1048 105.057 75.1365 104.895 75.0358C104.755 74.95 104.63 74.8362 104.507 74.7262C103.289 73.635 102.071 72.5439 100.857 71.4491C100.293 70.9437 100.292 70.9157 100.795 70.3095C102.265 68.5432 103.742 66.7807 105.208 65.0107C105.369 64.8167 105.585 64.6526 105.669 64.3299C105.033 64.3784 104.432 64.4176 103.832 64.4735C101.427 64.6955 99.0232 64.9268 96.6189 65.1487C95.4867 65.2532 94.3563 65.3688 93.2222 65.4397C92.7317 65.4695 92.5302 65.7269 92.381 66.1447C91.551 68.4686 90.859 70.8262 90.5754 73.29C90.3721 75.0563 90.1408 76.8207 90.1931 78.6C90.2583 80.8251 90.4318 83.0446 90.7247 85.2529C90.734 85.3182 90.7303 85.4003 90.8981 85.4357L90.9019 85.4264Z" fill="black"/>
<path d="M108.059 36.5496C108.117 36.5683 108.175 36.5888 108.232 36.6074C108.411 36.4209 108.564 36.1953 108.773 36.0535C109.264 35.7196 109.531 35.2366 109.803 34.7349C110.187 34.028 110.583 33.3248 111.026 32.6534C113.532 28.8597 116.089 25.1015 118.836 21.4757C118.92 21.3656 119.041 21.2742 119.038 21.1045C118.767 20.9833 118.532 21.1567 118.297 21.2201C115.013 22.1247 111.732 23.0424 108.451 23.9581C105.83 24.6893 103.211 25.4279 100.59 26.1534C100.307 26.2317 100.038 26.3492 99.7044 26.1907C98.3577 25.551 96.9531 25.0492 95.5355 24.5904C93.2749 23.8574 90.9806 23.3203 88.5837 23.2923C86.9889 23.2736 85.4203 23.4807 83.8553 23.7455C79.416 24.499 75.6575 26.4761 72.7962 29.9974C68.4278 35.3727 68.5994 42.6691 73.2029 47.8262C75.8441 50.7843 79.1996 52.461 83.0626 53.1828C83.3405 53.2351 83.6259 53.347 84.0903 53.2612C83.5643 52.9665 83.1782 52.752 82.794 52.5319C82.1113 52.144 82.074 52.019 82.4825 51.3793C82.9022 50.7209 83.3536 50.0811 83.7602 49.4134C83.9933 49.0311 84.3067 48.8595 84.7376 48.811C86.0321 48.6674 87.3247 48.5088 88.6173 48.3503C91.5551 47.9922 94.491 47.6154 97.4306 47.2834C97.9249 47.2275 98.1674 47.0055 98.3894 46.6045C100.408 42.9582 102.459 39.3324 104.451 35.673C104.81 35.0165 105.315 34.6248 105.932 34.3208C107.052 33.7687 107.919 34.2555 108.051 35.5014C108.089 35.8465 108.057 36.199 108.057 36.5459L108.059 36.5496Z" fill="white"/>
<path d="M107.212 36.2164C107.212 36.0038 107.234 35.7874 107.208 35.5785C107.133 34.9966 106.855 34.8325 106.329 35.0749C105.846 35.2969 105.47 35.6289 105.207 36.1138C104.38 37.632 103.528 39.1353 102.687 40.6461C101.431 42.901 100.174 45.1541 98.9226 47.4128C98.7323 47.756 98.5327 48.0339 98.085 48.0805C96.9081 48.2017 95.7348 48.3603 94.5597 48.502C91.6686 48.8527 88.783 49.2462 85.8844 49.5278C84.9033 49.623 84.312 50.0128 83.8438 50.8502C83.2936 51.8331 83.2395 51.8033 84.2169 52.3423C86.5373 53.6255 88.8539 54.9143 91.1817 56.1845C91.6182 56.4232 91.8551 56.7142 91.8887 57.2289C91.9297 57.865 92.0547 58.4954 92.1405 59.1295C92.3811 60.8883 92.631 62.6472 92.8511 64.4078C92.8978 64.7846 93.0582 64.8872 93.407 64.8499C94.0188 64.7827 94.6325 64.7361 95.2461 64.6801C98.2399 64.4041 101.234 64.1262 104.227 63.8502C104.77 63.7998 105.311 63.7457 105.854 63.7028C106.165 63.6786 106.277 63.5275 106.184 63.2309C106.135 63.0724 106.07 62.9195 106.018 62.7628C105.692 61.7743 105.305 60.8007 105.054 59.7935C104.498 57.5647 105.013 55.6492 106.798 54.1011C109.646 51.6298 112.015 48.7463 114.012 45.5532C114.413 44.9098 114.773 44.2421 115.025 43.524C115.104 43.302 115.188 43.0782 115.188 42.8357C115.188 42.4627 115.078 42.3769 114.703 42.4851C114.098 42.6604 113.61 43.039 113.112 43.4027C112.921 43.5408 112.765 43.7795 112.524 43.7776C112.164 43.7776 112.119 44.0145 112.03 44.2626C111.703 45.1504 111.371 46.0382 111.03 46.9204C110.868 47.34 110.683 47.7504 110.498 48.1607C110.411 48.3547 110.26 48.4703 110.045 48.3565C109.859 48.2577 109.901 48.0749 109.956 47.9164C110.01 47.7597 110.086 47.6123 110.148 47.4575C110.48 46.622 110.827 45.792 111.136 44.9471C111.668 43.5016 112.142 42.0375 112.408 40.5174C112.507 39.9579 112.563 39.3909 112.485 38.8201C112.451 38.5702 112.377 38.3427 112.05 38.3818C111.707 38.4229 111.474 38.697 111.164 38.8164C110.963 38.8947 111.004 39.1465 110.966 39.32C110.37 42.1438 109.301 44.7941 108.006 47.3587C107.887 47.5956 107.822 47.9462 107.436 47.8716C107.193 47.825 107.204 47.5825 107.464 47.0845C108.428 45.2306 109.221 43.3076 109.825 41.3101C110.204 40.0623 110.521 38.7996 110.607 37.4922C110.633 37.1135 110.636 36.733 110.51 36.3675C110.364 35.9478 110.148 35.8508 109.754 36.0635C109.549 36.1754 109.347 36.3171 109.189 36.4887C108.754 36.9569 108.342 37.4455 107.922 37.9267C107.824 38.0386 107.807 38.1822 107.771 38.3203C107.068 41.0695 105.893 43.6247 104.559 46.1128C104.492 46.2377 104.425 46.3646 104.339 46.4765C104.212 46.6443 104.037 46.7171 103.837 46.6294C103.606 46.5268 103.545 46.3217 103.617 46.096C103.675 45.9188 103.776 45.7547 103.865 45.5868C105.013 43.455 106.014 41.2634 106.703 38.9358C106.964 38.0498 107.195 37.1564 107.208 36.2239L107.212 36.2164Z" fill="white"/>
<path d="M49.8161 22.4749C48.9656 22.4898 48.2941 23.2246 48.3165 24.1162C48.337 24.9368 48.96 25.5747 49.7452 25.5766C50.5734 25.5766 51.3046 24.8175 51.299 23.9576C51.2934 23.1239 50.6294 22.4599 49.8161 22.4749Z" fill="black"/>
<path d="M53.3044 29.2287C53.2839 29.1951 53.2615 29.1037 53.213 29.0888C53.0078 29.0217 52.8511 28.9266 52.797 28.6934C52.7784 28.6076 52.6665 28.5703 52.5657 28.5685C52.3344 28.5629 52.1423 28.8146 52.146 29.1149C52.1498 29.4339 52.4016 29.6689 52.7373 29.6707C53.0264 29.6707 53.31 29.4674 53.3025 29.2306L53.3044 29.2287Z" fill="black"/>
<path d="M53.461 81.0398C53.1401 81.1387 52.948 81.3214 52.7354 81.4669C49.2846 83.8506 45.8377 86.2361 42.3869 88.6197C42.1818 88.7614 41.9878 89.0076 41.6968 88.8099C41.4655 88.6514 41.389 88.1627 41.5494 87.8401C41.971 86.9914 42.4056 86.1503 42.8365 85.3072C45.7742 79.5496 48.712 73.7901 51.6573 68.0343C51.8233 67.7079 51.9091 67.3106 52.3325 67.1633C52.4537 67.1222 52.4183 66.96 52.422 66.8443C52.5022 64.2816 53.3323 61.9278 54.4197 59.6431C54.5689 59.3297 54.7069 59.0126 54.8468 58.7049C54.7331 58.6322 54.6771 58.6825 54.6267 58.7179C53.5039 59.52 52.2952 60.169 51.0249 60.7024C50.7153 60.833 50.5773 60.9897 50.6164 61.3347C50.6911 61.9689 50.6127 62.6142 50.7377 63.2465C50.8403 63.7631 50.8179 63.8191 50.3348 63.9329C48.4714 64.373 46.8617 65.2944 45.4086 66.5105C43.7877 67.8664 42.5231 69.5133 41.514 71.3598C39.8297 74.4429 38.9511 77.759 38.6471 81.2468C38.4345 83.6902 38.5221 86.1186 38.9232 88.5358C38.9269 88.56 38.9306 88.5824 38.9306 88.6066C38.9306 88.8305 39.0463 89.1363 38.7012 89.1774C38.3673 89.2165 38.371 88.9051 38.3319 88.6794C38.1062 87.3477 37.9775 86.0048 37.9458 84.6526C37.9308 83.9979 37.9197 83.9849 37.25 84.0651C34.2638 84.4176 31.2793 84.7831 28.2949 85.1338C25.6612 85.4434 23.0275 85.7437 20.3937 86.0477C19.8528 86.1111 19.3137 86.1782 18.7728 86.2435C18.1629 86.3163 18.0155 86.1988 18.0677 85.6187C18.1722 84.4399 18.3196 83.2649 18.4016 82.0843C18.4539 81.3177 18.6087 81.3308 19.1962 81.2506C20.4404 81.0808 21.6863 80.9298 22.9305 80.7731C24.128 80.622 25.3255 80.4542 26.5267 80.3292C26.9874 80.2807 27.1441 80.014 27.2858 79.6316C28.6475 75.9461 30.024 72.2644 31.3969 68.5826C31.6493 67.9062 32.1162 67.6525 32.7977 67.8216C33.3945 67.9709 33.9877 68.1425 34.5902 68.2581C35.0714 68.3495 35.3102 68.6106 35.4519 69.0676C35.7765 70.1064 36.1477 71.1304 36.5021 72.1618C36.5767 72.3782 36.6233 72.6094 36.7763 72.8071C37.0393 72.74 37.1568 72.5162 37.3116 72.3502C38.1192 71.4829 38.9138 70.6044 39.7215 69.7371C40.1225 69.3063 40.1617 69.3082 40.6952 69.573C41.2796 69.864 41.7615 69.7427 42.1407 69.2093C43.9295 66.7044 46.1548 64.746 49.0832 63.6624C49.4078 63.543 49.8685 63.5747 50.0233 63.2502C50.152 62.9798 50.0662 62.6012 50.055 62.271C49.958 59.7158 49.8591 57.1587 49.7566 54.6035C49.6521 51.9774 49.5439 49.3494 49.4357 46.7233C49.432 46.6151 49.4805 46.4864 49.3406 46.3913C49.0981 46.4659 49.0161 46.7065 48.8836 46.8837C46.802 49.646 44.726 52.412 42.6481 55.1779C42.5343 55.329 42.4186 55.4801 42.3049 55.6312C42.1221 55.8774 41.9057 55.9352 41.6259 55.7804C41.3163 55.6088 40.9917 55.4596 40.6765 55.2992C39.3261 54.6109 37.9793 53.9171 36.6289 53.2307C36.1234 52.9734 36.1104 52.9752 35.825 53.4788C34.0567 56.588 32.294 59.699 30.5295 62.81C30.2031 63.3864 29.8692 63.9608 29.5503 64.5409C29.3973 64.8188 29.2033 65.0351 28.9217 65.1937C28.0954 65.6562 27.2802 66.1393 26.4539 66.6056C26.2581 66.7156 26.0529 66.9301 25.8141 66.7287C25.5959 66.544 25.706 66.281 25.7526 66.0591C26.0921 64.4625 26.4465 62.8679 26.7915 61.2713C27.7354 56.9218 28.6773 52.5705 29.6193 48.221C29.6435 48.1054 29.6752 47.9897 29.692 47.8741C29.7256 47.6484 29.6566 47.4973 29.3954 47.5197C29.1828 47.5384 28.972 47.5682 28.7613 47.5869C26.9221 47.7529 25.083 47.9189 23.2438 48.083C21.5688 48.2322 19.8957 48.3833 18.2207 48.5306C17.8309 48.5642 17.5063 48.7041 17.206 48.9708C16.4636 49.6348 15.6951 50.267 14.9397 50.9142C14.5424 51.2537 14.4118 51.1698 14.8502 51.8151C16.1409 53.7157 17.4242 55.6237 18.7094 57.528C18.8027 57.666 18.8978 57.8003 18.9873 57.9402C19.1272 58.164 19.1253 58.3841 18.9631 58.6004C18.48 59.2458 18.0118 59.9004 17.5138 60.5346C17.2433 60.8815 17.1109 60.8778 16.6781 60.5514C15.656 59.7829 14.6413 59.0014 13.6228 58.2274C12.9458 57.7126 12.2687 57.1979 11.6102 56.6961C11.3845 56.8006 11.392 56.9815 11.3491 57.1363C10.5899 59.9713 9.8084 62.8007 9.08655 65.645C8.92241 66.296 8.62583 66.6224 7.96926 66.6951C7.52533 66.7455 7.09259 66.8928 6.64866 66.9655C6.16556 67.0439 6.02567 66.9189 6.10214 66.4303C6.24577 65.494 6.42483 64.5651 6.59084 63.6326C7.40782 59.0649 8.2248 54.4972 9.03992 49.9295C9.13505 49.396 9.11639 49.3867 8.55309 49.4427C8.12967 49.4856 7.70439 49.5154 7.28098 49.5658C7.01798 49.5975 6.76244 49.5732 6.74752 49.2655C6.73446 49.0062 6.98627 48.9484 7.20824 48.9279C8.29382 48.8309 9.37939 48.7395 10.4631 48.6407C13.3412 48.3777 16.2174 48.111 19.0955 47.8498C21.996 47.5869 24.8983 47.3295 27.7988 47.0628C30.5817 46.8072 33.3628 46.5405 36.1458 46.285C39.022 46.0202 41.9001 45.7646 44.7782 45.5016C46.1454 45.3767 47.5127 45.2424 48.8799 45.1137C49.0216 45.1006 49.1634 45.0857 49.3052 45.0801C49.7217 45.0615 49.991 45.2934 50.1128 45.7758C51.6517 45.4009 53.1998 45.0652 54.7741 44.8787C58.6277 44.4199 62.4403 44.5094 66.1428 45.8131C69.0806 46.8464 71.5521 48.525 73.2793 51.1772C73.8911 52.1154 74.3574 53.1226 74.6726 54.1969C74.7547 54.4785 74.8554 54.6165 75.2247 54.6743C81.2588 55.5957 85.4351 59.934 86.3062 65.5872C86.9367 69.683 86.0656 73.5159 84.0325 77.0727C80.897 82.5562 76.2935 86.2137 70.1438 87.7934C66.7322 88.6701 63.3356 88.5619 60.0416 87.1873C57.2978 86.0421 55.205 84.1602 53.7575 81.562C53.6661 81.3979 53.5729 81.2375 53.4572 81.0342L53.461 81.0398Z" fill="black"/>
<path d="M42.2525 87.8189C42.5416 87.8375 42.6479 87.6939 42.7766 87.6044C46.2069 85.2375 49.6371 82.8651 53.0654 80.4945C53.1829 80.4143 53.2855 80.308 53.4105 80.2483C53.6567 80.129 53.8898 80.1364 53.9551 80.4628C54.0129 80.75 54.1528 80.9925 54.289 81.2424C55.4511 83.3873 57.113 85.0342 59.2748 86.1552C62.457 87.8077 65.8275 88.1024 69.295 87.3731C74.2677 86.3286 78.3023 83.7212 81.4714 79.7951C84.3065 76.2831 85.9349 72.301 85.9013 67.7091C85.8566 61.5747 81.781 56.5854 75.7599 55.3675C75.5175 55.319 75.2601 55.2108 74.9989 55.3824C75.1743 56.4903 75.2824 57.5945 75.2395 58.7117C75.1444 61.1587 74.4916 63.464 73.5869 65.7246C73.3053 66.4259 72.8483 66.7784 72.1805 66.9742C71.3356 67.2223 70.5167 67.1831 69.7333 66.7168C69.6512 66.8996 69.5934 67.0283 69.5375 67.157C69.2651 67.7911 68.9555 68.4048 68.4761 68.9102C67.702 69.729 66.8701 69.7421 66.055 68.9755C65.9095 68.8393 65.8387 68.6043 65.5906 68.5894C65.3406 69.0799 65.1037 69.5705 64.8445 70.0479C64.6412 70.4266 64.3744 70.7604 64.0256 71.0178C63.4754 71.4244 62.8841 71.3629 62.4439 70.8499C62.3059 70.6895 62.1958 70.5086 62.0708 70.3352C61.875 70.4862 61.8377 70.7082 61.7388 70.8928C61.349 71.6221 60.8006 72.2022 60.0937 72.6218C59.1405 73.1888 58.4149 72.9314 58.0027 71.9C57.7546 71.2789 57.6614 70.6205 57.5756 69.964C57.335 68.1287 57.2697 66.2841 57.251 64.4376C57.2492 64.1411 57.3014 63.8315 57.0962 63.5032C56.9283 63.7214 56.7828 63.9023 56.6467 64.0889C56.0367 64.9338 55.4305 65.7824 54.8187 66.6254C54.5669 66.9705 54.2946 67.2987 53.9495 67.558C53.6529 67.7799 53.2985 67.9665 52.9647 67.7594C52.5711 67.5151 52.4741 67.7408 52.3491 68.0168C52.3006 68.125 52.2409 68.2276 52.1887 68.3339C49.5083 73.5861 46.8298 78.8364 44.1495 84.0886C43.5265 85.3103 42.9053 86.5338 42.2488 87.8226L42.2525 87.8189Z" fill="white"/>
<path d="M50.6574 60.265C52.4201 59.4667 54.0429 58.6088 55.3579 57.2622C55.5388 57.0756 55.7328 56.9003 55.9324 56.7362C56.0499 56.6392 56.1935 56.628 56.3166 56.7511C56.4416 56.8742 56.4211 57.0048 56.3297 57.1335C55.8634 57.7975 55.5854 58.5584 55.2422 59.2821C54.3823 61.1025 53.5635 62.9452 53.2408 64.9577C53.1438 65.5657 53.017 66.1719 53.0244 66.7892C53.03 67.1977 53.2334 67.3021 53.5672 67.0802C53.8265 66.9086 54.028 66.6699 54.2089 66.4199C55.0669 65.2281 55.9175 64.0307 56.7792 62.8408C56.934 62.6281 56.9825 62.2066 57.3462 62.3111C57.6801 62.408 57.6838 62.8016 57.7081 63.0944C57.7752 63.8964 57.8181 64.7003 57.8499 65.506C57.9151 67.2108 58.0009 68.9136 58.2901 70.5978C58.3628 71.0175 58.4449 71.439 58.6351 71.8251C58.8683 72.2951 59.1406 72.3995 59.6163 72.1813C59.8289 72.0843 60.0266 71.9445 60.2113 71.7971C60.9051 71.2488 61.3379 70.527 61.558 69.6765C61.9404 68.2011 62.1325 66.6978 62.1381 65.1778C62.1437 63.4954 62.2034 61.8149 62.291 60.1345C62.3004 59.9461 62.3283 59.7577 62.3582 59.5712C62.3862 59.4015 62.4477 59.2261 62.6566 59.2429C62.8916 59.2616 62.9532 59.4462 62.9476 59.6551C62.9476 59.726 62.9345 59.7969 62.9289 59.8677C62.817 61.1192 62.7909 62.3745 62.7741 63.6297C62.7517 65.2636 62.7555 66.9049 62.4104 68.5108C62.2817 69.1057 62.3862 69.5888 62.6659 70.098C63.0502 70.7974 63.427 70.8608 63.9642 70.2546C64.3801 69.7884 64.6412 69.2288 64.8669 68.6544C65.6075 66.7613 65.9525 64.7842 66.0756 62.7662C66.1335 61.8187 66.1148 60.8712 65.9618 59.9312C65.9301 59.7335 65.9507 59.5171 66.1838 59.4742C66.4617 59.4201 66.5513 59.6346 66.5774 59.864C66.6147 60.1923 66.6501 60.5224 66.6669 60.8544C66.7695 63.0478 66.5308 65.2057 65.9656 67.3264C65.9208 67.4943 65.7679 67.6677 65.9301 67.858C66.1446 68.1097 66.3293 68.3914 66.5681 68.6171C67.0139 69.0367 67.4317 69.0311 67.8943 68.6339C68.2412 68.3354 68.4743 67.9493 68.6814 67.5465C69.1291 66.6792 69.4275 65.756 69.67 64.8141C70.2482 62.5573 70.5168 60.2538 70.6698 57.9355C70.6847 57.7023 70.6567 57.3964 70.985 57.402C71.3263 57.4076 71.2517 57.721 71.2648 57.9485C71.2648 57.9728 71.2648 57.9952 71.261 58.0194C71.1678 59.6048 71.0018 61.1808 70.7313 62.7456C70.5784 63.6334 70.3918 64.5119 70.1475 65.3792C70.0486 65.7336 70.2202 66.2465 70.4571 66.3864C71.1398 66.7874 72.6115 66.3472 72.9398 65.6273C73.3837 64.6574 73.7381 63.6502 74.016 62.6207C74.6222 60.3769 74.8703 58.1052 74.4413 55.7999C73.7306 51.9782 71.5725 49.216 68.1871 47.3788C65.5925 45.9707 62.7723 45.3925 59.8606 45.2563C56.74 45.109 53.668 45.5174 50.6444 46.2896C50.0251 46.4481 50.0233 46.4556 50.0475 47.0953C50.1911 50.6932 50.3347 54.291 50.4858 57.887C50.5175 58.6424 50.497 59.4015 50.6574 60.265Z" fill="white"/>
<path d="M98.755 20.1851C98.5908 20.159 98.4826 20.0639 98.3763 19.9706C97.6116 19.301 96.8506 18.624 96.0783 17.9619C95.8172 17.738 95.7799 17.5534 95.9869 17.2438C96.291 16.7831 96.7032 16.4287 97.0613 16.0221C99.5701 13.1554 102.084 10.2943 104.599 7.43134C104.709 7.30638 104.811 7.17582 104.927 7.05831C105.337 6.64985 105.505 6.63493 105.955 6.98557C106.554 7.44999 107.154 7.91068 107.731 8.40121C108.299 8.88427 108.299 8.99618 107.841 9.54826C105.045 12.9148 102.247 16.2814 99.447 19.6461C99.2549 19.8773 99.0926 20.1608 98.755 20.1851Z" fill="black"/>
<path d="M57.4058 88.112C57.3927 88.2369 57.3741 88.4719 57.3405 88.7051C56.7007 93.1012 56.0591 97.4992 55.4156 101.895C55.3913 102.059 55.3764 102.227 55.3279 102.382C55.2626 102.589 55.1209 102.716 54.8989 102.593C54.136 102.169 53.2575 102.194 52.4479 101.953C52.336 101.92 52.2167 101.908 52.101 101.884C51.3512 101.718 51.2672 101.606 51.4183 100.879C52.3099 96.5983 53.2071 92.3178 54.1062 88.0374C54.1397 87.877 54.1957 87.7203 54.2628 87.5711C54.4792 87.1029 54.4829 87.1067 55.0164 87.1999C55.645 87.3081 56.2754 87.4032 56.9022 87.5226C57.32 87.6028 57.3517 87.6494 57.4077 88.1138L57.4058 88.112Z" fill="black"/>
<path d="M105.158 22.2363C104.94 22.2307 104.812 22.0908 104.724 21.9173C104.259 20.9866 103.804 20.0503 103.34 19.1196C103.243 18.9256 103.271 18.7708 103.409 18.6011C103.562 18.4146 103.739 18.2785 103.952 18.1609C106.61 16.7117 109.264 15.2551 111.92 13.8003C112.065 13.7201 112.207 13.6324 112.36 13.5727C112.61 13.4757 112.869 13.5224 112.978 13.763C113.453 14.8336 114.1 15.8314 114.354 17.0008C114.412 17.2694 114.339 17.4037 114.13 17.5175C114.026 17.5734 113.923 17.6294 113.819 17.6853C111.148 19.1084 108.475 20.5334 105.802 21.9565C105.595 22.0665 105.397 22.2064 105.155 22.2344L105.158 22.2363Z" fill="black"/>
<path d="M95.9625 11.0022C95.9625 12.3022 95.9681 13.6022 95.9607 14.9022C95.957 15.6501 95.8376 15.7583 95.084 15.7471C94.5412 15.7378 93.9966 15.721 93.4538 15.7005C92.6499 15.6706 92.6349 15.6632 92.4727 14.8985C92.0716 13.0035 91.6799 11.1085 91.2826 9.21168C91.1576 8.61111 91.0196 8.0124 90.9021 7.40997C90.7902 6.83364 90.9021 6.66765 91.4766 6.61169C92.7468 6.48673 94.0171 6.37109 95.2892 6.2741C95.9364 6.22561 96.0912 6.37296 96.0987 7.03321C96.1136 8.35559 96.1024 9.67983 96.1024 11.0022C96.0558 11.0022 96.0073 11.0022 95.9607 11.0022H95.9625Z" fill="black"/>
<path d="M45.6251 97.4059C45.5543 97.3649 45.4274 97.3034 45.3118 97.225C44.6459 96.7718 43.98 96.3204 43.3234 95.8579C42.8869 95.5501 42.9075 95.4998 43.2973 95.0689C45.4405 92.6984 47.5743 90.3203 49.7119 87.9441C50.1621 87.4443 50.6526 87.4138 51.1836 87.8528C51.6219 88.2146 52.0715 88.5634 52.493 88.9439C52.7728 89.1956 52.7616 89.3299 52.4389 89.5482C52.2132 89.6992 52.0603 89.9025 51.8943 90.0984C50.0794 92.2526 48.2682 94.4105 46.4589 96.5704C46.2929 96.7681 46.1064 96.9509 46.0206 97.2082C45.9721 97.3574 45.8527 97.4321 45.627 97.4078L45.6251 97.4059Z" fill="black"/>
<path d="M89.1525 39.1217C89.1152 40.1401 88.7421 40.9216 87.8729 41.3953C87.0298 41.8541 86.1867 41.7702 85.3753 41.2871C84.245 40.6138 83.6742 39.2355 84.0006 37.9877C84.4166 36.4005 85.989 35.6731 87.457 36.4191C88.5686 36.9843 89.1002 37.9355 89.1543 39.1217H89.1525Z" fill="black"/>
<path d="M94.8809 37.041C94.8809 37.7218 94.6776 38.3877 94.159 38.9285C93.454 39.6653 92.4486 39.7119 91.6745 39.0516C90.5031 38.0538 90.4304 35.9108 91.5272 34.8402C92.249 34.1352 93.2656 34.1165 94.0154 34.8122C94.644 35.396 94.8846 36.1439 94.879 37.041H94.8809Z" fill="black"/>
<path d="M99.2622 32.1388C100.437 32.15 101.396 33.2075 101.359 34.4534C101.321 35.7124 100.344 36.7233 99.1746 36.7083C97.9939 36.6953 97.0762 35.6657 97.0985 34.3807C97.1209 33.0993 98.0591 32.1276 99.2622 32.1388Z" fill="black"/>
<path d="M51.7376 24.4462C51.7227 25.2443 51.0451 25.9155 50.2541 25.9155C49.5079 25.9155 48.9228 25.3458 48.9109 24.6041C48.8959 23.7919 49.6571 23.0304 50.4511 23.0615C51.1675 23.0897 51.7496 23.7158 51.7376 24.4434V24.4462Z" fill="white"/>
<path d="M66.0384 76.8053C65.1449 76.7904 64.4343 76.0238 64.438 75.0745C64.4399 74.0319 65.2699 73.2 66.2734 73.2355C67.0923 73.2634 67.8011 74.071 67.8011 74.9738C67.8011 75.994 67.0046 76.8202 66.0403 76.8053H66.0384Z" fill="black"/>
<path d="M79.0763 69.008C79.0801 69.92 78.3899 70.6269 77.4778 70.6437C76.5247 70.6624 75.8774 70.1215 75.8923 69.3176C75.9091 68.4111 76.7765 67.3648 77.5226 67.3536C78.2519 67.3424 79.0726 68.2153 79.0763 69.0061V69.008Z" fill="black"/>
<path d="M71.7256 70.4904C72.5221 70.4774 73.1768 71.1134 73.1973 71.9191C73.2178 72.751 72.524 73.5026 71.7088 73.5306C70.9198 73.5586 70.2689 72.9207 70.2521 72.1038C70.2334 71.2589 70.9236 70.5054 71.7256 70.4904Z" fill="black"/>
<path d="M55.7964 25.3818C55.7817 26.1721 55.1176 26.8367 54.3422 26.8367C53.6108 26.8367 53.0373 26.2726 53.0256 25.5382C53.011 24.7339 53.7571 23.98 54.5353 24.0107C55.2375 24.0386 55.8081 24.6585 55.7964 25.379V25.3818Z" fill="white"/>
<path d="M59.7431 26.3757C59.7278 27.1895 59.0368 27.8738 58.2302 27.8738C57.4691 27.8738 56.8725 27.293 56.8603 26.5367C56.8451 25.7086 57.6213 24.9322 58.4311 24.9638C59.1616 24.9926 59.7552 25.6309 59.7431 26.3728V26.3757Z" fill="white"/>
</g>
<defs>
<clipPath id="clip0_10173_2417">
<rect width="114.653" height="113.499" fill="white" transform="translate(6.0835 6.26367)"/>
</clipPath>
</defs>
</svg>
