<svg width="41" height="44" viewBox="0 0 41 44" fill="none" xmlns="http://www.w3.org/2000/svg">
<g id="Group 1171275283">
<path id="Vector" d="M4.81781 5.00868C5.66892 5.30359 6.32268 5.92446 7.06736 6.39286C8.94289 7.57251 10.8102 8.76739 12.6417 10.014C13.8628 10.8452 15.1509 11.5692 16.355 12.4226C16.7166 12.6789 16.8613 12.5669 16.9744 12.195C17.5662 10.249 18.1223 8.29047 18.7803 6.36699C19.2358 5.03546 19.6393 3.68871 20.0875 2.35597C20.3475 1.58261 20.5905 0.803787 20.8502 0C21.0317 0.146696 21.0433 0.30374 21.0834 0.448611C21.6289 2.41806 22.1765 4.3872 22.7208 6.35695C23.1602 7.94656 23.6008 9.53587 24.0281 11.1285C24.1086 11.4292 24.1843 11.5023 24.5161 11.369C28.4578 9.78331 32.4087 8.21956 36.3577 6.65216C36.6782 6.52494 37.0057 6.41507 37.4767 6.24342C37.2432 6.6202 37.0799 6.89016 36.9105 7.15586C35.0334 10.1004 33.1582 13.0459 31.2736 15.9853C31.0811 16.2854 30.988 16.5307 31.407 16.6741C33.0269 17.2277 34.588 17.9387 36.1996 18.5057C37.8151 19.0742 39.3732 19.7708 41 20.3817C40.8556 20.616 40.6442 20.6504 40.4575 20.7152C37.3231 21.8033 34.1881 22.8898 31.0525 23.9739C29.966 24.3495 29.9849 24.3379 30.4203 25.3925C31.0054 26.8098 31.5913 28.2272 32.1666 29.6485C32.5832 30.6778 33.1147 31.6706 33.4836 32.7188C33.9689 34.0978 34.6862 35.3718 35.187 36.7398C35.2387 36.8807 35.2846 37.0238 35.3767 37.2925C34.5077 36.931 33.7457 36.6132 32.9831 36.2973C30.2847 35.1788 27.6323 33.9511 24.9035 32.9032C24.552 32.7681 24.1658 32.4239 23.8623 32.5395C23.5297 32.6661 23.6394 33.1966 23.582 33.5487C23.3898 34.7257 23.2396 35.9096 23.0717 37.0904C22.9665 37.8291 22.8568 38.5672 22.7519 39.3058C22.6445 40.0627 22.5308 40.8187 22.4387 41.5775C22.3845 42.0236 22.1571 42.4415 22.2331 42.9096C22.248 43.0006 22.2611 43.1394 22.1221 43.1643C21.9883 43.1884 21.9558 43.0636 21.9181 42.9696C21.5587 42.0687 21.2023 41.1666 20.8432 40.2654C19.9212 37.9524 18.9865 35.6445 18.0867 33.3229C17.9244 32.9041 17.7045 33.0691 17.4886 33.1653C15.6593 33.9812 13.837 34.813 12.0083 35.6305C9.36677 36.8111 6.72193 37.9831 4.00015 39.1938C4.3094 38.5364 4.58459 37.9393 4.86951 37.347C6.93691 33.052 9.00158 28.7558 11.083 24.4676C11.2584 24.1063 11.1705 23.997 10.8282 23.8805C8.80819 23.1936 6.79399 22.4893 4.77859 21.7893C3.35582 21.2953 1.93336 20.7995 0.511808 20.3019C0.466196 20.2861 0.430317 20.2423 0.300781 20.1434C0.979781 19.9483 1.58884 19.7666 2.20155 19.5983C4.05306 19.0894 5.90671 18.5881 7.75792 18.0787C8.40772 17.8997 9.04719 17.6806 9.70278 17.5275C10.1166 17.431 10.2027 17.2776 10.026 16.8865C9.13446 14.914 8.25994 12.9339 7.38238 10.9551C6.55438 9.08848 5.72913 7.22099 4.90691 5.35198C4.85947 5.24394 4.85126 5.11885 4.82481 5.00168L4.81781 5.00837V5.00868Z" fill="#F87171"/>
</g>
</svg>
