<svg width="100" height="100" viewBox="0 0 100 100" fill="none" xmlns="http://www.w3.org/2000/svg">
<rect width="100" height="100" rx="8" fill="#FF3717"/>
<path d="M62.0006 33.0814V56.7095C62.0006 56.9963 61.8826 57.2714 61.6724 57.4742C61.4622 57.677 61.1772 57.7909 60.8799 57.7909H43.3521C43.0549 57.7909 42.7699 57.677 42.5597 57.4742C42.3495 57.2714 42.2314 56.9963 42.2314 56.7095V40.0779L48.3953 32H60.8799C61.1772 32 61.4622 32.1139 61.6724 32.3167C61.8826 32.5195 62.0006 32.7946 62.0006 33.0814Z" fill="#EDEEEF"/>
<path d="M48.3946 32.0098V38.9468C48.3946 39.2336 48.2766 39.5087 48.0664 39.7115C47.8562 39.9143 47.5712 40.0282 47.2739 40.0282H42.2588L48.3946 32.0098Z" fill="#CFD0D1"/>
<path d="M54.4295 46.7715H39.1207C38.5018 46.7715 38 47.2556 38 47.8529V53.2814C38 53.8786 38.5018 54.3628 39.1207 54.3628H54.4295C55.0484 54.3628 55.5502 53.8786 55.5502 53.2814V47.8529C55.5502 47.2556 55.0484 46.7715 54.4295 46.7715Z" fill="#FF3717"/>
<path d="M43.6889 51.0032V52.1711H42.7139V48.9648H44.0587C44.3205 48.9512 44.5822 48.9918 44.8264 49.0838C45.0002 49.1597 45.1465 49.284 45.2467 49.4406C45.348 49.6039 45.4004 49.7911 45.3979 49.9813C45.4045 50.1194 45.3799 50.2572 45.3257 50.3851C45.2715 50.513 45.1891 50.628 45.0842 50.7221C44.8506 50.9181 44.5472 51.019 44.238 51.0032H43.6889ZM43.6889 50.3166H44.0139C44.2997 50.3166 44.4397 50.2084 44.4397 49.9976C44.4397 49.7867 44.3109 49.6948 44.0475 49.6948H43.6889V50.3166ZM45.7622 52.1711V48.9648H46.9893C47.213 48.9486 47.4375 48.9832 47.6447 49.0658C47.852 49.1485 48.0363 49.2768 48.1829 49.4406C48.4469 49.7532 48.5878 50.1459 48.5807 50.5491C48.6044 50.9774 48.4513 51.3973 48.1549 51.717C48.0142 51.8675 47.8408 51.9863 47.6471 52.0648C47.4534 52.1433 47.2441 52.1796 47.0342 52.1711H45.7622ZM46.7372 51.4304H46.9893C47.0732 51.429 47.1552 51.4063 47.227 51.3645C47.2988 51.3227 47.358 51.2634 47.3984 51.1925C47.5158 50.9976 47.5722 50.7742 47.5609 50.5491C47.5653 50.3387 47.5152 50.1305 47.4152 49.9435C47.3759 49.8674 47.3151 49.8036 47.2397 49.7595C47.1643 49.7155 47.0775 49.693 46.9893 49.6948H46.7372V51.4304ZM50.9734 50.9708H49.9424V52.1711H48.9954V48.9648H51.2872V49.7272H49.9424V50.2679H50.9734V50.9708Z" fill="#EDEEEF"/>
</svg>
