<svg width="40" height="40" viewBox="0 0 40 40" fill="none" xmlns="http://www.w3.org/2000/svg">
<path fill-rule="evenodd" clip-rule="evenodd" d="M4.79232 19.7923C4.79232 11.508 11.508 4.79232 19.7923 4.79232C28.0766 4.79232 34.7923 11.508 34.7923 19.7923C34.7923 28.0766 28.0766 34.7923 19.7923 34.7923C11.508 34.7923 4.79232 28.0766 4.79232 19.7923ZM19.7923 2.70898C10.3574 2.70898 2.70898 10.3574 2.70898 19.7923C2.70898 29.2272 10.3574 36.8757 19.7923 36.8757C29.2272 36.8757 36.8757 29.2272 36.8757 19.7923C36.8757 10.3574 29.2272 2.70898 19.7923 2.70898ZM18.6241 27.7085L27.0981 21.6573C28.378 20.7434 28.378 18.8413 27.0981 17.9274L18.6241 11.8761C17.1073 10.793 15.0007 11.8772 15.0007 13.7411V25.8436C15.0007 27.7074 17.1073 28.7917 18.6241 27.7085Z" fill="white"/>
</svg>
