<svg width="134" height="24" viewBox="0 0 134 24" fill="none" xmlns="http://www.w3.org/2000/svg">
<g clip-path="url(#clip0_8676_1329)">
<path d="M13.5468 9H10.8008V12H13.5468C14.3498 12 15.0008 11.328 15.0008 10.5C15.0008 9.672 14.3498 9 13.5468 9Z" fill="#FF6154"/>
<path d="M12 0C5.372 0 0 5.372 0 12C0 18.628 5.372 24 12 24C18.628 24 24 18.628 24 12C24 5.372 18.628 0 12 0ZM13.524 13.8H10.8V16.8H9V7.2H13.524C15.333 7.2 16.8 8.667 16.8 10.5C16.8 12.285 15.333 13.752 13.524 13.8Z" fill="#FF6154"/>
</g>
<path d="M28.5021 8V2.90909H31.7635V3.68217H29.4244V5.06428H31.5398V5.83736H29.4244V8H28.5021ZM33.6259 2.90909V8H32.7037V2.90909H33.6259ZM38.9082 2.90909V8H38.0879L35.6891 4.53232H35.6468V8H34.7246V2.90909H35.5499L37.9462 6.37926H37.9909V2.90909H38.9082ZM41.7382 8H40.0131V2.90909H41.773C42.2785 2.90909 42.7126 3.01101 43.0756 3.21484C43.4402 3.41702 43.7202 3.70786 43.9158 4.08736C44.1113 4.46686 44.2091 4.92093 44.2091 5.44957C44.2091 5.97988 44.1105 6.43561 43.9133 6.81676C43.7177 7.19792 43.4352 7.49041 43.0656 7.69425C42.6977 7.89808 42.2553 8 41.7382 8ZM40.9353 7.20206H41.6935C42.0481 7.20206 42.3439 7.13743 42.5809 7.00817C42.8179 6.87725 42.996 6.68253 43.1153 6.42401C43.2347 6.16383 43.2943 5.83902 43.2943 5.44957C43.2943 5.06013 43.2347 4.73698 43.1153 4.48011C42.996 4.22159 42.8195 4.02853 42.5859 3.90092C42.3539 3.77166 42.0655 3.70703 41.7208 3.70703H40.9353V7.20206ZM50.2308 2.90909H51.1531V6.23509C51.1531 6.59967 51.0669 6.92034 50.8945 7.19709C50.7238 7.47384 50.4835 7.6901 50.1737 7.84588C49.8638 8 49.5017 8.07706 49.0874 8.07706C48.6714 8.07706 48.3085 8 47.9986 7.84588C47.6887 7.6901 47.4484 7.47384 47.2777 7.19709C47.107 6.92034 47.0217 6.59967 47.0217 6.23509V2.90909H47.9439V6.15803C47.9439 6.37015 47.9903 6.55907 48.0831 6.72479C48.1776 6.89051 48.3101 7.0206 48.4808 7.11506C48.6515 7.20786 48.8537 7.25426 49.0874 7.25426C49.321 7.25426 49.5232 7.20786 49.6939 7.11506C49.8662 7.0206 49.9988 6.89051 50.0916 6.72479C50.1844 6.55907 50.2308 6.37015 50.2308 6.15803V2.90909ZM55.0221 4.30859C54.9989 4.0915 54.9012 3.92247 54.7288 3.80149C54.5581 3.68052 54.3361 3.62003 54.0626 3.62003C53.8704 3.62003 53.7055 3.64903 53.568 3.70703C53.4304 3.76503 53.3252 3.84375 53.2523 3.94318C53.1793 4.04261 53.1421 4.15613 53.1404 4.28374C53.1404 4.3898 53.1644 4.48177 53.2125 4.55966C53.2622 4.63755 53.3293 4.70384 53.4138 4.75852C53.4983 4.81155 53.592 4.8563 53.6947 4.89276C53.7975 4.92921 53.901 4.95987 54.0055 4.98473L54.4827 5.10405C54.675 5.14879 54.8597 5.20928 55.0371 5.28551C55.216 5.36174 55.376 5.45786 55.5168 5.57386C55.6593 5.68987 55.772 5.8299 55.8549 5.99396C55.9377 6.15803 55.9792 6.35026 55.9792 6.57067C55.9792 6.86896 55.9029 7.13163 55.7505 7.35866C55.598 7.58404 55.3776 7.76054 55.0893 7.88814C54.8026 8.01409 54.4554 8.07706 54.0477 8.07706C53.6516 8.07706 53.3078 8.01574 53.0161 7.89311C52.7261 7.77048 52.4991 7.5915 52.335 7.35618C52.1726 7.12086 52.0848 6.83416 52.0715 6.49609H52.9788C52.9921 6.67341 53.0468 6.8209 53.1429 6.93857C53.239 7.05623 53.3641 7.14406 53.5182 7.20206C53.674 7.26006 53.848 7.28906 54.0403 7.28906C54.2408 7.28906 54.4164 7.25923 54.5672 7.19957C54.7197 7.13826 54.839 7.05374 54.9252 6.94602C55.0114 6.83665 55.0553 6.70904 55.0569 6.56321C55.0553 6.43063 55.0163 6.32126 54.9401 6.23509C54.8639 6.14725 54.757 6.07434 54.6194 6.01634C54.4836 5.95668 54.3245 5.90365 54.1422 5.85724L53.563 5.7081C53.1437 5.60038 52.8123 5.43714 52.5687 5.21839C52.3267 4.99799 52.2057 4.70549 52.2057 4.34091C52.2057 4.04096 52.2869 3.77829 52.4493 3.55291C52.6134 3.32753 52.8363 3.1527 53.118 3.02841C53.3997 2.90246 53.7188 2.83949 54.0751 2.83949C54.4363 2.83949 54.7528 2.90246 55.0246 3.02841C55.2981 3.1527 55.5127 3.32588 55.6684 3.54794C55.8242 3.76835 55.9046 4.0219 55.9096 4.30859H55.0221ZM63.2867 5.45455C63.2867 6.00308 63.1839 6.47289 62.9784 6.86399C62.7746 7.25343 62.4962 7.55173 62.1432 7.75888C61.7919 7.96603 61.3933 8.0696 60.9475 8.0696C60.5018 8.0696 60.1024 7.96603 59.7494 7.75888C59.3981 7.55007 59.1197 7.25095 58.9142 6.86151C58.7103 6.47041 58.6084 6.00142 58.6084 5.45455C58.6084 4.90601 58.7103 4.43703 58.9142 4.04759C59.1197 3.65649 59.3981 3.35736 59.7494 3.15021C60.1024 2.94306 60.5018 2.83949 60.9475 2.83949C61.3933 2.83949 61.7919 2.94306 62.1432 3.15021C62.4962 3.35736 62.7746 3.65649 62.9784 4.04759C63.1839 4.43703 63.2867 4.90601 63.2867 5.45455ZM62.3595 5.45455C62.3595 5.06842 62.299 4.74278 62.178 4.47763C62.0587 4.21082 61.893 4.00947 61.6809 3.87358C61.4687 3.73603 61.2243 3.66726 60.9475 3.66726C60.6708 3.66726 60.4264 3.73603 60.2142 3.87358C60.0021 4.00947 59.8356 4.21082 59.7146 4.47763C59.5953 4.74278 59.5356 5.06842 59.5356 5.45455C59.5356 5.84067 59.5953 6.16714 59.7146 6.43395C59.8356 6.6991 60.0021 6.90045 60.2142 7.038C60.4264 7.17389 60.6708 7.24183 60.9475 7.24183C61.2243 7.24183 61.4687 7.17389 61.6809 7.038C61.893 6.90045 62.0587 6.6991 62.178 6.43395C62.299 6.16714 62.3595 5.84067 62.3595 5.45455ZM68.4422 2.90909V8H67.6219L65.2231 4.53232H65.1808V8H64.2586V2.90909H65.0839L67.4802 6.37926H67.5249V2.90909H68.4422ZM28.7585 20V11.2727H32.2017C32.8636 11.2727 33.4276 11.3991 33.8935 11.652C34.3594 11.902 34.7145 12.25 34.9588 12.696C35.206 13.1392 35.3295 13.6506 35.3295 14.2301C35.3295 14.8097 35.2045 15.321 34.9545 15.7642C34.7045 16.2074 34.3423 16.5526 33.8679 16.7997C33.3963 17.0469 32.8253 17.1705 32.1548 17.1705H29.9602V15.6918H31.8565C32.2116 15.6918 32.5043 15.6307 32.7344 15.5085C32.9673 15.3835 33.1406 15.2116 33.2543 14.9929C33.3707 14.7713 33.429 14.517 33.429 14.2301C33.429 13.9403 33.3707 13.6875 33.2543 13.4716C33.1406 13.2528 32.9673 13.0838 32.7344 12.9645C32.5014 12.8423 32.206 12.7812 31.848 12.7812H30.6037V20H28.7585ZM36.594 20V13.4545H38.3539V14.5966H38.4221C38.5414 14.1903 38.7417 13.8835 39.0229 13.6761C39.3042 13.4659 39.6281 13.3608 39.9945 13.3608C40.0854 13.3608 40.1835 13.3665 40.2886 13.3778C40.3937 13.3892 40.486 13.4048 40.5656 13.4247V15.0355C40.4803 15.0099 40.3624 14.9872 40.2119 14.9673C40.0613 14.9474 39.9235 14.9375 39.7985 14.9375C39.5315 14.9375 39.2928 14.9957 39.0826 15.1122C38.8752 15.2259 38.7104 15.3849 38.5883 15.5895C38.469 15.794 38.4093 16.0298 38.4093 16.2969V20H36.594ZM44.2568 20.1278C43.5949 20.1278 43.0224 19.9872 42.5395 19.706C42.0594 19.4219 41.6886 19.027 41.4273 18.5213C41.1659 18.0128 41.0352 17.4233 41.0352 16.7528C41.0352 16.0767 41.1659 15.4858 41.4273 14.9801C41.6886 14.4716 42.0594 14.0767 42.5395 13.7955C43.0224 13.5114 43.5949 13.3693 44.2568 13.3693C44.9187 13.3693 45.4898 13.5114 45.9699 13.7955C46.4528 14.0767 46.825 14.4716 47.0864 14.9801C47.3477 15.4858 47.4784 16.0767 47.4784 16.7528C47.4784 17.4233 47.3477 18.0128 47.0864 18.5213C46.825 19.027 46.4528 19.4219 45.9699 19.706C45.4898 19.9872 44.9187 20.1278 44.2568 20.1278ZM44.2653 18.7216C44.5665 18.7216 44.8179 18.6364 45.0196 18.4659C45.2213 18.2926 45.3733 18.0568 45.4756 17.7585C45.5807 17.4602 45.6332 17.1207 45.6332 16.7401C45.6332 16.3594 45.5807 16.0199 45.4756 15.7216C45.3733 15.4233 45.2213 15.1875 45.0196 15.0142C44.8179 14.8409 44.5665 14.7543 44.2653 14.7543C43.9614 14.7543 43.7057 14.8409 43.4983 15.0142C43.2937 15.1875 43.1389 15.4233 43.0338 15.7216C42.9315 16.0199 42.8804 16.3594 42.8804 16.7401C42.8804 17.1207 42.9315 17.4602 43.0338 17.7585C43.1389 18.0568 43.2937 18.2926 43.4983 18.4659C43.7057 18.6364 43.9614 18.7216 44.2653 18.7216ZM51.1707 20.1065C50.6736 20.1065 50.2233 19.9787 49.8199 19.723C49.4193 19.4645 49.1011 19.0852 48.8653 18.5852C48.6324 18.0824 48.5159 17.4659 48.5159 16.7358C48.5159 15.9858 48.6366 15.3622 48.8781 14.8651C49.1196 14.3651 49.4406 13.9915 49.8412 13.7443C50.2446 13.4943 50.6864 13.3693 51.1665 13.3693C51.533 13.3693 51.8384 13.4318 52.0827 13.5568C52.3298 13.679 52.5287 13.8324 52.6793 14.017C52.8327 14.1989 52.9491 14.3778 53.0287 14.554H53.0841V11.2727H54.8952V20H53.1054V18.9517H53.0287C52.9435 19.1335 52.8227 19.3139 52.6665 19.4929C52.5131 19.669 52.3128 19.8153 52.0656 19.9318C51.8213 20.0483 51.523 20.1065 51.1707 20.1065ZM51.746 18.6619C52.0386 18.6619 52.2858 18.5824 52.4875 18.4233C52.692 18.2614 52.8483 18.0355 52.9562 17.7457C53.067 17.456 53.1224 17.1165 53.1224 16.7273C53.1224 16.3381 53.0685 16 52.9605 15.7131C52.8526 15.4261 52.6963 15.2045 52.4918 15.0483C52.2872 14.892 52.0386 14.8139 51.746 14.8139C51.4477 14.8139 51.1963 14.8949 50.9918 15.0568C50.7872 15.2187 50.6324 15.4432 50.5273 15.7301C50.4222 16.017 50.3696 16.3494 50.3696 16.7273C50.3696 17.108 50.4222 17.4446 50.5273 17.7372C50.6352 18.027 50.7901 18.2543 50.9918 18.419C51.1963 18.581 51.4477 18.6619 51.746 18.6619ZM60.6852 17.2131V13.4545H62.5005V20H60.7576V18.8111H60.6894C60.5417 19.1946 60.296 19.5028 59.9522 19.7358C59.6113 19.9687 59.1951 20.0852 58.7036 20.0852C58.2661 20.0852 57.8812 19.9858 57.5488 19.7869C57.2164 19.5881 56.9565 19.3054 56.769 18.9389C56.5843 18.5724 56.4906 18.1335 56.4877 17.6222V13.4545H58.3031V17.2983C58.3059 17.6847 58.4096 17.9901 58.6141 18.2145C58.8187 18.4389 59.0928 18.5511 59.4366 18.5511C59.6553 18.5511 59.8599 18.5014 60.0502 18.402C60.2406 18.2997 60.394 18.1491 60.5104 17.9503C60.6298 17.7514 60.688 17.5057 60.6852 17.2131ZM67.0099 20.1278C66.3395 20.1278 65.7628 19.9858 65.2798 19.7017C64.7997 19.4148 64.4304 19.017 64.1719 18.5085C63.9162 18 63.7884 17.4148 63.7884 16.7528C63.7884 16.0824 63.9176 15.4943 64.1761 14.9886C64.4375 14.4801 64.8082 14.0838 65.2884 13.7997C65.7685 13.5128 66.3395 13.3693 67.0014 13.3693C67.5724 13.3693 68.0724 13.473 68.5014 13.6804C68.9304 13.8878 69.2699 14.179 69.5199 14.554C69.7699 14.929 69.9077 15.3693 69.9332 15.875H68.2202C68.1719 15.5483 68.044 15.2855 67.8366 15.0866C67.6321 14.8849 67.3636 14.7841 67.0312 14.7841C66.75 14.7841 66.5043 14.8608 66.294 15.0142C66.0866 15.1648 65.9247 15.3849 65.8082 15.6747C65.6918 15.9645 65.6335 16.3153 65.6335 16.7273C65.6335 17.1449 65.6903 17.5 65.804 17.7926C65.9205 18.0852 66.0838 18.3082 66.294 18.4616C66.5043 18.6151 66.75 18.6918 67.0312 18.6918C67.2386 18.6918 67.4247 18.6491 67.5895 18.5639C67.7571 18.4787 67.8949 18.3551 68.0028 18.1932C68.1136 18.0284 68.1861 17.831 68.2202 17.6009H69.9332C69.9048 18.1009 69.7685 18.5412 69.5241 18.9219C69.2827 19.2997 68.9489 19.5952 68.5227 19.8082C68.0966 20.0213 67.5923 20.1278 67.0099 20.1278ZM74.6771 13.4545V14.8182H70.7353V13.4545H74.6771ZM71.6302 11.8864H73.4455V17.9886C73.4455 18.1562 73.4711 18.2869 73.5222 18.3807C73.5734 18.4716 73.6444 18.5355 73.7353 18.5724C73.829 18.6094 73.937 18.6278 74.0592 18.6278C74.1444 18.6278 74.2296 18.6207 74.3148 18.6065C74.4001 18.5895 74.4654 18.5767 74.5109 18.5682L74.7964 19.919C74.7055 19.9474 74.5776 19.9801 74.4129 20.017C74.2481 20.0568 74.0478 20.081 73.812 20.0895C73.3745 20.1065 72.991 20.0483 72.6614 19.9148C72.3347 19.7812 72.0805 19.5739 71.8986 19.2926C71.7168 19.0114 71.6273 18.6562 71.6302 18.2273V11.8864ZM78.871 20V11.2727H80.7162V14.8736H84.4619V11.2727H86.3028V20H84.4619V16.3949H80.7162V20H78.871ZM92.0875 17.2131V13.4545H93.9028V20H92.1599V18.8111H92.0918C91.944 19.1946 91.6983 19.5028 91.3545 19.7358C91.0136 19.9687 90.5974 20.0852 90.106 20.0852C89.6685 20.0852 89.2835 19.9858 88.9511 19.7869C88.6188 19.5881 88.3588 19.3054 88.1713 18.9389C87.9866 18.5724 87.8929 18.1335 87.8901 17.6222V13.4545H89.7054V17.2983C89.7082 17.6847 89.8119 17.9901 90.0165 18.2145C90.221 18.4389 90.4952 18.5511 90.8389 18.5511C91.0577 18.5511 91.2622 18.5014 91.4526 18.402C91.6429 18.2997 91.7963 18.1491 91.9128 17.9503C92.0321 17.7514 92.0903 17.5057 92.0875 17.2131ZM97.2702 16.2159V20H95.4549V13.4545H97.185V14.6094H97.2617C97.4066 14.2287 97.6495 13.9276 97.9904 13.706C98.3313 13.4815 98.7447 13.3693 99.2305 13.3693C99.685 13.3693 100.081 13.4688 100.419 13.6676C100.757 13.8665 101.02 14.1506 101.208 14.5199C101.395 14.8864 101.489 15.3239 101.489 15.8324V20H99.6737V16.1562C99.6765 15.7557 99.5742 15.4432 99.3668 15.2188C99.1594 14.9915 98.8739 14.8778 98.5103 14.8778C98.266 14.8778 98.0501 14.9304 97.8626 15.0355C97.6779 15.1406 97.533 15.294 97.4279 15.4957C97.3256 15.6946 97.2731 15.9347 97.2702 16.2159ZM106.501 13.4545V14.8182H102.56V13.4545H106.501ZM103.454 11.8864H105.27V17.9886C105.27 18.1562 105.295 18.2869 105.346 18.3807C105.398 18.4716 105.469 18.5355 105.56 18.5724C105.653 18.6094 105.761 18.6278 105.883 18.6278C105.969 18.6278 106.054 18.6207 106.139 18.6065C106.224 18.5895 106.29 18.5767 106.335 18.5682L106.621 19.919C106.53 19.9474 106.402 19.9801 106.237 20.017C106.072 20.0568 105.872 20.081 105.636 20.0895C105.199 20.1065 104.815 20.0483 104.486 19.9148C104.159 19.7812 103.905 19.5739 103.723 19.2926C103.541 19.0114 103.452 18.6562 103.454 18.2273V11.8864Z" fill="#FF6154"/>
<path d="M128.02 1.86621L132.368 9.39665H123.673L128.02 1.86621Z" fill="#FF6154"/>
<path d="M129.704 13.3942V20.1348H128.483V14.5824H128.443L126.867 15.5895V14.4705L128.542 13.3942H129.704Z" fill="#FF6154"/>
<defs>
<clipPath id="clip0_8676_1329">
<rect width="24" height="24" fill="white"/>
</clipPath>
</defs>
</svg>
