<svg width="45" height="45" viewBox="0 0 45 45" fill="none" xmlns="http://www.w3.org/2000/svg">
<g id="profile">
<path id="Vector" d="M18.4659 29.154C21.1653 28.9364 23.877 28.9364 26.5764 29.154C28.0464 29.2397 29.5094 29.4235 30.9561 29.7045C34.0868 30.3383 36.1307 31.3726 37.0066 33.0408C37.6645 34.3427 37.6645 35.8925 37.0066 37.1944C36.1307 38.8626 34.1679 39.9636 30.9237 40.5307C29.4781 40.8222 28.0147 41.0117 26.544 41.0979C25.1814 41.248 23.8188 41.248 22.44 41.248H19.9582C19.4391 41.1813 18.9363 41.148 18.4496 41.148C16.9788 41.0723 15.5152 40.8883 14.07 40.5975C10.9393 39.9969 8.89542 38.9293 8.01948 37.2612C7.68133 36.615 7.50306 35.8931 7.5002 35.1593C7.49335 34.421 7.66623 33.6927 8.00326 33.0408C8.86298 31.3726 10.9068 30.2883 14.07 29.7045C15.5216 29.4195 16.9902 29.2356 18.4659 29.154ZM22.5049 3.74805C27.9428 3.74805 32.3511 8.28146 32.3511 13.8737C32.3511 19.466 27.9428 23.9994 22.5049 23.9994C17.067 23.9994 12.6587 19.466 12.6587 13.8737C12.6587 8.28146 17.067 3.74805 22.5049 3.74805Z" fill="#D0BCFF"/>
</g>
</svg>
