<svg width="41" height="42" viewBox="0 0 41 42" fill="none" xmlns="http://www.w3.org/2000/svg">
<path id="Vector" fill-rule="evenodd" clip-rule="evenodd" d="M0 15.2007V22.4632C2.78563 22.2865 5.64263 22.452 8.44702 22.6146C9.03469 22.6486 9.62006 22.6826 10.202 22.7132C10.4143 22.7244 10.6309 22.7343 10.8507 22.7442C12.2167 22.8065 13.6987 22.8739 14.9673 23.2968C14.9901 23.3043 15.1625 23.3568 15.373 23.4209C15.7432 23.5336 16.2316 23.6821 16.2316 23.6857C16.2316 23.7962 15.5518 24.0936 15.1018 24.2904C14.9132 24.3729 14.7651 24.4378 14.7242 24.4638C14.0203 24.9117 13.3286 25.3899 12.6369 25.8681C12.0387 26.2818 11.4403 26.6955 10.8341 27.0896C7.66951 29.1466 4.41427 31.3653 1.49792 33.7514C1.31588 33.9003 0.952573 34.1638 0.507619 34.4865C0.347443 34.6027 0.176688 34.7265 0 34.8555V41.4492H3.38593C3.86583 40.9981 4.23489 40.6473 4.26958 40.6076C5.05873 39.7058 6.06497 38.8327 6.99259 38.0791C10.2073 35.4671 13.3156 32.3059 15.9884 29.1318C16.1605 28.9275 16.3372 28.7217 16.5151 28.5145C17.0368 27.9067 17.5696 27.286 18.0308 26.652C18.2795 26.3099 18.4104 26.0187 18.5655 25.6308C18.5947 25.5582 19.2208 24.8868 19.2484 24.9143C19.5169 25.1829 19.5463 26.8281 19.5693 28.1197C19.5816 28.8048 19.592 29.3902 19.6354 29.6181C19.9121 31.0709 20.151 32.5248 20.3895 33.977C20.7807 36.3578 21.1711 38.7341 21.7263 41.0938C21.7542 41.2121 21.7815 41.3306 21.8083 41.4492H27.4317C27.3036 41.1016 27.1608 40.7508 27.0254 40.4182C26.7774 39.809 26.5543 39.2609 26.4917 38.9057C26.3331 38.0073 26.0234 37.1232 25.7158 36.2452C25.5432 35.7528 25.3714 35.2623 25.2274 34.7724C24.5724 32.5456 24.2419 30.1208 24.0117 27.819C23.9791 27.4929 23.8206 27.1035 23.6705 26.7348C23.5209 26.3672 23.3796 26.0202 23.3796 25.7766C23.3796 25.6868 24.4505 26.0677 24.9982 26.2625C25.1262 26.308 25.2254 26.3434 25.2761 26.3601C25.5314 26.4453 25.7885 26.5319 26.0469 26.619C27.0979 26.9731 28.1691 27.334 29.2147 27.6245C30.0566 27.8584 30.8971 28.1257 31.7392 28.3936C33.0464 28.8096 34.3572 29.2265 35.682 29.5209C37.0644 29.8281 39.305 30.5425 40.8984 31.2036V24.6898C39.9042 24.4808 38.9473 24.2912 38.794 24.2693C37.3917 24.0689 36.0106 23.7634 34.631 23.4583C33.1718 23.1355 31.7145 22.8131 30.2359 22.616C29.9273 22.5749 29.616 22.5258 29.3036 22.4765C28.8206 22.4004 28.3351 22.3238 27.8532 22.2756C27.7461 22.2649 27.6387 22.2513 27.5312 22.2376C27.298 22.208 27.0642 22.1784 26.832 22.1784C26.805 22.1784 26.769 22.1874 26.733 22.1964C26.661 22.2144 26.5889 22.2324 26.5889 22.1784C26.5889 22.1762 29.2292 19.9814 29.4578 19.7957C31.5157 18.1237 33.6332 16.5747 35.7567 15.0214C36.786 14.2684 37.8166 13.5145 38.8427 12.745C39.0265 12.607 39.216 12.4666 39.4089 12.3237C39.8948 11.9638 40.4026 11.5874 40.8984 11.1934V0.550781H40.1889C39.186 2.01159 38.058 3.62561 37.8215 3.84641C37.4038 4.23634 37.0142 4.67425 36.6249 5.11196C36.3152 5.46012 36.0057 5.80815 35.682 6.1318C33.4456 8.36807 31.2745 10.8281 29.2147 13.2312C29.0258 13.4516 28.8285 13.6728 28.6291 13.8962C28.0172 14.5822 27.387 15.2886 26.9293 16.0515C26.7766 16.306 25.8747 17.7951 25.8634 17.7837C25.5313 17.4517 25.7145 15.9321 25.8516 14.7952C25.9149 14.2707 25.9683 13.8276 25.9568 13.6202C25.7628 10.1302 25.7623 6.61519 25.7623 3.117C25.7623 3.02645 25.7677 2.81739 25.7747 2.53916C25.7881 2.01271 25.8078 1.23858 25.8097 0.550781H20.3275C20.3425 0.837519 20.3601 1.11982 20.3754 1.36614C20.3966 1.70459 20.4133 1.9751 20.4133 2.09583C20.4133 4.62245 20.2697 7.11573 20.1217 9.63285C20.0531 10.7989 20.0607 11.9733 20.0682 13.1453C20.0706 13.5147 20.0731 13.8838 20.0731 14.2523C20.0731 14.3083 20.073 14.3646 20.0728 14.4211C20.072 14.8816 20.0713 15.355 20.1217 15.8084C20.1228 15.8191 20.1285 15.8567 20.1366 15.9108C20.1712 16.1442 20.2515 16.6836 20.2189 16.6836C19.801 16.6836 18.8075 14.5031 18.3906 13.5881C18.3131 13.418 18.2555 13.2917 18.2253 13.2312C17.3508 11.4821 16.485 9.72637 15.6196 7.97118C14.7564 6.22053 13.8935 4.47042 13.0223 2.72794C12.6583 1.99992 12.3021 1.28384 11.9925 0.550781H6.35748C6.84069 1.17094 7.51211 2.95396 7.87479 3.91709C7.9284 4.05945 7.97526 4.1839 8.01377 4.28403C8.59238 5.7884 9.26148 7.2638 9.93181 8.7419C10.5829 10.1775 11.235 11.6156 11.8066 13.0852C12.1781 14.0406 12.4717 14.5953 12.8553 15.3204C13.0526 15.6936 13.274 16.1118 13.5421 16.6531C13.4755 16.627 13.3461 16.5897 13.2563 16.5638C13.2154 16.5521 13.1827 16.5427 13.1681 16.5378C13.0372 16.4941 12.9102 16.4647 12.785 16.4356C12.5866 16.3895 12.3927 16.3445 12.1956 16.246C11.5039 15.9002 10.3445 15.8319 9.47735 15.7808C9.35584 15.7737 9.24008 15.7669 9.13214 15.7597C8.14469 15.6939 7.17194 15.5811 6.2029 15.4688C4.27579 15.2453 2.3634 15.0236 0.379449 15.1762C0.277804 15.184 0.147659 15.1921 0 15.2007ZM13.5572 16.6836C13.5521 16.6735 13.5471 16.6632 13.5421 16.6531C13.5878 16.671 13.6038 16.6836 13.5572 16.6836Z" fill="#809EC3"/>
</svg>
