<svg width="41" height="49" viewBox="0 0 41 49" fill="none" xmlns="http://www.w3.org/2000/svg">
<path id="Vector" d="M7.95831 45.5515C6.67743 44.4951 5.44053 43.1538 4.28675 41.4265C2.43416 38.6529 0.615359 34.7728 0.174174 29.746C-0.588347 21.058 1.20602 11.8628 4.51504 5.79108C5.49223 3.99807 6.51126 2.39324 7.57527 0.986328H13.9204C11.5616 2.59405 9.36293 5.28081 7.27036 9.12051C4.59707 14.0257 3.05164 21.7574 3.69269 29.0614C3.99768 32.5365 5.27052 35.4067 6.80265 37.7005C9.07037 41.0955 11.8034 42.6699 14.8243 43.6178C17.596 44.4876 20.462 44.5138 23.2394 43.7059C24.7552 43.2649 26.1619 42.8033 27.4787 42.0321C28.7858 41.2666 30.0483 40.01 31.3296 38.4043C33.2176 36.0382 35.0102 33.2343 36.1527 29.7855C37.3498 26.1726 37.892 21.5521 37.0252 17.9345C36.361 15.1617 34.9381 13.0671 33.5117 11.9923C32.4558 11.1967 31.3348 10.7155 30.0464 10.1624C29.8534 10.0796 29.6568 9.99517 29.456 9.90785C27.6989 9.14352 26.0283 8.49566 24.3724 8.2125C21.4741 7.71688 18.7256 7.85066 16.188 9.41728C15.3905 9.90958 14.7776 10.4286 14.1753 11.2605C12.8212 13.131 11.6876 14.861 10.9878 17.2043C10.2948 19.5247 9.93782 22.2348 10.182 24.7302C10.5216 28.2 11.8587 30.5218 13.5332 32.2489C15.4371 34.2126 17.4688 35.2465 19.4338 35.1451C20.8722 35.0708 22.2835 34.6566 23.6914 33.8996C26.9097 32.1693 30.1656 30.0955 30.8929 24.8651C31.6113 19.6988 28.4772 17.8345 25.6991 16.8251C25.4163 16.7224 25.1427 16.6229 24.8814 16.5249C21.3409 15.1953 18.6156 17.5666 17.6299 20.1351C16.7387 22.4569 17.0918 23.3188 17.2097 23.5515C17.4565 24.0379 18.13 24.5794 19.176 24.6139C20.2086 24.6479 21.023 24.1598 21.3648 23.661C21.5006 23.4627 21.5376 23.3077 21.5463 23.158C21.5565 22.9795 21.539 22.529 21.2306 21.7475C20.7344 20.4894 21.0169 18.8705 21.8618 18.1315C22.7066 17.3924 23.7939 17.8131 24.2903 19.0712C24.867 20.5332 25.1705 22.0711 25.0816 23.6106C24.991 25.1788 24.5085 26.4712 23.8486 27.4343C22.5988 29.2584 20.7161 29.9496 19.0974 29.8962C17.48 29.843 15.5362 29.0185 14.3784 26.7363C13.0918 24.2002 13.2528 20.8906 14.549 17.5134C16.3847 12.7304 20.7849 9.5372 25.7492 11.4016C25.9638 11.4822 26.2057 11.57 26.4674 11.6651C28.7398 12.4903 30.094 13.3313 31.9559 15.246C34.1764 17.5295 34.9412 21.8114 34.3677 25.9365C34.0573 28.1679 32.5783 32.4524 30.8929 34.426C28.9077 36.406 26.8255 37.8322 24.8966 38.8693C23.1572 39.8044 21.3814 40.3315 19.5567 40.4256C16.6593 40.5752 13.8899 39.0441 11.5128 36.5925C9.31545 34.3262 7.19558 30.8557 6.67071 25.4921C6.30913 21.7971 6.84494 18.0726 7.74546 15.0573C8.76228 11.6526 10.377 9.30011 11.7621 7.38687C12.7607 6.00757 13.7713 5.18936 14.829 4.53641C18.154 2.48376 21.5883 2.41795 24.7772 2.96328C26.748 3.3003 28.6589 4.0565 30.4511 4.83611C30.6283 4.91322 30.811 4.99122 30.9984 5.07116C32.263 5.6108 33.7351 6.23898 35.1138 7.27778C37.2655 8.89902 39.3664 11.9814 40.3674 16.1591C41.6675 21.5854 40.7848 27.7469 39.335 32.1231C37.8865 36.4949 35.6848 39.8523 33.6144 42.4469C32.7087 43.5819 31.7421 44.6518 30.7026 45.5515C21.8051 48.7052 16.9171 48.959 7.95831 45.5515Z" fill="#EAE7D6"/>
</svg>
