<svg width="387" height="288" viewBox="0 0 387 288" fill="none" xmlns="http://www.w3.org/2000/svg">
<g clip-path="url(#clip0_7104_10673)">
<path d="M255.399 28.215C255.062 27.7258 254.64 27.425 254.079 27.2051C252.364 26.5228 250.555 26.2355 248.768 25.8585C233.413 22.6132 218.072 19.3186 202.712 16.0912C198.806 15.2698 194.878 14.4933 190.855 14.5202C188.956 14.5337 187.303 14.8883 185.997 15.8848C185.144 16.5356 184.726 17.2313 183.882 18.7799C181.696 22.7928 180.057 26.3208 179.518 27.4744C179.033 28.5113 178.302 30.0554 177.377 31.9361C173.161 40.3074 168.972 48.6922 164.779 57.0725C163.028 60.5691 161.272 64.0658 159.342 67.9125C158.524 65.5605 157.676 63.581 156.585 61.7272C152.751 55.2142 147.291 51.0712 139.609 50.3261C130.019 49.3924 122.4 55.2501 120.232 63.3655C118.831 68.5993 119.742 73.6355 121.884 78.5147C122.535 80.0049 122.306 80.6872 120.91 81.5221C120.375 81.8408 119.796 82.0338 119.195 82.1415C116.065 82.716 112.927 83.2322 109.73 83.2726C105.24 83.331 100.773 83.6003 96.3104 84.2108C93.4954 84.5968 91.1248 85.6247 89.0012 87.4695C84.4711 91.406 84.7315 96.6084 89.8587 99.5709C95.1207 102.61 100.89 102.942 106.709 101.752C110.898 100.895 115.006 99.6562 119.154 98.5879C119.424 98.516 119.675 98.4038 119.89 98.7539C120.384 99.5439 120.254 100.958 119.576 101.64C117.3 103.925 115.046 106.228 112.738 108.476C112.006 109.19 111.854 109.881 112.321 110.761C112.532 111.156 112.64 111.618 112.9 111.973C113.322 112.548 113.259 112.889 112.702 113.373C109.851 115.878 108.271 119.074 107.93 122.831C107.822 124.007 107.49 124.034 106.538 123.603C100.634 120.928 94.7076 118.306 88.7902 115.667C88.4175 115.501 88.0494 115.317 87.6588 115.205C87.1604 115.057 86.7878 115.236 86.5902 115.743C84.6551 120.636 82.1678 125.273 80.0262 130.071C79.7479 130.695 79.4156 131.014 78.6704 131.023C76.3806 131.054 74.1088 131.314 71.8639 131.754C66.1485 132.868 60.8686 134.914 56.7246 139.183C52.8231 143.2 51.319 147.972 52.8455 153.457C54.3002 158.682 57.8156 162.362 62.238 165.253C62.9788 165.738 63.109 166.061 62.7274 166.864C58.5654 175.626 54.4483 184.411 50.3133 193.181C49.6354 194.618 49.7386 194.95 51.1933 195.628C64.7567 201.934 78.3291 208.232 91.8926 214.543C103.274 219.839 114.651 225.154 126.028 230.459C127.11 230.962 128.129 230.54 128.681 229.315C130.239 225.859 131.784 222.398 133.342 218.942C135.236 214.749 137.14 210.561 139.039 206.364C141.903 207.927 144.678 209.48 147.484 210.961C152.966 213.856 158.475 216.706 163.961 219.597C164.325 219.79 165.066 219.817 164.725 220.567C163.562 223.107 162.134 225.369 159.252 226.307C157.734 226.801 156.194 227.174 154.636 227.492C151.597 228.112 148.813 229.135 147.107 231.986C146.833 232.443 146.416 232.627 145.881 232.654C145.109 232.695 144.337 232.794 143.569 232.888C143.259 232.928 142.837 232.942 142.833 233.346C142.833 233.687 143.246 233.714 143.502 233.75C144.108 233.83 144.719 233.866 145.329 233.88C155.534 234.064 165.735 233.736 175.936 233.624C182.14 233.557 188.341 233.422 194.541 233.296C195.223 233.283 196.076 233.287 196.081 232.313C196.081 231.326 195.25 231.38 194.55 231.362C194.222 231.353 193.899 231.362 193.571 231.371C186.226 231.532 178.881 231.698 171.54 231.851C171.132 231.86 170.683 231.986 170.162 231.613C170.84 231.182 171.414 230.81 171.998 230.45C176.865 227.461 181.736 224.476 186.608 221.491C187.636 220.858 187.654 220.418 186.639 219.723C185.831 219.166 185.027 218.605 184.183 218.111C183.46 217.689 183.469 217.335 183.99 216.706C185.324 215.104 186.455 213.353 187.366 211.473C188.197 209.758 188.04 207.989 187.582 206.221C187.281 205.049 186.046 204.982 185.31 204.322C185.189 204.214 185.041 204.143 184.901 204.053C173.583 196.687 162.395 189.119 150.928 181.982C150.447 181.681 150.326 181.439 150.564 180.927C151.444 179.042 152.306 177.152 153.141 175.249C153.379 174.711 153.581 174.545 154.223 174.791C157.079 175.887 159.961 176.919 162.844 177.938C166.265 179.15 169.659 180.474 173.138 181.488C176.551 182.485 179.689 184.173 183.411 184.482C187.55 184.828 192.233 183.095 194.316 179.285C194.882 178.252 195.407 177.184 195.847 176.093C200.669 164.095 205.473 152.092 210.268 140.09C213.402 132.253 216.527 124.406 219.629 116.556C219.957 115.73 220.289 115.506 221.142 115.914C222.579 116.601 224.106 117.072 225.65 117.454C228.474 118.149 231.325 118.652 234.234 118.001C234.778 117.88 235.519 117.772 235.469 117.045C235.393 115.972 235.985 115.869 236.794 115.82C237.234 115.793 237.678 115.654 238.096 115.497C239.618 114.922 239.954 113.701 238.935 112.408C238.572 111.946 238.114 111.556 237.597 111.03C238.334 110.972 238.935 110.968 239.519 110.86C240.314 110.712 241.22 110.608 241.517 109.688C241.746 108.979 241.05 108.194 240.529 107.606C239.784 106.762 238.944 106.322 238.423 106.097C238.877 106.174 239.232 106.115 239.434 106.061C239.649 106.008 239.914 105.94 240.138 105.711C240.192 105.657 240.309 105.545 240.372 105.357C240.444 105.15 240.426 104.975 240.417 104.899C240.372 104.535 240.112 104.163 239.568 103.696C239.016 103.22 238.607 103.005 238.607 103.005C235.891 101.559 233.337 99.7639 230.477 98.6328C230.31 98.5654 229.862 98.3949 229.718 97.9954C229.624 97.7395 229.7 97.4298 229.888 96.9989C234.989 85.2611 240.067 73.5188 245.131 61.7676C248.889 53.0507 252.548 44.2888 256.391 35.6123C257.635 32.8069 256.993 30.5087 255.403 28.2061L255.399 28.215Z" fill="black"/>
<path d="M97.9124 153.14L98.2888 153.977L96.2809 155.031C93.9033 156.302 91.9373 157.73 90.3829 159.314C90.0233 159.631 89.7403 159.746 89.5339 159.659C89.3423 159.578 89.1895 159.488 89.0755 159.388C88.9824 159.279 88.9233 159.028 88.898 158.635C88.8875 158.249 88.9492 157.815 89.0831 157.333C89.217 156.851 89.3303 156.439 89.423 156.096C89.5156 155.753 89.5857 155.504 89.6332 155.351C89.6869 155.182 89.7332 155.011 89.7722 154.836C89.8321 154.653 89.8734 154.514 89.8959 154.42C89.9185 154.325 89.9411 154.23 89.9637 154.136C89.9863 154.041 89.9984 153.951 90 153.864C90.0079 153.764 90.0169 153.681 90.027 153.615C90.0434 153.535 90.0563 153.402 90.0658 153.215C90.09 153.034 90.1123 152.879 90.1326 152.748C89.0176 153.25 87.951 153.946 86.9328 154.836C86.546 155.177 85.7797 155.86 84.634 156.888C84.3832 157.112 84.1398 157.174 83.9039 157.075C83.6828 156.981 83.5079 156.881 83.3792 156.775C83.2714 156.66 83.206 156.424 83.183 156.067C83.1601 155.71 83.2362 155.221 83.4113 154.6C84.3082 151.488 84.8215 149.325 84.9514 148.113C85.4287 148.175 85.8811 148.297 86.3085 148.477C86.3262 148.641 86.251 149.087 86.0827 149.814C85.7795 151.232 85.4463 152.906 85.0829 154.837C86.39 153.756 87.7242 152.817 89.0855 152.02C90.4677 151.214 91.2988 150.87 91.5789 150.988C91.9032 151.125 92.0278 151.447 91.9529 151.953C91.8989 152.452 91.6921 153.25 91.3326 154.349C90.994 155.439 90.7565 156.372 90.62 157.148C93.0073 155.36 95.4381 154.024 97.9124 153.14ZM111.106 158.709L111.482 159.545L109.474 160.599C107.097 161.871 105.131 163.299 103.576 164.883C103.217 165.2 102.934 165.315 102.727 165.228C102.536 165.147 102.383 165.057 102.269 164.956C102.176 164.848 102.117 164.597 102.091 164.204C102.081 163.818 102.142 163.383 102.276 162.902C102.41 162.42 102.524 162.007 102.616 161.664C102.709 161.321 102.779 161.073 102.826 160.92C102.88 160.751 102.926 160.58 102.965 160.405C103.025 160.222 103.067 160.083 103.089 159.988C103.112 159.894 103.134 159.799 103.157 159.704C103.18 159.61 103.192 159.519 103.193 159.433C103.201 159.332 103.21 159.249 103.22 159.184C103.237 159.104 103.25 158.971 103.259 158.784C103.283 158.603 103.305 158.447 103.326 158.317C102.211 158.819 101.144 159.515 100.126 160.405C99.7392 160.745 98.9729 161.429 97.8273 162.456C97.5764 162.681 97.333 162.743 97.0972 162.643C96.876 162.55 96.7011 162.45 96.5724 162.344C96.4646 162.229 96.3992 161.993 96.3763 161.636C96.3533 161.279 96.4294 160.79 96.6046 160.169C97.5014 157.057 98.0147 154.894 98.1446 153.681C98.6219 153.744 99.0743 153.865 99.5018 154.046C99.5195 154.209 99.4442 154.655 99.2759 155.383C98.9727 156.801 98.6395 158.475 98.2761 160.406C99.5833 159.325 100.917 158.386 102.279 157.588C103.661 156.782 104.492 156.439 104.772 156.557C105.096 156.694 105.221 157.015 105.146 157.522C105.092 158.02 104.885 158.819 104.526 159.918C104.187 161.008 103.95 161.941 103.813 162.717C106.201 160.928 108.631 159.592 111.106 158.709ZM124.299 164.278L124.675 165.114L122.667 166.168C120.29 167.44 118.324 168.868 116.769 170.452C116.41 170.769 116.127 170.884 115.92 170.797C115.729 170.716 115.576 170.625 115.462 170.525C115.369 170.416 115.31 170.166 115.284 169.773C115.274 169.386 115.336 168.952 115.47 168.47C115.603 167.988 115.717 167.576 115.809 167.233C115.902 166.89 115.972 166.642 116.02 166.488C116.073 166.32 116.12 166.148 116.159 165.974C116.219 165.791 116.26 165.652 116.282 165.557C116.305 165.462 116.328 165.368 116.35 165.273C116.373 165.178 116.385 165.088 116.386 165.002C116.394 164.901 116.403 164.818 116.413 164.753C116.43 164.673 116.443 164.539 116.452 164.352C116.476 164.172 116.499 164.016 116.519 163.886C115.404 164.388 114.337 165.084 113.319 165.974C112.932 166.314 112.166 166.998 111.02 168.025C110.77 168.249 110.526 168.312 110.29 168.212C110.069 168.119 109.894 168.019 109.766 167.912C109.658 167.797 109.592 167.561 109.569 167.204C109.546 166.847 109.623 166.358 109.798 165.738C110.695 162.625 111.208 160.463 111.338 159.25C111.815 159.312 112.267 159.434 112.695 159.614C112.713 159.778 112.637 160.224 112.469 160.952C112.166 162.369 111.833 164.044 111.469 165.974C112.776 164.894 114.111 163.954 115.472 163.157C116.854 162.351 117.685 162.007 117.965 162.125C118.29 162.262 118.414 162.584 118.339 163.091C118.285 163.589 118.079 164.388 117.719 165.486C117.38 166.576 117.143 167.509 117.006 168.285C119.394 166.497 121.825 165.161 124.299 164.278ZM118.941 171.993C118.838 171.742 118.84 171.491 118.946 171.24C119.052 170.99 119.23 170.813 119.482 170.711C119.733 170.609 119.985 170.611 120.235 170.716C120.486 170.822 120.662 171.001 120.764 171.252C120.867 171.504 120.865 171.755 120.759 172.005C120.653 172.256 120.475 172.432 120.223 172.535C119.971 172.637 119.72 172.635 119.47 172.529C119.219 172.424 119.043 172.245 118.941 171.993Z" fill="white"/>
<path d="M183.427 81.913C184.145 81.7155 184.482 82.0073 184.841 82.1644C187.683 83.3988 190.534 84.6152 193.354 85.9124C194.297 86.3433 194.499 86.1144 194.606 85.1583C195.051 81.2173 195.864 77.3481 197.318 73.6494C197.601 72.9357 197.444 72.6619 196.775 72.3747C194.113 71.2346 191.509 69.9553 188.824 68.8825C184.734 67.2486 180.63 65.6148 176.154 65.3544C174.982 65.2871 173.707 65.3275 172.894 66.1085C171.161 67.7783 169.307 69.3134 167.569 70.9742C167.201 71.3243 167.156 71.4949 167.547 71.9213C169.401 73.9367 170.64 76.3112 171.354 78.955C173.226 85.8855 169.855 91.981 162.9 93.8214C156.071 95.6303 149.92 93.8348 144.34 89.7277C143.958 89.4449 143.662 89.0006 143.065 89.234C140.541 90.217 138.067 91.2898 136.195 93.3366C134.75 94.9121 134.072 96.7704 134.839 98.8576C135.288 100.079 136.285 101.053 137.219 101.905C143.814 107.934 150.482 113.881 157.131 119.851C157.315 120.017 157.485 120.219 157.732 120.25C157.827 120.264 157.894 120.241 158.083 120.188C158.321 120.12 158.563 120.071 158.796 119.995C159.102 119.896 162.307 119.267 171.264 117.607C170.349 116.565 169.599 115.721 168.858 114.873C168.593 114.568 168.279 114.635 167.96 114.72C162.195 116.282 154.195 110.941 152.206 105.568C151.95 104.877 151.649 104.159 151.909 103.346C152.358 103.526 152.385 103.876 152.506 104.163C154.45 108.701 157.957 111.498 162.523 113.06C163.996 113.567 165.657 114.034 167.076 113.36C168.93 112.481 169.684 113.293 170.766 114.626C175.04 119.878 179.53 124.955 183.813 130.202C185.084 131.759 186.467 132.047 188.222 131.598C188.774 131.459 189.331 131.315 189.87 131.135C195.356 129.291 200.457 126.674 205.287 123.509C206.141 122.953 207.012 122.418 207.887 121.902C208.165 121.736 208.529 121.593 208.718 122.014C208.87 122.351 208.565 122.522 208.327 122.679C202.728 126.364 197.004 129.802 190.593 131.93C188.743 132.545 186.884 132.787 184.931 132.509C184.226 132.41 183.818 131.836 183.036 131.845C169.002 131.997 154.962 132.1 140.927 132.177C140.092 132.181 139.989 132.352 140.187 133.115C140.564 134.574 141.067 136.109 140.537 137.559C140.16 138.587 140.568 138.775 141.309 139.103C148.614 142.339 155.91 145.598 163.205 148.852C164.92 149.615 164.916 149.624 164.005 151.24C163.946 151.343 163.928 151.473 163.879 151.586C162.756 154.072 161.665 156.577 160.489 159.041C160.049 159.961 160.099 160.226 161.216 160.244C173.864 160.455 186.512 160.707 199.159 160.985C200.012 161.003 200.443 160.814 200.78 159.966C206.019 146.644 211.286 133.335 216.584 120.039C216.929 119.173 216.817 118.697 216.067 118.114C212.211 115.129 208.992 111.574 206.994 107.067C205.148 102.906 204.946 98.705 207.065 94.553C207.371 93.956 207.344 93.6867 206.711 93.359C204.493 92.2189 202.181 91.3032 199.9 90.3157C199.276 90.0464 198.899 90.0778 198.75 90.8095C198.629 91.411 198.275 91.2673 197.835 91.1461C192.11 89.611 188.011 85.5757 183.436 81.922L183.427 81.913Z" fill="white"/>
<path d="M241.086 66.7823C236.345 67.6351 234.096 67.5768 230.58 66.715C221.058 64.3854 212.765 59.6095 204.917 53.9224C199.085 49.6986 193.967 44.6444 188.57 39.9133C185.629 37.3369 182.68 34.7738 179.546 32.332C179.344 32.6866 179.169 32.9604 179.025 33.2477C174.405 42.4674 169.848 51.7229 165.147 60.8977C163.544 64.0263 162.471 67.4556 160.101 70.1712C160.02 70.2655 160.047 70.4899 160.074 70.6425C160.402 72.2495 160.729 73.8519 160.873 75.598C161.138 75.4139 161.282 75.3376 161.398 75.2344C164.73 72.1642 168.07 69.1074 171.374 66.0103C172.744 64.7265 174.36 64.1699 176.178 64.2776C178.212 64.3988 180.219 64.7624 182.195 65.319C191.125 67.8326 195.219 70.2116 197.433 71.2575C201.949 73.3941 206.659 75.7865 213.618 79.0857C214.022 79.2787 215.603 80.0238 217.753 80.8766C221.682 82.4342 223.644 83.2152 225.736 83.3409C229.162 83.5518 231.222 82.5374 233.018 82.5733C234.091 82.5913 234.491 82.1738 234.85 81.2851C235.734 79.0946 236.718 76.9446 237.656 74.7721C238.796 72.1328 239.928 69.4889 241.086 66.7868V66.7823Z" fill="white"/>
<path d="M144.549 88.7706C146.897 90.3776 149.281 91.4863 151.831 92.2224C155.8 93.367 159.787 93.6363 163.724 92.1192C168.286 90.3641 170.697 86.5218 170.302 81.6651C170.019 78.2134 168.196 75.4663 166.149 72.8315C165.924 72.5442 165.74 72.634 165.547 72.809C164.276 73.9536 162.871 74.995 161.789 76.3012C161.125 77.1047 160.707 77.0418 159.989 76.6289C155.957 74.3127 151.907 72.0235 147.889 69.6894C147.368 69.3887 146.452 69.3124 146.52 68.4955C146.578 67.8042 147.404 67.7234 147.929 67.4721C149.393 66.7763 150.655 65.8337 151.674 64.5769C152.922 63.0373 152.612 61.9241 150.785 61.1655C150.318 60.9725 149.842 60.8962 149.348 60.9321C147.215 61.0892 145.312 61.8972 143.601 63.1181C143.166 63.4323 142.784 63.5804 142.277 63.5714C136.476 63.4817 131.968 61.2373 129.279 55.8555C129.23 55.9138 129.131 55.9946 129.077 56.0979C125.373 63.1989 124.664 70.5243 128.085 77.8632C130.761 83.5997 136.023 83.9274 139.821 78.8597C141.365 76.7994 142.277 74.4564 142.869 71.9742C142.995 71.449 143.089 70.7981 143.817 71.0001C144.54 71.2021 144.284 71.844 144.149 72.3422C143.713 73.9626 143.143 75.5381 142.326 77.0014C141.962 77.6523 142.115 77.953 142.649 78.3974C145.747 80.9918 148.805 83.6267 151.871 86.257C152.23 86.5667 152.792 86.8585 152.527 87.4285C152.217 88.0928 151.728 87.7023 151.292 87.4869C151.157 87.4196 150.973 87.4196 150.821 87.433C148.746 87.6215 146.726 88.048 144.558 88.7661L144.549 88.7706Z" fill="white"/>
<path d="M184.228 205.934C182.818 204.969 181.61 204.143 180.403 203.321C170.579 196.651 160.72 190.044 151.04 183.167C150.137 182.525 149.828 182.498 149.356 183.553C146.236 190.551 143.071 197.526 139.883 204.493C139.51 205.31 139.438 205.754 140.431 206.086C141.275 206.369 142.051 206.845 142.855 207.249C149.846 210.777 156.791 214.399 163.665 218.152C164.347 218.524 164.729 218.618 165.183 217.815C165.905 216.522 167.028 215.535 168.164 214.601C172.873 210.732 178.126 207.85 184.237 205.934H184.228Z" fill="white"/>
<path d="M206.637 100.758C206.682 102.406 206.955 103.963 207.463 105.48C208.98 110.045 211.979 113.546 215.526 116.653C217.291 118.197 217.237 118.17 218.112 116.024C218.512 115.05 218.314 114.61 217.394 114.143C215.423 113.142 213.632 111.854 212.087 110.256C211.872 110.036 211.49 109.776 211.809 109.448C212.096 109.156 212.298 109.551 212.482 109.731C216.994 114.13 222.535 116.41 228.632 117.505C230.315 117.806 232.04 117.887 233.746 117.559C234.195 117.474 234.657 117.33 234.747 116.805C234.765 116.702 234.738 116.59 234.729 116.558C234.662 116.266 234.455 116.069 234.271 115.934C233.032 115.014 230.41 114.265 230.41 114.265C229.952 114.134 229.723 114.067 229.521 114.018C221.489 111.935 219.881 110.144 218.427 109.641C218.337 109.61 217.964 109.48 217.906 109.233C217.888 109.152 217.901 109.053 217.96 108.941C218.157 108.568 218.512 108.761 218.817 108.887C220.887 109.753 223.002 110.517 225.018 111.486C227.752 112.801 230.791 113.295 233.485 114.642C234.989 115.391 236.323 115.113 237.719 114.651C238.586 114.363 238.765 113.811 238.101 113.084C237.171 112.074 236.031 111.369 234.814 110.781C230.06 108.479 225.071 106.84 219.962 105.543C219.567 105.444 218.916 105.485 219.073 104.82C219.185 104.345 219.693 104.538 220.025 104.614C225.238 105.817 230.419 107.159 235.142 109.762C236.767 110.656 238.285 110.391 239.852 109.96C240.799 109.7 240.866 109.152 240.121 108.452C239.308 107.693 238.316 107.19 237.337 106.688C232.286 104.107 226.899 102.531 221.367 101.382C220.919 101.288 220.223 101.333 220.348 100.628C220.384 100.422 220.461 100.3 220.559 100.233C220.865 100.027 221.403 100.251 221.547 100.314C223.792 101.279 230.127 102.37 236.112 105.04C236.112 105.04 236.507 105.215 237.777 105.494C238.325 105.615 238.788 105.687 239.187 105.44C239.295 105.373 239.506 105.242 239.546 105.045C239.65 104.551 238.635 103.936 237.997 103.586C232.057 100.3 225.808 97.7195 219.414 95.4706C218.961 95.3091 218.337 95.1699 218.552 94.5235C218.804 93.7605 219.41 94.1285 219.886 94.3126C222.283 95.2372 224.681 96.1529 227.06 97.118C227.631 97.3469 227.909 97.3155 228.169 96.705C229.831 92.8089 231.523 88.9217 233.216 85.0391C233.485 84.4196 233.382 84.1279 232.646 84.1772C231.586 84.2446 230.522 84.2401 229.467 84.3299C223.877 84.7922 218.485 85.9862 213.69 89.0609C209.42 91.7989 206.767 95.5559 206.641 100.763L206.637 100.758Z" fill="white"/>
<path d="M168.127 130.957C167.795 130.477 167.745 130.36 167.66 130.284C160.418 123.816 153.176 117.348 145.93 110.884C145.719 110.696 145.517 110.511 145.216 110.449C139.334 109.223 133.421 108.272 127.378 108.752C122.624 109.129 118.143 110.35 114.232 113.214C112.863 114.219 111.696 115.422 110.762 116.939C110.816 116.953 110.928 116.975 111.067 116.975C111.669 116.98 112.127 116.576 112.216 116.504C112.962 115.898 118.408 114.013 124.307 113.398C129.327 112.872 129.978 113.447 131.468 113.654C131.958 113.721 132.654 113.645 132.811 114.277C132.954 114.843 132.443 115.242 132.079 115.615C130.79 116.948 129.205 117.891 127.674 118.901C125.663 120.229 123.764 121.702 121.928 123.264C121.434 123.686 121.048 124.215 121.393 124.862C121.492 125.041 121.645 125.149 121.739 125.198C122.157 125.423 122.754 125.104 122.893 125.032C124.595 124.152 132.312 121.473 133.834 121.037C134.669 120.799 135.473 120.463 136.295 120.176C136.488 120.108 136.766 120.077 136.847 119.938C137.431 118.914 138.041 119.484 138.647 119.875C144.201 123.457 149.75 127.039 155.295 130.634C155.578 130.818 155.843 130.957 156.189 130.957C160.059 130.953 163.929 130.957 168.122 130.957H168.127Z" fill="white"/>
<path d="M53.6914 149.638C53.7183 149.997 53.7498 150.527 53.8081 151.057C53.8441 151.38 53.8979 151.703 53.9743 152.022C55.2493 157.498 58.9354 161.161 63.2545 164.352C63.8651 164.801 63.9235 164.235 64.0761 163.912C65.1312 161.704 66.1683 159.491 67.2099 157.278C70.9184 149.387 74.618 141.487 78.3534 133.605C78.7889 132.689 78.8428 132.353 77.6351 132.447C75.5563 132.609 73.4911 132.828 71.4572 133.286C66.3659 134.44 61.6337 136.334 57.8579 140.1C55.2763 142.677 53.7408 145.751 53.6914 149.638Z" fill="white"/>
<path d="M147.95 232.479C148.381 232.51 148.578 232.542 148.771 232.533C154.316 232.362 159.857 232.183 165.401 232.026C166.699 231.99 167.844 231.806 169.034 231.051C174.291 227.698 179.643 224.494 184.976 221.266C185.722 220.813 185.493 220.566 184.994 220.149C183.836 219.184 182.642 218.25 181.591 217.177C181.138 216.715 180.738 216.508 180.137 216.508C175.84 216.486 171.705 217.267 167.74 218.928C166.322 219.52 165.159 220.337 164.566 221.895C163.296 225.239 160.665 226.989 157.302 227.811C155.56 228.237 153.822 228.677 152.098 229.157C150.334 229.651 149.027 230.746 147.945 232.479H147.95Z" fill="white"/>
<path d="M221.482 84.1361C221.294 84.0014 221.145 83.8578 220.975 83.7815C217.63 82.2912 214.465 80.4374 211.111 78.9562C207.164 77.2146 203.366 75.1319 199.366 73.489C198.733 73.2287 198.36 73.1524 198.095 73.9424C196.829 77.6949 195.864 81.5147 195.298 85.4423C195.154 86.4298 195.482 86.8562 196.367 87.2826C199.994 89.0332 203.824 90.3618 207.268 92.4939C207.829 92.8395 208.161 92.7273 208.561 92.2021C210.716 89.3743 213.567 87.4397 216.768 86.0033C218.286 85.3211 219.866 84.7779 221.487 84.1406L221.482 84.1361Z" fill="white"/>
<path d="M127.092 117.971C124.784 117.226 122.638 117.132 120.456 117.549C116.245 118.357 112.653 120.108 110.467 124.044C110.045 124.803 110.063 125.18 110.956 125.575C120.119 129.619 129.27 133.695 138.406 137.802C139.358 138.229 139.636 137.923 139.713 137.048C139.735 136.806 139.762 136.554 139.735 136.316C139.16 131.401 137.207 127.083 133.993 123.34C133.445 122.698 132.758 122.563 131.9 122.882C128.96 123.973 125.988 124.974 123.038 126.046C122.167 126.365 121.386 126.576 120.779 125.638C120.187 124.713 120.164 123.802 120.896 122.936C121.615 122.092 122.481 121.41 123.357 120.745C124.542 119.843 125.75 118.968 127.096 117.971H127.092Z" fill="white"/>
<path d="M134.391 122.047C136.896 124.524 138.256 127.473 139.433 130.521C139.617 130.997 139.711 131.311 140.407 131.284C144.434 131.136 148.466 131.087 152.498 130.997C152.879 130.988 153.265 130.957 153.683 130.93C153.607 130.75 153.598 130.651 153.544 130.615C148.538 127.411 143.527 124.215 138.521 121.01C138.149 120.772 137.798 120.714 137.376 120.889C136.438 121.275 135.486 121.62 134.391 122.042V122.047Z" fill="white"/>
<path d="M350.065 269.314C349.414 269.503 349.114 269.606 348.808 269.682C346.779 270.176 344.952 270.364 343.017 268.883C340.242 266.76 337.149 265.059 334.185 263.178C310.296 248.011 286.406 232.848 262.511 217.686C260.689 216.528 259.114 216.806 257.788 218.521C253.779 223.692 249.536 228.643 244.238 232.57C242.294 234.011 240.251 235.286 237.903 235.95C235.501 236.628 233.023 236.794 231.057 235.03C229.772 233.876 228.596 232.476 228.035 230.716C227.335 228.526 226.953 226.29 226.872 223.997C226.522 213.79 228.758 203.977 231.672 194.318C237.993 173.343 247.166 153.673 259.288 135.409C264.168 128.052 269.538 121.068 276.317 115.305C278.782 113.208 281.413 111.359 284.578 110.425C289.068 109.101 292.507 110.722 294.209 115.094C295.753 119.057 295.893 123.209 295.596 127.388C294.406 144.18 288.812 159.769 282.446 175.138C281.853 176.565 280.753 178.002 280.789 179.411C280.825 180.821 281.983 182.208 282.657 183.599C283.191 184.699 283.824 185.758 284.255 186.898C285.063 189.026 286.594 190.462 288.39 191.733C306.578 204.651 324.752 217.583 342.936 230.505C351.978 236.933 361.02 243.352 370.081 249.753C370.606 250.121 370.848 250.754 371.508 251.009C371.85 251.144 371.706 251.656 371.553 252.01C370.794 253.819 369.973 255.601 368.639 257.069C368.141 257.617 368.163 257.864 368.864 258.173C370.094 258.721 371.279 259.363 372.483 259.964C373.178 260.31 373.376 260.7 372.99 261.517C369.533 268.856 366.139 276.231 362.691 283.574C362.228 284.557 362.453 284.706 363.449 284.67C370.79 284.373 378.131 284.122 385.467 283.862C385.75 283.853 386.042 283.835 386.32 283.889C386.706 283.965 387.025 284.176 386.998 284.62C386.975 284.984 386.728 285.208 386.374 285.276C386.136 285.321 385.889 285.334 385.646 285.343C374.103 285.738 362.565 286.137 351.022 286.523C341.032 286.856 331.038 287.17 321.044 287.489C320.393 287.511 319.737 287.502 319.086 287.475C318.786 287.462 318.525 287.322 318.503 286.968C318.48 286.613 318.718 286.438 319.015 286.389C319.495 286.313 319.984 286.268 320.474 286.245C324.223 286.088 327.976 285.926 331.725 285.805C332.484 285.783 332.991 285.666 333.238 284.809C333.449 284.068 334.051 283.498 334.589 282.942C336.426 281.047 338.63 279.714 341.194 279.171C342.55 278.884 343.412 278.215 344.179 277.16C346.029 274.629 347.937 272.142 350.065 269.319V269.314Z" fill="black"/>
<path d="M366.845 249.884C366.661 249.336 366.248 249.206 365.934 248.986C339.611 230.268 313.283 211.551 286.946 192.842C286.102 192.245 285.393 191.549 284.791 190.705C282.089 186.908 280.257 182.648 278.2 178.501C272.772 167.54 267.335 156.587 261.903 145.631C260.897 143.602 259.878 141.582 258.742 139.311C257.992 140.545 257.269 141.725 256.569 142.875C255.447 144.719 254.656 146.061 254.522 146.29C254.522 146.29 243.85 164.196 239.279 176.274C239.158 176.602 238.866 177.392 239.167 178.164C239.23 178.326 239.302 178.442 239.324 178.478C240.536 180.453 246.543 193.771 259.784 211.883C261.207 213.826 261.62 215.128 262.729 215.833C283.611 229.047 304.474 242.298 325.338 255.544C331.193 259.26 337.047 262.968 342.884 266.707C343.643 267.196 344.038 267.394 344.352 266.272C344.711 264.974 345.438 263.816 346.233 262.721C349.762 257.842 354.395 254.327 359.806 251.791C362.023 250.754 364.349 250.063 366.85 249.884H366.845Z" fill="white"/>
<path d="M347.712 285.226C347.712 285.226 347.712 285.249 347.712 285.262C351.663 285.101 355.614 284.908 359.569 284.809C360.485 284.786 360.934 284.459 361.306 283.66C364.669 276.46 368.055 269.274 371.476 262.101C371.826 261.369 371.597 261.113 370.995 260.804C369.801 260.184 368.625 259.529 367.471 258.842C366.182 258.074 364.822 257.558 363.322 257.917C358.828 258.995 355.191 261.392 352.529 265.189C351.981 265.97 351.618 266.827 352.026 267.828C352.17 268.174 352.107 268.537 351.842 268.856C349.359 271.832 347.285 275.104 345.045 278.26C344.412 279.149 343.743 279.692 342.67 279.939C339.693 280.63 337.129 282.075 335.176 284.477C334.925 284.782 334.476 285.132 334.629 285.5C334.808 285.935 335.356 285.693 335.733 285.684C339.724 285.545 343.72 285.383 347.712 285.226Z" fill="white"/>
<path d="M209.438 174.311C209.523 161.787 214.924 148.371 224.388 136.494C233.754 124.743 245.732 116.47 259.466 110.608C260.126 110.325 260.903 110.078 261.249 110.954C261.657 111.99 260.773 112.269 260.05 112.565C250.132 116.605 241.121 122.108 233.246 129.384C221.937 139.833 214.439 152.438 211.907 167.78C210.407 176.869 211.162 185.824 213.581 194.671C213.73 195.219 213.851 195.78 213.954 196.341C214.008 196.637 213.918 196.942 213.59 197.037C213.272 197.126 213.038 196.924 212.904 196.651C212.728 196.287 212.562 195.91 212.428 195.528C210.353 189.577 209.451 183.432 209.438 174.32V174.311Z" fill="black"/>
<path d="M261.977 42.9166C262.022 45.6232 261.362 47.9304 260.325 50.1163C256.293 58.6178 252.158 67.0654 247.66 75.3335C244.818 80.5627 242.501 86.0434 239.852 91.3669C239.147 92.7853 238.083 94.0062 237.603 95.5548C237.446 96.0575 236.974 96.3672 236.426 96.1248C235.789 95.8465 235.888 95.3169 236.094 94.7737C236.781 92.9738 237.998 91.4611 238.792 89.7151C244.687 76.8192 251.687 64.4755 257.806 51.6918C258.826 49.5597 259.845 47.4366 260.271 45.0756C260.653 42.9659 260.469 40.9416 259.688 38.9621C259.463 38.3965 259.203 37.8399 258.951 37.2833C258.74 36.812 258.543 36.3138 259.149 36.022C259.728 35.7437 260.042 36.1387 260.285 36.619C261.317 38.6793 262.126 40.7979 261.973 42.9121L261.977 42.9166Z" fill="black"/>
<path d="M185.207 195.196C183.12 195.155 178.006 194.864 177.288 194.769C177.068 194.742 176.861 194.742 176.655 194.787C176.506 194.819 176.497 194.846 176.336 194.895C176.147 194.953 175.59 195.124 175.191 194.864C175.092 194.801 175.02 194.724 174.989 194.689C174.935 194.63 174.805 194.482 174.746 194.258C174.688 194.029 174.724 193.782 174.836 193.548C175.106 192.974 175.635 192.898 176.192 192.978C178.208 193.279 180.233 193.468 182.271 193.468C183.412 193.468 185.347 193.562 189.239 193.468C189.688 193.459 190.469 193.432 191.408 193.109C192.445 192.749 193.159 192.206 193.787 191.681C197.85 188.265 199.426 184.311 199.75 183.705C199.88 183.462 199.956 183.175 199.979 182.901C200.019 182.408 200.244 182.129 200.742 182.147C201.308 182.17 201.483 182.574 201.505 183.067C201.523 183.44 201.42 183.786 201.249 184.122C198.093 190.308 195.161 192.615 195.161 192.615C194.129 193.513 193.464 193.948 192.701 194.28C192.095 194.545 191.318 194.792 189.383 194.998C187.196 195.232 185.513 195.205 185.203 195.196H185.207Z" fill="black"/>
<path d="M182.74 104.808C177.959 104.422 174.048 100.818 174.241 100.351C174.255 100.324 174.318 100.212 174.425 100.19C174.677 100.14 174.969 100.629 175.013 100.701C175.413 101.33 178.915 104.189 183.068 104.166C186.911 104.144 190.512 101.648 191.141 100.634C191.208 100.522 191.616 99.8304 192.056 99.8708C192.214 99.8888 192.393 100.001 192.514 100.131C192.514 100.131 192.681 100.315 192.73 100.567C192.847 101.132 188.33 105.262 182.74 104.808Z" fill="black"/>
<path d="M159.344 121.226C159.746 121.081 160.378 120.862 161.165 120.634C163.753 119.883 165.341 119.793 168.573 119.218C169.365 119.077 170.533 118.858 171.953 118.549C175.436 122.604 178.923 126.659 182.407 130.714C178.032 130.795 173.662 130.873 169.287 130.954C169.201 130.761 169.11 130.572 169.023 130.379C165.795 127.328 162.572 124.277 159.344 121.226Z" fill="white"/>
<path d="M242.153 64.5815C239.477 64.9765 235.459 65.2817 230.753 64.4469C224.432 63.3247 219.911 60.6899 216.579 58.5623C201.907 49.199 182.655 32.0748 180.329 30.0011C159.582 5.11159 132.864 -4.62426 115.983 3.9625C112.512 5.72653 107.192 9.42068 102.743 17.7426C102.006 19.2239 101.086 21.338 100.368 23.9863C99.9634 25.4765 99.2406 28.1293 99.2496 30.7103C99.2675 35.0328 101.319 42.0979 107.116 44.4904C109.742 45.5721 114.82 46.3981 117.783 43.1348C120.387 40.2666 119.619 36.146 119.498 35.54C119.498 35.54 118.457 31.59 115.139 28.5333C109.8 23.6227 97.7231 22.4018 88.2049 26.6705C69.6578 34.9879 74.6774 57.9428 54.3838 68.3385C46.7109 72.2705 39.3613 72.3738 35.5989 72.4232C17.5951 72.6745 4.88472 62.6918 0.902344 59.2804" stroke="black" stroke-width="2.03256" stroke-miterlimit="10" stroke-linecap="round"/>
<path d="M118.181 184.819C115.146 183.266 111.662 182.943 108.389 184.002C108.282 184.038 108.133 184.146 108.097 184.218C108.062 184.29 108.057 184.469 108.097 184.581L111.734 195.83L100.447 199.538C100.227 199.609 100.079 199.897 100.115 200.188C101.174 203.465 103.473 206.1 106.508 207.649C112.794 210.862 120.552 208.358 123.767 202.074C126.981 195.79 124.476 188.033 118.19 184.819H118.181ZM114.657 189.034C115.173 188.024 116.484 187.598 117.494 188.118C118.505 188.639 118.931 189.945 118.415 190.96C117.899 191.974 116.588 192.396 115.573 191.875C114.558 191.355 114.1 190.12 114.657 189.034Z" fill="white"/>
<path d="M129.164 68.3182C129.359 68.2082 129.429 67.9603 129.319 67.7646C129.209 67.5689 128.961 67.4994 128.765 67.6094L129.164 68.3182ZM123.712 67.096C124.052 67.6268 124.722 68.3109 125.658 68.6755C126.613 69.0477 127.817 69.0748 129.164 68.3182L128.765 67.6094C127.631 68.2467 126.682 68.2019 125.953 67.918C125.205 67.6264 124.661 67.0702 124.397 66.6579L123.712 67.096Z" fill="black"/>
<path d="M131.562 79.1852C132.538 80.0872 135.021 80.7853 137.153 76.3613" stroke="black" stroke-width="0.813025" stroke-linecap="round"/>
<path d="M132.52 67.6484C133.456 68.7186 135.949 70.284 138.431 67.9837" stroke="black" stroke-width="0.813025" stroke-linecap="round"/>
<path d="M130.168 66.832C131.784 71.2875 131.173 75.3934 130.648 76.2234C129.976 77.2886 133.226 76.7475 133.662 75.2624" stroke="black" stroke-width="0.813025" stroke-linecap="round"/>
</g>
<defs>
<clipPath id="clip0_7104_10673">
<path d="M0 0H387V279.506C387 283.924 383.418 287.506 379 287.506H0V0Z" fill="white"/>
</clipPath>
</defs>
</svg>
