<svg width="256" height="253" viewBox="0 0 256 253" fill="none" xmlns="http://www.w3.org/2000/svg">
<g id="Layer_1" clip-path="url(#clip0_7037_10445)">
<path id="Vector" d="M188.708 176.123C189.128 176.085 189.422 175.604 189.796 175.272C196.888 168.969 203.972 162.653 211.06 156.342C211.375 156.06 211.674 155.752 212.027 155.528C212.595 155.171 213.097 155.441 213.089 156.118C213.081 156.636 212.96 157.159 212.852 157.674C210.059 171.027 207.258 184.38 204.461 197.73C204.407 197.987 204.399 198.261 204.308 198.502C204.038 199.224 204.266 199.518 205.034 199.68C208.744 200.468 212.437 201.323 216.139 202.141C220.563 203.12 224.991 204.079 229.406 205.083C229.971 205.211 230.834 205.099 230.946 205.917C231.058 206.734 230.211 206.855 229.688 207.124C223.646 210.237 217.579 213.299 211.562 216.457C210.445 217.042 209.694 216.93 208.715 216.22C204.486 213.166 200.204 210.183 195.933 207.182C195.419 206.821 194.954 206.377 194.311 206.224C193.97 206.195 194.049 206.485 194.008 206.655C193.921 207.008 193.73 207.22 193.352 207.199C192.974 207.178 192.8 206.909 192.73 206.585C192.539 205.709 192.335 204.834 192.194 203.954C190.97 196.36 189.248 188.858 187.87 181.293C186.858 175.733 186.347 170.135 185.969 164.504C185.459 156.811 186.322 149.246 187.982 141.76C188.713 138.469 189.887 135.295 191.119 132.154C191.31 131.664 191.468 131.216 191.385 130.643C190.642 125.535 189.887 120.427 189.269 115.302C189.074 113.7 188.526 112.68 187.015 111.924C183.861 110.348 180.815 108.555 177.728 106.837C177.13 106.505 176.582 106.057 175.898 106.696C175.665 106.912 175.296 106.866 174.981 106.833C163.303 105.588 153.389 100.974 146.093 91.5126C142.097 86.3256 139.893 80.4208 139.545 73.852C139.532 73.6071 139.603 73.325 139.375 73.1424C139.192 73.0677 139.059 73.1258 138.931 73.2378C134.968 76.711 130.237 78.57 125.153 79.5452C114.28 81.6324 103.756 80.4664 93.668 75.8438C90.7299 74.4951 87.9993 72.7772 85.7252 70.4576C84.9076 69.6235 84.2603 69.6028 83.256 70.0094C74.3213 73.6237 65.3659 77.1882 56.4188 80.7652C55.1489 81.2756 53.8749 81.7818 52.605 82.2964C52.2648 82.4333 51.9452 82.6366 51.5551 82.5951C51.0032 82.5329 50.8496 82.2051 50.9741 81.7071C51.0696 81.3212 51.414 81.1262 51.6796 80.8814C58.2447 74.7773 64.814 68.6816 71.3791 62.5775C72.6572 61.3866 72.6282 61.3949 72.0223 59.8222C67.225 47.3527 68.0716 35.4018 75.724 24.2934C81.2848 16.2224 89.153 11.3135 98.623 9.03119C118.161 4.3214 139.018 13.4049 148.824 30.5551C151.148 34.6176 152.762 38.9373 153.542 43.5599C153.605 43.921 153.621 44.2944 153.862 44.6264C154.293 44.7924 154.518 44.4106 154.787 44.2197C161.079 39.8751 168.021 37.3812 175.632 36.6052C178.624 36.3023 181.6 35.9371 184.617 36.016C190.269 36.1571 195.655 37.5887 200.955 39.402C203.295 40.2029 205.598 41.1117 207.902 42.0246C208.773 42.369 209.57 42.4105 210.495 42.1491C224.389 38.2443 238.291 34.381 252.189 30.5095C252.745 30.3559 253.305 30.19 253.87 30.0779C254.305 29.9908 254.729 30.0821 254.961 30.5178C255.185 30.9327 255.09 31.3062 254.795 31.6797C253.944 32.7544 253.094 33.8291 252.289 34.9371C246.28 43.2114 240.403 51.577 234.822 60.15C234.046 61.3409 233.382 62.6024 232.651 63.8265C232.357 64.3162 232.228 64.6814 232.788 65.1544C233.701 65.9304 233.813 67.0715 233.842 68.1961C233.859 68.9305 233.842 69.665 233.842 70.3787C234.411 70.7149 234.78 70.246 235.199 70.1422C236.602 69.7854 237.586 70.3082 237.947 71.7274C238.167 72.5988 238.216 73.4868 238.137 74.3956C237.942 76.6114 237.432 78.7609 236.83 80.8938C236.76 81.1428 236.648 81.3918 236.839 81.7237C237.826 81.1303 238.801 80.5369 239.789 79.9602C240.478 79.5576 241.208 79.2464 242.001 79.1468C243.18 79.0016 243.927 79.6282 244.03 80.815C244.122 81.8399 243.823 82.7943 243.458 83.7363C242.578 86.0103 241.349 88.1017 240.009 90.1225C235.971 96.2183 231.22 101.704 225.87 106.684C225.14 107.364 224.356 107.991 223.646 108.696C222.546 109.792 221.75 111.041 221.401 112.609C220.886 114.933 220.895 117.211 221.65 119.464C222.6 122.307 223.58 125.141 224.584 127.963C224.87 128.772 225.148 129.614 225.02 130.423C224.866 131.369 225.103 132.183 225.377 133.029C233.187 157.184 240.976 181.347 248.836 205.489C249.575 207.763 250.504 209.988 251.359 212.228C251.903 213.66 251.886 213.681 250.761 214.656C248.33 216.764 245.927 218.901 243.441 220.938C242.607 221.623 242.478 222.225 242.777 223.229C245.433 232.217 248.039 241.226 250.654 250.226C251.334 252.575 251.131 252.774 248.67 252.342C237.93 250.467 227.19 248.6 216.446 246.745C214.213 246.359 214.118 246.209 215.147 244.164C223.717 227.125 232.29 210.087 240.856 193.045C241.325 192.111 241.702 191.132 242.171 190.198C242.462 189.621 242.109 189.169 241.96 188.7C239.872 182.181 237.756 175.666 235.648 169.151C234.17 164.591 232.705 160.027 231.215 155.474C231.054 154.981 231 154.433 230.51 153.889C229.643 154.483 228.755 155.089 227.862 155.699C227.427 155.997 227.016 156.338 226.555 156.582C225.862 156.952 225.439 156.753 225.327 155.972C225.177 154.931 225.107 153.877 225.016 152.827C224.779 150.101 224.551 147.374 224.318 144.644C223.729 144.644 223.766 145.109 223.646 145.42C222.841 147.536 222.048 149.661 221.248 151.777C221.119 152.122 220.986 152.47 220.799 152.785C220.575 153.159 220.202 153.229 219.841 153.005C219.529 152.815 219.251 152.561 218.978 152.317C216.268 149.889 213.558 147.462 210.856 145.026C209.603 143.901 209.599 143.839 210.719 142.49C213.989 138.561 217.276 134.639 220.538 130.701C220.895 130.27 221.376 129.905 221.563 129.187C220.148 129.295 218.812 129.382 217.475 129.506C212.126 130 206.777 130.515 201.428 131.008C198.909 131.241 196.394 131.498 193.871 131.656C192.779 131.722 192.331 132.295 191.999 133.224C190.153 138.395 188.613 143.64 187.982 149.121C187.53 153.051 187.015 156.977 187.131 160.935C187.277 165.886 187.663 170.824 188.314 175.737C188.335 175.882 188.327 176.065 188.7 176.144L188.708 176.123Z" fill="black"/>
<path id="Vector_2" d="M226.873 67.3781C227.002 67.4196 227.13 67.4652 227.259 67.5067C227.657 67.0918 227.998 66.5897 228.462 66.2743C229.554 65.5315 230.147 64.4568 230.753 63.3405C231.608 61.7678 232.488 60.2034 233.475 58.7096C239.049 50.2693 244.738 41.9079 250.851 33.8411C251.038 33.5963 251.307 33.3929 251.299 33.0153C250.697 32.7456 250.175 33.1315 249.652 33.2726C242.344 35.2851 235.044 37.3267 227.744 39.3642C221.914 40.9908 216.087 42.6341 210.257 44.2483C209.626 44.4225 209.029 44.684 208.286 44.3312C205.29 42.9079 202.165 41.7917 199.011 40.7709C193.981 39.1401 188.877 37.945 183.544 37.8828C179.996 37.8413 176.506 38.3019 173.024 38.8911C163.148 40.5676 154.786 44.9661 148.42 52.8006C138.701 64.7597 139.082 80.9929 149.324 92.4665C155.201 99.0478 162.666 102.778 171.261 104.384C171.879 104.5 172.514 104.749 173.547 104.558C172.377 103.903 171.518 103.426 170.663 102.936C169.144 102.073 169.061 101.795 169.97 100.371C170.904 98.9067 171.908 97.4834 172.813 95.9978C173.331 95.1471 174.029 94.7654 174.987 94.6575C177.867 94.338 180.743 93.9853 183.619 93.6325C190.155 92.8358 196.687 91.9976 203.227 91.259C204.327 91.1345 204.866 90.6407 205.36 89.7485C209.85 81.6361 214.415 73.5693 218.847 65.4278C219.644 63.9671 220.769 63.0957 222.142 62.4193C224.632 61.191 226.562 62.2741 226.856 65.046C226.939 65.8137 226.869 66.598 226.869 67.3698L226.873 67.3781Z" fill="white"/>
<path id="Vector_3" d="M224.988 66.6395C224.988 66.1665 225.038 65.6851 224.98 65.2204C224.814 63.9257 224.196 63.5605 223.025 64.1C221.95 64.5938 221.112 65.3324 220.527 66.4113C218.689 69.7891 216.792 73.1336 214.921 76.4948C212.128 81.5117 209.331 86.5244 206.546 91.5495C206.123 92.3131 205.679 92.9313 204.683 93.0351C202.064 93.3048 199.454 93.6575 196.84 93.9729C190.407 94.753 183.987 95.6286 177.539 96.2552C175.356 96.4668 174.04 97.3341 172.999 99.1972C171.774 101.384 171.654 101.318 173.829 102.517C178.991 105.372 184.145 108.239 189.324 111.065C190.295 111.596 190.822 112.244 190.897 113.389C190.988 114.804 191.266 116.206 191.457 117.617C191.993 121.53 192.549 125.443 193.038 129.361C193.142 130.199 193.499 130.427 194.275 130.344C195.636 130.195 197.001 130.091 198.367 129.966C205.027 129.352 211.688 128.734 218.348 128.12C219.556 128.008 220.759 127.888 221.967 127.792C222.66 127.738 222.909 127.402 222.702 126.742C222.594 126.39 222.448 126.049 222.332 125.701C221.606 123.501 220.747 121.335 220.187 119.095C218.95 114.136 220.095 109.874 224.067 106.43C230.404 100.932 235.674 94.5165 240.119 87.4124C241.011 85.9808 241.812 84.4952 242.372 82.8976C242.546 82.4038 242.733 81.9059 242.733 81.3664C242.733 80.5365 242.488 80.3456 241.654 80.5863C240.31 80.9764 239.222 81.8187 238.114 82.6279C237.691 82.935 237.342 83.4661 236.807 83.462C236.006 83.462 235.907 83.989 235.707 84.5409C234.981 86.5161 234.242 88.4913 233.483 90.454C233.122 91.3877 232.711 92.3006 232.3 93.2135C232.105 93.6451 231.769 93.9024 231.292 93.6492C230.877 93.4293 230.972 93.0226 231.093 92.6699C231.213 92.3214 231.383 91.9935 231.52 91.6491C232.259 89.7901 233.031 87.9435 233.72 86.0638C234.902 82.8478 235.956 79.5904 236.55 76.2085C236.77 74.9636 236.894 73.7021 236.72 72.4324C236.645 71.8763 236.479 71.3701 235.753 71.4572C234.989 71.5485 234.471 72.1585 233.782 72.4241C233.334 72.5983 233.425 73.1585 233.342 73.5445C232.014 79.8269 229.636 85.7235 226.756 91.4292C226.49 91.9562 226.345 92.7363 225.486 92.5703C224.947 92.4666 224.972 91.9271 225.548 90.8192C227.694 86.6945 229.458 82.4163 230.802 77.9721C231.645 75.196 232.35 72.3867 232.541 69.4779C232.599 68.6355 232.607 67.789 232.325 66.9757C232.001 66.042 231.52 65.8262 230.644 66.2993C230.188 66.5482 229.74 66.8636 229.387 67.2454C228.42 68.2869 227.503 69.3741 226.569 70.4447C226.349 70.6937 226.312 71.0132 226.233 71.3203C224.669 77.4368 222.054 83.1217 219.087 88.6573C218.938 88.9353 218.788 89.2175 218.597 89.4664C218.315 89.8399 217.925 90.0017 217.481 89.8067C216.966 89.5785 216.83 89.122 216.991 88.6199C217.12 88.2257 217.344 87.8605 217.543 87.4871C220.095 82.7441 222.324 77.8683 223.855 72.6896C224.436 70.7186 224.951 68.7309 224.98 66.6561L224.988 66.6395Z" fill="white"/>
<path id="Vector_4" d="M97.2986 36.065C95.4063 36.0982 93.9123 37.7331 93.9621 39.7166C94.0078 41.5425 95.3939 42.9616 97.141 42.9658C98.9835 42.9658 100.61 41.2769 100.598 39.3639C100.585 37.5091 99.108 36.0318 97.2986 36.065Z" fill="black"/>
<path id="Vector_5" d="M105.062 51.0922C105.016 51.0175 104.966 50.8142 104.858 50.781C104.402 50.6316 104.053 50.42 103.933 49.9013C103.891 49.7104 103.642 49.6274 103.418 49.6233C102.904 49.6108 102.476 50.171 102.484 50.8391C102.493 51.5487 103.053 52.0715 103.8 52.0757C104.443 52.0757 105.074 51.6234 105.057 51.0964L105.062 51.0922Z" fill="black"/>
<path id="Vector_6" d="M105.409 166.362C104.695 166.582 104.268 166.989 103.795 167.312C96.1173 172.615 88.4484 177.923 80.7711 183.226C80.3146 183.541 79.883 184.089 79.2356 183.649C78.7211 183.296 78.5509 182.209 78.9078 181.491C79.8457 179.603 80.8126 177.732 81.7712 175.856C88.3073 163.046 94.8433 150.233 101.396 137.427C101.765 136.701 101.956 135.817 102.898 135.489C103.168 135.398 103.089 135.037 103.097 134.779C103.276 129.078 105.123 123.841 107.542 118.758C107.874 118.061 108.181 117.355 108.492 116.671C108.239 116.509 108.115 116.621 108.003 116.7C105.504 118.484 102.815 119.928 99.9892 121.115C99.3003 121.405 98.9932 121.754 99.0803 122.522C99.2463 123.932 99.072 125.368 99.3501 126.775C99.5783 127.924 99.5285 128.049 98.4537 128.302C94.308 129.281 90.7266 131.331 87.4939 134.037C83.8876 137.053 81.074 140.717 78.829 144.826C75.0816 151.685 73.127 159.063 72.4506 166.823C71.9775 172.259 72.1726 177.661 73.0648 183.039C73.0731 183.093 73.0814 183.143 73.0814 183.197C73.0814 183.695 73.3387 184.375 72.5709 184.467C71.8281 184.554 71.8364 183.861 71.7493 183.359C71.2471 180.396 70.9608 177.408 70.8903 174.4C70.8571 172.943 70.8322 172.914 69.3424 173.093C62.6984 173.877 56.0586 174.69 49.4188 175.47C43.5592 176.159 37.6996 176.827 31.84 177.504C30.6365 177.645 29.4372 177.794 28.2337 177.939C26.8767 178.101 26.5489 177.84 26.6651 176.549C26.8975 173.927 27.2253 171.312 27.4079 168.686C27.5241 166.98 27.8685 167.009 29.1757 166.831C31.9437 166.453 34.7158 166.117 37.4838 165.769C40.148 165.432 42.8122 165.059 45.4847 164.781C46.5098 164.673 46.8583 164.08 47.1737 163.229C50.2031 155.029 53.2658 146.838 56.3201 138.647C56.8817 137.142 57.9205 136.578 59.4366 136.954C60.7646 137.286 62.0842 137.668 63.4246 137.925C64.4953 138.128 65.0265 138.709 65.3419 139.726C66.0639 142.037 66.8898 144.315 67.6783 146.61C67.8442 147.091 67.948 147.606 68.2883 148.046C68.8734 147.896 69.1349 147.398 69.4793 147.029C71.2762 145.099 73.044 143.145 74.8409 141.215C75.7332 140.257 75.8203 140.261 77.0072 140.85C78.3075 141.498 79.3795 141.228 80.2233 140.041C84.203 134.468 89.1538 130.111 95.6691 127.7C96.3912 127.435 97.4162 127.505 97.7607 126.783C98.047 126.181 97.8561 125.339 97.8312 124.605C97.6154 118.92 97.3955 113.231 97.1672 107.546C96.9348 101.703 96.6942 95.8563 96.4535 90.0136C96.4452 89.773 96.5531 89.4866 96.2418 89.275C95.7023 89.441 95.5197 89.9763 95.2251 90.3705C90.5938 96.516 85.975 102.67 81.3521 108.824C81.0989 109.16 80.8416 109.496 80.5885 109.832C80.1818 110.38 79.7004 110.508 79.0779 110.164C78.3891 109.782 77.667 109.45 76.9657 109.093C73.9612 107.562 70.965 106.019 67.9604 104.492C66.8358 103.919 66.8068 103.923 66.1719 105.043C62.2378 111.961 58.3161 118.882 54.3904 125.804C53.6641 127.086 52.9213 128.364 52.2117 129.655C51.8714 130.273 51.4398 130.754 50.8132 131.107C48.9748 132.136 47.1613 133.211 45.3229 134.248C44.8872 134.493 44.4307 134.97 43.8995 134.522C43.414 134.111 43.6588 133.526 43.7625 133.032C44.5178 129.48 45.3063 125.932 46.074 122.38C48.1739 112.704 50.2695 103.023 52.3652 93.3458C52.4192 93.0885 52.4897 92.8312 52.5271 92.5739C52.6018 92.0718 52.4482 91.7357 51.8672 91.7855C51.3942 91.827 50.9252 91.8934 50.4563 91.9349C46.3645 92.3042 42.2727 92.6735 38.181 93.0387C34.4544 93.3707 30.7319 93.7068 27.0054 94.0346C26.138 94.1093 25.416 94.4205 24.7478 95.0139C23.0962 96.4911 21.3864 97.8979 19.7057 99.3378C18.8218 100.093 18.5313 99.9063 19.5065 101.342C22.3783 105.57 25.2334 109.815 28.0926 114.052C28.3001 114.359 28.5118 114.658 28.711 114.969C29.0222 115.467 29.0181 115.957 28.657 116.438C27.5822 117.874 26.5406 119.331 25.4326 120.741C24.8308 121.513 24.5362 121.505 23.5734 120.779C21.2993 119.069 19.0418 117.33 16.7759 115.608C15.2695 114.463 13.7631 113.318 12.2982 112.201C11.7961 112.434 11.8127 112.836 11.7172 113.181C10.0282 119.488 8.28945 125.783 6.68345 132.111C6.31826 133.559 5.65843 134.286 4.19768 134.447C3.21001 134.56 2.24724 134.887 1.25957 135.049C0.184751 135.223 -0.126489 134.945 0.0436553 133.858C0.363195 131.775 0.761583 129.709 1.13092 127.634C2.94857 117.471 4.76621 107.309 6.5797 97.1468C6.79135 95.96 6.74985 95.9392 5.49659 96.0637C4.55456 96.1592 3.60839 96.2256 2.66637 96.3376C2.08124 96.4082 1.51271 96.3542 1.47951 95.6695C1.45046 95.0927 2.01069 94.9641 2.50453 94.9184C4.91975 94.7027 7.33498 94.4993 9.74605 94.2794C16.1493 93.6943 22.5484 93.1009 28.9517 92.52C35.4047 91.9349 41.8619 91.3622 48.315 90.7689C54.5066 90.2004 60.694 89.607 66.8856 89.0385C73.2847 88.4492 79.688 87.8807 86.0912 87.2957C89.1331 87.0176 92.1749 86.7189 95.2168 86.4325C95.5322 86.4035 95.8476 86.3703 96.163 86.3578C97.0898 86.3163 97.6887 86.8323 97.9599 87.9056C101.384 87.0716 104.828 86.3246 108.33 85.9097C116.904 84.8889 125.386 85.0881 133.624 87.9886C140.16 90.2875 145.658 94.0221 149.501 99.9229C150.862 102.01 151.9 104.251 152.601 106.641C152.784 107.268 153.008 107.575 153.83 107.703C167.254 109.753 176.546 119.405 178.484 131.983C179.887 141.095 177.949 149.623 173.425 157.536C166.449 169.736 156.207 177.873 142.525 181.388C134.935 183.338 127.378 183.097 120.05 180.039C113.945 177.491 109.289 173.304 106.069 167.524C105.865 167.159 105.658 166.802 105.401 166.35L105.409 166.362Z" fill="black"/>
<path id="Vector_7" d="M80.4731 181.444C81.1164 181.485 81.3529 181.166 81.6393 180.966C89.2709 175.701 96.9025 170.422 104.53 165.148C104.791 164.97 105.02 164.733 105.298 164.6C105.845 164.335 106.364 164.351 106.509 165.078C106.638 165.717 106.949 166.256 107.252 166.812C109.838 171.584 113.535 175.248 118.345 177.742C125.425 181.419 132.923 182.074 140.638 180.452C151.702 178.128 160.678 172.327 167.728 163.592C174.036 155.778 177.659 146.919 177.584 136.703C177.485 123.055 168.417 111.955 155.021 109.245C154.482 109.137 153.909 108.896 153.328 109.278C153.718 111.743 153.959 114.199 153.864 116.685C153.652 122.129 152.2 127.258 150.187 132.288C149.56 133.848 148.543 134.632 147.058 135.068C145.178 135.62 143.356 135.533 141.613 134.495C141.431 134.902 141.302 135.188 141.177 135.474C140.572 136.885 139.883 138.25 138.816 139.375C137.094 141.197 135.243 141.226 133.43 139.52C133.106 139.217 132.948 138.694 132.396 138.661C131.84 139.753 131.313 140.844 130.736 141.906C130.284 142.749 129.691 143.491 128.915 144.064C127.69 144.969 126.375 144.832 125.396 143.691C125.088 143.334 124.844 142.931 124.566 142.545C124.13 142.881 124.047 143.375 123.827 143.786C122.96 145.409 121.739 146.699 120.167 147.633C118.046 148.894 116.432 148.322 115.515 146.027C114.963 144.645 114.755 143.18 114.564 141.72C114.029 137.636 113.884 133.532 113.842 129.424C113.838 128.765 113.954 128.076 113.498 127.345C113.124 127.831 112.801 128.233 112.498 128.648C111.141 130.528 109.792 132.416 108.431 134.292C107.871 135.059 107.265 135.79 106.497 136.367C105.837 136.86 105.049 137.275 104.306 136.815C103.43 136.271 103.214 136.773 102.936 137.387C102.828 137.628 102.696 137.856 102.58 138.093C96.6161 149.778 90.6569 161.459 84.6936 173.144C83.3075 175.862 81.9256 178.585 80.4648 181.452L80.4731 181.444Z" fill="white"/>
<path id="Vector_8" d="M99.1699 120.14C103.092 118.364 106.702 116.455 109.628 113.459C110.03 113.044 110.462 112.654 110.906 112.289C111.167 112.073 111.487 112.048 111.761 112.322C112.039 112.596 111.993 112.886 111.79 113.172C110.752 114.65 110.134 116.343 109.37 117.953C107.457 122.003 105.635 126.103 104.918 130.58C104.702 131.933 104.42 133.281 104.436 134.655C104.449 135.564 104.901 135.796 105.644 135.302C106.221 134.92 106.669 134.389 107.071 133.833C108.98 131.182 110.873 128.518 112.79 125.87C113.134 125.397 113.242 124.459 114.051 124.692C114.794 124.907 114.802 125.783 114.856 126.435C115.006 128.219 115.101 130.007 115.172 131.8C115.317 135.593 115.508 139.381 116.151 143.128C116.313 144.062 116.496 145 116.919 145.859C117.438 146.904 118.044 147.137 119.102 146.651C119.575 146.436 120.015 146.124 120.426 145.797C121.969 144.577 122.932 142.971 123.422 141.078C124.273 137.796 124.7 134.452 124.712 131.07C124.725 127.327 124.858 123.588 125.053 119.849C125.073 119.43 125.136 119.011 125.202 118.596C125.264 118.218 125.401 117.828 125.866 117.866C126.389 117.907 126.526 118.318 126.513 118.783C126.513 118.94 126.484 119.098 126.472 119.256C126.223 122.04 126.165 124.833 126.127 127.625C126.078 131.261 126.086 134.912 125.318 138.485C125.032 139.809 125.264 140.883 125.887 142.016C126.742 143.572 127.58 143.713 128.775 142.365C129.701 141.327 130.282 140.083 130.784 138.804C132.431 134.593 133.199 130.194 133.473 125.704C133.601 123.596 133.56 121.488 133.22 119.397C133.149 118.957 133.195 118.476 133.713 118.38C134.332 118.26 134.531 118.737 134.589 119.247C134.672 119.978 134.751 120.712 134.788 121.451C135.017 126.331 134.485 131.132 133.228 135.85C133.128 136.223 132.788 136.609 133.149 137.033C133.626 137.593 134.037 138.219 134.568 138.721C135.56 139.655 136.49 139.643 137.519 138.759C138.291 138.095 138.81 137.236 139.27 136.34C140.266 134.41 140.93 132.356 141.47 130.26C142.756 125.239 143.354 120.115 143.694 114.957C143.727 114.438 143.665 113.758 144.395 113.77C145.155 113.782 144.989 114.48 145.018 114.986C145.018 115.04 145.018 115.09 145.009 115.144C144.802 118.671 144.433 122.177 143.831 125.659C143.491 127.634 143.076 129.588 142.532 131.518C142.312 132.306 142.694 133.447 143.221 133.759C144.74 134.651 148.014 133.671 148.744 132.07C149.732 129.912 150.52 127.671 151.139 125.381C152.487 120.389 153.039 115.334 152.085 110.205C150.504 101.703 145.702 95.5574 138.17 91.4701C132.398 88.3371 126.123 87.0508 119.645 86.7479C112.703 86.42 105.868 87.3288 99.1409 89.0467C97.7631 89.3994 97.759 89.416 97.8129 90.8393C98.1325 98.8439 98.452 106.848 98.7882 114.849C98.8587 116.529 98.813 118.218 99.1699 120.14Z" fill="white"/>
<path id="Vector_9" d="M206.177 30.9642C205.812 30.9061 205.571 30.6944 205.335 30.487C203.633 28.9972 201.94 27.4909 200.222 26.0178C199.641 25.5199 199.558 25.1091 200.019 24.4202C200.695 23.3953 201.613 22.6069 202.409 21.7023C207.991 15.3243 213.585 8.95887 219.179 2.58925C219.424 2.31123 219.652 2.02075 219.909 1.75933C220.822 0.85057 221.196 0.817373 222.196 1.5975C223.528 2.63074 224.864 3.65569 226.147 4.74704C227.412 5.82178 227.412 6.07076 226.391 7.29903C220.171 14.789 213.946 22.2791 207.717 29.7649C207.29 30.2795 206.928 30.9102 206.177 30.9642Z" fill="black"/>
<path id="Vector_10" d="M114.187 182.094C114.158 182.372 114.116 182.895 114.042 183.414C112.618 193.195 111.191 202.979 109.759 212.76C109.705 213.125 109.672 213.499 109.564 213.843C109.419 214.304 109.103 214.586 108.61 214.312C106.912 213.37 104.958 213.424 103.157 212.889C102.908 212.814 102.642 212.789 102.385 212.735C100.716 212.366 100.53 212.117 100.866 210.498C102.85 200.975 104.846 191.452 106.846 181.928C106.921 181.572 107.045 181.223 107.194 180.891C107.676 179.849 107.684 179.858 108.871 180.065C110.269 180.306 111.672 180.518 113.066 180.783C113.996 180.962 114.067 181.065 114.191 182.099L114.187 182.094Z" fill="black"/>
<path id="Vector_11" d="M220.428 35.5384C219.942 35.5259 219.656 35.2147 219.461 34.8288C218.427 32.7582 217.415 30.6751 216.382 28.6044C216.166 28.1729 216.228 27.8284 216.535 27.4508C216.875 27.0359 217.27 26.7329 217.743 26.4715C223.656 23.2473 229.562 20.0065 235.471 16.7698C235.795 16.5913 236.11 16.3963 236.45 16.2635C237.006 16.0477 237.583 16.1515 237.824 16.6868C238.882 19.0686 240.322 21.2887 240.887 23.8905C241.015 24.488 240.853 24.7868 240.389 25.0399C240.156 25.1644 239.928 25.2889 239.696 25.4134C233.753 28.5795 227.806 31.7498 221.859 34.9159C221.399 35.1608 220.959 35.472 220.419 35.5342L220.428 35.5384Z" fill="black"/>
<path id="Vector_12" d="M199.958 10.5381C199.958 13.4303 199.971 16.3226 199.954 19.2149C199.946 20.8789 199.68 21.1195 198.004 21.0946C196.796 21.0739 195.584 21.0365 194.377 20.9909C192.588 20.9245 192.555 20.9079 192.194 19.2066C191.302 14.9906 190.43 10.7746 189.546 6.55447C189.268 5.2183 188.961 3.88629 188.7 2.54597C188.451 1.26374 188.7 0.89443 189.978 0.769942C192.804 0.49192 195.63 0.234645 198.46 0.0188663C199.9 -0.0890231 200.245 0.238795 200.261 1.70775C200.294 4.64981 200.27 7.59602 200.27 10.5381C200.166 10.5381 200.058 10.5381 199.954 10.5381H199.958Z" fill="black"/>
<path id="Vector_13" d="M87.9722 202.773C87.8145 202.682 87.5323 202.545 87.275 202.371C85.7935 201.362 84.312 200.358 82.8513 199.329C81.8802 198.644 81.9258 198.532 82.7932 197.574C87.5614 192.299 92.3088 187.009 97.0646 181.722C98.0661 180.61 99.1575 180.542 100.339 181.519C101.314 182.324 102.314 183.1 103.252 183.946C103.875 184.507 103.85 184.805 103.132 185.291C102.63 185.627 102.289 186.079 101.92 186.515C97.8821 191.308 93.8526 196.109 89.8272 200.914C89.4579 201.354 89.0429 201.761 88.852 202.333C88.7441 202.665 88.4785 202.831 87.9764 202.777L87.9722 202.773Z" fill="black"/>
<path id="Vector_14" d="M184.813 73.1008C184.73 75.3665 183.9 77.1051 181.966 78.1591C180.091 79.1799 178.215 78.9932 176.41 77.9185C173.895 76.4205 172.625 73.3539 173.351 70.5778C174.277 67.0465 177.775 65.4282 181.041 67.088C183.514 68.3454 184.697 70.4616 184.817 73.1008H184.813Z" fill="black"/>
<path id="Vector_15" d="M197.554 68.4735C197.554 69.9881 197.101 71.4696 195.948 72.6729C194.379 74.312 192.142 74.4158 190.42 72.9468C187.814 70.7268 187.652 65.9589 190.092 63.577C191.698 62.0085 193.96 61.967 195.628 63.5148C197.027 64.8136 197.562 66.4776 197.55 68.4735H197.554Z" fill="black"/>
<path id="Vector_16" d="M207.311 57.5608C209.925 57.5857 212.058 59.9385 211.975 62.7104C211.892 65.5114 209.718 67.7605 207.116 67.7273C204.489 67.6982 202.447 65.4076 202.497 62.5486C202.547 59.6978 204.634 57.5359 207.311 57.5608Z" fill="black"/>
<path id="Vector_17" d="M101.575 40.4441C101.541 42.2198 100.034 43.7131 98.2741 43.7131C96.6138 43.7131 95.3122 42.4457 95.2856 40.7955C95.2524 38.9885 96.9459 37.2943 98.7124 37.3634C100.306 37.4261 101.601 38.819 101.575 40.4379V40.4441Z" fill="white"/>
<path id="Vector_18" d="M133.385 156.941C131.397 156.908 129.816 155.202 129.824 153.09C129.828 150.77 131.675 148.92 133.908 148.999C135.73 149.061 137.306 150.858 137.306 152.866C137.306 155.136 135.534 156.974 133.389 156.941H133.385Z" fill="black"/>
<path id="Vector_19" d="M162.393 139.593C162.401 141.622 160.866 143.195 158.837 143.232C156.716 143.274 155.276 142.07 155.309 140.282C155.347 138.265 157.276 135.937 158.936 135.912C160.559 135.887 162.385 137.829 162.393 139.589V139.593Z" fill="black"/>
<path id="Vector_20" d="M146.045 142.891C147.817 142.862 149.273 144.277 149.319 146.07C149.365 147.92 147.821 149.593 146.007 149.655C144.252 149.717 142.804 148.298 142.766 146.48C142.725 144.601 144.26 142.924 146.045 142.891Z" fill="black"/>
<path id="Vector_21" d="M110.595 42.5272C110.562 44.2855 109.084 45.7641 107.359 45.7641C105.732 45.7641 104.456 44.5091 104.43 42.8751C104.398 41.0858 106.058 39.4083 107.789 39.4766C109.351 39.5388 110.621 40.918 110.595 42.521V42.5272Z" fill="white"/>
<path id="Vector_22" d="M119.383 44.737C119.349 46.5475 117.812 48.0701 116.017 48.0701C114.324 48.0701 112.996 46.7778 112.969 45.0953C112.935 43.2528 114.662 41.5255 116.464 41.5958C118.089 41.6598 119.41 43.08 119.383 44.7306V44.737Z" fill="white"/>
</g>
<defs>
<clipPath id="clip0_7037_10445">
<rect width="255.084" height="252.515" fill="white"/>
</clipPath>
</defs>
</svg>
