<svg width="365" height="214" viewBox="0 0 365 214" fill="none" xmlns="http://www.w3.org/2000/svg">
<g clip-path="url(#clip0_7104_10724)">
<path d="M196.924 121.985C194.97 121.922 193.01 121.888 191.056 121.79C188.976 121.688 189.507 122.065 188.782 120.174C188.667 119.877 188.622 119.528 188.439 119.282C187.673 118.271 187.822 117.197 188.022 116.049C188.793 111.644 189.507 107.227 190.239 102.811C190.313 102.371 190.353 101.926 190.404 101.497C189.936 101.263 189.639 101.543 189.313 101.651C188.182 102.034 187.045 102.337 185.839 102.383C183.456 102.48 181.685 101.491 180.565 99.3889C179.731 97.8292 179.422 96.1267 179.331 94.3785C179.119 90.3392 179.679 86.3571 180.279 82.3807C180.953 77.913 181.982 73.5024 182.479 69.0061C182.628 67.6463 182.742 66.2809 182.839 64.9097C182.873 64.4126 182.85 63.9042 182.788 63.4071C182.662 62.4701 182.582 62.413 181.656 62.6472C178.731 63.3728 175.834 64.2012 172.885 64.8068C170.966 65.2011 169.446 66.0866 168.046 67.4064C166.086 69.2574 164.006 70.9714 161.995 72.7711C161.372 73.331 160.68 73.7423 159.898 74.0223C157.795 74.7764 155.704 75.5763 153.595 76.3247C152.978 76.5418 152.652 76.8789 152.47 77.5302C151.721 80.2725 150.133 82.4264 147.813 84.089C145.539 85.7172 143.076 87.0198 140.607 88.3053C137.688 89.825 134.922 91.6018 132.111 93.3044C131.174 93.8757 130.305 94.5499 129.488 95.2868C127.551 97.0294 125.614 98.7719 123.683 100.52C123.454 100.726 123.169 100.892 123.026 101.337C123.454 101.406 123.837 101.457 124.214 101.526C129.185 102.48 132.905 106.216 133.819 111.215C134.791 116.551 133.271 121.236 129.968 125.418C129.174 126.424 128.271 127.321 127.283 128.144C119.397 134.668 111.524 141.204 103.65 147.74C103.581 147.797 103.507 147.854 103.438 147.917C102.576 148.7 102.421 148.443 103.078 149.671C105.438 154.053 107.787 158.441 110.141 162.829C113.552 169.187 116.935 175.558 120.392 181.888C120.952 182.91 120.934 183.687 120.323 184.647C119.615 185.756 118.946 186.904 118.392 188.109C118.14 188.664 118.14 189.098 118.397 189.646C119.54 192.034 120.632 194.445 121.757 196.845C122.174 197.742 122.192 197.731 123.18 197.342C128.334 195.308 133.579 195.108 138.893 196.582C140.893 197.136 142.733 198.039 144.287 199.456C144.899 200.016 145.43 200.639 145.824 201.37C146.39 202.421 146.184 202.958 145.024 203.301C142.356 204.095 139.682 204.855 137.008 205.632C127.763 208.311 118.512 210.991 109.267 213.676C107.37 214.225 107.364 214.236 106.473 212.471C104.221 208.031 101.941 203.609 99.753 199.136C99.2616 198.136 98.3874 197.485 97.8788 196.497C92.8106 186.681 87.6795 176.894 82.5598 167.102C82.3541 166.708 82.2341 166.251 81.7884 165.919C80.7371 166.771 79.6057 167.559 78.6401 168.519C78.0972 169.062 77.7544 168.999 77.2687 168.61C76.6288 168.09 75.9717 167.593 75.3546 167.056C74.9432 166.696 74.6175 166.656 74.1718 167.022C71.7662 168.982 69.3378 170.918 66.9608 172.821C66.8808 173.301 67.2408 173.438 67.4351 173.661C68.8121 175.215 69.4978 177.106 69.9435 179.071C71.7148 186.847 71.4291 194.565 69.1207 202.204C68.7093 203.564 68.1322 204.855 67.3379 206.038C67.1094 206.375 66.8637 206.717 66.5608 206.992C66.058 207.443 65.5838 207.374 65.1781 206.826C65.0181 206.609 64.8924 206.358 64.7609 206.118C57.6014 193.588 50.4419 181.059 43.2823 168.53C42.7681 167.631 42.9357 166.864 43.7852 166.228C50.5961 161.149 57.4071 156.07 64.2181 150.991C64.5781 150.722 64.9267 150.431 65.2409 150.179C65.2466 149.825 65.0067 149.751 64.8524 149.597C64.201 148.951 64.2124 148.603 64.9495 148.083C66.6694 146.877 68.4121 145.7 70.1435 144.512C71.1548 143.821 71.1434 143.986 70.5206 142.815C67.3208 136.811 64.1153 130.812 60.9326 124.796C60.5841 124.133 60.1441 123.59 59.5784 123.105C56.4301 120.396 54.1159 117.111 52.7503 113.175C52.3503 112.015 52.3332 112.015 51.139 112.432C37.437 117.203 23.7293 121.973 10.0273 126.744C9.89591 126.79 9.77592 126.847 9.6445 126.892C8.31315 127.338 8.27316 127.332 7.31322 126.224C5.46191 124.104 4.08486 121.693 2.94207 119.14C1.38217 115.649 0.353667 112.021 0.0908263 108.199C-0.103447 105.359 -0.0805913 105.354 2.57638 104.434C11.5072 101.354 20.4324 98.2749 29.3632 95.1897C29.6661 95.0869 29.9632 94.9726 30.2717 94.8755C30.5917 94.7727 30.6546 94.5956 30.5974 94.2585C29.5975 88.1796 32.0773 83.2777 35.9285 78.9071C40.1225 74.1479 45.4079 70.9314 51.2361 68.5718C56.3501 66.5037 61.6583 65.2296 67.1837 64.9268C67.2294 64.9268 67.2751 64.9154 67.3208 64.9154C68.5493 65.0182 69.3092 64.5326 69.8121 63.3443C70.3435 62.0931 71.1263 60.9447 71.7948 59.7506C72.0176 59.3564 72.2748 58.9622 72.1262 58.4652C71.6005 56.7055 71.8234 54.9401 72.0976 53.169C72.1091 53.0833 72.0748 52.9919 72.0576 52.8948C71.5891 52.8776 71.4862 53.289 71.2805 53.5575C70.5092 54.5745 69.7606 55.6143 68.995 56.6427C67.9493 58.0481 66.7151 59.2593 65.2466 60.2248C64.6695 60.6019 64.0639 60.9333 63.3953 61.0875C61.8126 61.4646 60.5669 60.4819 60.5384 58.848C60.5212 57.9967 60.8183 57.2254 61.2812 56.5341C61.864 55.66 62.4925 54.8201 63.1096 53.9689C63.5153 53.4147 63.9153 52.8548 64.1381 52.1978C64.401 51.4151 64.2067 50.998 63.4296 50.6838C62.5725 50.341 61.664 50.2381 60.7498 50.1924C59.2013 50.1182 57.6414 50.181 56.1044 49.9239C53.6817 49.5183 52.6189 48.1014 52.9846 45.6733C53.1217 44.7649 53.4303 43.8965 53.8817 43.0966C57.35 36.9206 62.3725 32.7728 69.4292 31.3902C71.6919 30.9446 73.9832 31.0303 76.1888 31.8302C80.3999 33.3499 82.5712 37.6919 81.2856 41.9883C81.2627 42.0682 81.2856 42.1654 81.2856 42.4453C81.9713 42.4453 82.6798 42.3882 83.3769 42.4567C87.4509 42.8338 90.2279 45.0048 91.7935 48.7298C92.462 50.3181 92.2392 51.9635 91.7764 53.5689C91.5992 54.1803 91.3821 54.7973 91.0793 55.3515C90.5079 56.4027 90.485 57.4311 90.965 58.4994C91.0564 58.7051 91.1535 58.9165 91.2107 59.1393C91.3764 59.7735 91.1307 60.0934 90.4736 60.1106C90.3364 60.1106 90.205 60.0706 90.0679 60.0592C88.708 59.922 88.5251 60.0592 88.3537 61.4303C88.2566 62.1959 88.3194 62.9729 88.0509 63.727C87.5366 65.2011 86.8567 65.6753 85.2853 65.6124C84.5368 65.5781 83.8569 65.361 83.1998 65.0068C82.8112 64.7954 82.3998 64.6183 82.0513 64.4469C81.7256 64.6412 81.7656 64.8925 81.7484 65.1039C81.6513 66.3437 81.6513 66.3551 82.7941 66.7608C86.2053 67.9605 89.2794 69.6974 91.7706 72.3597C92.4106 73.0453 93.0048 73.3081 94.0219 72.9539C113.506 66.1894 133.008 59.4764 152.504 52.7405C153.041 52.552 153.544 52.5063 154.104 52.5806C157.635 53.0433 161.172 53.4718 164.703 53.9346C165.852 54.0831 166.954 54.066 168.08 53.7232C169.954 53.1404 171.863 52.6777 173.743 52.1178C174.657 51.8436 175.394 51.9978 176.148 52.6091C178.874 54.8316 181.628 57.0197 184.405 59.185C184.948 59.6078 184.976 59.9849 184.576 60.4248C184.119 60.9333 184.159 61.4532 184.319 62.0645C184.85 64.1384 184.616 66.2409 184.473 68.3376C184.256 71.4856 183.622 74.5764 183.079 77.6787C182.148 82.9863 181.131 88.2825 181.262 93.71C181.291 94.9498 181.439 96.1667 181.822 97.3493C182.622 99.8289 183.993 100.703 186.587 100.36C187.913 100.183 189.13 99.6517 190.353 99.1433C190.924 98.9033 190.999 98.4177 191.079 97.9264C191.564 95.0469 192.033 92.1617 192.513 89.2823C193.941 80.6839 195.375 72.0798 196.804 63.4814C198.13 55.5114 199.444 47.5358 200.764 39.5658C201.055 37.8119 201.318 36.0522 201.626 34.2983C202.449 29.5906 206.615 26.1226 211.534 26.0827C216.563 26.0427 221.585 26.0484 226.613 26.0312C239.041 25.997 251.475 25.9741 263.902 25.9341C283.37 25.877 302.831 25.8141 322.299 25.757C322.939 25.757 323.567 25.6085 324.19 25.557C326.173 25.4028 328.115 25.6427 329.921 26.5569C331.184 27.1967 332.178 28.1223 332.664 29.482C332.892 30.1162 333.258 30.2704 333.892 30.2476C336.481 30.1562 338.595 31.1903 340.303 33.0871C340.612 33.4299 340.943 33.7269 341.326 33.984C342.286 34.6182 343.12 35.3952 343.874 36.2579C345.057 37.6119 345.709 39.0745 345.52 40.9884C345.012 46.256 344.652 51.5408 344.246 56.8255C343.914 61.1504 343.623 65.4753 343.292 69.8002C342.892 75.0335 342.463 80.2668 342.063 85.5001C341.732 89.8707 341.429 94.2413 341.097 98.6119C340.698 103.845 340.275 109.079 339.875 114.312C339.543 118.637 339.235 122.962 338.915 127.287C338.623 131.2 338.338 135.119 338.023 139.033C337.915 140.381 337.881 140.393 336.475 140.456C331.407 140.69 326.338 140.576 321.264 140.587C282.558 140.667 243.852 140.718 205.146 140.787C202.175 140.787 199.209 140.827 196.238 140.838C194.941 140.838 194.695 140.65 194.278 139.41C193.821 138.079 193.604 136.662 192.878 135.422C192.61 134.965 192.861 134.542 193.004 134.114C194.187 130.657 195.375 127.207 196.535 123.75C196.718 123.202 197.038 122.67 196.947 121.962L196.924 121.985Z" fill="black"/>
<path d="M109.835 93.3717C109.858 92.8518 110.292 92.6004 110.595 92.2919C115.109 87.6585 120.349 84.2077 126.668 82.5623C129.188 81.9053 131.474 80.8712 133.302 78.9459C133.833 78.386 134.479 77.9346 135.079 77.449C135.719 76.9348 136.376 76.4378 137.108 76.055C138.302 75.4322 139.542 75.358 140.039 75.975C140.81 76.9291 140.09 77.8032 139.73 78.6431C139.439 79.3229 138.965 79.9228 138.393 80.8426C143.913 78.8202 149.141 76.9348 154.386 74.918C149.221 69.4562 147.027 63.0803 147.198 55.6816C129.314 61.8462 111.538 67.9708 93.7617 74.0953C93.9389 74.7181 94.3445 74.9695 94.6588 75.2894C97.6243 78.3288 100.596 81.3625 103.561 84.402C103.818 84.6648 104.087 84.9162 104.292 85.2133C104.555 85.5903 104.561 85.9845 104.161 86.3045C103.967 86.4645 103.647 86.5216 103.704 86.9615C105.355 88.5155 107.035 90.1209 108.749 91.692C109.269 92.172 109.686 92.6747 109.824 93.3832C109.012 93.3146 108.412 92.8918 107.841 92.3319C106.407 90.9265 104.921 89.5667 103.453 88.1956C102.47 87.2757 102.447 87.2586 101.487 88.1613C97.99 91.4407 96.1958 95.5199 95.7902 100.256C95.7387 100.885 95.9101 101.285 96.5501 101.507C97.8814 101.976 99.1785 102.564 100.521 102.999C104.944 104.427 109.418 105.244 114.126 104.787C116.326 104.57 118.189 103.987 119.783 102.484C120.149 102.142 120.554 101.839 120.931 101.507C123.251 99.4392 125.565 97.371 127.874 95.2914C129.028 94.2516 130.194 93.2232 131.531 92.4119C134.382 90.6865 137.187 88.8926 140.147 87.35C142.616 86.0645 145.073 84.7562 147.341 83.1222C149.107 81.8482 150.307 80.1742 151.152 78.2146C151.272 77.9403 151.478 77.6432 151.187 77.3176C150.45 77.369 150.004 77.7575 149.587 78.386C148.227 80.4427 146.353 81.9624 144.221 83.1736C143.896 83.3565 143.484 83.5736 143.239 83.1965C142.964 82.7794 143.393 82.5623 143.701 82.3681C143.856 82.271 144.021 82.191 144.181 82.1053C145.536 81.3226 146.735 80.3399 147.815 79.2144C148.01 79.0087 148.278 78.8259 148.25 78.3803C147.238 78.6716 146.364 78.8887 145.73 79.7514C145.136 80.5627 144.273 81.134 143.347 81.5568C143.004 81.7111 142.547 82.0596 142.296 81.5397C142.079 81.094 142.576 80.9626 142.879 80.7798C143.17 80.6027 143.564 80.5627 143.759 80.0714C142.267 80.4084 140.993 81.2197 139.587 81.4654C137.69 81.8025 136.57 82.8537 135.896 84.5677C135.742 84.9676 135.456 85.5332 134.908 85.2647C134.285 84.9619 134.782 84.4991 134.942 84.1163C134.993 83.9906 135.079 83.8764 135.142 83.7564C135.879 82.3281 136.805 81.0312 137.793 79.7686C137.976 79.5343 138.382 79.2429 138.096 78.9573C137.393 78.266 137.656 77.609 138.256 76.8091C137.405 77.0148 136.93 77.3633 136.473 77.7175C135.61 78.3917 134.696 79.0258 133.936 79.8086C132.056 81.7453 129.754 82.8594 127.188 83.5221C121.474 84.9904 116.617 87.9499 112.366 91.9777C110.806 93.4574 109.304 94.9886 108.355 96.9653C108.201 97.2853 108.012 97.5767 107.647 97.3767C107.298 97.1882 107.389 96.7939 107.532 96.5197C108.132 95.3542 108.686 94.1487 109.829 93.3774L109.835 93.3717Z" fill="white"/>
<path d="M188.703 117.956C189.12 118.231 189.497 118.151 189.857 118.151C197.44 118.213 205.028 118.276 212.61 118.333C225.998 118.43 239.386 118.516 252.773 118.608C265.978 118.699 279.183 118.796 292.388 118.882C301.067 118.939 309.752 118.985 318.432 119.03C319.683 119.036 319.718 119.042 319.832 117.836C320.112 114.928 320.346 112.015 320.615 109.107C321.215 102.559 321.837 96.0175 322.432 89.4702C322.929 84.0141 323.397 78.5579 323.894 73.1018C324.494 66.5088 325.123 59.9214 325.723 53.3284C326.317 46.8267 326.866 40.3194 327.483 33.8235C327.643 32.1495 327.3 30.6469 326.437 29.2472C325.374 27.5275 323.86 26.6534 321.78 26.6762C313.786 26.7562 305.787 26.8133 297.793 26.8362C276.229 26.9105 254.659 26.9562 233.095 27.0247C225.695 27.0476 218.29 27.1504 210.89 27.139C207.41 27.139 203.256 30.3213 202.628 34.2977C202.165 37.2285 201.657 40.148 201.165 43.0732C199.931 50.4546 198.685 57.8361 197.457 65.2176C195.828 74.9872 194.194 84.7568 192.594 94.5264C192.4 95.6976 192.069 96.8688 192.126 98.1314C197.623 95.7833 211.656 83.4199 214.181 79.2664C213.433 79.2664 212.759 79.3121 212.084 79.2607C208.816 79.015 206.525 77.4039 205.291 74.3359C204.628 72.6962 204.388 70.9708 204.502 69.2283C205.085 60.2242 209.348 53.5169 217.21 49.1063C218.61 48.3179 220.13 47.8151 221.724 47.558C225.484 46.9524 228.518 49.0777 229.283 52.8085C229.74 55.0309 229.392 57.1791 228.803 59.2987C227.489 64.0235 225.049 68.1942 222.347 72.2277C221.512 73.4732 220.621 74.6787 219.644 76.0613C220.701 75.9527 221.467 75.5585 222.255 75.25C227.289 73.2789 231.963 70.588 236.649 67.9314C242.014 64.8919 247.431 61.9553 253.122 59.5615C257.504 57.7161 261.967 56.0936 266.727 55.528C268.915 55.2709 271.104 55.1966 273.235 55.9222C275.669 56.7506 277.24 58.3731 277.823 60.9155C278.143 62.321 278.143 63.7264 277.915 65.1319C277.189 69.5596 275.172 73.4218 272.629 77.0439C272.406 77.3639 272.035 77.6153 272.041 78.0552C272.223 78.3237 272.503 78.3694 272.755 78.478C279.743 81.3917 284.766 86.3451 287.88 93.2123C289.045 95.789 290.039 98.4399 291.108 101.062C291.177 101.228 291.239 101.411 291.257 101.588C291.297 102.034 291.154 102.399 290.714 102.593C290.274 102.788 289.868 102.656 289.622 102.296C289.365 101.925 289.194 101.497 289.028 101.074C288.062 98.6113 287.148 96.1204 286.017 93.7265C283.04 87.4306 278.406 82.8657 271.915 80.2319C271.012 79.8663 270.243 80.0205 269.606 80.6947C267.052 83.4028 264.195 85.7452 261.001 87.6534C257.139 89.9615 253.11 91.8697 248.596 92.5325C246.431 92.8524 244.305 92.7496 242.334 91.6755C240.14 90.4814 239.408 88.3904 240.363 86.0937C240.843 84.9396 241.597 83.9627 242.5 83.1057C244.105 81.5802 245.951 80.4033 247.962 79.5063C254.716 76.4898 261.698 75.5756 268.949 77.2839C269.601 77.4382 270.041 77.3296 270.469 76.7583C272.652 73.8503 274.429 70.7308 275.48 67.2343C275.938 65.6975 276.223 64.1264 276.126 62.5095C275.96 59.8472 274.566 58.196 271.978 57.5847C271.035 57.3619 270.081 57.3048 269.121 57.3162C266.544 57.3505 264.041 57.859 261.578 58.5731C255.722 60.2756 250.202 62.8009 244.842 65.6575C240.008 68.2342 235.254 70.9651 230.432 73.5589C226.489 75.6842 222.427 77.5581 218.056 78.6551C217.461 78.8036 217.113 79.1578 216.758 79.5806C213.004 84.0255 208.862 88.0762 204.405 91.8126C200.622 94.9892 196.754 98.0457 192.326 100.302C191.714 100.617 191.497 101.039 191.394 101.679C190.8 105.376 190.172 109.061 189.56 112.757C189.269 114.506 188.995 116.254 188.72 117.962L188.703 117.956Z" fill="white"/>
<path d="M65.8701 148.785C72.3325 153.378 76.5094 159.537 78.4122 167.341C78.9378 166.936 79.2978 166.667 79.6464 166.376C85.8003 161.274 91.9484 156.166 98.0966 151.059C107.69 143.094 117.341 135.193 126.86 127.143C131.38 123.321 133.637 118.373 132.992 112.346C132.414 106.958 128.478 103.022 123.124 102.348C122.175 102.228 121.387 102.399 120.621 103.073C118.85 104.639 116.907 105.776 114.381 105.804C111.919 105.838 109.467 106.061 107.005 105.667C103.513 105.113 100.176 104.044 96.9253 102.69C96.4567 102.496 96.0739 102.308 95.6282 102.81C95.2625 103.228 94.7882 102.953 94.3826 102.719C93.0398 101.942 91.6399 101.251 90.3657 100.371C89.1486 99.5311 88.1087 99.5025 86.6688 100.017C76.3209 103.725 65.9215 107.295 55.5393 110.912C53.1395 111.746 53.1224 111.763 54.1509 114.157C56.6136 119.899 60.8933 123.892 66.4986 126.395C76.7037 130.954 86.823 130.342 96.7596 125.446C97.6566 125.006 98.4966 124.441 99.3708 123.944C99.6451 123.789 99.9651 123.572 100.222 123.926C100.485 124.292 100.496 124.703 100.119 125.023C99.8451 125.258 99.5308 125.458 99.228 125.663C88.5886 132.993 77.9436 140.323 67.3043 147.659C66.8186 147.991 66.2815 148.259 65.8644 148.773L65.8701 148.785Z" fill="white"/>
<path d="M193.917 135.042C194.375 135.299 194.889 135.196 195.38 135.202C202.734 135.248 210.088 135.293 217.442 135.322C226.624 135.362 235.806 135.379 244.988 135.419C258.056 135.47 271.118 135.539 284.186 135.596C300.265 135.665 316.35 135.727 332.429 135.79C332.657 135.79 332.886 135.79 333.114 135.785C333.491 135.785 333.697 135.602 333.726 135.213C333.754 134.802 333.828 134.396 333.857 133.991C334.023 131.808 334.183 129.62 334.348 127.438C334.68 123.113 335.011 118.788 335.343 114.463C335.646 110.458 335.937 106.453 336.245 102.448C336.674 96.849 337.108 91.25 337.537 85.6511C337.845 81.6004 338.154 77.5497 338.462 73.4991C338.788 69.2199 339.12 64.9407 339.451 60.6615C339.857 55.3367 340.285 50.012 340.662 44.6873C340.828 42.322 341.177 39.9625 341.097 37.5801C340.977 34.1064 337.405 30.9584 333.954 31.227C333.423 31.267 333.189 31.3984 333.137 32.0211C332.691 37.2487 332.206 42.4763 331.709 47.7039C331.114 53.9713 330.486 60.2387 329.886 66.5118C329.389 71.7394 328.92 76.967 328.423 82.1889C327.737 89.3647 327.017 96.5405 326.332 103.722C325.743 109.858 325.183 115.988 324.606 122.124C324.469 123.57 324.098 123.89 322.583 123.861C320.618 123.821 318.658 123.724 316.692 123.695C305.002 123.513 293.305 123.335 281.615 123.17C270.335 123.01 259.05 122.856 247.771 122.701C242.291 122.627 236.806 122.576 231.326 122.49C220.641 122.324 209.951 122.136 199.266 121.959C198.191 121.941 198.174 121.947 197.826 122.976C196.58 126.603 195.346 130.231 194.112 133.859C193.98 134.242 193.746 134.608 193.923 135.053L193.917 135.042Z" fill="white"/>
<path d="M54.6514 87.7533C54.1543 87.6276 53.7543 87.8961 53.3372 88.039C36.344 93.8893 19.3451 99.7453 2.35188 105.601C1.07767 106.041 1.02053 106.041 1.0891 107.441C1.41479 114.074 3.72893 119.982 7.77438 125.221C8.54005 126.209 8.58005 126.18 9.82568 125.746C16.0767 123.575 22.322 121.398 28.573 119.227C35.8983 116.679 43.2235 114.131 50.5431 111.577C51.703 111.172 51.703 111.16 51.3373 109.955C50.8345 108.287 50.5259 106.584 50.4631 104.842C50.2574 99.2311 51.6573 93.9921 54.1371 89.0045C54.3314 88.6103 54.6571 88.2618 54.6457 87.759L54.6514 87.7533Z" fill="white"/>
<path d="M91.5724 73.763C89.8411 71.6777 87.8869 70.278 85.7156 69.1582C81.493 66.9814 76.9448 66.0673 72.2479 65.8674C64.9741 65.5588 57.9745 66.9129 51.255 69.6838C46.0953 71.8091 41.4099 74.6886 37.4844 78.705C36.4731 79.739 36.5016 79.7162 37.5987 80.5675C40.5871 82.8927 43.2155 85.5322 44.7468 89.0744C45.0268 89.7257 45.3468 89.7143 45.901 89.5086C47.8323 88.8116 49.7694 88.1318 51.7235 87.5033C52.432 87.2748 52.8663 86.8691 53.2434 86.2464C54.7519 83.744 56.3004 81.2645 57.8374 78.7792C58.0317 78.4707 58.226 78.1622 58.4431 77.8651C58.5859 77.6594 58.8145 77.5737 59.043 77.6537C59.3345 77.7566 59.4773 78.0079 59.4316 78.305C59.3859 78.6193 59.2716 78.9221 59.1745 79.2249C58.6145 80.9617 58.0431 82.6985 57.4831 84.4353C57.3746 84.7667 57.146 85.0923 57.3974 85.538C68.7281 81.6301 80.0588 77.728 91.5667 73.763H91.5724Z" fill="white"/>
<path d="M57.885 157.135C57.725 157.163 57.6679 157.158 57.6393 157.18C53.2053 160.471 48.7713 163.762 44.3259 167.041C43.9087 167.35 43.823 167.641 44.1259 168.064C44.2859 168.287 44.4001 168.538 44.5316 168.778C51.3711 180.742 58.2107 192.711 65.0502 204.674C65.3188 205.143 65.5245 205.663 65.9359 206.04C66.3016 205.874 66.4673 205.537 66.6559 205.234C67.5358 203.829 68.1072 202.292 68.5414 200.704C70.0156 195.316 70.3699 189.826 69.8385 184.284C69.6042 181.827 69.1928 179.399 68.2729 177.085C67.7986 175.891 67.2444 174.749 66.1987 173.914C65.3988 173.275 65.4045 172.898 66.1587 172.183C66.6159 171.749 67.1987 171.452 67.6044 170.898C61.9933 168.013 58.7592 163.454 57.8678 157.14L57.885 157.135Z" fill="black"/>
<path d="M119.718 183.064C119.004 181.173 102.296 150.213 101.593 149.447C98.502 152.007 95.3994 154.561 92.3196 157.137C91.1425 158.12 91.251 157.817 91.9367 159.103C96.925 168.444 101.925 177.779 106.924 187.115C107.113 187.469 107.21 187.897 107.69 188.109C109.501 186.932 111.358 185.778 113.352 184.863C115.352 183.949 117.392 183.161 119.718 183.07V183.064Z" fill="white"/>
<path d="M194.355 136.39C194.613 137.23 194.835 138.012 195.093 138.789C195.43 139.818 195.441 139.829 196.51 139.829C199.618 139.829 202.721 139.818 205.829 139.812C237.621 139.755 269.419 139.692 301.211 139.641C312.131 139.624 323.05 139.641 333.969 139.629C334.535 139.629 335.118 139.721 335.792 139.435C335.335 138.784 334.912 138.252 334.575 137.664C334.164 136.944 333.598 136.733 332.781 136.733C320.902 136.698 309.028 136.618 297.149 136.573C281.39 136.516 265.631 136.493 249.872 136.436C231.827 136.367 213.783 136.276 195.738 136.201C195.333 136.201 194.915 136.127 194.355 136.384V136.39Z" fill="white"/>
<path d="M213.275 77.3801C213.698 77.3573 214.155 77.323 214.607 77.3116C215.766 77.2773 216.664 76.8716 217.349 75.849C218.492 74.1464 219.812 72.5639 220.949 70.8613C223.406 67.1763 225.64 63.3599 226.863 59.0521C227.411 57.1153 227.817 55.1614 227.366 53.1218C226.771 50.4709 224.846 49.0825 222.16 49.4539C220.463 49.6881 218.898 50.3052 217.435 51.1679C211.218 54.8358 207.647 60.309 206.556 67.3934C206.241 69.4216 206.287 71.4898 207.018 73.4723C207.876 75.809 209.544 77.083 212.012 77.3173C212.418 77.3573 212.829 77.363 213.275 77.3858V77.3801Z" fill="white"/>
<path d="M145.111 202.241C144.306 200.539 143.06 199.573 141.643 198.79C138.986 197.322 136.089 196.745 133.101 196.625C129.541 196.482 126.107 197.082 122.838 198.55C121.844 198.996 121.667 198.893 121.153 197.899C120.679 196.979 120.364 195.974 119.73 195.1C114.953 199.43 109.348 202.024 103.062 203.441C103.262 203.887 103.411 204.252 103.588 204.606C104.822 207.052 106.057 209.491 107.297 211.931C107.677 212.685 108.295 212.942 109.148 212.702C109.194 212.691 109.234 212.679 109.279 212.662C118.387 210.023 127.495 207.377 136.597 204.732C139.397 203.921 142.191 203.092 145.106 202.235L145.111 202.241Z" fill="black"/>
<path d="M98.9797 196.44C100.957 193.663 103.225 191.509 105.716 189.572C106.785 188.744 106.791 189.007 106.122 187.756C101.157 178.466 96.1913 169.182 91.2145 159.898C91.0088 159.515 90.8888 159.052 90.4946 158.812C90.1117 158.875 89.9117 159.144 89.6718 159.338C87.5976 161.052 85.5235 162.772 83.455 164.491C82.6551 165.16 82.6551 165.171 83.1636 166.143C87.1919 173.867 91.2202 181.585 95.2486 189.304C96.4485 191.601 97.6541 193.897 98.9797 196.434V196.44Z" fill="black"/>
<path d="M341.982 35.8688C341.93 36.8287 342.233 37.5657 342.17 38.3255C341.953 40.8736 341.77 43.4217 341.57 45.9698C341.227 50.3861 340.879 54.7967 340.542 59.2131C340.233 63.218 339.948 67.223 339.645 71.228C339.216 76.8726 338.776 82.5173 338.348 88.1562C338.051 92.0698 337.759 95.9833 337.462 99.8969C337.119 104.359 336.776 108.815 336.433 113.277C336.119 117.328 335.799 121.379 335.491 125.429C335.245 128.709 335.011 131.982 334.776 135.262C334.754 135.576 334.662 135.97 334.805 136.199C335.416 137.176 336.005 138.187 337.005 139.13C337.382 134.245 337.742 129.56 338.102 124.869C338.399 120.91 338.685 116.945 338.988 112.986C339.325 108.57 339.685 104.159 340.022 99.7426C340.33 95.692 340.622 91.6413 340.925 87.5849C341.353 81.8945 341.793 76.2042 342.227 70.5138C342.525 66.6002 342.822 62.6867 343.119 58.7674C343.576 52.7571 343.987 46.7468 344.502 40.7422C344.684 38.5941 343.57 37.2686 341.999 35.8574L341.982 35.8688Z" fill="white"/>
<path d="M153.535 56.6949C153.587 58.2946 153.872 60.0029 154.387 61.6597C155.546 65.419 157.369 68.7955 160.22 71.5607C160.94 72.2577 160.975 72.2634 161.66 71.6635C164.1 69.5382 166.523 67.3843 168.968 65.2647C169.408 64.882 169.534 64.5334 169.346 63.9621C168.454 61.2826 167.591 58.5974 166.757 55.9008C166.58 55.3237 166.271 55.1181 165.694 55.0724C164.694 54.9924 163.706 54.821 162.712 54.6953C160.089 54.3639 157.466 54.0497 154.849 53.7069C154.192 53.6212 153.832 53.7755 153.729 54.501C153.638 55.1809 153.558 55.8551 153.541 56.6835L153.535 56.6949Z" fill="white"/>
<path d="M58.9221 156.925C58.9736 157.377 58.9964 157.84 59.0821 158.285C59.8992 162.57 62.1334 165.958 65.6074 168.552C66.2645 169.043 67.0073 169.409 67.7502 169.763C68.4073 170.077 68.9158 170.02 69.4872 169.529C70.8414 168.375 72.2584 167.289 73.6469 166.175C75.2068 164.924 75.2697 164.718 74.6869 162.81C74.6183 162.593 74.5554 162.37 74.4697 162.159C72.7955 157.914 70.11 154.377 66.8759 151.207C66.4245 150.767 66.0988 150.778 65.596 151.161C63.6018 152.692 61.5848 154.189 59.5564 155.669C59.105 156 58.8364 156.348 58.9107 156.925H58.9221Z" fill="white"/>
<path d="M268.118 79.1894C268.1 79.1494 268.089 79.0865 268.06 79.0751C267.889 79.018 267.712 78.9665 267.535 78.9323C262.404 77.881 257.358 78.3152 252.387 79.8407C249.622 80.6919 247.005 81.8746 244.725 83.6914C243.679 84.5255 242.742 85.4625 242.188 86.7022C241.514 88.2162 241.948 89.3703 243.445 90.0902C243.851 90.2844 244.296 90.4044 244.736 90.5244C246.422 90.9757 248.113 90.7758 249.753 90.3587C256.85 88.5705 262.826 84.8512 267.923 79.6521C268.049 79.5264 268.186 79.395 268.118 79.1836V79.1894Z" fill="white"/>
<path d="M102.981 202.365C103.341 202.302 103.701 202.256 104.055 202.17C108.872 201.033 113.226 198.92 117.191 195.977C117.7 195.6 118.145 195.126 118.62 194.703C119.157 194.223 119.277 193.749 118.917 193.035C117.837 190.875 116.848 188.67 115.837 186.476C115.157 185.002 115.294 185.048 113.751 185.774C109.837 187.613 106.346 190.064 103.215 193.035C102.118 194.069 101.101 195.177 100.244 196.423C100.021 196.743 99.718 197.029 99.9808 197.52C100.752 198.965 101.489 200.434 102.221 201.902C102.386 202.233 102.609 202.388 102.981 202.365Z" fill="white"/>
<path d="M90.75 48.8906C90.2929 48.9592 90.1558 49.342 89.9044 49.5876C88.1102 51.313 86.1617 52.787 83.7219 53.4841C82.522 53.8268 82.5105 53.8268 81.9963 52.6785C81.6763 51.9529 81.2706 51.2959 80.5907 50.8731C79.8593 50.4218 79.2365 50.6789 79.0193 51.4959C78.8879 51.9872 78.9279 52.4957 79.0651 52.987C79.2993 53.8383 79.6993 54.5867 80.3336 55.2209C81.0764 55.9579 81.0649 56.1178 80.4135 56.8948C80.0821 57.2833 79.6764 57.5747 79.2365 57.8204C77.6366 58.7402 75.9395 59.3515 74.0997 59.5743C73.6654 59.6258 73.1226 59.5115 72.854 59.98C71.9741 61.5054 71.1227 63.0537 70.2656 64.5791C70.7285 64.8762 71.1056 64.7791 71.4598 64.8019C74.014 64.9391 76.5509 65.1447 79.0479 65.7275C80.7964 66.1331 80.8135 66.0931 80.9107 64.2935C80.9392 63.7564 80.7849 63.4251 80.3221 63.1908C80.1164 63.088 79.9279 62.968 79.7336 62.8423C79.5165 62.7052 79.4365 62.4938 79.5222 62.2538C79.6422 61.9225 79.9279 61.9168 80.2021 61.9967C80.6878 62.1396 81.0992 62.4367 81.5049 62.7337C82.3163 63.3279 83.1391 63.905 84.0705 64.2935C84.7447 64.5734 85.4361 64.8076 86.1903 64.5334C86.8474 64.2877 87.0417 63.7107 87.1274 63.1337C87.196 62.6709 86.6531 62.6823 86.3675 62.4938C86.2532 62.4195 86.1275 62.3624 86.0018 62.3053C85.7389 62.1853 85.4818 62.0196 85.5904 61.6997C85.7275 61.2826 86.1103 61.3397 86.3789 61.4883C87.2074 61.9625 87.396 61.5283 87.4874 60.8084C87.5274 60.4999 87.6645 60.1971 87.7902 59.9057C88.0645 59.2658 88.4873 58.8373 89.2644 58.9745C89.4815 59.0144 89.7158 59.083 89.9387 58.7859C89.3215 57.3405 89.5501 55.9179 90.3329 54.5239C90.8472 53.604 91.0929 52.5642 91.1843 51.513C91.2643 50.6103 91.2871 49.6962 90.7615 48.8906H90.75Z" fill="white"/>
<path d="M62.4901 125.69C65.6327 131.586 68.7354 137.407 71.8781 143.315C74.2093 141.715 76.3806 140.207 78.5691 138.727C79.1233 138.35 78.9005 137.979 78.6891 137.562C77.592 135.408 76.4492 133.277 75.4321 131.083C75.0321 130.226 74.4608 129.883 73.5922 129.729C69.9696 129.072 66.5698 127.792 63.3986 125.912C63.1815 125.781 62.9872 125.541 62.4844 125.69H62.4901Z" fill="black"/>
<path d="M76.1055 130.279C77.294 132.61 78.3739 134.758 79.471 136.889C79.9167 137.752 79.9452 137.763 80.7395 137.215C84.0821 134.924 87.4133 132.621 90.7502 130.325C90.8988 130.222 91.0417 130.108 91.1959 130.005C91.5445 129.77 91.4531 129.462 91.3445 129.153C91.2131 128.788 90.9274 128.891 90.6645 128.953C90.5331 128.988 90.4074 129.051 90.276 129.085C86.1505 130.148 81.9794 130.713 77.7054 130.285C77.2597 130.239 76.8026 130.279 76.1112 130.279H76.1055Z" fill="white"/>
<path d="M54.4805 86.3699C55.2347 86.3528 55.7318 86.2385 55.9375 85.7072C56.2804 84.8273 56.6118 83.9361 56.6918 82.9648C55.8347 83.9647 55.1833 85.0787 54.4805 86.3699Z" fill="white"/>
<path d="M93.6788 128.158C93.1188 128.301 92.4789 128.13 92.2103 128.73C92.1818 128.787 92.2446 128.958 92.2846 128.964C92.9017 129.078 93.2046 128.57 93.616 128.278C93.6502 128.255 93.656 128.198 93.6731 128.158H93.6788Z" fill="black"/>
<path d="M86.037 98.0174C86.0541 98.2802 86.0484 98.4116 86.0655 98.5373C86.1112 98.8287 86.2141 99.0629 86.5855 98.9887C86.7626 98.9544 86.9798 98.9315 87.0255 98.7373C87.1169 98.3602 86.7283 98.3602 86.5455 98.206C86.4484 98.126 86.2998 98.1088 86.0312 98.0117L86.037 98.0174Z" fill="black"/>
<path d="M283.831 18.8348C283.442 18.5948 282.974 18.7148 282.528 18.7091C280.288 18.6977 278.054 18.7091 275.814 18.7091C274.1 18.7091 274.089 18.7034 274.094 16.9323C274.111 12.0475 274.14 7.16266 274.157 2.27786C274.165 0.929545 274.826 0.251576 276.14 0.243959C298.201 0.1754 320.257 0.101128 342.318 0.0325698C348.849 0.0154301 355.38 0.0211433 361.911 0.0154301C362.277 0.0154301 362.643 -0.00170953 363.009 0.0154301C364.157 0.0782755 364.386 0.289665 364.351 1.40946C364.191 6.65419 364.026 11.9046 363.849 17.1494C363.814 18.172 363.786 18.1092 362.769 18.1092C359.209 18.1092 355.643 18.1378 352.084 18.1835C346.787 18.252 341.49 18.3491 336.193 18.4291C326.377 18.5777 316.56 18.7376 306.744 18.869C302.59 18.9262 298.43 18.9662 294.276 18.9547C293.356 18.9547 292.63 19.2004 291.899 19.7489C289.642 21.4571 287.339 23.1025 285.054 24.7708C284.831 24.9308 284.608 25.085 284.391 25.2564C284.042 25.5307 283.642 25.6563 283.242 25.4678C282.739 25.2279 282.945 24.7479 283.008 24.3766C283.271 22.754 283.574 21.1429 283.859 19.5261C283.899 19.3032 283.985 19.0804 283.842 18.8291L283.831 18.8348Z" fill="black"/>
<path d="M284.068 24.0237C284.668 23.9666 284.977 23.5952 285.337 23.3324C287.331 21.887 289.331 20.4358 291.308 18.9675C292.102 18.3734 292.942 18.0363 293.959 18.042C295.513 18.0534 297.062 17.9563 298.616 17.9334C305.238 17.8249 311.861 17.802 318.489 17.6821C329.54 17.4764 340.596 17.4078 351.653 17.2764C355.081 17.2364 358.504 17.1564 361.932 17.1222C362.589 17.1165 362.926 16.9793 362.943 16.2138C363.046 11.5118 363.2 6.80981 363.315 2.10783C363.343 0.91377 363.303 0.91377 362.121 0.902344C362.029 0.902344 361.938 0.902344 361.846 0.902344C354.127 0.953763 346.401 1.02803 338.682 1.05089C322.049 1.09659 305.421 1.11945 288.788 1.14801C284.583 1.15373 280.383 1.14801 276.177 1.15944C275.16 1.15944 275.126 1.188 275.115 2.10783C275.075 7.03834 275.063 11.9746 275.012 16.9051C275.006 17.6421 275.292 17.8363 275.977 17.8249C278.4 17.7963 280.823 17.8135 283.24 17.802C285.154 17.7963 285.148 17.6192 284.84 19.6931C284.623 21.1271 284.331 22.5497 284.068 24.0123V24.0237Z" fill="black"/>
<path d="M310.949 37.973C310.863 39.2756 310.863 39.2814 311.966 39.607C313.366 40.0241 314.777 40.3897 316.154 40.8525C316.857 41.0867 317.228 40.9839 317.731 40.3612C319.16 38.5729 321.828 38.9214 322.862 40.9382C323.639 42.4522 323.051 44.2804 321.542 45.0289C319.948 45.8173 317.983 45.1088 317.286 43.4806C317.16 43.1892 317.063 42.875 317.023 42.5607C316.977 42.1837 316.788 42.0408 316.428 41.938C314.417 41.3553 312.412 40.7497 310.417 40.1212C310.075 40.0127 309.909 40.1955 309.697 40.3383C309.315 40.5897 308.915 40.8068 308.458 40.8811C307.166 41.0982 305.995 40.5897 305.406 39.5442C304.818 38.4987 305.018 37.0589 305.886 36.1162C306.778 35.1507 308.206 34.6822 309.223 35.3678C310.292 36.0877 311.012 35.7563 311.874 35.1507C312.846 34.4708 313.863 33.8595 314.88 33.2539C315.383 32.9511 315.634 32.6255 315.668 31.9742C315.754 30.4487 316.686 29.3918 318.068 28.9919C320.028 28.4263 321.72 29.9574 321.28 31.9456C320.771 34.2423 318.2 35.1621 316.731 34.0766C316.228 33.7053 315.868 33.7681 315.394 34.0766C314.291 34.8079 313.177 35.5164 312.034 36.1905C311.286 36.6304 310.617 37.0589 310.937 37.973H310.949Z" fill="black"/>
<path d="M128.051 112.935C128.045 114.5 127.748 115.78 127.188 116.997C127.028 117.345 126.873 117.9 126.353 117.688C125.822 117.471 126.102 116.997 126.273 116.637C126.879 115.374 127.125 114.037 127.011 112.649C126.851 110.712 126.411 108.936 124.285 108.181C124.011 108.084 123.799 107.879 123.908 107.559C124.039 107.159 124.388 107.176 124.702 107.273C125.708 107.581 126.451 108.227 126.993 109.107C127.753 110.347 128.033 111.718 128.045 112.929L128.051 112.935Z" fill="black"/>
<path d="M114.658 103.202C114.166 103.202 113.646 103.042 113.166 102.756C112.898 102.596 112.783 102.351 112.972 102.065C113.115 101.842 113.361 101.819 113.572 101.956C114.292 102.431 115.029 102.391 115.795 102.105C116.28 101.922 116.669 101.619 117 101.231C117.212 100.979 117.486 100.688 117.795 100.962C118.177 101.294 117.852 101.625 117.623 101.899C116.869 102.808 115.869 103.168 114.652 103.202H114.658Z" fill="black"/>
<path d="M88.2226 55.6997C87.657 55.7054 87.1599 55.5111 86.7427 55.1341C86.5599 54.9684 86.497 54.7513 86.6285 54.5285C86.7713 54.2942 86.9999 54.2657 87.2056 54.4028C87.7255 54.7341 88.2455 54.9227 88.8569 54.6542C89.034 54.5742 89.2112 54.7113 89.2969 54.8827C89.4111 55.1169 89.314 55.3055 89.114 55.4597C88.8455 55.6654 88.5369 55.6883 88.2169 55.6997H88.2226Z" fill="black"/>
</g>
<defs>
<clipPath id="clip0_7104_10724">
<rect width="364.354" height="214" fill="white"/>
</clipPath>
</defs>
</svg>
