<svg width="46" height="47" viewBox="0 0 46 47" fill="none" xmlns="http://www.w3.org/2000/svg">
<g id="Group 1171275014">
<g id="Rectangle 41976" filter="url(#filter0_dd_6761_6591)">
<rect x="11" y="7.10156" width="24" height="24" rx="4" fill="#333333"/>
</g>
<path id="+" d="M23 27C22.4037 27 21.9203 26.5166 21.9203 25.9203V12.0797C21.9203 11.4834 22.4037 11 23 11C23.5963 11 24.0797 11.4834 24.0797 12.0797V25.9203C24.0797 26.5166 23.5963 27 23 27ZM16.0742 20.0743C15.481 20.0743 15 19.5933 15 19C15 18.4067 15.481 17.9258 16.0742 17.9258H29.9258C30.519 17.9258 31 18.4067 31 19C31 19.5933 30.519 20.0743 29.9258 20.0743H16.0742Z" fill="#D0BCFF"/>
</g>
<defs>
<filter id="filter0_dd_6761_6591" x="0" y="0.101562" width="46" height="46" filterUnits="userSpaceOnUse" color-interpolation-filters="sRGB">
<feFlood flood-opacity="0" result="BackgroundImageFix"/>
<feColorMatrix in="SourceAlpha" type="matrix" values="0 0 0 0 0 0 0 0 0 0 0 0 0 0 0 0 0 0 127 0" result="hardAlpha"/>
<feOffset dy="1"/>
<feGaussianBlur stdDeviation="1.5"/>
<feColorMatrix type="matrix" values="0 0 0 0 0 0 0 0 0 0 0 0 0 0 0 0 0 0 0.3 0"/>
<feBlend mode="normal" in2="BackgroundImageFix" result="effect1_dropShadow_6761_6591"/>
<feColorMatrix in="SourceAlpha" type="matrix" values="0 0 0 0 0 0 0 0 0 0 0 0 0 0 0 0 0 0 127 0" result="hardAlpha"/>
<feMorphology radius="3" operator="dilate" in="SourceAlpha" result="effect2_dropShadow_6761_6591"/>
<feOffset dy="4"/>
<feGaussianBlur stdDeviation="4"/>
<feColorMatrix type="matrix" values="0 0 0 0 0 0 0 0 0 0 0 0 0 0 0 0 0 0 0.15 0"/>
<feBlend mode="normal" in2="effect1_dropShadow_6761_6591" result="effect2_dropShadow_6761_6591"/>
<feBlend mode="normal" in="SourceGraphic" in2="effect2_dropShadow_6761_6591" result="shape"/>
</filter>
</defs>
</svg>
