<svg width="164" height="32" viewBox="0 0 164 32" fill="none" xmlns="http://www.w3.org/2000/svg">
<path d="M43.4825 12.7074V17.0818C43.4825 18.4878 44.1248 19.1908 45.4093 19.1908C46.3988 19.1908 47.0497 18.7221 47.3622 17.7848C47.4489 17.4897 47.5531 17.2901 47.6746 17.1859C47.8135 17.0818 48.0305 17.0297 48.3256 17.0297H53.6373C53.7935 17.0297 53.9237 17.0905 54.0278 17.212C54.1493 17.3161 54.2101 17.4463 54.2101 17.6025C54.2101 19.1127 53.7761 20.3799 52.9082 21.404C51.3112 23.3135 48.8203 24.2682 45.4354 24.2682C42.7795 24.2682 40.6618 23.6867 39.0821 22.5237C37.5025 21.3433 36.7127 19.538 36.7127 17.1078V12.6814C36.7127 10.3033 37.5199 8.51535 39.1342 7.31761C40.7486 6.11988 42.8489 5.52101 45.4354 5.52101C48.8203 5.52101 51.3112 6.47573 52.9082 8.38516C53.7761 9.40931 54.2101 10.6765 54.2101 12.1867C54.2101 12.3429 54.1493 12.4818 54.0278 12.6033C53.9237 12.7074 53.7935 12.7595 53.6373 12.7595H48.3256C48.0478 12.7595 47.8395 12.7074 47.7006 12.6033C47.5791 12.4991 47.4663 12.2995 47.3622 12.0044C47.0323 11.0671 46.3814 10.5984 45.4093 10.5984C44.1248 10.5984 43.4825 11.3014 43.4825 12.7074ZM62.2576 16.3006V23.3048C62.2576 23.4957 62.1881 23.6606 62.0493 23.7995C61.9104 23.9384 61.7455 24.0078 61.5546 24.0078H56.4772C56.2863 24.0078 56.1213 23.9384 55.9825 23.7995C55.8436 23.6606 55.7742 23.4957 55.7742 23.3048V6.22403C55.7742 6.03309 55.8436 5.86818 55.9825 5.72931C56.1213 5.59044 56.2863 5.52101 56.4772 5.52101H61.5546C61.7455 5.52101 61.9104 5.59044 62.0493 5.72931C62.1881 5.86818 62.2576 6.03309 62.2576 6.22403V11.8221C63.247 10.7459 64.5142 10.2078 66.0591 10.2078C67.604 10.2078 68.8798 10.7112 69.8866 11.718C70.8934 12.7248 71.3968 14.1916 71.3968 16.1184V23.2788C71.3968 23.4697 71.3274 23.6346 71.1885 23.7735C71.0497 23.9123 70.8847 23.9818 70.6938 23.9818H65.5904C65.3995 23.9818 65.2346 23.9123 65.0957 23.7735C64.9568 23.6346 64.8874 23.4697 64.8874 23.2788V16.3006C64.8874 15.3459 64.4447 14.8686 63.5595 14.8686C62.6915 14.8686 62.2576 15.3459 62.2576 16.3006ZM72.9672 20.1282C72.9672 17.7848 74.868 16.2833 78.6695 15.6237L81.4295 15.181C81.4295 14.6603 81.3861 14.3131 81.2993 14.1395C81.2125 13.9486 81.0042 13.8531 80.6744 13.8531C80.3619 13.8531 80.0495 13.992 79.737 14.2697C79.4246 14.5474 79.1295 14.6863 78.8518 14.6863H74.4253C74.0435 14.6863 73.8525 14.504 73.8525 14.1395C73.8525 13.7576 73.9827 13.3584 74.2431 12.9418C74.5208 12.5078 74.9114 12.0825 75.4148 11.6659C75.9355 11.2493 76.6559 10.9021 77.5759 10.6244C78.5133 10.3467 79.5548 10.2078 80.7004 10.2078C83.0265 10.2078 84.771 10.6938 85.934 11.6659C87.097 12.638 87.6786 14.0267 87.6786 15.832V23.3048C87.6786 23.4957 87.6091 23.6606 87.4703 23.7995C87.3314 23.9384 87.1665 24.0078 86.9755 24.0078H82.4189C82.228 24.0078 82.0631 23.9384 81.9242 23.7995C81.7853 23.6606 81.7159 23.4957 81.7159 23.3048V22.5757C80.9001 23.704 79.711 24.2682 78.1487 24.2682C76.5865 24.2682 75.328 23.8776 74.3733 23.0965C73.4359 22.298 72.9672 21.3086 72.9672 20.1282ZM79.8152 20.4146C80.9435 20.4146 81.5076 19.7376 81.5076 18.3837L79.9714 18.7221C79.2076 18.8957 78.8257 19.2169 78.8257 19.6855C78.8257 19.8938 78.9125 20.0674 79.0861 20.2063C79.2597 20.3452 79.5027 20.4146 79.8152 20.4146ZM104.955 16.1184V23.3048C104.955 23.4957 104.886 23.6606 104.747 23.7995C104.608 23.9384 104.443 24.0078 104.252 24.0078H99.2792C99.0882 24.0078 98.9233 23.9384 98.7845 23.7995C98.6456 23.6606 98.5762 23.4957 98.5762 23.3048V16.3006C98.5762 15.3459 98.1422 14.8686 97.2743 14.8686C96.4064 14.8686 95.9724 15.3459 95.9724 16.3006V23.3048C95.9724 23.4957 95.903 23.6606 95.7641 23.7995C95.6252 23.9384 95.4603 24.0078 95.2694 24.0078H90.3222C90.1313 24.0078 89.9664 23.9384 89.8275 23.7995C89.6886 23.6606 89.6192 23.4957 89.6192 23.3048V11.1712C89.6192 10.9803 89.6886 10.8154 89.8275 10.6765C89.9664 10.5376 90.1313 10.4682 90.3222 10.4682H94.8788C95.0698 10.4682 95.2347 10.5376 95.3735 10.6765C95.5124 10.8154 95.5818 10.9803 95.5818 11.1712V12.0304C96.0331 11.4923 96.6407 11.0584 97.4045 10.7286C98.1856 10.3814 99.0188 10.2078 99.9041 10.2078C101.327 10.2078 102.525 10.7112 103.497 11.718C104.469 12.7074 104.955 14.1742 104.955 16.1184ZM122.234 16.1184V23.3048C122.234 23.4957 122.164 23.6606 122.026 23.7995C121.887 23.9384 121.722 24.0078 121.531 24.0078H116.558C116.367 24.0078 116.202 23.9384 116.063 23.7995C115.924 23.6606 115.855 23.4957 115.855 23.3048V16.3006C115.855 15.3459 115.421 14.8686 114.553 14.8686C113.685 14.8686 113.251 15.3459 113.251 16.3006V23.3048C113.251 23.4957 113.181 23.6606 113.043 23.7995C112.904 23.9384 112.739 24.0078 112.548 24.0078H107.601C107.41 24.0078 107.245 23.9384 107.106 23.7995C106.967 23.6606 106.898 23.4957 106.898 23.3048V11.1712C106.898 10.9803 106.967 10.8154 107.106 10.6765C107.245 10.5376 107.41 10.4682 107.601 10.4682H112.157C112.348 10.4682 112.513 10.5376 112.652 10.6765C112.791 10.8154 112.86 10.9803 112.86 11.1712V12.0304C113.312 11.4923 113.919 11.0584 114.683 10.7286C115.464 10.3814 116.297 10.2078 117.183 10.2078C118.606 10.2078 119.804 10.7112 120.776 11.718C121.748 12.7074 122.234 14.1742 122.234 16.1184ZM137.924 18.7742H130.165V18.9044C130.165 19.9633 130.503 20.4927 131.18 20.4927C131.371 20.4927 131.606 20.3538 131.883 20.0761C132.161 19.7984 132.465 19.6595 132.795 19.6595H137.716C138.098 19.6595 138.289 19.8505 138.289 20.2323C138.289 21.0829 137.646 21.9682 136.362 22.8882C135.095 23.8082 133.367 24.2682 131.18 24.2682C129.01 24.2682 127.231 23.704 125.843 22.5757C124.471 21.4301 123.786 19.8591 123.786 17.8629V16.6131C123.786 14.721 124.489 13.1848 125.895 12.0044C127.301 10.8067 129.141 10.2078 131.415 10.2078C133.706 10.2078 135.477 10.8761 136.726 12.2127C137.994 13.5493 138.627 15.2418 138.627 17.2901V18.0712C138.627 18.2621 138.558 18.4271 138.419 18.5659C138.28 18.7048 138.115 18.7742 137.924 18.7742ZM132.248 15.4154C132.248 14.3738 131.901 13.8531 131.206 13.8531C130.512 13.8531 130.165 14.3738 130.165 15.4154V15.5195H132.248V15.4154ZM145.674 24.0078H141.013C140.822 24.0078 140.658 23.9384 140.519 23.7995C140.38 23.6606 140.31 23.4957 140.31 23.3048V6.22403C140.31 6.03309 140.38 5.86818 140.519 5.72931C140.658 5.59044 140.822 5.52101 141.013 5.52101H145.674C145.865 5.52101 146.03 5.59044 146.169 5.72931C146.308 5.86818 146.377 6.03309 146.377 6.22403V23.3048C146.377 23.4957 146.308 23.6606 146.169 23.7995C146.03 23.9384 145.865 24.0078 145.674 24.0078ZM155.673 20.2584C155.673 20.0848 155.629 19.9459 155.543 19.8418C155.317 19.564 154.484 19.295 153.043 19.0346C151.602 18.7569 150.431 18.2795 149.528 17.6025C148.643 16.9082 148.2 15.9448 148.2 14.7123C148.2 13.4799 148.79 12.421 149.971 11.5357C151.151 10.6504 152.739 10.2078 154.736 10.2078C156.749 10.2078 158.398 10.6244 159.683 11.4576C160.967 12.2908 161.609 13.1327 161.609 13.9833C161.609 14.1742 161.549 14.3391 161.427 14.478C161.323 14.6169 161.193 14.6863 161.037 14.6863H156.662C156.402 14.6863 156.081 14.5474 155.699 14.2697C155.317 13.992 155.031 13.8531 154.84 13.8531C154.44 13.8531 154.241 13.992 154.241 14.2697C154.241 14.4433 154.284 14.5821 154.371 14.6863C154.597 14.9467 155.543 15.1984 157.209 15.4414C158.876 15.6844 160.117 16.2225 160.933 17.0557C161.766 17.8716 162.182 18.7829 162.182 19.7897C162.182 21.1957 161.549 22.298 160.282 23.0965C159.014 23.895 157.218 24.2942 154.892 24.2942C153.659 24.2942 152.566 24.1554 151.611 23.8776C150.656 23.5999 149.927 23.2527 149.424 22.8361C148.434 22.0203 147.94 21.2565 147.94 20.5448C147.94 20.3538 148 20.1889 148.122 20.0501C148.243 19.9112 148.391 19.8418 148.565 19.8418H153.095C153.338 19.8418 153.651 19.9806 154.033 20.2584C154.432 20.5188 154.805 20.6489 155.152 20.6489C155.499 20.6489 155.673 20.5188 155.673 20.2584Z" fill="white"/>
<rect y="2.08203" width="27.5403" height="27.5403" rx="3.34691" fill="white"/>
<rect x="15.7012" y="13.0977" width="5.38763" height="5.38763" fill="#5602FE"/>
<path fill-rule="evenodd" clip-rule="evenodd" d="M15.7018 9.05469H6.27344V22.5238H15.7018V18.4814H10.3145V13.0938H15.7018V9.05469Z" fill="#5602FE"/>
</svg>
