<svg width="185" height="37" viewBox="0 0 185 37" fill="none" xmlns="http://www.w3.org/2000/svg">
<path d="M45.5933 14.5081V19.4601C45.5933 21.0518 46.3203 21.8477 47.7745 21.8477C48.8946 21.8477 49.6315 21.3171 49.9852 20.256C50.0835 19.9219 50.2014 19.6959 50.3389 19.578C50.4961 19.4601 50.7418 19.4012 51.0758 19.4012H57.089C57.2658 19.4012 57.4132 19.47 57.5311 19.6075C57.6686 19.7254 57.7374 19.8728 57.7374 20.0496C57.7374 21.7593 57.2462 23.1938 56.2636 24.3532C54.4557 26.5148 51.6359 27.5955 47.804 27.5955C44.7974 27.5955 42.4 26.9372 40.6118 25.6206C38.8236 24.2844 37.9295 22.2407 37.9295 19.4896V14.4787C37.9295 11.7865 38.8432 9.76247 40.6707 8.40657C42.4983 7.05067 44.876 6.37271 47.804 6.37271C51.6359 6.37271 54.4557 7.45351 56.2636 9.61509C57.2462 10.7745 57.7374 12.209 57.7374 13.9186C57.7374 14.0955 57.6686 14.2527 57.5311 14.3902C57.4132 14.5081 57.2658 14.5671 57.089 14.5671H51.0758C50.7614 14.5671 50.5256 14.5081 50.3684 14.3902C50.2308 14.2723 50.1031 14.0463 49.9852 13.7123C49.6118 12.6511 48.8749 12.1206 47.7745 12.1206C46.3203 12.1206 45.5933 12.9164 45.5933 14.5081ZM67.4372 18.5758V26.5049C67.4372 26.7211 67.3585 26.9078 67.2013 27.065C67.0441 27.2222 66.8575 27.3008 66.6413 27.3008H60.8934C60.6773 27.3008 60.4906 27.2222 60.3334 27.065C60.1762 26.9078 60.0976 26.7211 60.0976 26.5049V7.16857C60.0976 6.95241 60.1762 6.76573 60.3334 6.60852C60.4906 6.45132 60.6773 6.37271 60.8934 6.37271H66.6413C66.8575 6.37271 67.0441 6.45132 67.2013 6.60852C67.3585 6.76573 67.4372 6.95241 67.4372 7.16857V13.5059C68.5572 12.2876 69.9918 11.6784 71.7407 11.6784C73.4896 11.6784 74.9339 12.2483 76.0737 13.388C77.2134 14.5278 77.7833 16.1883 77.7833 18.3695V26.4754C77.7833 26.6916 77.7047 26.8783 77.5475 27.0355C77.3903 27.1927 77.2036 27.2713 76.9874 27.2713H71.2101C70.9939 27.2713 70.8073 27.1927 70.6501 27.0355C70.4928 26.8783 70.4142 26.6916 70.4142 26.4754V18.5758C70.4142 17.495 69.9131 16.9547 68.911 16.9547C67.9284 16.9547 67.4372 17.495 67.4372 18.5758ZM80.1506 22.9088C80.1506 20.256 82.3023 18.5562 86.6059 17.8095L89.7303 17.3084C89.7303 16.7188 89.6812 16.3258 89.583 16.1293C89.4847 15.9132 89.2489 15.8051 88.8755 15.8051C88.5218 15.8051 88.1681 15.9623 87.8144 16.2767C87.4607 16.5911 87.1266 16.7483 86.8122 16.7483H81.8012C81.3689 16.7483 81.1528 16.542 81.1528 16.1293C81.1528 15.697 81.3002 15.245 81.5949 14.7734C81.9093 14.2821 82.3515 13.8007 82.9213 13.3291C83.5109 12.8575 84.3264 12.4645 85.3679 12.15C86.429 11.8356 87.6081 11.6784 88.905 11.6784C91.5382 11.6784 93.5131 12.2286 94.8297 13.3291C96.1463 14.4295 96.8046 16.0016 96.8046 18.0453V26.5049C96.8046 26.7211 96.726 26.9078 96.5688 27.065C96.4116 27.2222 96.2249 27.3008 96.0088 27.3008H90.8504C90.6343 27.3008 90.4476 27.2222 90.2904 27.065C90.1332 26.9078 90.0546 26.7211 90.0546 26.5049V25.6796C89.131 26.9569 87.7849 27.5955 86.0163 27.5955C84.2478 27.5955 82.8231 27.1534 81.7423 26.2691C80.6812 25.3652 80.1506 24.2451 80.1506 22.9088ZM87.9028 23.2331C89.1801 23.2331 89.8188 22.4667 89.8188 20.9339L88.0797 21.3171C87.215 21.5136 86.7827 21.8772 86.7827 22.4077C86.7827 22.6435 86.881 22.8401 87.0775 22.9973C87.274 23.1545 87.5491 23.2331 87.9028 23.2331ZM116.952 18.3695V26.5049C116.952 26.7211 116.874 26.9078 116.717 27.065C116.559 27.2222 116.373 27.3008 116.157 27.3008H110.527C110.311 27.3008 110.124 27.2222 109.967 27.065C109.809 26.9078 109.731 26.7211 109.731 26.5049V18.5758C109.731 17.495 109.24 16.9547 108.257 16.9547C107.274 16.9547 106.783 17.495 106.783 18.5758V26.5049C106.783 26.7211 106.705 26.9078 106.547 27.065C106.39 27.2222 106.204 27.3008 105.987 27.3008H100.387C100.171 27.3008 99.984 27.2222 99.8268 27.065C99.6696 26.9078 99.591 26.7211 99.591 26.5049V12.769C99.591 12.5529 99.6696 12.3662 99.8268 12.209C99.984 12.0518 100.171 11.9732 100.387 11.9732H105.545C105.761 11.9732 105.948 12.0518 106.105 12.209C106.262 12.3662 106.341 12.5529 106.341 12.769V13.7418C106.852 13.1326 107.54 12.6413 108.404 12.2679C109.289 11.8749 110.232 11.6784 111.234 11.6784C112.845 11.6784 114.201 12.2483 115.302 13.388C116.402 14.5081 116.952 16.1686 116.952 18.3695ZM137.102 18.3695V26.5049C137.102 26.7211 137.024 26.9078 136.866 27.065C136.709 27.2222 136.522 27.3008 136.306 27.3008H130.676C130.46 27.3008 130.274 27.2222 130.116 27.065C129.959 26.9078 129.881 26.7211 129.881 26.5049V18.5758C129.881 17.495 129.389 16.9547 128.407 16.9547C127.424 16.9547 126.933 17.495 126.933 18.5758V26.5049C126.933 26.7211 126.854 26.9078 126.697 27.065C126.54 27.2222 126.353 27.3008 126.137 27.3008H120.537C120.32 27.3008 120.134 27.2222 119.977 27.065C119.819 26.9078 119.741 26.7211 119.741 26.5049V12.769C119.741 12.5529 119.819 12.3662 119.977 12.209C120.134 12.0518 120.32 11.9732 120.537 11.9732H125.695C125.911 11.9732 126.098 12.0518 126.255 12.209C126.412 12.3662 126.491 12.5529 126.491 12.769V13.7418C127.002 13.1326 127.689 12.6413 128.554 12.2679C129.438 11.8749 130.382 11.6784 131.384 11.6784C132.995 11.6784 134.351 12.2483 135.452 13.388C136.552 14.5081 137.102 16.1686 137.102 18.3695ZM155.454 21.3761H146.67V21.5235C146.67 22.7222 147.053 23.3215 147.82 23.3215C148.036 23.3215 148.301 23.1643 148.615 22.8499C148.93 22.5355 149.274 22.3783 149.647 22.3783H155.218C155.65 22.3783 155.867 22.5944 155.867 23.0267C155.867 23.9896 155.139 24.9918 153.685 26.0333C152.251 27.0748 150.296 27.5955 147.82 27.5955C145.363 27.5955 143.349 26.9569 141.777 25.6796C140.225 24.3826 139.448 22.6042 139.448 20.3444V18.9296C139.448 16.7876 140.244 15.0485 141.836 13.7123C143.428 12.3564 145.511 11.6784 148.085 11.6784C150.679 11.6784 152.683 12.435 154.098 13.9481C155.532 15.4612 156.25 17.3771 156.25 19.6959V20.5802C156.25 20.7964 156.171 20.9831 156.014 21.1403C155.857 21.2975 155.67 21.3761 155.454 21.3761ZM149.028 17.5737C149.028 16.3946 148.635 15.8051 147.849 15.8051C147.063 15.8051 146.67 16.3946 146.67 17.5737V17.6916H149.028V17.5737ZM164.817 27.3008H159.541C159.325 27.3008 159.138 27.2222 158.981 27.065C158.823 26.9078 158.745 26.7211 158.745 26.5049V7.16857C158.745 6.95241 158.823 6.76573 158.981 6.60852C159.138 6.45132 159.325 6.37271 159.541 6.37271H164.817C165.033 6.37271 165.22 6.45132 165.377 6.60852C165.534 6.76573 165.613 6.95241 165.613 7.16857V26.5049C165.613 26.7211 165.534 26.9078 165.377 27.065C165.22 27.2222 165.033 27.3008 164.817 27.3008ZM176.725 23.0562C176.725 22.8597 176.676 22.7025 176.578 22.5846C176.323 22.2702 175.379 21.9656 173.748 21.6708C172.117 21.3564 170.791 20.816 169.769 20.0496C168.767 19.2636 168.266 18.173 168.266 16.7778C168.266 15.3826 168.934 14.1839 170.27 13.1817C171.606 12.1795 173.405 11.6784 175.664 11.6784C177.944 11.6784 179.811 12.15 181.265 13.0933C182.719 14.0365 183.446 14.9896 183.446 15.9525C183.446 16.1686 183.377 16.3553 183.24 16.5125C183.122 16.6697 182.974 16.7483 182.798 16.7483H177.846C177.551 16.7483 177.187 16.5911 176.755 16.2767C176.323 15.9623 175.998 15.8051 175.782 15.8051C175.33 15.8051 175.104 15.9623 175.104 16.2767C175.104 16.4732 175.153 16.6304 175.252 16.7483C175.507 17.0431 176.578 17.328 178.465 17.6031C180.351 17.8782 181.756 18.4874 182.68 19.4306C183.623 20.3542 184.095 21.3859 184.095 22.5256C184.095 24.1174 183.377 25.3652 181.943 26.2691C180.508 27.1731 178.474 27.625 175.841 27.625C174.446 27.625 173.208 27.4678 172.127 27.1534C171.046 26.839 170.221 26.446 169.651 25.9744C168.531 25.0508 167.971 24.1861 167.971 23.3805C167.971 23.1643 168.04 22.9776 168.177 22.8204C168.315 22.6632 168.482 22.5846 168.679 22.5846H173.807C174.082 22.5846 174.436 22.7418 174.868 23.0562C175.32 23.351 175.743 23.4984 176.136 23.4984C176.529 23.4984 176.725 23.351 176.725 23.0562Z" fill="white"/>
<rect y="2.64453" width="31.1771" height="31.1771" rx="3.78888" fill="white"/>
<rect x="17.7764" y="15.1094" width="6.09909" height="6.09909" fill="#2C2C2C"/>
<path fill-rule="evenodd" clip-rule="evenodd" d="M17.775 10.5371H7.10156V25.7848H17.775V21.2091H11.6773V15.11H17.775V10.5371Z" fill="#2C2C2C"/>
</svg>
