<svg width="41" height="41" viewBox="0 0 41 41" fill="none" xmlns="http://www.w3.org/2000/svg">
<g id="Explode-Explode--Streamline-Modular.svg">
<g clip-path="url(#clip0_8112_2177)">
<path id="Vector" d="M1.33594 0.933594H39.6693V39.2669H1.33594V0.933594Z" fill="#5A00FF"/>
<path id="Vector_2" fill-rule="evenodd" clip-rule="evenodd" d="M1.33594 14.6647V21.4717C3.94686 21.306 6.62467 21.4612 9.25317 21.6136C9.80398 21.6455 10.3526 21.6773 10.898 21.706C11.097 21.7165 11.3001 21.7258 11.5061 21.7351C12.7864 21.7934 14.1755 21.8566 15.3645 22.253C15.3859 22.2601 15.5474 22.3092 15.7448 22.3693C16.0918 22.4749 16.5495 22.6142 16.5495 22.6175C16.5495 22.7211 15.9124 22.9998 15.4906 23.1843C15.3138 23.2616 15.1749 23.3225 15.1366 23.3468C14.4769 23.7667 13.8286 24.2149 13.1803 24.6631C12.6195 25.0508 12.0587 25.4386 11.4905 25.8079C8.52443 27.7359 5.47335 29.8155 2.73991 32.0519C2.56928 32.1915 2.22877 32.4384 1.81172 32.7409C1.66159 32.8498 1.50154 32.9659 1.33594 33.0867V39.2669H4.50951C4.95931 38.8441 5.30522 38.5153 5.33774 38.4781C6.07739 37.6329 7.02052 36.8146 7.88996 36.1082C10.9031 33.66 13.8164 30.697 16.3216 27.7221C16.4829 27.5306 16.6485 27.3377 16.8152 27.1434C17.3042 26.5738 17.8036 25.992 18.2359 25.3977C18.4689 25.0772 18.5917 24.8042 18.7371 24.4406C18.7644 24.3726 19.3513 23.7433 19.3771 23.7691C19.6288 24.0208 19.6563 25.5629 19.6779 26.7734C19.6894 27.4155 19.6991 27.9642 19.7399 28.1779C19.9992 29.5396 20.2231 30.9022 20.4466 32.2633C20.8133 34.4948 21.1792 36.7221 21.6996 38.9338C21.7257 39.0447 21.7513 39.1558 21.7764 39.2669H27.0472C26.9271 38.9411 26.7932 38.6123 26.6663 38.3005C26.4339 37.7296 26.2248 37.2159 26.1661 36.883C26.0174 36.0409 25.7271 35.2122 25.4389 34.3893C25.2771 33.9278 25.1161 33.4681 24.9811 33.0089C24.3672 30.9218 24.0574 28.649 23.8416 26.4916C23.8111 26.186 23.6625 25.8209 23.5218 25.4754C23.3816 25.1308 23.2492 24.8056 23.2492 24.5773C23.2492 24.4931 24.2529 24.8501 24.7663 25.0327C24.8862 25.0754 24.9793 25.1085 25.0267 25.1242C25.266 25.2041 25.507 25.2852 25.7492 25.3669C26.7343 25.6987 27.7383 26.037 28.7183 26.3093C29.5074 26.5285 30.2952 26.7791 31.0845 27.0302C32.3098 27.42 33.5383 27.8108 34.78 28.0867C36.0757 28.3747 38.1758 29.0443 39.6693 29.6639V23.5586C38.7374 23.3627 37.8405 23.185 37.6968 23.1645C36.3825 22.9767 35.088 22.6903 33.7949 22.4044C32.4272 22.1018 31.0613 21.7997 29.6755 21.6149C29.3863 21.5764 29.0944 21.5304 28.8017 21.4842C28.349 21.4128 27.8938 21.341 27.4422 21.2959C27.3418 21.2858 27.2411 21.2731 27.1404 21.2602C26.9218 21.2325 26.7027 21.2047 26.4851 21.2047C26.4598 21.2047 26.4261 21.2132 26.3922 21.2216C26.3248 21.2385 26.2572 21.2553 26.2572 21.2047C26.2572 21.2027 28.7319 19.1456 28.9462 18.9715C30.875 17.4044 32.8597 15.9525 34.85 14.4966C35.8148 13.7909 36.7808 13.0842 37.7424 12.363C37.9148 12.2337 38.0923 12.1021 38.2732 11.9681C38.7286 11.6308 39.2046 11.278 39.6693 10.9087V0.933594H39.0042C38.0643 2.30278 37.007 3.81557 36.7854 4.02252C36.3938 4.388 36.0287 4.79845 35.6637 5.2087C35.3734 5.53502 35.0834 5.86123 34.78 6.16458C32.6839 8.26059 30.649 10.5664 28.7183 12.8187C28.5413 13.0253 28.3563 13.2327 28.1695 13.442C27.5959 14.085 27.0053 14.7471 26.5762 15.4621C26.4332 15.7006 25.5878 17.0964 25.5772 17.0857C25.2659 16.7745 25.4376 15.3502 25.5662 14.2846C25.6255 13.793 25.6755 13.3777 25.6648 13.1833C25.483 9.91223 25.4825 6.61765 25.4825 3.33887C25.4825 3.25399 25.4875 3.05805 25.4941 2.79726C25.5066 2.30383 25.5251 1.57825 25.5269 0.933594H20.3886C20.4026 1.20235 20.419 1.46694 20.4334 1.69781C20.4533 2.01503 20.469 2.26858 20.469 2.38174C20.469 4.74989 20.3343 7.08679 20.1957 9.44605C20.1313 10.539 20.1384 11.6397 20.1455 12.7382C20.1477 13.0844 20.15 13.4304 20.15 13.7757C20.15 13.8283 20.1499 13.8811 20.1498 13.934C20.1491 14.3656 20.1484 14.8093 20.1957 15.2342C20.1967 15.2443 20.202 15.2796 20.2095 15.3303C20.242 15.549 20.3173 16.0546 20.2867 16.0546C19.895 16.0546 18.9638 14.0108 18.5731 13.1532C18.5005 12.9938 18.4465 12.8754 18.4181 12.8187C17.5985 11.1793 16.7871 9.5337 15.9759 7.88859C15.1668 6.24774 14.3581 4.60739 13.5415 2.9742C13.2003 2.29184 12.8665 1.62068 12.5763 0.933594H7.29468C7.74759 1.51486 8.3769 3.18605 8.71683 4.08877C8.76708 4.2222 8.811 4.33885 8.8471 4.4327C9.38942 5.84271 10.0166 7.22558 10.6448 8.61098C11.2551 9.95653 11.8663 11.3045 12.402 12.6819C12.7503 13.5774 13.0254 14.0973 13.385 14.7769C13.5699 15.1267 13.7774 15.5187 14.0287 16.026C13.9663 16.0016 13.845 15.9666 13.7608 15.9423C13.7225 15.9313 13.6918 15.9225 13.6781 15.9179C13.5555 15.877 13.4364 15.8494 13.319 15.8222C13.1331 15.7789 12.9514 15.7368 12.7667 15.6444C12.1183 15.3203 11.0317 15.2563 10.2189 15.2084C10.105 15.2017 9.99649 15.1954 9.89532 15.1886C8.9698 15.127 8.05806 15.0212 7.1498 14.916C5.34355 14.7065 3.55111 14.4987 1.69159 14.6417C1.59632 14.6491 1.47434 14.6566 1.33594 14.6647ZM14.0429 16.0546C14.0381 16.0451 14.0334 16.0355 14.0287 16.026C14.0715 16.0428 14.0866 16.0546 14.0429 16.0546Z" fill="#FAB19E"/>
</g>
<rect x="1" y="0.601562" width="39" height="39" rx="7.5" stroke="#D0BCFF"/>
</g>
<defs>
<clipPath id="clip0_8112_2177">
<rect x="0.5" y="0.101562" width="40" height="40" rx="8" fill="white"/>
</clipPath>
</defs>
</svg>
