<svg width="25" height="25" viewBox="0 0 25 25" fill="none" xmlns="http://www.w3.org/2000/svg">
<g id="Comment">
<path id="Comment_2" d="M19.325 20.1025L19.103 20.7664C19.3454 20.8475 19.6127 20.79 19.8004 20.6164C19.988 20.4428 20.0661 20.1807 20.0041 19.9327L19.325 20.1025ZM18.525 16.9033L17.9654 16.4829L17.765 16.7495L17.8459 17.0731L18.525 16.9033ZM16.125 19.0323L16.347 18.3684L16.0477 18.2683L15.7745 18.4264L16.125 19.0323ZM12.125 19.4025C8.09332 19.4025 4.825 16.1342 4.825 12.1025H3.425C3.425 16.9074 7.32012 20.8025 12.125 20.8025V19.4025ZM4.825 12.1025C4.825 8.07086 8.09332 4.80254 12.125 4.80254V3.40254C7.32012 3.40254 3.425 7.29766 3.425 12.1025H4.825ZM12.125 4.80254C16.1567 4.80254 19.425 8.07086 19.425 12.1025H20.825C20.825 7.29766 16.9299 3.40254 12.125 3.40254V4.80254ZM19.425 12.1025C19.425 13.7471 18.8821 15.2627 17.9654 16.4829L19.0846 17.3238C20.1773 15.8695 20.825 14.0607 20.825 12.1025H19.425ZM17.8459 17.0731L18.6459 20.2724L20.0041 19.9327L19.2041 16.7335L17.8459 17.0731ZM19.547 19.4387L16.347 18.3684L15.903 19.6961L19.103 20.7664L19.547 19.4387ZM15.7745 18.4264C14.7015 19.0471 13.4558 19.4025 12.125 19.4025V20.8025C13.7085 20.8025 15.1951 20.3789 16.4755 19.6382L15.7745 18.4264Z" fill="#888888"/>
</g>
</svg>
