<svg width="63" height="63" viewBox="0 0 63 63" fill="none" xmlns="http://www.w3.org/2000/svg">
<g id="Group 1171275014">
<g id="Rectangle 41976" filter="url(#filter0_dd_7249_11808)">
<rect x="11.543" y="7.57324" width="40" height="40" rx="8" fill="#EADDFF"/>
</g>
<path id="+" d="M31.543 35.5732C30.9467 35.5732 30.4633 35.0898 30.4633 34.4935V20.653C30.4633 20.0566 30.9467 19.5732 31.543 19.5732C32.1393 19.5732 32.6227 20.0566 32.6227 20.653V34.4935C32.6227 35.0898 32.1393 35.5732 31.543 35.5732ZM24.6172 28.6475C24.0239 28.6475 23.543 28.1665 23.543 27.5732C23.543 26.98 24.0239 26.499 24.6172 26.499H38.4687C39.062 26.499 39.543 26.98 39.543 27.5732C39.543 28.1665 39.062 28.6475 38.4687 28.6475H24.6172Z" fill="#5A00FF"/>
</g>
<defs>
<filter id="filter0_dd_7249_11808" x="0.542969" y="0.573242" width="62" height="62" filterUnits="userSpaceOnUse" color-interpolation-filters="sRGB">
<feFlood flood-opacity="0" result="BackgroundImageFix"/>
<feColorMatrix in="SourceAlpha" type="matrix" values="0 0 0 0 0 0 0 0 0 0 0 0 0 0 0 0 0 0 127 0" result="hardAlpha"/>
<feOffset dy="1"/>
<feGaussianBlur stdDeviation="1.5"/>
<feColorMatrix type="matrix" values="0 0 0 0 0 0 0 0 0 0 0 0 0 0 0 0 0 0 0.3 0"/>
<feBlend mode="normal" in2="BackgroundImageFix" result="effect1_dropShadow_7249_11808"/>
<feColorMatrix in="SourceAlpha" type="matrix" values="0 0 0 0 0 0 0 0 0 0 0 0 0 0 0 0 0 0 127 0" result="hardAlpha"/>
<feMorphology radius="3" operator="dilate" in="SourceAlpha" result="effect2_dropShadow_7249_11808"/>
<feOffset dy="4"/>
<feGaussianBlur stdDeviation="4"/>
<feColorMatrix type="matrix" values="0 0 0 0 0 0 0 0 0 0 0 0 0 0 0 0 0 0 0.15 0"/>
<feBlend mode="normal" in2="effect1_dropShadow_7249_11808" result="effect2_dropShadow_7249_11808"/>
<feBlend mode="normal" in="SourceGraphic" in2="effect2_dropShadow_7249_11808" result="shape"/>
</filter>
</defs>
</svg>
