<svg width="41" height="41" viewBox="0 0 41 41" fill="none" xmlns="http://www.w3.org/2000/svg">
<g id="Sun-Flower--Streamline-Modular.svg">
<g clip-path="url(#clip0_8112_2258)">
<path id="Vector" d="M1.33203 0.935547H39.6654V39.2689H1.33203V0.935547Z" fill="#FAB19E"/>
<g id="Group 1171275349">
<path id="Vector_2" d="M34.841 17.2535C33.2255 18.8688 27.5877 21.1316 27.5298 21.3487C27.4119 21.7925 31.9744 24.7317 32.6399 25.1606C33.3895 25.6437 35.2248 26.983 34.7107 27.6113C34.5136 27.8522 29.4128 26.3883 27.6898 25.5932C27.1726 25.3546 25.1712 24.3671 25.0018 24.5724C24.7278 24.9051 27.4058 29.9615 27.6898 31.8062C27.7572 32.2456 27.7819 32.6542 27.7819 33.0983C27.7819 33.1671 27.826 33.4606 27.7511 33.4981C27.3662 33.6905 26.4823 32.7519 26.2748 32.5445C25.4542 31.7237 21.4932 27.5888 20.8614 27.3771C20.4282 27.2319 20.4899 31.986 20.3384 32.9444C20.2071 33.7762 20.2834 34.6285 20.1848 35.4666C20.1146 36.063 20.0846 36.6595 20.0002 37.2504C19.978 37.4059 20.0008 37.8036 19.877 37.9272C19.7711 38.0332 19.5665 37.7361 19.5388 37.681C19.2901 37.1838 19.0279 36.6854 18.8007 36.174C18.3656 35.1951 16.6642 29.6616 16.1555 29.4072C16.0604 29.3597 12.3364 33.626 10.988 34.9745C10.7553 35.2071 10.1358 36.2796 9.72698 36.1432C9.25681 35.9865 9.4524 34.6998 9.48102 34.3285C9.56295 33.2619 9.93121 32.18 10.2499 31.1603C10.4998 30.3611 10.5696 29.5136 10.8959 28.7305C11.0789 28.291 11.2592 27.7863 11.3264 27.3156C11.3335 27.2656 11.4903 26.9565 11.4496 26.9158C11.3811 26.8475 11.0691 26.8611 10.988 26.8543C10.605 26.8222 10.2313 26.7412 9.85007 26.6698C8.23924 26.3678 6.63075 26.0074 5.0211 25.6856C4.39687 25.5607 2.86208 25.2512 3.32931 24.4243C3.84653 23.5091 12.9312 21.7973 13.0976 21.3705C13.1554 21.222 12.4603 20.1476 11.5202 18.7217L11.1844 18.2129C9.63444 15.8651 7.62823 12.8187 7.11445 11.2772C7.01293 10.9728 6.21192 9.24362 6.52727 8.92827C7.06016 8.39538 8.17691 9.33025 8.50911 9.66225C10.109 11.2623 10.9435 13.1698 12.3258 14.9471C12.4926 15.1613 13.4143 16.6785 13.7939 16.4885C14.1712 16.3 14.3194 14.4895 14.3811 14.1399C14.8435 11.5193 15.5167 8.85046 16.2162 6.28595C16.2948 5.99764 16.9122 3.32141 17.5374 3.79022C19.2376 5.06533 18.241 9.05527 18.0512 10.7634C17.9777 11.425 17.9777 12.0724 17.9777 12.7398V12.7452C17.9777 13.1122 17.7182 14.1057 17.9777 13.8462C20.5187 11.3052 22.0149 7.75371 24.5839 5.18488C24.8582 4.9105 26.8948 2.72482 27.4465 3.27634C27.7321 3.56209 27.111 5.09041 27.0062 5.40497C26.3304 7.43229 25.3844 9.16209 24.4372 11.0569C24.3031 11.3248 23.104 13.2471 23.4094 13.5527C23.5588 13.7018 28.0443 8.27073 30.1994 7.19298C30.5888 6.99837 31.675 6.18363 32.0707 6.57954C32.5131 7.02169 31.813 8.02496 31.5392 8.57255C30.5524 10.5458 26.9425 16.6087 26.9425 16.6087C26.9425 16.6087 31.9384 15.4344 33.561 15.1394C33.8927 15.079 35.732 14.5918 36.064 15.3065C36.3938 16.0165 35.2857 16.8088 34.841 17.2535Z" fill="#5A00FF"/>
<path id="Vector_3" d="M19.4202 18.4923C19.4189 18.4375 19.1895 18.4244 19.2301 18.3431C19.2359 18.3316 19.2652 18.3001 19.2765 18.2925C19.2961 18.2795 19.3836 18.2442 19.3682 18.2135C19.3291 18.1352 19.1835 18.2107 19.2006 18.0743C19.2022 18.0612 19.2041 18.0453 19.2101 18.0332C19.2552 17.9429 19.4078 17.9968 19.4283 17.894C19.4499 17.7863 19.2708 17.8015 19.3145 17.6852C19.3381 17.622 19.4086 17.5759 19.4694 17.5556C19.4892 17.549 19.5559 17.5368 19.5644 17.5113C19.5858 17.447 19.4892 17.4085 19.4599 17.3721C19.4319 17.3371 19.4493 17.271 19.4757 17.2392C19.5631 17.1345 19.7168 17.223 19.8111 17.1602C19.8404 17.1406 19.8032 17.0797 19.7984 17.0557C19.7891 17.0092 19.8123 16.9536 19.849 16.926C19.898 16.8893 20.006 16.9216 20.0452 16.9608C20.0805 16.9963 20.0968 17.0423 20.1559 17.0304C20.2345 17.0147 20.1871 16.8551 20.2602 16.8185C20.3184 16.7894 20.429 16.8294 20.4659 16.8786C20.4958 16.9185 20.5023 16.9698 20.5513 16.9861C20.6562 17.0211 20.6712 16.8767 20.7348 16.8343C20.755 16.8208 20.7727 16.7995 20.8012 16.809C20.8427 16.8228 20.8784 16.828 20.9087 16.866C20.9455 16.912 20.951 16.9993 21.0131 17.0241C21.0525 17.0398 21.0815 16.9987 21.1081 16.9766C21.1628 16.931 21.2441 16.8596 21.32 16.9102C21.4312 16.9844 21.2773 17.1064 21.3642 17.176C21.4148 17.2164 21.4682 17.2162 21.5288 17.2076C21.5782 17.2005 21.6383 17.1713 21.6774 17.2234C21.7641 17.339 21.5405 17.4418 21.5572 17.5587C21.5692 17.6427 21.6429 17.641 21.709 17.641C21.7337 17.641 21.7815 17.64 21.7913 17.6694C21.8151 17.7409 21.773 17.7481 21.7249 17.777C21.6772 17.8055 21.6287 17.8517 21.6205 17.9098C21.6046 18.0208 21.7452 18.0176 21.7755 18.0933C21.8278 18.2242 21.6091 18.2293 21.592 18.3147C21.5848 18.3503 21.5918 18.4043 21.6237 18.4255C21.6492 18.4425 21.7008 18.445 21.7122 18.4792C21.7403 18.5635 21.6831 18.5832 21.6205 18.5975L21.5636 18.6109C21.537 18.6184 21.5144 18.6285 21.5034 18.6468C21.4742 18.6954 21.5238 18.7373 21.5508 18.7734C21.5763 18.8073 21.5775 18.8483 21.5636 18.8873C21.4971 19.0739 21.371 18.8572 21.2902 18.8989C21.1656 18.9631 21.4638 19.1541 21.2894 19.2314C21.2375 19.2544 21.0601 19.1107 21.0097 19.125C20.9526 19.1413 21.0036 19.3238 20.9021 19.3542C20.7961 19.3859 20.793 19.1431 20.6799 19.1713C20.5799 19.1963 20.6184 19.2982 20.5583 19.36C20.5175 19.402 20.4619 19.4087 20.4248 19.3939C20.3373 19.3589 20.3439 19.2399 20.2413 19.2194C20.1057 19.1923 20.073 19.3978 19.9312 19.327C19.8208 19.2718 19.9315 19.1056 19.8205 19.0612C19.717 19.0198 19.6118 19.2099 19.5233 19.1214C19.5027 19.1008 19.5128 19.073 19.5169 19.0486C19.527 18.988 19.577 18.919 19.5644 18.8557C19.5445 18.7562 19.4796 18.7671 19.3967 18.7671C19.3666 18.7671 19.3014 18.7747 19.286 18.7354C19.2588 18.6661 19.2958 18.6244 19.3303 18.5899C19.3503 18.5699 19.4209 18.5237 19.4202 18.4923Z" fill="#FCD34D"/>
<path id="Vector_4" d="M18.9592 22.3868C18.958 22.3321 18.7285 22.319 18.7691 22.2376C18.7749 22.2261 18.8043 22.1946 18.8156 22.1871C18.8351 22.1741 18.9226 22.1388 18.9073 22.1081C18.8682 22.0298 18.7226 22.1052 18.7397 21.9688C18.7413 21.9558 18.743 21.9398 18.7492 21.9277C18.7942 21.8374 18.9469 21.8914 18.9674 21.7886C18.9889 21.6808 18.8099 21.696 18.8535 21.5797C18.8772 21.5165 18.9475 21.4704 19.0085 21.4501C19.0281 21.4436 19.0949 21.4313 19.1034 21.4058C19.1248 21.3415 19.0281 21.3031 18.999 21.2667C18.971 21.2317 18.9884 21.1655 19.0148 21.1337C19.1021 21.029 19.2557 21.1176 19.3501 21.0547C19.3794 21.0351 19.3423 20.9743 19.3375 20.9503C19.3282 20.9037 19.3514 20.8481 19.3881 20.8205C19.4369 20.7839 19.545 20.8161 19.5842 20.8554C19.6196 20.8908 19.6358 20.9368 19.6949 20.925C19.7735 20.9093 19.7262 20.7496 19.7993 20.713C19.8575 20.684 19.968 20.7239 20.005 20.7731C20.0349 20.8131 20.0414 20.8643 20.0903 20.8807C20.1953 20.9157 20.2102 20.7713 20.2738 20.7288C20.2941 20.7153 20.3117 20.694 20.3402 20.7035C20.3817 20.7174 20.4174 20.7226 20.4478 20.7605C20.4846 20.8065 20.4901 20.8938 20.5522 20.9187C20.5915 20.9344 20.6206 20.8933 20.647 20.8712C20.7019 20.8255 20.783 20.7541 20.859 20.8047C20.9703 20.8789 20.8163 21.0009 20.9033 21.0705C20.9538 21.1109 21.0073 21.1107 21.0677 21.1021C21.1173 21.095 21.1774 21.0658 21.2165 21.1179C21.3031 21.2336 21.0795 21.3364 21.0962 21.4532C21.1082 21.5372 21.1819 21.5355 21.2481 21.5355C21.2727 21.5355 21.3206 21.5345 21.3303 21.5639C21.3542 21.6354 21.3119 21.6427 21.2639 21.6715C21.2163 21.7 21.1678 21.7463 21.1595 21.8044C21.1436 21.9153 21.2842 21.9121 21.3145 21.9878C21.3668 22.1187 21.1481 22.1239 21.131 22.2093C21.1239 22.2448 21.1309 22.2988 21.1627 22.32C21.1882 22.337 21.2399 22.3395 21.2513 22.3737C21.2793 22.4581 21.222 22.4778 21.1595 22.4921L21.1025 22.5054C21.076 22.5129 21.0535 22.523 21.0424 22.5414C21.0133 22.5899 21.0628 22.6318 21.0899 22.6679C21.1153 22.7018 21.1164 22.7429 21.1025 22.7818C21.036 22.9685 20.91 22.7517 20.8292 22.7934C20.7045 22.8576 21.0029 23.0486 20.8284 23.1259C20.7766 23.1489 20.5991 23.0052 20.5488 23.0195C20.4917 23.0358 20.5426 23.2184 20.4411 23.2487C20.3351 23.2804 20.332 23.0377 20.2189 23.0659C20.119 23.0908 20.1573 23.1928 20.0972 23.2546C20.0565 23.2965 20.0009 23.3032 19.9637 23.2883C19.8763 23.2534 19.883 23.1344 19.7803 23.1139C19.6447 23.0868 19.612 23.2924 19.4703 23.2215C19.3599 23.1663 19.4706 23.0002 19.3596 22.9558C19.2561 22.9144 19.1509 23.1044 19.0622 23.0159C19.0417 22.9953 19.0519 22.9676 19.0559 22.9432C19.0661 22.8825 19.1161 22.8136 19.1034 22.7501C19.0835 22.6507 19.0185 22.6616 18.9357 22.6616C18.9056 22.6616 18.8405 22.6692 18.8251 22.63C18.7978 22.5607 18.8348 22.519 18.8693 22.4844C18.8894 22.4644 18.9599 22.4183 18.9592 22.3868Z" fill="#FCD34D"/>
<path id="Vector_5" d="M17.1858 25.6408C17.1845 25.586 16.9551 25.5729 16.9956 25.4915C17.0015 25.48 17.0308 25.4485 17.0421 25.441C17.0617 25.428 17.1492 25.3927 17.1338 25.362C17.0947 25.2837 16.9492 25.3591 16.9662 25.2227C16.9679 25.2097 16.9696 25.1937 16.9757 25.1816C17.0208 25.0913 17.1734 25.1453 17.1939 25.0425C17.2155 24.9347 17.0365 24.9499 17.0801 24.8336C17.1037 24.7704 17.1741 24.7243 17.235 24.704C17.2547 24.6975 17.3215 24.6852 17.3299 24.6597C17.3514 24.5954 17.2547 24.557 17.2256 24.5206C17.1976 24.4856 17.2149 24.4195 17.2414 24.3876C17.3287 24.2829 17.4823 24.3715 17.5767 24.3086C17.606 24.289 17.5688 24.2282 17.564 24.2042C17.5547 24.1576 17.5779 24.1021 17.6146 24.0745C17.6635 24.0378 17.7716 24.07 17.8108 24.1093C17.8462 24.1447 17.8624 24.1907 17.9215 24.1789C18.0001 24.1632 17.9527 24.0035 18.0259 23.9669C18.084 23.9379 18.1945 23.9778 18.2315 24.027C18.2614 24.067 18.2679 24.1182 18.3169 24.1346C18.4218 24.1696 18.4368 24.0252 18.5003 23.9827C18.5206 23.9692 18.5383 23.948 18.5667 23.9574C18.6082 23.9713 18.644 23.9765 18.6744 24.0144C18.7112 24.0604 18.7166 24.1477 18.7787 24.1726C18.818 24.1883 18.8471 24.1472 18.8736 24.1251C18.9284 24.0794 19.0096 24.008 19.0856 24.0586C19.1968 24.1328 19.0428 24.2548 19.1299 24.3244C19.1804 24.3648 19.2338 24.3646 19.2943 24.356C19.3439 24.3489 19.4039 24.3197 19.443 24.3718C19.5297 24.4875 19.3061 24.5903 19.3228 24.7071C19.3347 24.7911 19.4084 24.7894 19.4747 24.7894C19.4993 24.7894 19.5471 24.7884 19.5569 24.8178C19.5808 24.8893 19.5385 24.8966 19.4905 24.9255C19.4428 24.9539 19.3944 25.0002 19.386 25.0583C19.3702 25.1693 19.5108 25.166 19.5411 25.2417C19.5934 25.3726 19.3747 25.3778 19.3576 25.4632C19.3505 25.4987 19.3575 25.5527 19.3893 25.5739C19.4148 25.5909 19.4664 25.5934 19.4778 25.6276C19.5059 25.712 19.4486 25.7317 19.386 25.746L19.3291 25.7593C19.3025 25.7668 19.28 25.7769 19.269 25.7953C19.2399 25.8438 19.2893 25.8857 19.3164 25.9218C19.3418 25.9557 19.343 25.9968 19.3291 26.0357C19.2626 26.2224 19.1366 26.0056 19.0558 26.0473C18.9311 26.1115 19.2294 26.3025 19.055 26.3798C19.0032 26.4028 18.8257 26.2591 18.7754 26.2734C18.7183 26.2897 18.7691 26.4723 18.6677 26.5026C18.5617 26.5343 18.5586 26.2916 18.4454 26.3198C18.3456 26.3447 18.3839 26.4467 18.3238 26.5085C18.2831 26.5504 18.2275 26.5571 18.1903 26.5423C18.1029 26.5073 18.1095 26.3883 18.0069 26.3678C17.8713 26.3407 17.8386 26.5463 17.6969 26.4754C17.5865 26.4202 17.6971 26.2541 17.5862 26.2097C17.4827 26.1683 17.3774 26.3584 17.2888 26.2698C17.2683 26.2492 17.2785 26.2215 17.2825 26.1971C17.2926 26.1364 17.3427 26.0675 17.3299 26.0041C17.3101 25.9046 17.2451 25.9155 17.1623 25.9155C17.1322 25.9155 17.067 25.9231 17.0516 25.8839C17.0244 25.8146 17.0614 25.7729 17.0959 25.7383C17.1159 25.7183 17.1865 25.6722 17.1858 25.6408Z" fill="#FCD34D"/>
<path id="Vector_6" d="M16.3617 17.5821C16.3604 17.5273 16.1309 17.5142 16.1715 17.4329C16.1774 17.4214 16.2067 17.3899 16.2179 17.3824C16.2376 17.3693 16.3251 17.334 16.3097 17.3033C16.2705 17.2251 16.125 17.3005 16.142 17.1641C16.1436 17.151 16.1455 17.1351 16.1515 17.123C16.1966 17.0327 16.3492 17.0866 16.3698 16.9839C16.3914 16.8762 16.2124 16.8913 16.256 16.775C16.2796 16.7118 16.35 16.6657 16.4109 16.6454C16.4306 16.6388 16.4973 16.6266 16.5058 16.6011C16.5273 16.5368 16.4306 16.4984 16.4014 16.4619C16.3734 16.4269 16.3908 16.3608 16.4172 16.329C16.5045 16.2243 16.6582 16.3128 16.7526 16.25C16.7819 16.2304 16.7447 16.1696 16.7399 16.1455C16.7306 16.099 16.7537 16.0435 16.7905 16.0159C16.8394 15.9793 16.9474 16.0115 16.9866 16.0506C17.022 16.0861 17.0382 16.1321 17.0974 16.1202C17.176 16.1045 17.1286 15.9449 17.2017 15.9083C17.2599 15.8793 17.3704 15.9192 17.4073 15.9684C17.4373 16.0084 17.4438 16.0597 17.4928 16.0759C17.5977 16.1109 17.6126 15.9665 17.6762 15.9241C17.6964 15.9106 17.7141 15.8894 17.7426 15.8988C17.7841 15.9126 17.8199 15.9178 17.8502 15.9558C17.887 16.0018 17.8925 16.0891 17.9546 16.1139C17.9939 16.1297 18.023 16.0886 18.0495 16.0665C18.1043 16.0208 18.1855 15.9494 18.2615 16C18.3726 16.0742 18.2187 16.1962 18.3057 16.2658C18.3562 16.3062 18.4097 16.306 18.4702 16.2974C18.5197 16.2903 18.5798 16.2611 18.6189 16.3132C18.7055 16.4288 18.482 16.5317 18.4986 16.6485C18.5106 16.7325 18.5843 16.7308 18.6505 16.7308C18.6752 16.7308 18.7229 16.7298 18.7328 16.7592C18.7565 16.8307 18.7144 16.8379 18.6664 16.8668C18.6187 16.8953 18.5702 16.9415 18.5619 16.9997C18.5461 17.1106 18.6867 17.1074 18.717 17.1831C18.7693 17.314 18.5505 17.3191 18.5334 17.4046C18.5263 17.4401 18.5333 17.4941 18.5651 17.5153C18.5906 17.5323 18.6423 17.5348 18.6537 17.569C18.6818 17.6533 18.6245 17.673 18.5619 17.6874L18.505 17.7007C18.4784 17.7082 18.4559 17.7183 18.4449 17.7366C18.4158 17.7852 18.4652 17.8271 18.4923 17.8632C18.5177 17.8971 18.5189 17.9381 18.505 17.9771C18.4385 18.1638 18.3124 17.947 18.2317 17.9887C18.107 18.0529 18.4053 18.2439 18.2309 18.3212C18.179 18.3442 18.0016 18.2005 17.9512 18.2149C17.8941 18.2311 17.945 18.4136 17.8435 18.444C17.7375 18.4757 17.7345 18.2329 17.6213 18.2611C17.5214 18.2862 17.5598 18.388 17.4997 18.4499C17.459 18.4918 17.4034 18.4985 17.3662 18.4837C17.2788 18.4487 17.2854 18.3298 17.1828 18.3092C17.0472 18.2821 17.0145 18.4876 16.8727 18.4168C16.7623 18.3616 16.8729 18.1954 16.7621 18.151C16.6586 18.1096 16.5532 18.2998 16.4647 18.2112C16.4442 18.1906 16.4543 18.1628 16.4584 18.1384C16.4685 18.0778 16.5185 18.0088 16.5058 17.9455C16.486 17.846 16.421 17.8569 16.3382 17.8569C16.3081 17.8569 16.2428 17.8645 16.2275 17.8253C16.2002 17.7559 16.2372 17.7142 16.2718 17.6797C16.2918 17.6597 16.3623 17.6136 16.3617 17.5821Z" fill="#FCD34D"/>
<path id="Vector_7" d="M15.8928 21.0841C15.8916 21.0293 15.6621 21.0162 15.7028 20.9349C15.7085 20.9234 15.7378 20.8919 15.7492 20.8844C15.7687 20.8714 15.8563 20.8361 15.8409 20.8052C15.8018 20.727 15.6562 20.8025 15.6733 20.6661C15.6749 20.653 15.6767 20.637 15.6827 20.625C15.7279 20.5347 15.8805 20.5886 15.9011 20.4858C15.9225 20.3781 15.7435 20.3932 15.7871 20.277C15.8109 20.2138 15.8812 20.1677 15.9422 20.1473C15.9618 20.1407 16.0285 20.1286 16.037 20.1031C16.0584 20.0388 15.9618 20.0003 15.9327 19.9638C15.9047 19.9288 15.922 19.8627 15.9485 19.831C16.0358 19.7262 16.1894 19.8148 16.2837 19.7519C16.313 19.7324 16.276 19.6715 16.2711 19.6476C16.2618 19.601 16.285 19.5454 16.3218 19.5178C16.3706 19.4812 16.4786 19.5134 16.5178 19.5526C16.5533 19.5881 16.5695 19.6341 16.6285 19.6223C16.7072 19.6066 16.6598 19.4469 16.733 19.4103C16.7911 19.3812 16.9017 19.4211 16.9385 19.4704C16.9684 19.5103 16.9751 19.5616 17.0239 19.5779C17.1289 19.6129 17.1438 19.4686 17.2075 19.4261C17.2277 19.4126 17.2453 19.3913 17.2739 19.4008C17.3154 19.4146 17.3511 19.4199 17.3814 19.4577C17.4182 19.5037 17.4237 19.591 17.4858 19.6159C17.5251 19.6317 17.5542 19.5905 17.5807 19.5684C17.6354 19.5228 17.7167 19.4514 17.7926 19.502C17.9039 19.5762 17.75 19.6982 17.8369 19.7677C17.8875 19.8082 17.9409 19.808 18.0014 19.7994C18.051 19.7923 18.111 19.763 18.1501 19.8152C18.2368 19.9309 18.0132 20.0337 18.0299 20.1505C18.0419 20.2345 18.1156 20.2327 18.1817 20.2327C18.2063 20.2327 18.2541 20.2318 18.2639 20.2612C18.2878 20.3327 18.2456 20.3399 18.1975 20.3687C18.15 20.3973 18.1015 20.4435 18.0931 20.5016C18.0772 20.6126 18.2178 20.6094 18.2481 20.6851C18.3005 20.816 18.0817 20.8211 18.0647 20.9065C18.0576 20.9421 18.0645 20.996 18.0963 21.0172C18.1219 21.0343 18.1735 21.0368 18.1849 21.071C18.2129 21.1552 18.1557 21.1751 18.0931 21.1893L18.0362 21.2027C18.0097 21.2101 17.9871 21.2203 17.9761 21.2387C17.947 21.2872 17.9965 21.3291 18.0236 21.3652C18.049 21.399 18.0501 21.4401 18.0362 21.479C17.9697 21.6657 17.8437 21.4489 17.7628 21.4906C17.6382 21.5548 17.9365 21.7458 17.762 21.8232C17.7102 21.8462 17.5328 21.7024 17.4824 21.7168C17.4254 21.7331 17.4763 21.9157 17.3748 21.9459C17.2688 21.9777 17.2656 21.7348 17.1525 21.7632C17.0526 21.7881 17.091 21.8901 17.0309 21.9519C16.9902 21.9938 16.9345 22.0005 16.8974 21.9856C16.8099 21.9506 16.8166 21.8317 16.7139 21.8112C16.5783 21.7841 16.5456 21.9895 16.404 21.9187C16.2935 21.8635 16.4042 21.6974 16.2932 21.6531C16.1897 21.6117 16.0845 21.8017 15.9959 21.7132C15.9753 21.6926 15.9855 21.6649 15.9896 21.6403C15.9997 21.5798 16.0497 21.5109 16.037 21.4474C16.0171 21.3479 15.9522 21.3589 15.8693 21.3589C15.8392 21.3589 15.7741 21.3664 15.7586 21.3272C15.7314 21.258 15.7684 21.2163 15.8029 21.1817C15.8229 21.1616 15.8936 21.1155 15.8928 21.0841Z" fill="#FCD34D"/>
<path id="Vector_8" d="M22.0256 20.4844C22.0244 20.4297 21.795 20.4166 21.8356 20.3353C21.8413 20.3237 21.8707 20.2923 21.882 20.2847C21.9015 20.2717 21.9891 20.2364 21.9737 20.2057C21.9346 20.1274 21.789 20.2029 21.8061 20.0665C21.8077 20.0534 21.8095 20.0375 21.8156 20.0254C21.8607 19.9351 22.0133 19.989 22.0339 19.8862C22.0553 19.7785 21.8763 19.7937 21.9199 19.6774C21.9437 19.6142 22.014 19.568 22.075 19.5477C22.0946 19.5412 22.1613 19.529 22.1699 19.5034C22.1912 19.4392 22.0946 19.4007 22.0655 19.3642C22.0375 19.3293 22.0549 19.2631 22.0813 19.2314C22.1686 19.1266 22.3222 19.2152 22.4165 19.1523C22.4459 19.1328 22.4088 19.0719 22.4039 19.0479C22.3946 19.0014 22.4178 18.9457 22.4546 18.9182C22.5034 18.8815 22.6115 18.9138 22.6506 18.953C22.6861 18.9885 22.7023 19.0344 22.7613 19.0226C22.84 19.0069 22.7926 18.8472 22.8658 18.8107C22.9239 18.7816 23.0345 18.8215 23.0714 18.8708C23.1013 18.9107 23.1079 18.962 23.1567 18.9783C23.2617 19.0133 23.2766 18.8689 23.3403 18.8265C23.3605 18.813 23.3781 18.7916 23.4067 18.8012C23.4482 18.815 23.4839 18.8202 23.5142 18.8581C23.551 18.9041 23.5565 18.9915 23.6186 19.0163C23.658 19.032 23.687 18.9909 23.7135 18.9688C23.7683 18.9232 23.8495 18.8517 23.9254 18.9024C24.0367 18.9766 23.8828 19.0986 23.9697 19.1681C24.0203 19.2086 24.0737 19.2084 24.1342 19.1998C24.1838 19.1927 24.2438 19.1635 24.2829 19.2156C24.3696 19.3312 24.146 19.434 24.1627 19.5508C24.1747 19.6349 24.2484 19.6332 24.3145 19.6332C24.3391 19.6332 24.387 19.6321 24.3967 19.6616C24.4206 19.7331 24.3784 19.7403 24.3303 19.7691C24.2828 19.7977 24.2343 19.8439 24.226 19.902C24.21 20.0129 24.3506 20.0098 24.3809 20.0855C24.4333 20.2164 24.2146 20.2215 24.1975 20.3069C24.1904 20.3425 24.1973 20.3965 24.2291 20.4175C24.2547 20.4346 24.3063 20.4372 24.3177 20.4714C24.3458 20.5556 24.2885 20.5754 24.226 20.5897L24.169 20.603C24.1425 20.6106 24.1199 20.6207 24.1089 20.639C24.0798 20.6876 24.1293 20.7294 24.1564 20.7655C24.1818 20.7994 24.1829 20.8405 24.169 20.8795C24.1025 21.0661 23.9765 20.8494 23.8956 20.8911C23.771 20.9553 24.0693 21.1462 23.8949 21.2236C23.843 21.2466 23.6656 21.1028 23.6152 21.1172C23.5582 21.1335 23.6091 21.316 23.5076 21.3464C23.4016 21.3781 23.3984 21.1352 23.2854 21.1635C23.1854 21.1885 23.2238 21.2904 23.1637 21.3522C23.123 21.3942 23.0673 21.4009 23.0302 21.386C22.9427 21.3511 22.9494 21.2321 22.8467 21.2115C22.7111 21.1844 22.6784 21.39 22.5368 21.3191C22.4263 21.2639 22.537 21.0978 22.426 21.0534C22.3225 21.012 22.2173 21.202 22.1287 21.1135C22.1081 21.093 22.1183 21.0652 22.1224 21.0408C22.1325 20.9802 22.1825 20.9112 22.1699 20.8478C22.1499 20.7484 22.085 20.7592 22.0021 20.7592C21.9721 20.7592 21.9069 20.7668 21.8915 20.7276C21.8642 20.6583 21.9012 20.6166 21.9357 20.5821C21.9558 20.5621 22.0264 20.5159 22.0256 20.4844Z" fill="#FCD34D"/>
<path id="Vector_9" d="M21.5608 24.6133C21.5595 24.5586 21.3301 24.5455 21.3707 24.4642C21.3765 24.4526 21.4058 24.4212 21.4171 24.4136C21.4367 24.4006 21.5243 24.3653 21.5088 24.3346C21.4697 24.2563 21.3242 24.3318 21.3412 24.1954C21.3429 24.1823 21.3447 24.1664 21.3507 24.1543C21.3959 24.064 21.5484 24.1179 21.5689 24.0151C21.5905 23.9074 21.4115 23.9226 21.4551 23.8063C21.4787 23.7431 21.5491 23.6969 21.61 23.6766C21.6298 23.6701 21.6965 23.6579 21.7049 23.6323C21.7264 23.5681 21.6298 23.5296 21.6006 23.4932C21.5726 23.4582 21.5899 23.392 21.6164 23.3603C21.7037 23.2555 21.8573 23.3441 21.9517 23.2812C21.981 23.2617 21.9438 23.2008 21.939 23.1768C21.9297 23.1303 21.9529 23.0746 21.9896 23.0471C22.0385 23.0104 22.1466 23.0427 22.1858 23.0819C22.2212 23.1174 22.2375 23.1633 22.2965 23.1515C22.3751 23.1358 22.3277 22.9761 22.4009 22.9396C22.459 22.9105 22.5695 22.9504 22.6065 22.9997C22.6364 23.0396 22.6429 23.0909 22.6919 23.1072C22.7968 23.1422 22.8118 22.9978 22.8753 22.9554C22.8956 22.9419 22.9133 22.9205 22.9418 22.9301C22.9833 22.9439 23.019 22.9491 23.0494 22.9871C23.0862 23.0331 23.0916 23.1204 23.1537 23.1452C23.1931 23.1609 23.2221 23.1198 23.2486 23.0977C23.3034 23.0521 23.3847 22.9806 23.4606 23.0313C23.5718 23.1055 23.4179 23.2275 23.5049 23.297C23.5555 23.3375 23.6088 23.3373 23.6693 23.3287C23.7189 23.3216 23.7789 23.2924 23.818 23.3445C23.9048 23.4601 23.6811 23.5629 23.6978 23.6797C23.7098 23.7638 23.7834 23.7621 23.8497 23.7621C23.8743 23.7621 23.9221 23.761 23.9319 23.7905C23.9558 23.862 23.9135 23.8692 23.8655 23.898C23.8178 23.9266 23.7694 23.9728 23.7611 24.0309C23.7452 24.1418 23.8858 24.1387 23.9161 24.2144C23.9684 24.3453 23.7497 24.3504 23.7327 24.4358C23.7255 24.4714 23.7325 24.5254 23.7643 24.5465C23.7898 24.5635 23.8414 24.5661 23.8528 24.6003C23.8809 24.6845 23.8237 24.7043 23.7611 24.7186L23.7041 24.7319C23.6775 24.7395 23.655 24.7496 23.644 24.7679C23.6149 24.8165 23.6644 24.8583 23.6914 24.8944C23.7168 24.9284 23.718 24.9694 23.7041 25.0084C23.6376 25.195 23.5117 24.9783 23.4308 25.02C23.3061 25.0842 23.6044 25.2751 23.43 25.3525C23.3782 25.3755 23.2007 25.2317 23.1504 25.2461C23.0933 25.2624 23.1442 25.4449 23.0427 25.4753C22.9368 25.507 22.9336 25.2641 22.8205 25.2924C22.7206 25.3174 22.7589 25.4193 22.6989 25.4811C22.6582 25.5231 22.6025 25.5298 22.5654 25.5149C22.4779 25.48 22.4845 25.361 22.3819 25.3404C22.2463 25.3133 22.2136 25.5189 22.0719 25.4481C21.9615 25.3929 22.0721 25.2267 21.9612 25.1823C21.8577 25.1409 21.7524 25.3309 21.6638 25.2424C21.6433 25.2219 21.6535 25.1941 21.6575 25.1697C21.6676 25.1091 21.7177 25.0401 21.7049 24.9767C21.6851 24.8773 21.6201 24.8881 21.5373 24.8881C21.5072 24.8881 21.442 24.8957 21.4266 24.8565C21.3994 24.7872 21.4364 24.7455 21.4709 24.711C21.4909 24.691 21.5615 24.6448 21.5608 24.6133Z" fill="#FCD34D"/>
<path id="Vector_10" d="M14.0686 23.8965C14.0673 23.8418 13.8379 23.8287 13.8786 23.7474C13.8843 23.7359 13.9136 23.7044 13.9249 23.6968C13.9445 23.6838 14.0321 23.6485 14.0167 23.6178C13.9776 23.5395 13.832 23.615 13.849 23.4786C13.8507 23.4655 13.8525 23.4496 13.8585 23.4375C13.9037 23.3472 14.0562 23.4011 14.0768 23.2983C14.0983 23.1906 13.9193 23.2058 13.9629 23.0895C13.9867 23.0263 14.057 22.9801 14.1179 22.9598C14.1376 22.9533 14.2043 22.9411 14.2128 22.9155C14.2342 22.8513 14.1376 22.8128 14.1085 22.7764C14.0805 22.7414 14.0978 22.6752 14.1243 22.6435C14.2116 22.5387 14.3652 22.6273 14.4595 22.5645C14.4888 22.5449 14.4517 22.484 14.4468 22.46C14.4376 22.4135 14.4607 22.3579 14.4975 22.3303C14.5464 22.2936 14.6544 22.3259 14.6936 22.3651C14.7291 22.4006 14.7453 22.4466 14.8043 22.4347C14.883 22.419 14.8355 22.2593 14.9088 22.2228C14.9668 22.1937 15.0774 22.2336 15.1143 22.2829C15.1442 22.3228 15.1508 22.3741 15.1997 22.3904C15.3047 22.4254 15.3196 22.281 15.3832 22.2386C15.4035 22.2251 15.4211 22.2037 15.4496 22.2133C15.4911 22.2271 15.5269 22.2323 15.5572 22.2703C15.594 22.3163 15.5994 22.4036 15.6615 22.4284C15.7009 22.4441 15.73 22.403 15.7565 22.3809C15.8112 22.3353 15.8925 22.2639 15.9684 22.3145C16.0797 22.3887 15.9257 22.5107 16.0127 22.5803C16.0633 22.6207 16.1166 22.6205 16.1772 22.6119C16.2268 22.6048 16.2868 22.5756 16.3259 22.6277C16.4126 22.7433 16.189 22.8461 16.2057 22.963C16.2177 23.047 16.2914 23.0453 16.3575 23.0453C16.3821 23.0453 16.4299 23.0443 16.4397 23.0737C16.4636 23.1452 16.4214 23.1524 16.3733 23.1812C16.3258 23.2098 16.2773 23.256 16.2689 23.3141C16.253 23.4251 16.3936 23.4219 16.4239 23.4976C16.4763 23.6285 16.2575 23.6336 16.2405 23.719C16.2334 23.7546 16.2403 23.8086 16.2721 23.8298C16.2977 23.8468 16.3492 23.8493 16.3606 23.8835C16.3887 23.9678 16.3315 23.9875 16.2689 24.0018L16.212 24.0152C16.1855 24.0227 16.1628 24.0328 16.1519 24.0511C16.1228 24.0997 16.1722 24.1415 16.1994 24.1777C16.2247 24.2116 16.2259 24.2526 16.212 24.2916C16.1455 24.4782 16.0195 24.2615 15.9386 24.3032C15.814 24.3674 16.1122 24.5583 15.9378 24.6357C15.886 24.6587 15.7086 24.515 15.6582 24.5293C15.6012 24.5456 15.652 24.7281 15.5506 24.7585C15.4446 24.7902 15.4414 24.5474 15.3283 24.5756C15.2284 24.6006 15.2668 24.7025 15.2067 24.7643C15.166 24.8063 15.1103 24.813 15.0732 24.7981C14.9857 24.7632 14.9923 24.6442 14.8897 24.6237C14.7541 24.5966 14.7214 24.8021 14.5798 24.7313C14.4693 24.6761 14.58 24.5099 14.469 24.4655C14.3655 24.4241 14.2603 24.6142 14.1717 24.5256C14.1511 24.5051 14.1613 24.4773 14.1654 24.4529C14.1754 24.3923 14.2255 24.3233 14.2128 24.2599C14.1929 24.1605 14.128 24.1713 14.0451 24.1713C14.015 24.1713 13.9499 24.179 13.9344 24.1397C13.9072 24.0704 13.9442 24.0287 13.9787 23.9942C13.9987 23.9742 14.0694 23.928 14.0686 23.8965Z" fill="#FCD34D"/>
</g>
</g>
<rect x="1" y="0.601562" width="39" height="39" rx="7.5" stroke="#D0BCFF"/>
</g>
<defs>
<clipPath id="clip0_8112_2258">
<rect x="0.5" y="0.101562" width="40" height="40" rx="8" fill="white"/>
</clipPath>
</defs>
</svg>
