<svg width="20" height="20" viewBox="0 0 20 20" fill="none" xmlns="http://www.w3.org/2000/svg">
<g id="discord">
<path id="Vector" d="M6.69952 3.05664C6.06409 3.05664 4.14836 3.8338 3.80467 3.98911C3.46097 4.14443 3.07948 4.62926 2.64661 5.42945C2.21315 6.22964 1.86532 7.16506 1.30016 8.54104C0.735602 9.91701 0.603911 12.5697 0.622808 13.3794C0.641706 14.189 0.734421 14.8215 1.56414 15.3004C2.39326 15.7788 3.12672 16.2795 3.89856 16.5807C4.671 16.8819 5.19776 17.0986 5.55563 16.7975C5.91351 16.4963 6.14913 15.9689 6.14913 15.9689C6.14913 15.9689 6.48811 15.4983 5.84795 15.216C5.2078 14.9331 4.88773 14.7353 4.91548 14.4435C4.94383 14.1518 4.99048 13.9918 5.15052 14.0296C5.31056 14.0674 5.68792 14.7447 7.13771 15.0553C8.58749 15.366 10.0007 15.3193 10.0007 15.3193C10.0007 15.3193 11.4144 15.3666 12.8642 15.0553C14.314 14.7447 14.6908 14.0674 14.8508 14.0296C15.0109 13.9918 15.0575 14.1518 15.0859 14.4429C15.1142 14.7353 14.7941 14.9331 14.154 15.216C13.5138 15.4983 13.8528 15.9689 13.8528 15.9689C13.8528 15.9689 14.0884 16.4957 14.4463 16.7975C14.8036 17.0986 15.3309 16.8819 16.1028 16.5807C16.8746 16.2795 17.6087 15.7793 18.4378 15.3004C19.2675 14.8215 19.3602 14.189 19.3791 13.3794C19.398 12.5703 19.2663 9.91701 18.7012 8.54104C18.1366 7.16506 17.7882 6.22964 17.3547 5.42945C16.9225 4.62926 16.5404 4.14443 16.1973 3.98852C15.8536 3.8338 13.9372 3.05664 13.3018 3.05664C12.6664 3.05664 12.4786 3.49955 12.4786 3.49955L12.2571 3.98911C12.2571 3.98911 10.769 3.70624 10.0107 3.70565C9.25245 3.70565 7.74479 3.98911 7.74479 3.98911L7.52333 3.49896C7.52333 3.49896 7.33554 3.05664 6.69952 3.05664ZM6.76861 8.93139H6.79224C7.7188 8.93139 8.46939 9.7422 8.46939 10.742C8.46939 11.7424 7.7188 12.5526 6.79224 12.5526C5.86567 12.5526 5.11509 11.7424 5.11509 10.742C5.1145 9.75165 5.8515 8.94497 6.76861 8.93139ZM13.2097 8.93139H13.2333C14.1504 8.94497 14.8868 9.75224 14.8868 10.742C14.8868 11.7424 14.1363 12.5526 13.2097 12.5526C12.2825 12.5526 11.5325 11.7424 11.5325 10.742C11.5325 9.7422 12.2825 8.93139 13.2097 8.93139Z" fill="white"/>
</g>
</svg>
