<svg width="25" height="24" viewBox="0 0 25 24" fill="none" xmlns="http://www.w3.org/2000/svg">
<g id="document">
<path id="Vector" d="M15.868 3C18.6481 3 20.1961 4.602 20.1961 7.347V16.644C20.1961 19.434 18.6481 21 15.868 21H8.32509C5.58909 21 3.99609 19.434 3.99609 16.644V7.347C3.99609 4.602 5.58909 3 8.32509 3H15.868ZM8.56809 15.366C8.29809 15.339 8.03709 15.465 7.89309 15.699C7.74909 15.924 7.74909 16.221 7.89309 16.455C8.03709 16.68 8.29809 16.815 8.56809 16.779H15.6241C15.9832 16.743 16.2541 16.4361 16.2541 16.077C16.2541 15.708 15.9832 15.402 15.6241 15.366H8.56809ZM15.6241 11.2611H8.56809C8.18019 11.2611 7.86609 11.577 7.86609 11.964C7.86609 12.351 8.18019 12.666 8.56809 12.666H15.6241C16.0111 12.666 16.3261 12.351 16.3261 11.964C16.3261 11.577 16.0111 11.2611 15.6241 11.2611ZM11.2582 7.185H8.56809V7.194C8.18019 7.194 7.86609 7.509 7.86609 7.896C7.86609 8.283 8.18019 8.598 8.56809 8.598H11.2582C11.6461 8.598 11.9611 8.283 11.9611 7.8861C11.9611 7.5 11.6461 7.185 11.2582 7.185Z" fill="currentColor"/>
</g>
</svg>
