<svg width="142" height="141" viewBox="0 0 142 141" fill="none" xmlns="http://www.w3.org/2000/svg">
<g clip-path="url(#clip0_11510_20309)">
<path d="M104.94 97.7316C105.172 97.7109 105.336 97.4438 105.543 97.2596C109.479 93.7619 113.409 90.2573 117.342 86.755C117.517 86.5985 117.683 86.4281 117.879 86.3037C118.194 86.1057 118.473 86.2554 118.469 86.6307C118.464 86.9185 118.397 87.2087 118.337 87.4942C116.787 94.904 115.233 102.314 113.681 109.721C113.651 109.864 113.647 110.016 113.596 110.15C113.446 110.55 113.573 110.714 113.999 110.804C116.058 111.241 118.107 111.715 120.161 112.169C122.616 112.712 125.073 113.244 127.523 113.802C127.836 113.873 128.315 113.811 128.377 114.264C128.44 114.718 127.97 114.785 127.68 114.934C124.327 116.661 120.96 118.361 117.621 120.113C117.002 120.438 116.585 120.376 116.041 119.982C113.695 118.287 111.318 116.631 108.949 114.967C108.663 114.766 108.405 114.52 108.048 114.435C107.86 114.419 107.903 114.58 107.88 114.674C107.832 114.87 107.726 114.987 107.517 114.976C107.307 114.964 107.21 114.815 107.171 114.635C107.065 114.149 106.952 113.663 106.874 113.175C106.195 108.961 105.239 104.798 104.475 100.601C103.913 97.5152 103.629 94.4089 103.42 91.2843C103.137 87.0152 103.616 82.8176 104.537 78.6637C104.942 76.8377 105.594 75.0762 106.278 73.3331C106.384 73.0614 106.471 72.8127 106.425 72.4949C106.013 69.6604 105.594 66.8259 105.251 63.9822C105.142 63.0934 104.838 62.5269 104 62.1078C102.25 61.2328 100.56 60.2381 98.8466 59.2848C98.515 59.1006 98.211 58.8519 97.8311 59.2065C97.7021 59.3263 97.4972 59.301 97.3222 59.2825C90.8422 58.5917 85.3409 56.0312 81.2926 50.7813C79.075 47.903 77.8523 44.6264 77.6588 40.9813C77.6519 40.8455 77.6911 40.6889 77.5644 40.5876C77.4631 40.5462 77.3894 40.5784 77.318 40.6406C75.1189 42.5678 72.4937 43.5994 69.6728 44.1405C63.6395 45.2987 57.7997 44.6517 52.2017 42.0866C50.5713 41.3382 49.0561 40.385 47.7942 39.0978C47.3405 38.635 46.9813 38.6235 46.424 38.8491C41.4662 40.8547 36.4968 42.8326 31.532 44.8175C30.8274 45.1007 30.1204 45.3816 29.4158 45.6672C29.2269 45.7432 29.0496 45.856 28.8332 45.833C28.5269 45.7984 28.4417 45.6165 28.5108 45.3402C28.5637 45.1261 28.7549 45.0178 28.9023 44.882C32.5452 41.4948 36.1905 38.1123 39.8335 34.7251C40.5428 34.0643 40.5266 34.0689 40.1904 33.1962C37.5284 26.2768 37.9982 19.6453 42.2445 13.4812C45.3302 9.00261 49.6963 6.27862 54.9512 5.01218C65.7926 2.39871 77.3664 7.43914 82.8078 16.9558C84.0974 19.2101 84.9931 21.6071 85.4261 24.1722C85.4606 24.3726 85.4698 24.5798 85.6034 24.764C85.8429 24.8561 85.9672 24.6443 86.1169 24.5384C89.6079 22.1275 93.4604 20.7437 97.6837 20.3131C99.344 20.145 100.995 19.9423 102.669 19.9861C105.806 20.0644 108.795 20.8588 111.735 21.865C113.034 22.3094 114.312 22.8137 115.59 23.3203C116.074 23.5114 116.516 23.5344 117.029 23.3894C124.739 21.2226 132.453 19.0789 140.165 16.9305C140.474 16.8453 140.785 16.7532 141.098 16.691C141.34 16.6427 141.575 16.6933 141.703 16.9351C141.828 17.1654 141.775 17.3726 141.611 17.5799C141.139 18.1762 140.667 18.7726 140.22 19.3874C136.886 23.9788 133.625 28.6209 130.528 33.3781C130.098 34.039 129.729 34.739 129.324 35.4182C129.16 35.6899 129.089 35.8926 129.4 36.1551C129.906 36.5856 129.969 37.2189 129.985 37.8429C129.994 38.2504 129.985 38.658 129.985 39.0541C130.3 39.2406 130.505 38.9804 130.738 38.9228C131.516 38.7248 132.062 39.0149 132.262 39.8024C132.384 40.286 132.412 40.7787 132.368 41.283C132.26 42.5126 131.977 43.7053 131.643 44.8889C131.604 45.027 131.541 45.1652 131.647 45.3494C132.195 45.0201 132.736 44.6909 133.285 44.3708C133.667 44.1474 134.072 43.9747 134.512 43.9195C135.166 43.8389 135.58 44.1866 135.638 44.8451C135.689 45.4139 135.523 45.9435 135.32 46.4662C134.832 47.728 134.15 48.8885 133.407 50.0099C131.166 53.3924 128.529 56.4365 125.561 59.1996C125.156 59.5773 124.721 59.925 124.327 60.3164C123.717 60.9243 123.274 61.6174 123.081 62.4878C122.795 63.7772 122.8 65.0414 123.219 66.2917C123.746 67.869 124.29 69.4417 124.847 71.0075C125.006 71.4565 125.16 71.9239 125.089 72.3729C125.004 72.8979 125.135 73.3492 125.287 73.8189C129.621 87.2225 133.943 100.631 138.305 114.027C138.714 115.289 139.23 116.523 139.705 117.767C140.006 118.561 139.997 118.573 139.373 119.114C138.024 120.283 136.69 121.469 135.311 122.6C134.848 122.98 134.777 123.314 134.943 123.871C136.416 128.858 137.862 133.857 139.313 138.852C139.691 140.155 139.578 140.266 138.212 140.026C132.253 138.985 126.293 137.949 120.331 136.92C119.093 136.706 119.04 136.623 119.611 135.488C124.366 126.033 129.123 116.579 133.876 107.122C134.137 106.604 134.346 106.06 134.606 105.542C134.768 105.222 134.572 104.971 134.489 104.711C133.331 101.093 132.156 97.4783 130.986 93.8632C130.167 91.3326 129.354 88.7998 128.527 86.2738C128.437 85.9998 128.407 85.6958 128.136 85.3942C127.654 85.7235 127.161 86.0597 126.666 86.3981C126.425 86.5639 126.197 86.7527 125.941 86.8886C125.556 87.0935 125.322 86.983 125.259 86.5501C125.176 85.9722 125.137 85.3873 125.087 84.8047C124.955 83.2919 124.829 81.7791 124.7 80.264C124.373 80.264 124.394 80.5219 124.327 80.6946C123.88 81.8689 123.44 83.0478 122.996 84.2222C122.924 84.4133 122.851 84.6067 122.747 84.7817C122.623 84.9889 122.415 85.0281 122.215 84.9037C122.042 84.7978 121.888 84.6574 121.736 84.5215C120.232 83.1745 118.729 81.8274 117.23 80.4758C116.534 79.8518 116.532 79.8173 117.154 79.0689C118.968 76.8883 120.792 74.7124 122.602 72.5272C122.8 72.2877 123.067 72.0851 123.171 71.6867C122.386 71.7466 121.644 71.7949 120.903 71.864C117.934 72.138 114.966 72.4236 111.998 72.6976C110.6 72.8265 109.204 72.9693 107.804 73.0568C107.199 73.0936 106.95 73.4114 106.766 73.9272C105.741 76.7962 104.887 79.7067 104.537 82.7485C104.286 84.9291 104 87.1073 104.065 89.304C104.145 92.0511 104.359 94.7912 104.721 97.5175C104.732 97.5981 104.728 97.6994 104.935 97.7431L104.94 97.7316Z" fill="#5A5A5A"/>
<path d="M126.122 37.3874C126.194 37.4104 126.265 37.4357 126.337 37.4588C126.558 37.2285 126.747 36.9499 127.004 36.7749C127.61 36.3627 127.939 35.7663 128.276 35.1469C128.75 34.2743 129.238 33.4062 129.786 32.5772C132.879 27.8937 136.036 23.2539 139.428 18.7776C139.531 18.6418 139.681 18.529 139.677 18.3194C139.343 18.1698 139.053 18.3839 138.762 18.4622C134.707 19.579 130.657 20.7118 126.606 21.8424C123.371 22.7451 120.138 23.6569 116.902 24.5526C116.552 24.6493 116.221 24.7944 115.808 24.5987C114.146 23.8089 112.412 23.1895 110.662 22.623C107.871 21.7181 105.038 21.0549 102.079 21.0204C100.11 20.9974 98.1737 21.253 96.2417 21.5799C90.7611 22.5102 86.121 24.951 82.5886 29.2983C77.1955 35.9344 77.4073 44.9423 83.0906 51.309C86.3513 54.9609 90.494 57.031 95.263 57.9221C95.6061 57.9866 95.9585 58.1247 96.5319 58.0188C95.8825 57.655 95.4058 57.3902 94.9314 57.1185C94.0886 56.6396 94.0426 56.4853 94.5469 55.6955C95.065 54.8827 95.6223 54.0929 96.1243 53.2685C96.4121 52.7965 96.799 52.5847 97.3309 52.5248C98.929 52.3475 100.525 52.1518 102.121 51.956C105.748 51.5139 109.372 51.0488 113.001 50.6389C113.612 50.5699 113.911 50.2959 114.185 49.8008C116.676 45.2992 119.21 40.8229 121.669 36.3052C122.111 35.4946 122.735 35.0111 123.497 34.6358C124.879 33.9542 125.95 34.5552 126.113 36.0933C126.159 36.5193 126.12 36.9545 126.12 37.3828L126.122 37.3874Z" fill="#2C2C2C"/>
<path d="M125.076 36.9763C125.076 36.7138 125.104 36.4467 125.071 36.1888C124.979 35.4704 124.636 35.2678 123.987 35.5671C123.39 35.8411 122.925 36.251 122.601 36.8497C121.58 38.724 120.528 40.5799 119.49 42.445C117.94 45.2289 116.388 48.0104 114.843 50.7989C114.608 51.2226 114.361 51.5657 113.809 51.6232C112.356 51.7729 110.907 51.9686 109.456 52.1436C105.887 52.5765 102.325 53.0624 98.7462 53.4101C97.5349 53.5275 96.8049 54.0088 96.227 55.0426C95.5476 56.2561 95.4809 56.2193 96.6875 56.8847C99.5522 58.4689 102.412 60.06 105.286 61.6281C105.825 61.9229 106.117 62.2821 106.159 62.9176C106.209 63.7028 106.364 64.4811 106.47 65.2639C106.767 67.4353 107.075 69.6067 107.347 71.7804C107.405 72.2455 107.603 72.3721 108.033 72.3261C108.789 72.2432 109.546 72.1856 110.304 72.1165C114 71.7757 117.696 71.4327 121.392 71.0919C122.062 71.0297 122.73 70.9629 123.4 70.91C123.784 70.88 123.922 70.6935 123.807 70.3274C123.747 70.1317 123.667 69.9429 123.602 69.7494C123.199 68.5291 122.723 67.3271 122.412 66.0837C121.726 63.3321 122.361 60.9673 124.565 59.0561C128.081 56.0051 131.006 52.4453 133.472 48.5032C133.967 47.7088 134.411 46.8845 134.722 45.998C134.819 45.7239 134.923 45.4476 134.923 45.1483C134.923 44.6878 134.787 44.5818 134.324 44.7154C133.578 44.9318 132.975 45.3993 132.36 45.8483C132.125 46.0187 131.931 46.3134 131.634 46.3111C131.19 46.3111 131.135 46.6035 131.024 46.9098C130.621 48.0058 130.211 49.1019 129.79 50.191C129.59 50.7091 129.362 51.2157 129.134 51.7223C129.025 51.9617 128.839 52.1045 128.574 51.964C128.344 51.842 128.397 51.6163 128.463 51.4206C128.53 51.2272 128.625 51.0453 128.701 50.8542C129.111 49.8226 129.539 48.7979 129.921 47.7549C130.577 45.9703 131.162 44.1628 131.492 42.2861C131.614 41.5954 131.683 40.8954 131.586 40.1908C131.545 39.8822 131.452 39.6013 131.049 39.6496C130.626 39.7003 130.338 40.0388 129.956 40.1862C129.707 40.2829 129.758 40.5937 129.712 40.8079C128.975 44.294 127.655 47.566 126.057 50.7321C125.91 51.0246 125.829 51.4575 125.352 51.3654C125.053 51.3078 125.067 51.0085 125.387 50.3937C126.577 48.1049 127.556 45.7309 128.302 43.2648C128.77 41.7243 129.161 40.1654 129.267 38.5513C129.299 38.0839 129.304 37.6141 129.147 37.1628C128.968 36.6447 128.701 36.525 128.215 36.7875C127.961 36.9256 127.713 37.1006 127.517 37.3125C126.98 37.8904 126.472 38.4937 125.953 39.0878C125.831 39.226 125.811 39.4033 125.767 39.5737C124.899 42.9677 123.448 46.1223 121.802 49.194C121.719 49.3483 121.636 49.5048 121.53 49.643C121.373 49.8502 121.157 49.94 120.91 49.8318C120.625 49.7052 120.549 49.4519 120.639 49.1733C120.71 48.9545 120.834 48.7519 120.945 48.5447C122.361 45.9128 123.598 43.2072 124.447 40.3335C124.77 39.2398 125.055 38.1368 125.071 36.9855L125.076 36.9763Z" fill="#2C2C2C"/>
<path d="M54.2173 20.012C53.1673 20.0304 52.3383 20.9377 52.3659 22.0383C52.3912 23.0515 53.1604 23.839 54.1298 23.8413C55.1523 23.8413 56.0549 22.9041 56.048 21.8426C56.0411 20.8133 55.2213 19.9936 54.2173 20.012Z" fill="#5A5A5A"/>
<path d="M58.5238 28.3484C58.4985 28.307 58.4709 28.1942 58.411 28.1757C58.1577 28.0929 57.9643 27.9754 57.8975 27.6876C57.8745 27.5817 57.7363 27.5356 57.6119 27.5333C57.3264 27.5264 57.0892 27.8373 57.0938 28.208C57.0984 28.6017 57.4093 28.8919 57.8238 28.8942C58.1807 28.8942 58.5307 28.6432 58.5215 28.3507L58.5238 28.3484Z" fill="#5A5A5A"/>
<path d="M58.7162 92.3172C58.3201 92.4392 58.0829 92.6649 57.8204 92.8445C53.5603 95.7872 49.3048 98.7323 45.0446 101.675C44.7913 101.85 44.5518 102.154 44.1926 101.91C43.9071 101.714 43.8127 101.111 44.0107 100.713C44.5311 99.6648 45.0677 98.6263 45.5996 97.5856C49.2265 90.4774 52.8533 83.3669 56.4894 76.261C56.6944 75.8581 56.8003 75.3676 57.323 75.1857C57.4727 75.1351 57.4289 74.9347 57.4335 74.792C57.5326 71.6282 58.5573 68.7223 59.8998 65.9016C60.084 65.5147 60.2544 65.1233 60.4271 64.7434C60.2867 64.6536 60.2176 64.7157 60.1554 64.7595C58.7692 65.7496 57.277 66.5509 55.7088 67.2095C55.3265 67.3706 55.1561 67.5641 55.2045 67.99C55.2966 68.7729 55.1999 69.5696 55.3541 70.3502C55.4808 70.9881 55.4532 71.0571 54.8568 71.1976C52.5563 71.741 50.569 72.8785 48.7751 74.3798C46.774 76.0538 45.2127 78.087 43.9669 80.3666C41.8875 84.1728 40.8029 88.2669 40.4276 92.5728C40.1651 95.5892 40.2733 98.5872 40.7684 101.571C40.773 101.601 40.7776 101.629 40.7776 101.659C40.7776 101.935 40.9204 102.313 40.4944 102.363C40.0822 102.412 40.0868 102.027 40.0384 101.749C39.7598 100.105 39.6009 98.4467 39.5617 96.7774C39.5433 95.9691 39.5295 95.953 38.7028 96.052C35.0161 96.4872 31.3316 96.9385 27.6472 97.3714C24.3957 97.7537 21.1442 98.1244 17.8927 98.4997C17.2249 98.578 16.5594 98.6609 15.8916 98.7415C15.1386 98.8313 14.9566 98.6862 15.0211 97.9701C15.1501 96.5149 15.332 95.0642 15.4333 93.6066C15.4978 92.6603 15.6889 92.6764 16.4143 92.5774C17.9502 92.3678 19.4885 92.1813 21.0244 91.9879C22.5028 91.8014 23.9812 91.5942 25.4642 91.4399C26.033 91.38 26.2264 91.0507 26.4014 90.5787C28.0824 86.0287 29.7819 81.4834 31.4767 76.938C31.7884 76.1029 32.3648 75.7898 33.2061 75.9985C33.943 76.1828 34.6753 76.3946 35.4191 76.5374C36.0132 76.6502 36.3079 76.9726 36.4829 77.5367C36.8836 78.8193 37.3419 80.0834 37.7794 81.3567C37.8715 81.6238 37.9291 81.9094 38.1179 82.1534C38.4426 82.0705 38.5877 81.7942 38.7788 81.5893C39.7759 80.5186 40.7569 79.434 41.754 78.3633C42.2491 77.8314 42.2974 77.8337 42.956 78.1607C43.6776 78.5199 44.2724 78.3702 44.7407 77.7117C46.949 74.6193 49.6962 72.2015 53.3116 70.8637C53.7123 70.7163 54.2811 70.7555 54.4722 70.3548C54.6311 70.021 54.5252 69.5535 54.5113 69.146C54.3916 65.9914 54.2695 62.8345 54.1429 59.6799C54.0139 56.4378 53.8804 53.1934 53.7468 49.9514C53.7422 49.8178 53.8021 49.6589 53.6294 49.5415C53.33 49.6336 53.2287 49.9306 53.0652 50.1494C50.4953 53.5596 47.9323 56.9743 45.367 60.3891C45.2266 60.5756 45.0838 60.7621 44.9433 60.9486C44.7176 61.2526 44.4505 61.324 44.1051 61.1329C43.7229 60.921 43.3222 60.7368 42.933 60.5388C41.2658 59.6891 39.6032 58.8325 37.936 57.9852C37.3119 57.6674 37.2958 57.6697 36.9435 58.2914C34.7605 62.1299 32.5843 65.9707 30.4059 69.8114C30.0029 70.5229 29.5907 71.2321 29.197 71.9482C29.0081 72.2913 28.7687 72.5584 28.4209 72.7542C27.4008 73.3252 26.3945 73.9216 25.3744 74.4972C25.1326 74.6331 24.8793 74.8979 24.5845 74.6492C24.3151 74.4213 24.451 74.0966 24.5085 73.8226C24.9276 71.8515 25.3652 69.8828 25.7912 67.9118C26.9564 62.5421 28.1193 57.1701 29.2822 51.8004C29.3121 51.6576 29.3513 51.5148 29.372 51.3721C29.4134 51.0935 29.3282 50.9069 29.0058 50.9346C28.7433 50.9576 28.4831 50.9944 28.2229 51.0175C25.9524 51.2224 23.6818 51.4273 21.4113 51.63C19.3434 51.8142 17.2778 52.0007 15.2099 52.1826C14.7287 52.224 14.328 52.3967 13.9572 52.726C13.0407 53.5457 12.092 54.3263 11.1594 55.1253C10.6689 55.5444 10.5077 55.4408 11.0488 56.2375C12.6423 58.5839 14.2267 60.9394 15.8133 63.2904C15.9284 63.4608 16.0458 63.6266 16.1564 63.7993C16.3291 64.0756 16.3268 64.3473 16.1264 64.6144C15.53 65.4111 14.952 66.2193 14.3372 67.0022C14.0033 67.4305 13.8398 67.4259 13.3055 67.023C12.0436 66.0743 10.7909 65.1095 9.53361 64.1539C8.6977 63.5184 7.86179 62.8828 7.04892 62.2634C6.77028 62.3924 6.77949 62.6157 6.72653 62.8069C5.7893 66.3068 4.82444 69.7999 3.93327 73.3114C3.73062 74.115 3.36448 74.518 2.55391 74.6078C2.00585 74.6699 1.47161 74.8518 0.923546 74.9416C0.327128 75.0384 0.15442 74.8841 0.248834 74.2808C0.426147 73.1249 0.647213 71.9782 0.85216 70.8269C1.86077 65.1878 2.86939 59.5487 3.8757 53.9096C3.99314 53.251 3.97011 53.2395 3.27467 53.3086C2.75195 53.3615 2.22691 53.3984 1.70419 53.4605C1.37949 53.4997 1.06401 53.4698 1.04559 53.0898C1.02947 52.7698 1.34035 52.6984 1.61438 52.673C2.95459 52.5533 4.2948 52.4405 5.63271 52.3184C9.18589 51.9938 12.7368 51.6645 16.2899 51.3421C19.8707 51.0175 23.4539 50.6997 27.0347 50.3704C30.4704 50.055 33.9038 49.7257 37.3396 49.4102C40.8904 49.0833 44.4436 48.7678 47.9968 48.4431C49.6847 48.2889 51.3727 48.1231 53.0606 47.9642C53.2356 47.9481 53.4106 47.9297 53.5856 47.9227C54.0999 47.8997 54.4323 48.186 54.5827 48.7816C56.4825 48.3188 58.3938 47.9043 60.3373 47.6741C65.0949 47.1076 69.8017 47.2182 74.3727 48.8277C77.9996 50.1033 81.0508 52.1757 83.1831 55.45C83.9384 56.6082 84.5141 57.8516 84.9033 59.1779C85.0046 59.5256 85.129 59.696 85.5849 59.7674C93.0344 60.9049 98.1903 66.2608 99.2657 73.24C100.044 78.2966 98.9686 83.0284 96.4586 87.4195C92.5876 94.1892 86.9044 98.7046 79.3122 100.655C75.1004 101.737 70.9071 101.604 66.8404 99.9066C63.453 98.4928 60.8693 96.1695 59.0823 92.9619C58.9695 92.7593 58.8544 92.5613 58.7116 92.3103L58.7162 92.3172Z" fill="#5A5A5A"/>
<path d="M44.8796 100.684C45.2365 100.707 45.3678 100.529 45.5267 100.419C49.7615 97.4967 53.9963 94.5677 58.2288 91.6411C58.3738 91.5421 58.5005 91.4109 58.6548 91.3372C58.9587 91.1898 59.2466 91.199 59.3272 91.602C59.3986 91.9566 59.5713 92.2559 59.7394 92.5645C61.174 95.2125 63.2258 97.2457 65.8947 98.6296C69.8232 100.67 73.9843 101.033 78.2652 100.133C84.4044 98.8437 89.3853 95.6246 93.2977 90.7776C96.7979 86.4418 98.8082 81.5257 98.7668 75.8567C98.7115 68.2834 93.6799 62.1239 86.2466 60.6203C85.9472 60.5604 85.6294 60.4269 85.3071 60.6387C85.5235 62.0065 85.6571 63.3696 85.6041 64.7489C85.4867 67.7699 84.6807 70.6159 83.5639 73.4067C83.2161 74.2725 82.652 74.7077 81.8276 74.9495C80.7844 75.2557 79.7735 75.2074 78.8063 74.6317C78.705 74.8574 78.6336 75.0162 78.5645 75.1751C78.2283 75.958 77.8461 76.7156 77.2543 77.3396C76.2986 78.3504 75.2716 78.3665 74.2653 77.4202C74.0856 77.2521 73.9981 76.962 73.6919 76.9435C73.3833 77.5491 73.0909 78.1547 72.7708 78.7442C72.5198 79.2116 72.1905 79.6238 71.7599 79.9415C71.0805 80.4435 70.3506 80.3675 69.8071 79.7343C69.6367 79.5363 69.5008 79.3129 69.3465 79.0988C69.1048 79.2853 69.0587 79.5593 68.9367 79.7873C68.4554 80.6876 67.7784 81.4037 66.9056 81.9218C65.7289 82.6218 64.8331 82.304 64.3242 81.0307C64.0179 80.2639 63.9028 79.4511 63.7969 78.6406C63.4998 76.3748 63.4192 74.0975 63.3962 71.8179C63.3939 71.4518 63.4584 71.0696 63.2051 70.6643C62.9978 70.9337 62.8182 71.1571 62.6501 71.3873C61.8971 72.4304 61.1487 73.4781 60.3934 74.5189C60.0825 74.9449 59.7463 75.3501 59.3203 75.6702C58.9541 75.9442 58.5166 76.1745 58.1044 75.9189C57.6185 75.6172 57.4988 75.8958 57.3445 76.2366C57.2846 76.3702 57.2109 76.4968 57.1465 76.6281C53.8374 83.1122 50.5306 89.5941 47.2215 96.0783C46.4524 97.5865 45.6856 99.097 44.875 100.688L44.8796 100.684Z" fill="#2C2C2C"/>
<path d="M55.2561 66.6655C57.4322 65.68 59.4356 64.6208 61.059 62.9583C61.2824 62.728 61.5219 62.5116 61.7683 62.309C61.9134 62.1892 62.0907 62.1754 62.2427 62.3274C62.3969 62.4793 62.3716 62.6405 62.2588 62.7994C61.6831 63.6191 61.34 64.5586 60.9163 65.452C59.8547 67.6994 58.8438 69.9744 58.4454 72.4589C58.3257 73.2095 58.1691 73.9579 58.1783 74.72C58.1852 75.2243 58.4362 75.3533 58.8484 75.0793C59.1685 74.8674 59.4172 74.5727 59.6405 74.2641C60.6998 72.7928 61.7499 71.3145 62.8138 69.8454C63.0049 69.5829 63.0647 69.0625 63.5138 69.1915C63.926 69.3112 63.9306 69.7971 63.9605 70.1586C64.0434 71.1487 64.0964 72.1411 64.1355 73.1358C64.2161 75.2404 64.3221 77.3427 64.679 79.422C64.7688 79.9401 64.8701 80.4605 65.105 80.9371C65.3929 81.5174 65.7291 81.6463 66.3163 81.3769C66.5788 81.2572 66.8229 81.0845 67.0508 80.9026C67.9075 80.2256 68.4417 79.3345 68.7134 78.2845C69.1855 76.4631 69.4227 74.6072 69.4296 72.7306C69.4365 70.6536 69.5102 68.579 69.6184 66.5043C69.63 66.2718 69.6645 66.0392 69.7013 65.8089C69.7359 65.5994 69.8119 65.3829 70.0698 65.4037C70.3599 65.4267 70.4359 65.6546 70.429 65.9125C70.429 66 70.4129 66.0875 70.406 66.175C70.2678 67.7201 70.2356 69.2698 70.2149 70.8194C70.1872 72.8365 70.1918 74.8628 69.7658 76.8454C69.6069 77.5799 69.7359 78.1763 70.0813 78.8049C70.5557 79.6684 71.0208 79.7467 71.684 78.9983C72.1975 78.4227 72.5199 77.7319 72.7986 77.0227C73.7128 74.6855 74.1388 72.2447 74.2908 69.7533C74.3621 68.5836 74.3391 67.4139 74.1503 66.2533C74.1111 66.0093 74.1365 65.7421 74.4243 65.6892C74.7674 65.6224 74.878 65.8872 74.9102 66.1704C74.9563 66.5757 75 66.9833 75.0207 67.3931C75.1474 70.101 74.8526 72.7651 74.1549 75.3832C74.0996 75.5904 73.9108 75.8046 74.1111 76.0394C74.376 76.3503 74.6039 76.698 74.8987 76.9766C75.4491 77.4947 75.9649 77.4878 76.536 76.9973C76.9643 76.6289 77.2521 76.1523 77.5077 75.6549C78.0604 74.5842 78.4288 73.4444 78.7282 72.2816C79.4421 69.4954 79.7737 66.6517 79.9625 63.7895C79.9809 63.5017 79.9464 63.1241 80.3517 63.131C80.7731 63.1379 80.681 63.5247 80.6971 63.8057C80.6971 63.8356 80.6971 63.8632 80.6925 63.8932C80.5773 65.8504 80.3724 67.7961 80.0385 69.728C79.8496 70.824 79.6194 71.9086 79.3177 72.9793C79.1957 73.4168 79.4075 74.05 79.7 74.2227C80.5428 74.7177 82.3597 74.1743 82.765 73.2855C83.313 72.0882 83.7505 70.8447 84.0937 69.5737C84.8421 66.8037 85.1483 63.9991 84.6187 61.153C83.7413 56.435 81.077 53.0248 76.8975 50.7567C73.6943 49.0182 70.2126 48.3044 66.6179 48.1363C62.7654 47.9544 58.9727 48.4587 55.2399 49.412C54.4754 49.6077 54.4731 49.6169 54.503 50.4067C54.6804 54.8485 54.8577 59.2902 55.0442 63.7297C55.0833 64.6622 55.058 65.5994 55.2561 66.6655Z" fill="#2C2C2C"/>
<path d="M114.634 17.1834C114.432 17.1512 114.298 17.0337 114.167 16.9186C113.223 16.092 112.283 15.2561 111.33 14.4387C111.008 14.1624 110.962 13.9344 111.217 13.5522C111.593 12.9834 112.101 12.5459 112.544 12.044C115.641 8.50484 118.745 4.97263 121.849 1.43811C121.985 1.28384 122.112 1.12265 122.254 0.977588C122.761 0.473315 122.968 0.454895 123.523 0.887786C124.262 1.46114 125.004 2.02988 125.715 2.63547C126.418 3.23185 126.418 3.37001 125.851 4.05158C122.399 8.2078 118.945 12.364 115.489 16.5179C115.252 16.8035 115.051 17.1535 114.634 17.1834Z" fill="#5A5A5A"/>
<path d="M63.5883 101.047C63.5722 101.201 63.5492 101.491 63.5077 101.779C62.7179 107.206 61.9257 112.636 61.1313 118.063C61.1013 118.265 61.0829 118.473 61.023 118.664C60.9425 118.919 60.7674 119.076 60.4934 118.924C59.5516 118.401 58.467 118.431 57.4676 118.134C57.3294 118.093 57.182 118.079 57.0393 118.049C56.1135 117.844 56.0099 117.706 56.1964 116.808C57.2972 111.523 58.4048 106.239 59.5147 100.954C59.5562 100.756 59.6253 100.563 59.7082 100.379C59.9753 99.8008 59.9799 99.8054 60.6385 99.9205C61.4145 100.054 62.1929 100.172 62.9666 100.319C63.4824 100.418 63.5216 100.475 63.5906 101.049L63.5883 101.047Z" fill="#5A5A5A"/>
<path d="M122.541 19.7209C122.271 19.714 122.112 19.5413 122.004 19.3271C121.431 18.1781 120.869 17.0222 120.295 15.8732C120.176 15.6337 120.21 15.4426 120.381 15.2331C120.569 15.0028 120.788 14.8347 121.051 14.6897C124.332 12.9005 127.609 11.1022 130.888 9.30616C131.068 9.20715 131.243 9.09892 131.432 9.02524C131.74 8.9055 132.06 8.96307 132.194 9.26011C132.781 10.5818 133.58 11.8137 133.893 13.2574C133.965 13.589 133.875 13.7548 133.617 13.8953C133.488 13.9644 133.361 14.0334 133.232 14.1025C129.935 15.8594 126.635 17.6186 123.335 19.3755C123.079 19.5114 122.835 19.684 122.536 19.7186L122.541 19.7209Z" fill="#5A5A5A"/>
<path d="M111.188 5.84955C111.188 7.45448 111.195 9.0594 111.186 10.6643C111.181 11.5877 111.034 11.7212 110.103 11.7074C109.433 11.6959 108.761 11.6752 108.091 11.6498C107.098 11.613 107.08 11.6038 106.879 10.6597C106.384 8.32026 105.901 5.9808 105.41 3.63904C105.256 2.8976 105.086 2.15846 104.941 1.41472C104.802 0.703207 104.941 0.498274 105.65 0.429196C107.218 0.27492 108.786 0.132158 110.357 0.012422C111.156 -0.047446 111.347 0.134461 111.356 0.949587C111.374 2.58214 111.361 4.217 111.361 5.84955C111.303 5.84955 111.243 5.84955 111.186 5.84955H111.188Z" fill="#5A5A5A"/>
<path d="M49.043 112.52C48.9555 112.469 48.7989 112.393 48.6562 112.296C47.8341 111.737 47.012 111.18 46.2014 110.609C45.6626 110.229 45.6879 110.166 46.1692 109.635C48.8151 106.708 51.4494 103.772 54.0884 100.839C54.6441 100.221 55.2498 100.184 55.9053 100.726C56.4464 101.172 57.0014 101.603 57.5218 102.073C57.8672 102.384 57.8534 102.549 57.4551 102.819C57.1764 103.005 56.9876 103.256 56.7826 103.498C54.542 106.158 52.3061 108.822 50.0724 111.488C49.8674 111.732 49.6371 111.958 49.5312 112.276C49.4713 112.46 49.324 112.552 49.0453 112.522L49.043 112.52Z" fill="#5A5A5A"/>
<path d="M102.781 40.5629C102.735 41.8201 102.275 42.7849 101.202 43.3698C100.161 43.9363 99.1201 43.8326 98.1183 43.2363C96.7229 42.405 96.0182 40.7034 96.4212 39.1629C96.9347 37.2034 98.876 36.3054 100.688 37.2264C102.061 37.9241 102.717 39.0985 102.784 40.5629H102.781Z" fill="#5A5A5A"/>
<path d="M109.852 37.9963C109.852 38.8367 109.601 39.6588 108.961 40.3265C108.09 41.2361 106.849 41.2936 105.893 40.4785C104.447 39.2466 104.358 36.6009 105.712 35.2792C106.603 34.4088 107.858 34.3858 108.783 35.2447C109.56 35.9654 109.857 36.8887 109.85 37.9963H109.852Z" fill="#5A5A5A"/>
<path d="M115.262 31.9415C116.712 31.9553 117.896 33.2609 117.85 34.7991C117.804 36.3533 116.597 37.6014 115.153 37.5829C113.696 37.5668 112.563 36.2958 112.59 34.7093C112.618 33.1274 113.776 31.9277 115.262 31.9415Z" fill="#5A5A5A"/>
<path d="M56.5897 22.4431C56.5712 23.4284 55.7347 24.257 54.7582 24.257C53.8369 24.257 53.1146 23.5537 53.0999 22.638C53.0815 21.6353 54.0211 20.6953 55.0014 20.7336C55.8858 20.7684 56.6044 21.5413 56.5897 22.4396V22.4431Z" fill="#2C2C2C"/>
<path d="M74.2453 87.0863C73.1423 87.0679 72.2649 86.1215 72.2695 84.9495C72.2719 83.6623 73.2966 82.6353 74.5355 82.6791C75.5464 82.7136 76.4214 83.7107 76.4214 84.8251C76.4214 86.0847 75.4382 87.1047 74.2476 87.0863H74.2453Z" fill="#5A5A5A"/>
<path d="M90.3413 77.4605C90.3459 78.5865 89.4939 79.4592 88.3678 79.4799C87.1911 79.5029 86.392 78.8352 86.4105 77.8428C86.4312 76.7237 87.502 75.4319 88.4231 75.4181C89.3235 75.4043 90.3367 76.4819 90.3413 77.4582V77.4605Z" fill="#5A5A5A"/>
<path d="M81.265 79.2913C82.2482 79.2751 83.0565 80.0603 83.0818 81.0551C83.1072 82.082 82.2505 83.01 81.2442 83.0445C80.2702 83.0791 79.4665 82.2916 79.4458 81.283C79.4227 80.2399 80.2748 79.3097 81.265 79.2913Z" fill="#5A5A5A"/>
<path d="M61.6006 23.6001C61.5826 24.5758 60.7626 25.3963 59.8054 25.3963C58.9024 25.3963 58.1944 24.6999 58.1799 23.7932C58.1619 22.8003 59.083 21.8694 60.0438 21.9074C60.9107 21.9418 61.6151 22.7072 61.6006 23.5967V23.6001Z" fill="#2C2C2C"/>
<path d="M66.4732 24.8262C66.4544 25.8309 65.6014 26.6758 64.6055 26.6758C63.666 26.6758 62.9294 25.9587 62.9143 25.025C62.8955 24.0026 63.8539 23.0441 64.8535 23.0832C65.7554 23.1187 66.4883 23.9068 66.4732 24.8227V24.8262Z" fill="#2C2C2C"/>
</g>
<defs>
<clipPath id="clip0_11510_20309">
<rect width="141.547" height="140.121" fill="white" transform="translate(0.226562)"/>
</clipPath>
</defs>
</svg>
