<svg width="20" height="20" viewBox="0 0 20 20" fill="none" xmlns="http://www.w3.org/2000/svg">
<g id="graph" clip-path="url(#clip0_9781_15995)">
<path id="Vector" fill-rule="evenodd" clip-rule="evenodd" d="M-1.91597e-05 1.97175C0.000841077 1.44903 0.208889 0.947968 0.578531 0.578372C0.948174 0.208777 1.44926 0.000792489 1.97198 -7.87069e-07L3.02823 -7.40899e-07C3.54736 0.00584465 4.04324 0.216169 4.40827 0.585332C4.7733 0.954495 4.97803 1.45271 4.97803 1.97187C4.97803 2.49104 4.7733 2.98925 4.40827 3.35842C4.04324 3.72758 3.54736 3.9379 3.02823 3.94375L1.97198 3.94375C1.44922 3.94296 0.948093 3.73494 0.578443 3.36529C0.208794 2.99564 0.000774275 2.49451 -1.91597e-05 1.97175ZM3.99998 1.97175C3.99972 1.71411 3.89725 1.46709 3.71507 1.28491C3.53289 1.10273 3.28587 1.00026 3.02823 0.999999L1.97198 0.999999C1.84304 0.997931 1.71498 1.02154 1.59525 1.06945C1.47553 1.11737 1.36653 1.18863 1.27462 1.27908C1.1827 1.36953 1.10971 1.47737 1.05988 1.59631C1.01005 1.71525 0.984392 1.84292 0.984392 1.97187C0.984392 2.10083 1.01005 2.2285 1.05988 2.34744C1.10971 2.46638 1.1827 2.57422 1.27462 2.66467C1.36653 2.75512 1.47553 2.82638 1.59525 2.87429C1.71498 2.92221 1.84304 2.94582 1.97198 2.94375L3.02823 2.94375C3.28592 2.94348 3.53297 2.84098 3.71516 2.65875C3.89735 2.47651 3.99978 2.22944 3.99998 1.97175ZM-1.93936e-05 7.32375C0.000840843 6.80103 0.208889 6.29997 0.578531 5.93037C0.948173 5.56078 1.44926 5.35279 1.97198 5.352L8.02823 5.352C8.55124 5.352 9.05282 5.55976 9.42265 5.92958C9.79247 6.29941 10.0002 6.80099 10.0002 7.324C10.0002 7.84701 9.79247 8.34859 9.42265 8.71841C9.05282 9.08824 8.55124 9.296 8.02823 9.296L1.97198 9.296C1.44917 9.29521 0.948011 9.08715 0.578354 8.71745C0.208696 8.34774 0.000707283 7.84656 -1.93936e-05 7.32375ZM8.99998 7.32375C8.99972 7.06611 8.89725 6.81909 8.71507 6.63691C8.53289 6.45473 8.28587 6.35226 8.02823 6.352L1.97198 6.352C1.71419 6.352 1.46696 6.45441 1.28467 6.63669C1.10239 6.81898 0.999981 7.06621 0.999981 7.324C0.999981 7.58179 1.10239 7.82902 1.28467 8.01131C1.46696 8.19359 1.71419 8.296 1.97198 8.296L8.02823 8.296C8.28594 8.29567 8.53299 8.19311 8.71517 8.01084C8.89735 7.82856 8.99978 7.58146 8.99998 7.32375ZM-1.96276e-05 12.6762C0.000707095 12.1534 0.208696 11.6523 0.578353 11.2825C0.948011 10.9128 1.44917 10.7048 1.97198 10.704L13.0282 10.704C13.5512 10.704 14.0528 10.9118 14.4226 11.2816C14.7925 11.6514 15.0002 12.153 15.0002 12.676C15.0002 13.199 14.7925 13.7006 14.4226 14.0704C14.0528 14.4402 13.5512 14.648 13.0282 14.648L1.97198 14.648C1.44926 14.6472 0.948173 14.4392 0.578531 14.0696C0.208888 13.7 0.000840564 13.199 -1.96276e-05 12.6762ZM14 12.6763C13.9998 12.4185 13.8974 12.1714 13.7152 11.9892C13.533 11.8069 13.2859 11.7043 13.0282 11.704L1.97198 11.704C1.71419 11.704 1.46696 11.8064 1.28467 11.9887C1.10239 12.171 0.99998 12.4182 0.99998 12.676C0.99998 12.9338 1.10239 13.181 1.28467 13.3633C1.46696 13.5456 1.71419 13.648 1.97198 13.648L13.0282 13.648C13.2859 13.6477 13.5329 13.5453 13.7151 13.3631C13.8972 13.1809 13.9997 12.9339 14 12.6763ZM-1.98615e-05 18.0282C0.000773618 17.5055 0.208793 17.0044 0.578443 16.6347C0.948093 16.2651 1.44922 16.057 1.97198 16.0562L13.8062 16.0562C13.9388 16.0562 14.066 16.1089 14.1598 16.2027C14.2536 16.2965 14.3062 16.4236 14.3062 16.5562C14.3062 16.6889 14.2536 16.816 14.1598 16.9098C14.066 17.0036 13.9388 17.0562 13.8062 17.0562L1.97198 17.0562C1.84304 17.0542 1.71498 17.0778 1.59525 17.1257C1.47553 17.1736 1.36653 17.2449 1.27462 17.3353C1.1827 17.4258 1.10971 17.5336 1.05988 17.6526C1.01005 17.7715 0.984391 17.8992 0.984391 18.0281C0.984391 18.1571 1.01005 18.2847 1.05988 18.4037C1.10971 18.5226 1.1827 18.6305 1.27462 18.7209C1.36653 18.8114 1.47553 18.8826 1.59525 18.9305C1.71498 18.9785 1.84304 19.0021 1.97198 19L18.0282 19C18.2833 18.9959 18.5265 18.8917 18.7054 18.7099C18.8844 18.5281 18.9846 18.2832 18.9846 18.0281C18.9846 17.773 18.8844 17.5282 18.7054 17.3463C18.5265 17.1645 18.2833 17.0603 18.0282 17.0562L17.292 17.0562C17.1594 17.0562 17.0322 17.0036 16.9384 16.9098C16.8447 16.816 16.792 16.6889 16.792 16.5562C16.792 16.4236 16.8447 16.2965 16.9384 16.2027C17.0322 16.1089 17.1594 16.0562 17.292 16.0562L18.0282 16.0562C18.5474 16.0621 19.0432 16.2724 19.4083 16.6416C19.7733 17.0107 19.978 17.509 19.978 18.0281C19.978 18.5473 19.7733 19.0455 19.4083 19.4147C19.0432 19.7838 18.5474 19.9942 18.0282 20L1.97198 20C1.44926 19.9992 0.948173 19.7912 0.57853 19.4216C0.208888 19.052 0.00084033 18.551 -1.98615e-05 18.0282Z" fill="#898989"/>
</g>
<defs>
<clipPath id="clip0_9781_15995">
<rect width="20" height="20" fill="white" transform="translate(20) rotate(90)"/>
</clipPath>
</defs>
</svg>
