<svg width="20" height="20" viewBox="0 0 20 20" fill="none" xmlns="http://www.w3.org/2000/svg">
<g id="hand heart">
<path id="Vector" fill-rule="evenodd" clip-rule="evenodd" d="M7.23534 12.04C8.79017 11.7388 10.4547 11.8064 11.8014 12.6097C11.9907 12.7226 12.1679 12.8631 12.3227 13.0369C12.6359 13.3887 12.7977 13.826 12.8053 14.2644C12.9647 14.1616 13.1243 14.0474 13.2866 13.9249L14.7925 12.7872C15.5463 12.2178 16.6419 12.2177 17.3958 12.787C18.0924 13.313 18.3702 14.257 17.8714 15.0563C17.517 15.6245 16.9833 16.4102 16.4401 16.9134C15.8909 17.4219 15.1095 17.8496 14.5183 18.1349C13.8004 18.4814 13.0251 18.6729 12.2711 18.795C10.7301 19.0444 9.12658 19.0062 7.60291 18.6923C6.82423 18.5319 6.01504 18.4486 5.21536 18.4486H3.33208C2.98691 18.4486 2.70708 18.1687 2.70708 17.8236C2.70708 17.4784 2.98691 17.1986 3.33208 17.1986H5.21536C6.10045 17.1986 6.99415 17.2906 7.85513 17.4681C9.23183 17.7517 10.6822 17.7859 12.0713 17.5611C12.7621 17.4492 13.4072 17.2832 13.975 17.0091C14.5445 16.7342 15.1848 16.3722 15.5907 15.9963C16.0011 15.6161 16.4604 14.9565 16.8109 14.3946C16.9167 14.2251 16.9021 13.9805 16.6426 13.7846C16.3345 13.5519 15.854 13.552 15.546 13.7846L14.04 14.9223C13.4388 15.3764 12.6988 15.8623 11.781 16.0086C11.6884 16.0235 11.5919 16.037 11.4918 16.0489C11.4441 16.0575 11.3944 16.0632 11.3431 16.0651C10.8745 16.1117 10.3318 16.1225 9.73317 16.066C9.3895 16.0336 9.13717 15.7286 9.16967 15.385C9.20208 15.0413 9.507 14.7891 9.85067 14.8215C10.3735 14.8709 10.8426 14.86 11.2406 14.8191C11.2487 14.8183 11.2568 14.8175 11.2648 14.8166C11.2813 14.8069 11.3068 14.7893 11.3401 14.7602C11.6062 14.5279 11.6301 14.1388 11.3891 13.8681C11.328 13.7995 11.2528 13.7379 11.1612 13.6832C10.1768 13.0961 8.86225 12.9981 7.47309 13.2672C6.09182 13.5348 4.71951 14.1512 3.69363 14.8788C3.41207 15.0785 3.02195 15.0121 2.82227 14.7306C2.62259 14.449 2.68898 14.0588 2.97053 13.8591C4.13584 13.0327 5.67258 12.3428 7.23534 12.04Z" fill="#CAC4D0"/>
<path id="Vector_2" fill-rule="evenodd" clip-rule="evenodd" d="M12.9844 1.18346C14.0779 1.55141 14.7904 2.58018 14.7904 3.92895C14.7904 4.77691 14.3084 5.55738 13.7712 6.18007C13.2189 6.82017 12.5201 7.39458 11.9088 7.84021C11.8825 7.85931 11.8566 7.87828 11.8308 7.89712C11.2374 8.33066 10.7479 8.68829 9.9987 8.68829C9.24945 8.68829 8.75995 8.33065 8.1666 7.89711C8.14081 7.87828 8.11485 7.8593 8.08865 7.8402C7.47732 7.39457 6.77844 6.82015 6.22624 6.18005C5.68907 5.55738 5.20703 4.77691 5.20703 3.92897C5.20703 2.58018 5.91955 1.55141 7.01292 1.18346C7.94548 0.869626 9.03103 1.07677 9.9987 1.78118C10.9664 1.07677 12.0519 0.869626 12.9844 1.18346ZM12.5858 2.36818C12.0424 2.18531 11.2321 2.30362 10.4216 3.0486C10.1825 3.26841 9.81486 3.26841 9.57578 3.0486C8.76528 2.30362 7.95498 2.18531 7.41161 2.36818C6.89038 2.54358 6.45703 3.04677 6.45703 3.92897C6.45703 4.3186 6.69413 4.80877 7.17272 5.36355C7.6363 5.90093 8.2498 6.41081 8.82495 6.83009C9.52761 7.34228 9.69453 7.43831 9.9987 7.43831C10.3029 7.43831 10.4698 7.34228 11.1724 6.8301C11.7476 6.41083 12.3611 5.90093 12.8247 5.36357C13.3033 4.80878 13.5404 4.31861 13.5404 3.92895C13.5404 3.04676 13.107 2.54358 12.5858 2.36818Z" fill="#CAC4D0"/>
</g>
</svg>
