<svg width="25" height="25" viewBox="0 0 25 25" fill="none" xmlns="http://www.w3.org/2000/svg">
<g id="home">
<path id="Vector" d="M17.7704 22.4258H15.8095C15.4826 22.4258 15.1692 22.2963 14.9389 22.066C14.7086 21.8357 14.5804 21.5236 14.5828 21.1991V18.1414C14.5828 17.7666 14.4328 17.4071 14.1659 17.142C13.8989 16.877 13.5368 16.7281 13.1592 16.7281H10.285C9.49873 16.7281 8.86134 17.3608 8.86134 18.1414L17.7704 22.4258ZM17.7704 22.4258C18.6862 22.4281 19.5653 22.0686 20.2137 21.4266C20.8621 20.7846 21.2266 19.9128 21.2266 19.0036V10.2926C21.2266 9.55824 20.8986 8.86162 20.3312 8.39045L17.7704 22.4258ZM8.36134 18.1414V20.8379L8.33711 20.8459L8.33449 21.2044C8.3316 21.6002 8.00649 21.9258 7.59885 21.9258H5.68274C4.04664 21.9258 2.72656 20.6101 2.72656 18.9947V10.2989C2.74217 9.70655 3.0248 9.15122 3.49849 8.78671L3.49855 8.78679L3.50603 8.7808L10.0244 3.56311L10.0313 3.55757L10.038 3.55179C10.9814 2.7402 12.3759 2.715 13.3484 3.49225L13.3499 3.49345L20.0159 8.77853C20.467 9.15514 20.7266 9.70946 20.7266 10.2926V19.0036C20.7266 19.7787 20.4159 20.5228 19.8619 21.0713C19.3078 21.6199 18.5558 21.9278 17.7717 21.9258H17.7704H15.8095C15.6147 21.9258 15.4286 21.8485 15.2925 21.7124C15.1565 21.5764 15.0814 21.3929 15.0828 21.2028V21.1991V18.1414C15.0828 17.6328 14.8793 17.1457 14.5181 16.7872C14.1571 16.4288 13.6682 16.2281 13.1592 16.2281H10.285C9.22604 16.2281 8.36134 17.0813 8.36134 18.1414Z" stroke="#D0BCFF"/>
</g>
</svg>
