<svg width="25" height="24" viewBox="0 0 25 24" fill="none" xmlns="http://www.w3.org/2000/svg">
<path d="M17.073 5.287C16.8475 5.287 16.6271 5.35386 16.4396 5.47912C16.2522 5.60439 16.1061 5.78243 16.0198 5.99074C15.9335 6.19905 15.9109 6.42826 15.9549 6.6494C15.9989 6.87054 16.1075 7.07367 16.2669 7.2331C16.4263 7.39253 16.6295 7.50111 16.8506 7.54509C17.0717 7.58908 17.301 7.56651 17.5093 7.48022C17.7176 7.39394 17.8956 7.24782 18.0209 7.06035C18.1461 6.87288 18.213 6.65247 18.213 6.427C18.213 6.12465 18.0929 5.83469 17.8791 5.6209C17.6653 5.40711 17.3753 5.287 17.073 5.287ZM21.443 7.586C21.4245 6.79778 21.2769 6.01793 21.006 5.2775C20.7644 4.64398 20.3885 4.07031 19.904 3.596C19.4336 3.10905 18.8586 2.73547 18.2225 2.5035C17.484 2.22435 16.7033 2.07335 15.914 2.057C14.907 2 14.584 2 12 2C9.416 2 9.093 2 8.086 2.057C7.29669 2.07335 6.51598 2.22435 5.7775 2.5035C5.14259 2.73782 4.56809 3.11108 4.096 3.596C3.60905 4.06642 3.23547 4.64142 3.0035 5.2775C2.72435 6.01598 2.57335 6.79669 2.557 7.586C2.5 8.593 2.5 8.916 2.5 11.5C2.5 14.084 2.5 14.407 2.557 15.414C2.57335 16.2033 2.72435 16.984 3.0035 17.7225C3.23547 18.3586 3.60905 18.9336 4.096 19.404C4.56809 19.8889 5.14259 20.2622 5.7775 20.4965C6.51598 20.7756 7.29669 20.9267 8.086 20.943C9.093 21 9.416 21 12 21C14.584 21 14.907 21 15.914 20.943C16.7033 20.9267 17.484 20.7756 18.2225 20.4965C18.8586 20.2645 19.4336 19.8909 19.904 19.404C20.3906 18.9315 20.7669 18.3573 21.006 17.7225C21.2769 16.9821 21.4245 16.2022 21.443 15.414C21.443 14.407 21.5 14.084 21.5 11.5C21.5 8.916 21.5 8.593 21.443 7.586ZM19.733 15.3C19.7261 15.903 19.6169 16.5005 19.41 17.067C19.2583 17.4804 19.0147 17.854 18.6975 18.1595C18.3894 18.4735 18.0166 18.7166 17.605 18.872C17.0385 19.0789 16.441 19.1881 15.838 19.195C14.888 19.2425 14.5365 19.252 12.038 19.252C9.5395 19.252 9.188 19.252 8.238 19.195C7.61185 19.2067 6.98837 19.1103 6.395 18.91C6.00149 18.7467 5.64579 18.5041 5.35 18.1975C5.03468 17.8923 4.7941 17.5184 4.647 17.105C4.41506 16.5304 4.28642 15.9193 4.267 15.3C4.267 14.35 4.21 13.9985 4.21 11.5C4.21 9.0015 4.21 8.65 4.267 7.7C4.27126 7.0835 4.3838 6.47255 4.5995 5.895C4.76674 5.49402 5.02345 5.13658 5.35 4.85C5.63862 4.52336 5.99532 4.26394 6.395 4.09C6.97407 3.88104 7.5844 3.77183 8.2 3.767C9.15 3.767 9.5015 3.71 12 3.71C14.4985 3.71 14.85 3.71 15.8 3.767C16.403 3.77392 17.0005 3.88313 17.567 4.09C17.9987 4.25022 18.3862 4.5107 18.6975 4.85C19.0088 5.14182 19.2521 5.4986 19.41 5.895C19.6211 6.47349 19.7304 7.08419 19.733 7.7C19.7805 8.65 19.79 9.0015 19.79 11.5C19.79 13.9985 19.7805 14.35 19.733 15.3ZM12 6.6265C11.0365 6.62838 10.0952 6.9158 9.29502 7.45245C8.49483 7.98909 7.87166 8.75089 7.50425 9.64157C7.13684 10.5322 7.04169 11.5118 7.2308 12.4566C7.41992 13.4013 7.88482 14.2688 8.56677 14.9494C9.24872 15.6301 10.1171 16.0933 11.0622 16.2805C12.0073 16.4678 12.9867 16.3708 13.8767 16.0016C14.7667 15.6325 15.5272 15.0078 16.0623 14.2066C16.5974 13.4053 16.883 12.4635 16.883 11.5C16.8843 10.8588 16.7587 10.2238 16.5137 9.63131C16.2686 9.03884 15.9088 8.50067 15.455 8.04775C15.0012 7.59483 14.4624 7.23609 13.8694 6.99218C13.2765 6.74827 12.6411 6.62399 12 6.6265ZM12 14.6635C11.3743 14.6635 10.7627 14.478 10.2425 14.1304C9.72222 13.7827 9.31674 13.2887 9.07731 12.7106C8.83787 12.1326 8.77522 11.4965 8.89729 10.8828C9.01935 10.2692 9.32064 9.70549 9.76307 9.26307C10.2055 8.82064 10.7692 8.51935 11.3828 8.39729C11.9965 8.27522 12.6326 8.33787 13.2106 8.57731C13.7887 8.81674 14.2827 9.22222 14.6304 9.74245C14.978 10.2627 15.1635 10.8743 15.1635 11.5C15.1635 11.9154 15.0817 12.3268 14.9227 12.7106C14.7637 13.0944 14.5307 13.4432 14.2369 13.7369C13.9432 14.0307 13.5944 14.2637 13.2106 14.4227C12.8268 14.5817 12.4154 14.6635 12 14.6635Z" fill="white"/>
</svg>
