<svg width="20" height="20" viewBox="0 0 20 20" fill="none" xmlns="http://www.w3.org/2000/svg">
<g id="Link">
<path id="Vector" d="M6.66797 9.99967C6.66797 10.2207 6.75577 10.4326 6.91205 10.5889C7.06833 10.7452 7.28029 10.833 7.5013 10.833H12.5013C12.7223 10.833 12.9343 10.7452 13.0906 10.5889C13.2468 10.4326 13.3346 10.2207 13.3346 9.99967C13.3346 9.77866 13.2468 9.5667 13.0906 9.41042C12.9343 9.25414 12.7223 9.16634 12.5013 9.16634H7.5013C7.28029 9.16634 7.06833 9.25414 6.91205 9.41042C6.75577 9.5667 6.66797 9.77866 6.66797 9.99967ZM8.33464 12.4997H5.83464C5.17159 12.4997 4.53571 12.2363 4.06687 11.7674C3.59803 11.2986 3.33464 10.6627 3.33464 9.99967C3.33464 9.33663 3.59803 8.70075 4.06687 8.23191C4.53571 7.76307 5.17159 7.49967 5.83464 7.49967H8.33464C8.55565 7.49967 8.76761 7.41188 8.92389 7.2556C9.08017 7.09932 9.16797 6.88735 9.16797 6.66634C9.16797 6.44533 9.08017 6.23337 8.92389 6.07709C8.76761 5.92081 8.55565 5.83301 8.33464 5.83301H5.83464C4.72957 5.83301 3.66976 6.27199 2.88836 7.0534C2.10696 7.8348 1.66797 8.89461 1.66797 9.99967C1.66797 11.1047 2.10696 12.1646 2.88836 12.946C3.66976 13.7274 4.72957 14.1663 5.83464 14.1663H8.33464C8.55565 14.1663 8.76761 14.0785 8.92389 13.9223C9.08017 13.766 9.16797 13.554 9.16797 13.333C9.16797 13.112 9.08017 12.9 8.92389 12.7438C8.76761 12.5875 8.55565 12.4997 8.33464 12.4997ZM14.168 5.83301H11.668C11.447 5.83301 11.235 5.92081 11.0787 6.07709C10.9224 6.23337 10.8346 6.44533 10.8346 6.66634C10.8346 6.88735 10.9224 7.09932 11.0787 7.2556C11.235 7.41188 11.447 7.49967 11.668 7.49967H14.168C14.831 7.49967 15.4669 7.76307 15.9357 8.23191C16.4046 8.70075 16.668 9.33663 16.668 9.99967C16.668 10.6627 16.4046 11.2986 15.9357 11.7674C15.4669 12.2363 14.831 12.4997 14.168 12.4997H11.668C11.447 12.4997 11.235 12.5875 11.0787 12.7438C10.9224 12.9 10.8346 13.112 10.8346 13.333C10.8346 13.554 10.9224 13.766 11.0787 13.9223C11.235 14.0785 11.447 14.1663 11.668 14.1663H14.168C15.273 14.1663 16.3328 13.7274 17.1142 12.946C17.8956 12.1646 18.3346 11.1047 18.3346 9.99967C18.3346 8.89461 17.8956 7.8348 17.1142 7.0534C16.3328 6.27199 15.273 5.83301 14.168 5.83301Z" fill="#D0BCFF"/>
</g>
</svg>
