<svg width="24" height="24" viewBox="0 0 24 24" fill="none" xmlns="http://www.w3.org/2000/svg">
<g id="List">
<path id="XMLID_1186_" d="M23.7899 3.91343C23.7899 4.77429 23.0856 5.47864 22.2247 5.47864H7.85078C6.98991 5.47864 6.28556 4.77429 6.28556 3.91343C6.28556 3.05256 6.98991 2.34821 7.85078 2.34821H22.2247C23.0856 2.34821 23.7899 3.05256 23.7899 3.91343ZM7.85078 13.5656H16.016C16.8769 13.5656 17.5812 12.8612 17.5812 12.0004C17.5812 11.1395 16.8769 10.4352 16.016 10.4352H7.85078C6.98991 10.4352 6.28556 11.1395 6.28556 12.0004C6.28556 12.8612 6.98991 13.5656 7.85078 13.5656ZM19.3812 18.5221H7.85078C6.98991 18.5221 6.28556 19.2265 6.28556 20.0873C6.28556 20.9482 6.98991 21.6526 7.85078 21.6526H19.3812C20.2421 21.6526 20.9464 20.9482 20.9464 20.0873C20.9464 19.2265 20.2682 18.5221 19.3812 18.5221ZM1.77252 2.21777C1.32904 2.21777 0.885564 2.40038 0.57252 2.71343C0.259477 3.02647 0.0507812 3.46995 0.0507812 3.91343C0.0507812 4.3569 0.23339 4.80038 0.546433 5.11343C0.859477 5.42647 1.30296 5.60908 1.74643 5.60908C2.18991 5.60908 2.63339 5.42647 2.94643 5.11343C3.25948 4.80038 3.44209 4.3569 3.44209 3.91343C3.44209 3.46995 3.25948 3.02647 2.94643 2.71343C2.65948 2.40038 2.216 2.21777 1.77252 2.21777ZM1.77252 10.3047C1.32904 10.3047 0.885564 10.4873 0.57252 10.8004C0.259477 11.1134 0.0507812 11.5569 0.0507812 12.0004C0.0507812 12.4439 0.23339 12.8873 0.546433 13.2004C0.859477 13.5134 1.30296 13.696 1.74643 13.696C2.18991 13.696 2.63339 13.5134 2.94643 13.2004C3.25948 12.8873 3.44209 12.4439 3.44209 12.0004C3.44209 11.5569 3.25948 11.1134 2.94643 10.8004C2.65948 10.4873 2.216 10.3047 1.77252 10.3047ZM1.77252 18.3917C1.32904 18.3917 0.885564 18.5743 0.57252 18.8873C0.259477 19.2004 0.0507812 19.6439 0.0507812 20.0873C0.0507812 20.5308 0.23339 20.9743 0.546433 21.2873C0.859477 21.6004 1.30296 21.783 1.74643 21.783C2.18991 21.783 2.63339 21.6004 2.94643 21.2873C3.25948 20.9743 3.44209 20.5308 3.44209 20.0873C3.44209 19.6439 3.25948 19.2004 2.94643 18.8873C2.65948 18.5743 2.216 18.3917 1.77252 18.3917Z" fill="#D0BCFF"/>
</g>
</svg>
