<svg width="20" height="20" viewBox="0 0 20 20" fill="none" xmlns="http://www.w3.org/2000/svg">
<g id="list heart minimalistic">
<path id="Vector" fill-rule="evenodd" clip-rule="evenodd" d="M17.2917 5C17.2917 5.34517 17.0118 5.625 16.6667 5.625H2.5C2.15483 5.625 1.875 5.34517 1.875 5C1.875 4.65483 2.15483 4.375 2.5 4.375H16.6667C17.0118 4.375 17.2917 4.65483 17.2917 5ZM8.95833 13.3333C8.95833 13.6785 8.6785 13.9583 8.33333 13.9583H2.5C2.15483 13.9583 1.875 13.6785 1.875 13.3333C1.875 12.9882 2.15483 12.7083 2.5 12.7083H8.33333C8.6785 12.7083 8.95833 12.9882 8.95833 13.3333ZM8.125 9.16667C8.125 9.51183 7.84518 9.79167 7.5 9.79167H2.5C2.15483 9.79167 1.875 9.51183 1.875 9.16667C1.875 8.8215 2.15483 8.54167 2.5 8.54167H7.5C7.84518 8.54167 8.125 8.8215 8.125 9.16667Z" fill="#CAC4D0"/>
<path id="Vector_2" fill-rule="evenodd" clip-rule="evenodd" d="M17.3087 7.02386C18.3379 7.40868 18.957 8.45454 18.957 9.76238C18.957 10.7299 18.3746 11.6313 17.7627 12.3302C17.1313 13.0513 16.3638 13.6739 15.7944 14.0935C15.7723 14.1098 15.7499 14.1264 15.7274 14.1431C15.4178 14.3733 15.0674 14.6337 14.582 14.6337C14.0967 14.6337 13.7463 14.3733 13.4366 14.1431C13.4141 14.1264 13.3918 14.1098 13.3696 14.0935C12.8003 13.6739 12.0328 13.0513 11.4014 12.3302C10.7894 11.6313 10.207 10.7299 10.207 9.76246C10.207 8.45454 10.8262 7.40868 11.8554 7.02386C12.7244 6.69889 13.7133 6.90991 14.582 7.58508C15.4508 6.90991 16.4396 6.69889 17.3087 7.02386ZM16.8709 8.19468C16.4399 8.03353 15.7528 8.11954 15.0286 8.85921C14.911 8.97921 14.7501 9.04688 14.582 9.04688C14.4139 9.04688 14.253 8.97921 14.1354 8.85921C13.4113 8.11954 12.7241 8.03353 12.2931 8.19468C11.8691 8.35321 11.457 8.83929 11.457 9.76246C11.457 10.2555 11.776 10.8605 12.3419 11.5068C12.8883 12.1308 13.5749 12.692 14.1112 13.0872C14.3137 13.2365 14.416 13.3101 14.4979 13.3545C14.5524 13.384 14.568 13.3839 14.58 13.3837C14.5807 13.3837 14.5814 13.3837 14.582 13.3837C14.5827 13.3837 14.5834 13.3837 14.584 13.3837C14.596 13.3839 14.6116 13.384 14.6662 13.3545C14.748 13.3101 14.8504 13.2365 15.0529 13.0872C15.5892 12.692 16.2758 12.1308 16.8222 11.5068C17.388 10.8606 17.707 10.2555 17.707 9.76238C17.707 8.83929 17.2949 8.35321 16.8709 8.19468Z" fill="#CAC4D0"/>
</g>
</svg>
