<svg width="20" height="20" viewBox="0 0 20 20" fill="none" xmlns="http://www.w3.org/2000/svg">
<g id="list up minimalistic">
<path id="Vector" fill-rule="evenodd" clip-rule="evenodd" d="M17.2917 5C17.2917 5.34517 17.0118 5.625 16.6667 5.625H2.5C2.15483 5.625 1.875 5.34517 1.875 5C1.875 4.65483 2.15483 4.375 2.5 4.375H16.6667C17.0118 4.375 17.2917 4.65483 17.2917 5ZM17.2917 9.16667C17.2917 9.51183 17.0118 9.79167 16.6667 9.79167H2.5C2.15483 9.79167 1.875 9.51183 1.875 9.16667C1.875 8.8215 2.15483 8.54167 2.5 8.54167H16.6667C17.0118 8.54167 17.2917 8.8215 17.2917 9.16667ZM9.79167 13.3333C9.79167 13.6785 9.51183 13.9583 9.16667 13.9583H2.5C2.15483 13.9583 1.875 13.6785 1.875 13.3333C1.875 12.9882 2.15483 12.7083 2.5 12.7083H9.16667C9.51183 12.7083 9.79167 12.9882 9.79167 13.3333Z" fill="#CAC4D0"/>
<path id="Vector_2" fill-rule="evenodd" clip-rule="evenodd" d="M14.1779 12.0255C14.412 11.8248 14.7573 11.8248 14.9914 12.0255L17.9081 14.5255C18.1701 14.7501 18.2005 15.1447 17.9759 15.4068C17.7512 15.6688 17.3566 15.6992 17.0946 15.4745L14.5846 13.3232L12.0747 15.4745C11.8126 15.6992 11.4181 15.6688 11.1935 15.4068C10.9688 15.1447 10.9991 14.7501 11.2612 14.5255L14.1779 12.0255Z" fill="#CAC4D0"/>
</g>
</svg>
