<svg width="20" height="20" viewBox="0 0 20 20" fill="none" xmlns="http://www.w3.org/2000/svg">
<g id="Image">
<path id="Vector" d="M15.8334 1.66699H4.16669C2.78658 1.66852 1.66821 2.78689 1.66669 4.16699V11.724V15.8337C1.66821 17.2138 2.78658 18.3321 4.16669 18.3337H15.8334C15.9853 18.3335 16.1351 18.3153 16.283 18.2879C16.3381 18.2778 16.3906 18.2626 16.4444 18.249C16.5327 18.2264 16.6194 18.2001 16.7048 18.1679C16.7668 18.1447 16.8274 18.1203 16.887 18.0924C16.957 18.0595 17.0239 18.0213 17.0907 17.9818C17.1534 17.945 17.2167 17.9104 17.2757 17.8685C17.2805 17.865 17.286 17.8627 17.2909 17.8592C17.2971 17.8547 17.3024 17.8492 17.3084 17.8444C17.3198 17.8352 17.3341 17.8306 17.3445 17.8202C17.35 17.8147 17.3518 17.8072 17.3569 17.8015C17.9463 17.3442 18.3325 16.6372 18.3334 15.8337V13.3923V4.16699C18.3318 2.78689 17.2135 1.66852 15.8334 1.66699ZM16.3125 17.4215C16.157 17.4697 15.9963 17.5002 15.8334 17.5003H4.16669C3.24668 17.4992 2.50119 16.7537 2.50002 15.8337V11.8965L5.6356 8.7609C6.20562 8.19287 7.12776 8.19287 7.69777 8.7609L10.5351 11.598C10.5367 11.5997 10.5371 11.6018 10.5388 11.6035L16.3463 17.411C16.3351 17.4146 16.3238 17.418 16.3125 17.4215ZM17.5 15.8337C17.4995 16.2639 17.3317 16.6521 17.0638 16.9478L11.4235 11.308L12.3031 10.4284C12.8791 9.87663 13.7876 9.87663 14.3636 10.4284L17.5 13.5648V15.8337ZM17.5 12.3864L14.9528 9.83919C14.058 8.94564 12.6087 8.94564 11.7139 9.83919L10.8343 10.7188L8.28697 8.17171C7.39158 7.27816 5.94179 7.27816 5.04641 8.17171L2.50002 10.7181V4.16699C2.50119 3.24699 3.24668 2.5015 4.16669 2.50033H15.8334C16.7534 2.5015 17.4988 3.24699 17.5 4.16699V12.3864ZM11.25 5.00033C10.5597 5.00033 10 5.55997 10 6.25033C10 6.94068 10.5597 7.50033 11.25 7.50033C11.9401 7.49956 12.4993 6.94038 12.5 6.25033C12.5 5.55997 11.9404 5.00033 11.25 5.00033ZM11.25 6.66699C11.0199 6.66699 10.8334 6.48043 10.8334 6.25033C10.8334 6.02022 11.0199 5.83366 11.25 5.83366C11.48 5.83412 11.6662 6.02038 11.6667 6.25033C11.6667 6.48043 11.4801 6.66699 11.25 6.66699Z" fill="#898989"/>
</g>
</svg>
