<svg width="97" height="33" viewBox="0 0 97 33" fill="none" xmlns="http://www.w3.org/2000/svg">
<rect y="5" width="96.0891" height="28" rx="4" fill="#211F26"/>
<rect x="0.5" y="5.5" width="95.0891" height="27" rx="3.5" stroke="#79767D" stroke-opacity="0.5"/>
<path d="M28.0403 17.3777V19.5541C28.0403 20.2536 28.3598 20.6034 28.9989 20.6034C29.4912 20.6034 29.8151 20.3702 29.9705 19.9038C30.0137 19.757 30.0655 19.6577 30.126 19.6059C30.1951 19.5541 30.303 19.5281 30.4499 19.5281H33.0926C33.1703 19.5281 33.2351 19.5584 33.2869 19.6188C33.3474 19.6706 33.3776 19.7354 33.3776 19.8131C33.3776 20.5645 33.1617 21.195 32.7299 21.7045C31.9353 22.6545 30.696 23.1295 29.0119 23.1295C27.6905 23.1295 26.6369 22.8402 25.8509 22.2616C25.065 21.6743 24.6721 20.7761 24.6721 19.567V17.3647C24.6721 16.1815 25.0737 15.292 25.8769 14.696C26.68 14.1001 27.7251 13.8022 29.0119 13.8022C30.696 13.8022 31.9353 14.2772 32.7299 15.2272C33.1617 15.7367 33.3776 16.3672 33.3776 17.1186C33.3776 17.1963 33.3474 17.2654 33.2869 17.3258C33.2351 17.3777 33.1703 17.4036 33.0926 17.4036H30.4499C30.3117 17.4036 30.208 17.3777 30.1389 17.3258C30.0785 17.274 30.0224 17.1747 29.9705 17.0279C29.8064 16.5615 29.4826 16.3283 28.9989 16.3283C28.3598 16.3283 28.0403 16.6781 28.0403 17.3777ZM37.3815 19.1654V22.6502C37.3815 22.7452 37.347 22.8273 37.2779 22.8964C37.2088 22.9655 37.1268 23 37.0318 23H34.5056C34.4106 23 34.3285 22.9655 34.2595 22.8964C34.1904 22.8273 34.1558 22.7452 34.1558 22.6502V14.1519C34.1558 14.0569 34.1904 13.9749 34.2595 13.9058C34.3285 13.8367 34.4106 13.8022 34.5056 13.8022H37.0318C37.1268 13.8022 37.2088 13.8367 37.2779 13.9058C37.347 13.9749 37.3815 14.0569 37.3815 14.1519V16.9372C37.8738 16.4017 38.5043 16.134 39.2729 16.134C40.0416 16.134 40.6763 16.3845 41.1773 16.8854C41.6782 17.3863 41.9286 18.1161 41.9286 19.0747V22.6373C41.9286 22.7323 41.8941 22.8143 41.825 22.8834C41.7559 22.9525 41.6738 22.987 41.5788 22.987H39.0397C38.9447 22.987 38.8627 22.9525 38.7936 22.8834C38.7245 22.8143 38.69 22.7323 38.69 22.6373V19.1654C38.69 18.6904 38.4697 18.4529 38.0293 18.4529C37.5974 18.4529 37.3815 18.6904 37.3815 19.1654ZM42.71 21.0698C42.71 19.9038 43.6556 19.1568 45.547 18.8286L46.9202 18.6084C46.9202 18.3493 46.8986 18.1765 46.8555 18.0902C46.8123 17.9952 46.7086 17.9477 46.5445 17.9477C46.3891 17.9477 46.2336 18.0168 46.0782 18.1549C45.9227 18.2931 45.7759 18.3622 45.6377 18.3622H43.4354C43.2454 18.3622 43.1504 18.2715 43.1504 18.0902C43.1504 17.9002 43.2152 17.7015 43.3447 17.4943C43.4829 17.2783 43.6772 17.0668 43.9277 16.8595C44.1868 16.6522 44.5452 16.4795 45.0029 16.3413C45.4693 16.2031 45.9875 16.134 46.5575 16.134C47.7148 16.134 48.5827 16.3758 49.1614 16.8595C49.74 17.3431 50.0294 18.034 50.0294 18.9322V22.6502C50.0294 22.7452 49.9948 22.8273 49.9257 22.8964C49.8566 22.9655 49.7746 23 49.6796 23H47.4125C47.3175 23 47.2355 22.9655 47.1664 22.8964C47.0973 22.8273 47.0627 22.7452 47.0627 22.6502V22.2875C46.6568 22.8489 46.0652 23.1295 45.2879 23.1295C44.5107 23.1295 43.8845 22.9352 43.4095 22.5466C42.9431 22.1493 42.71 21.657 42.71 21.0698ZM46.117 21.2123C46.6784 21.2123 46.9591 20.8754 46.9591 20.2018L46.1948 20.3702C45.8148 20.4566 45.6248 20.6163 45.6248 20.8495C45.6248 20.9532 45.6679 21.0395 45.7543 21.1086C45.8407 21.1777 45.9616 21.2123 46.117 21.2123ZM58.6252 19.0747V22.6502C58.6252 22.7452 58.5906 22.8273 58.5216 22.8964C58.4525 22.9655 58.3704 23 58.2754 23H55.8011C55.7061 23 55.624 22.9655 55.5549 22.8964C55.4858 22.8273 55.4513 22.7452 55.4513 22.6502V19.1654C55.4513 18.6904 55.2354 18.4529 54.8036 18.4529C54.3717 18.4529 54.1558 18.6904 54.1558 19.1654V22.6502C54.1558 22.7452 54.1213 22.8273 54.0522 22.8964C53.9831 22.9655 53.901 23 53.806 23H51.3447C51.2497 23 51.1676 22.9655 51.0985 22.8964C51.0294 22.8273 50.9949 22.7452 50.9949 22.6502V16.6133C50.9949 16.5183 51.0294 16.4363 51.0985 16.3672C51.1676 16.2981 51.2497 16.2636 51.3447 16.2636H53.6117C53.7067 16.2636 53.7888 16.2981 53.8579 16.3672C53.927 16.4363 53.9615 16.5183 53.9615 16.6133V17.0408C54.1861 16.7731 54.4883 16.5572 54.8683 16.3931C55.257 16.2204 55.6715 16.134 56.112 16.134C56.8202 16.134 57.4161 16.3845 57.8997 16.8854C58.3834 17.3777 58.6252 18.1074 58.6252 19.0747ZM67.2218 19.0747V22.6502C67.2218 22.7452 67.1873 22.8273 67.1182 22.8964C67.0491 22.9655 66.9671 23 66.8721 23H64.3977C64.3027 23 64.2207 22.9655 64.1516 22.8964C64.0825 22.8273 64.0479 22.7452 64.0479 22.6502V19.1654C64.0479 18.6904 63.832 18.4529 63.4002 18.4529C62.9684 18.4529 62.7525 18.6904 62.7525 19.1654V22.6502C62.7525 22.7452 62.7179 22.8273 62.6488 22.8964C62.5797 22.9655 62.4977 23 62.4027 23H59.9413C59.8463 23 59.7643 22.9655 59.6952 22.8964C59.6261 22.8273 59.5915 22.7452 59.5915 22.6502V16.6133C59.5915 16.5183 59.6261 16.4363 59.6952 16.3672C59.7643 16.2981 59.8463 16.2636 59.9413 16.2636H62.2084C62.3034 16.2636 62.3854 16.2981 62.4545 16.3672C62.5236 16.4363 62.5582 16.5183 62.5582 16.6133V17.0408C62.7827 16.7731 63.085 16.5572 63.465 16.3931C63.8536 16.2204 64.2682 16.134 64.7086 16.134C65.4168 16.134 66.0127 16.3845 66.4964 16.8854C66.98 17.3777 67.2218 18.1074 67.2218 19.0747ZM75.0282 20.3961H71.1678V20.4609C71.1678 20.9877 71.3362 21.2511 71.673 21.2511C71.768 21.2511 71.8846 21.182 72.0228 21.0438C72.1609 20.9057 72.3121 20.8366 72.4762 20.8366H74.9246C75.1146 20.8366 75.2096 20.9316 75.2096 21.1216C75.2096 21.5448 74.8901 21.9852 74.251 22.4429C73.6205 22.9007 72.7612 23.1295 71.673 23.1295C70.5934 23.1295 69.7082 22.8489 69.0173 22.2875C68.335 21.7175 67.9939 20.9359 67.9939 19.9427V19.3209C67.9939 18.3795 68.3436 17.6152 69.0432 17.0279C69.7427 16.432 70.6582 16.134 71.7896 16.134C72.9296 16.134 73.8105 16.4665 74.4323 17.1315C75.0628 17.7965 75.378 18.6386 75.378 19.6577V20.0463C75.378 20.1413 75.3435 20.2234 75.2744 20.2925C75.2053 20.3616 75.1232 20.3961 75.0282 20.3961ZM72.2041 18.725C72.2041 18.2068 72.0314 17.9477 71.6859 17.9477C71.3405 17.9477 71.1678 18.2068 71.1678 18.725V18.7768H72.2041V18.725ZM78.8842 23H76.5653C76.4703 23 76.3883 22.9655 76.3192 22.8964C76.2501 22.8273 76.2155 22.7452 76.2155 22.6502V14.1519C76.2155 14.0569 76.2501 13.9749 76.3192 13.9058C76.3883 13.8367 76.4703 13.8022 76.5653 13.8022H78.8842C78.9792 13.8022 79.0612 13.8367 79.1303 13.9058C79.1994 13.9749 79.234 14.0569 79.234 14.1519V22.6502C79.234 22.7452 79.1994 22.8273 79.1303 22.8964C79.0612 22.9655 78.9792 23 78.8842 23ZM83.8589 21.1345C83.8589 21.0482 83.8373 20.9791 83.7941 20.9273C83.6818 20.7891 83.2673 20.6552 82.5505 20.5257C81.8336 20.3875 81.2507 20.15 80.8016 19.8131C80.3611 19.4677 80.1409 18.9884 80.1409 18.3752C80.1409 17.762 80.4345 17.2352 81.0218 16.7947C81.6091 16.3542 82.3993 16.134 83.3925 16.134C84.3943 16.134 85.2148 16.3413 85.8539 16.7558C86.493 17.1704 86.8126 17.5893 86.8126 18.0124C86.8126 18.1074 86.7823 18.1895 86.7219 18.2586C86.6701 18.3277 86.6053 18.3622 86.5276 18.3622H84.3512C84.2216 18.3622 84.0618 18.2931 83.8718 18.1549C83.6818 18.0168 83.5393 17.9477 83.4443 17.9477C83.2457 17.9477 83.1464 18.0168 83.1464 18.1549C83.1464 18.2413 83.168 18.3104 83.2112 18.3622C83.3234 18.4918 83.7941 18.617 84.6232 18.7379C85.4523 18.8588 86.0698 19.1265 86.4757 19.5411C86.8903 19.947 87.0976 20.4004 87.0976 20.9013C87.0976 21.6009 86.7823 22.1493 86.1519 22.5466C85.5214 22.9439 84.6275 23.1425 83.4702 23.1425C82.8571 23.1425 82.313 23.0734 81.838 22.9352C81.363 22.797 81.0002 22.6243 80.7498 22.417C80.2575 22.0111 80.0113 21.6311 80.0113 21.277C80.0113 21.182 80.0416 21.1 80.102 21.0309C80.1625 20.9618 80.2359 20.9273 80.3223 20.9273H82.5764C82.6973 20.9273 82.8527 20.9963 83.0427 21.1345C83.2414 21.2641 83.4271 21.3288 83.5998 21.3288C83.7725 21.3288 83.8589 21.2641 83.8589 21.1345Z" fill="#E4E4E4"/>
<rect x="8" y="12.0264" width="13.7023" height="13.7023" rx="1.6652" fill="#E4E4E4"/>
<rect x="15.8079" y="17.5068" width="2.68053" height="2.68053" fill="#5A00FF"/>
<path fill-rule="evenodd" clip-rule="evenodd" d="M15.8113 15.4971H11.1204V22.1984H15.8113V20.1872H13.13V17.5067H15.8113V15.4971Z" fill="#5A00FF"/>
<rect width="57" height="9" transform="translate(12)" fill="#211F26"/>
<path d="M12.8807 8V0.727273H15.3381C15.9086 0.727273 16.375 0.830255 16.7372 1.03622C17.1018 1.23982 17.3717 1.51562 17.5469 1.86364C17.7221 2.21165 17.8097 2.59991 17.8097 3.02841C17.8097 3.45691 17.7221 3.84635 17.5469 4.19673C17.3741 4.54711 17.1065 4.82647 16.7443 5.0348C16.3821 5.24077 15.9181 5.34375 15.3523 5.34375H13.5909V4.5625H15.3239C15.7145 4.5625 16.0282 4.49503 16.2649 4.36009C16.5017 4.22514 16.6733 4.04285 16.7798 3.81321C16.8887 3.5812 16.9432 3.3196 16.9432 3.02841C16.9432 2.73722 16.8887 2.4768 16.7798 2.24716C16.6733 2.01752 16.5005 1.83759 16.2614 1.70739C16.0223 1.57481 15.705 1.50852 15.3097 1.50852H13.7614V8H12.8807ZM21.372 8.11364C20.8796 8.11364 20.4475 7.99645 20.0759 7.76207C19.7065 7.5277 19.4177 7.19981 19.2094 6.77841C19.0034 6.35701 18.9004 5.86458 18.9004 5.30114C18.9004 4.73295 19.0034 4.23698 19.2094 3.81321C19.4177 3.38944 19.7065 3.06037 20.0759 2.82599C20.4475 2.59162 20.8796 2.47443 21.372 2.47443C21.8644 2.47443 22.2953 2.59162 22.6646 2.82599C23.0363 3.06037 23.3251 3.38944 23.5311 3.81321C23.7394 4.23698 23.8436 4.73295 23.8436 5.30114C23.8436 5.86458 23.7394 6.35701 23.5311 6.77841C23.3251 7.19981 23.0363 7.5277 22.6646 7.76207C22.2953 7.99645 21.8644 8.11364 21.372 8.11364ZM21.372 7.3608C21.7461 7.3608 22.0538 7.26491 22.2953 7.07315C22.5368 6.88139 22.7155 6.62926 22.8315 6.31676C22.9475 6.00426 23.0055 5.66572 23.0055 5.30114C23.0055 4.93655 22.9475 4.59683 22.8315 4.28196C22.7155 3.96709 22.5368 3.71259 22.2953 3.51847C22.0538 3.32434 21.7461 3.22727 21.372 3.22727C20.998 3.22727 20.6902 3.32434 20.4487 3.51847C20.2072 3.71259 20.0285 3.96709 19.9125 4.28196C19.7965 4.59683 19.7385 4.93655 19.7385 5.30114C19.7385 5.66572 19.7965 6.00426 19.9125 6.31676C20.0285 6.62926 20.2072 6.88139 20.4487 7.07315C20.6902 7.26491 20.998 7.3608 21.372 7.3608ZM26.2732 8L24.6112 2.54545H25.4919L26.6709 6.72159H26.7277L27.8925 2.54545H28.7874L29.9379 6.70739H29.9947L31.1737 2.54545H32.0544L30.3925 8H29.5686L28.3754 3.80966H28.2902L27.097 8H26.2732ZM35.3637 8.11364C34.8382 8.11364 34.3848 7.99763 34.0037 7.76562C33.6249 7.53125 33.3325 7.20455 33.1265 6.78551C32.9229 6.36411 32.8211 5.87405 32.8211 5.31534C32.8211 4.75663 32.9229 4.2642 33.1265 3.83807C33.3325 3.40956 33.619 3.07576 33.9859 2.83665C34.3552 2.59517 34.7861 2.47443 35.2785 2.47443C35.5626 2.47443 35.8431 2.52178 36.1201 2.61648C36.3971 2.71117 36.6493 2.86506 36.8765 3.07812C37.1038 3.28883 37.2849 3.56818 37.4199 3.91619C37.5548 4.2642 37.6223 4.69271 37.6223 5.2017V5.55682H33.4177V4.83239H36.77C36.77 4.52462 36.7084 4.25 36.5853 4.00852C36.4646 3.76705 36.2918 3.57647 36.0669 3.43679C35.8443 3.29711 35.5815 3.22727 35.2785 3.22727C34.9447 3.22727 34.6559 3.31013 34.412 3.47585C34.1706 3.6392 33.9847 3.85227 33.8545 4.11506C33.7243 4.37784 33.6592 4.65956 33.6592 4.96023V5.44318C33.6592 5.85511 33.7302 6.20431 33.8723 6.49077C34.0167 6.77486 34.2167 6.99148 34.4724 7.14062C34.7281 7.28741 35.0252 7.3608 35.3637 7.3608C35.5839 7.3608 35.7828 7.33002 35.9603 7.26847C36.1403 7.20455 36.2953 7.10985 36.4255 6.98438C36.5557 6.85653 36.6564 6.69792 36.7274 6.50852L37.537 6.7358C37.4518 7.01042 37.3086 7.25189 37.1074 7.46023C36.9061 7.66619 36.6575 7.82718 36.3616 7.94318C36.0657 8.05682 35.7331 8.11364 35.3637 8.11364ZM38.9971 8V2.54545H39.8068V3.36932H39.8636C39.963 3.09943 40.143 2.88045 40.4034 2.71236C40.6638 2.54427 40.9574 2.46023 41.2841 2.46023C41.3456 2.46023 41.4225 2.46141 41.5149 2.46378C41.6072 2.46615 41.677 2.4697 41.7244 2.47443V3.3267C41.696 3.3196 41.6309 3.30895 41.5291 3.29474C41.4297 3.27817 41.3243 3.26989 41.213 3.26989C40.9479 3.26989 40.7111 3.32552 40.5028 3.43679C40.2968 3.54569 40.1335 3.69721 40.0127 3.89134C39.8944 4.0831 39.8352 4.30208 39.8352 4.5483V8H38.9971ZM44.9387 8.11364C44.4132 8.11364 43.9598 7.99763 43.5787 7.76562C43.1999 7.53125 42.9075 7.20455 42.7015 6.78551C42.4979 6.36411 42.3961 5.87405 42.3961 5.31534C42.3961 4.75663 42.4979 4.2642 42.7015 3.83807C42.9075 3.40956 43.194 3.07576 43.5609 2.83665C43.9302 2.59517 44.3611 2.47443 44.8535 2.47443C45.1376 2.47443 45.4181 2.52178 45.6951 2.61648C45.9721 2.71117 46.2243 2.86506 46.4515 3.07812C46.6788 3.28883 46.8599 3.56818 46.9949 3.91619C47.1298 4.2642 47.1973 4.69271 47.1973 5.2017V5.55682H42.9927V4.83239H46.345C46.345 4.52462 46.2834 4.25 46.1603 4.00852C46.0396 3.76705 45.8668 3.57647 45.6419 3.43679C45.4193 3.29711 45.1565 3.22727 44.8535 3.22727C44.5197 3.22727 44.2309 3.31013 43.987 3.47585C43.7456 3.6392 43.5597 3.85227 43.4295 4.11506C43.2993 4.37784 43.2342 4.65956 43.2342 4.96023V5.44318C43.2342 5.85511 43.3052 6.20431 43.4473 6.49077C43.5917 6.77486 43.7917 6.99148 44.0474 7.14062C44.3031 7.28741 44.6002 7.3608 44.9387 7.3608C45.1589 7.3608 45.3578 7.33002 45.5353 7.26847C45.7153 7.20455 45.8703 7.10985 46.0005 6.98438C46.1307 6.85653 46.2314 6.69792 46.3024 6.50852L47.112 6.7358C47.0268 7.01042 46.8836 7.25189 46.6824 7.46023C46.4811 7.66619 46.2325 7.82718 45.9366 7.94318C45.6407 8.05682 45.3081 8.11364 44.9387 8.11364ZM50.6318 8.11364C50.1772 8.11364 49.776 7.99882 49.4279 7.76918C49.0799 7.53717 48.8077 7.21046 48.6112 6.78906C48.4147 6.36529 48.3164 5.86458 48.3164 5.28693C48.3164 4.71402 48.4147 4.21686 48.6112 3.79545C48.8077 3.37405 49.0811 3.04853 49.4315 2.81889C49.7819 2.58925 50.1867 2.47443 50.646 2.47443C51.0011 2.47443 51.2816 2.53362 51.4876 2.65199C51.6959 2.76799 51.8546 2.90057 51.9635 3.04972C52.0747 3.1965 52.1611 3.31723 52.2227 3.41193H52.2937V0.727273H53.1318V8H52.3221V7.16193H52.2227C52.1611 7.26136 52.0735 7.38684 51.9599 7.53835C51.8463 7.6875 51.6841 7.82126 51.4734 7.93963C51.2627 8.05563 50.9822 8.11364 50.6318 8.11364ZM50.7454 7.3608C51.0816 7.3608 51.3657 7.2732 51.5977 7.09801C51.8297 6.92045 52.0061 6.67543 52.1268 6.36293C52.2475 6.04806 52.3079 5.68466 52.3079 5.27273C52.3079 4.86553 52.2487 4.50923 52.1304 4.20384C52.012 3.89607 51.8368 3.65696 51.6048 3.48651C51.3728 3.31368 51.0863 3.22727 50.7454 3.22727C50.3903 3.22727 50.0944 3.31842 49.8576 3.50071C49.6233 3.68063 49.4469 3.92566 49.3285 4.2358C49.2125 4.54356 49.1545 4.8892 49.1545 5.27273C49.1545 5.66098 49.2137 6.01373 49.3321 6.33097C49.4528 6.64583 49.6304 6.89678 49.8647 7.08381C50.1015 7.26847 50.395 7.3608 50.7454 7.3608ZM57.9092 8V0.727273H58.7473V3.41193H58.8183C58.8798 3.31723 58.9651 3.1965 59.074 3.04972C59.1852 2.90057 59.3439 2.76799 59.5498 2.65199C59.7582 2.53362 60.0399 2.47443 60.395 2.47443C60.8543 2.47443 61.2591 2.58925 61.6095 2.81889C61.9599 3.04853 62.2333 3.37405 62.4298 3.79545C62.6263 4.21686 62.7245 4.71402 62.7245 5.28693C62.7245 5.86458 62.6263 6.36529 62.4298 6.78906C62.2333 7.21046 61.961 7.53717 61.613 7.76918C61.265 7.99882 60.8637 8.11364 60.4092 8.11364C60.0588 8.11364 59.7783 8.05563 59.5676 7.93963C59.3569 7.82126 59.1947 7.6875 59.0811 7.53835C58.9674 7.38684 58.8798 7.26136 58.8183 7.16193H58.7189V8H57.9092ZM58.7331 5.27273C58.7331 5.68466 58.7934 6.04806 58.9142 6.36293C59.0349 6.67543 59.2113 6.92045 59.4433 7.09801C59.6753 7.2732 59.9594 7.3608 60.2956 7.3608C60.6459 7.3608 60.9383 7.26847 61.1727 7.08381C61.4094 6.89678 61.587 6.64583 61.7054 6.33097C61.8261 6.01373 61.8865 5.66098 61.8865 5.27273C61.8865 4.8892 61.8273 4.54356 61.7089 4.2358C61.5929 3.92566 61.4165 3.68063 61.1798 3.50071C60.9454 3.31842 60.6507 3.22727 60.2956 3.22727C59.9547 3.22727 59.6682 3.31368 59.4362 3.48651C59.2042 3.65696 59.029 3.89607 58.9106 4.20384C58.7922 4.50923 58.7331 4.86553 58.7331 5.27273ZM64.451 10.0455C64.3089 10.0455 64.1823 10.0336 64.071 10.0099C63.9597 9.98864 63.8828 9.96733 63.8402 9.94602L64.0532 9.20739C64.2568 9.25947 64.4368 9.27841 64.593 9.2642C64.7493 9.25 64.8878 9.18016 65.0085 9.05469C65.1316 8.93158 65.244 8.73153 65.3458 8.45455L65.5021 8.02841L63.4851 2.54545H64.3941L65.8998 6.89205H65.9566L67.4623 2.54545H68.3714L66.0561 8.79545C65.9519 9.07718 65.8229 9.31037 65.669 9.49503C65.5151 9.68205 65.3364 9.82055 65.1328 9.91051C64.9315 10.0005 64.7043 10.0455 64.451 10.0455Z" fill="#958F9B"/>
</svg>
