<svg width="201" height="179" viewBox="0 0 201 179" fill="none" xmlns="http://www.w3.org/2000/svg">
<path d="M0.5 8C0.5 3.58173 4.08172 0 8.5 0H200.5V179H8.5C4.08173 179 0.5 175.418 0.5 171V8Z" fill="#D9D9D9"/>
<g clip-path="url(#clip0_12028_7408)">
<path d="M190.714 150.341C187.089 154.37 183.469 158.405 179.85 162.438C179.176 163.19 179.08 163.198 178.4 162.406C176.076 159.695 173.746 156.985 171.437 154.258C171.129 153.897 170.824 153.723 170.332 153.723C166.247 153.728 162.165 153.712 158.08 153.677C157.593 153.675 157.278 153.833 156.965 154.191C155.285 156.112 153.586 158.015 151.893 159.925C151.764 160.067 151.631 160.203 151.39 160.46C151.13 159.189 150.895 158.044 150.665 156.896C150.499 156.064 150.301 155.232 150.202 154.392C150.127 153.76 149.841 153.64 149.255 153.64C143.177 153.645 137.102 153.624 131.025 153.6C115.734 153.536 100.446 153.458 85.1551 153.405C81.097 153.388 77.0496 153.707 72.9996 153.9C69.8697 154.047 66.7399 154.183 63.6127 154.328C63.4656 154.336 63.3211 154.36 63.1794 154.384C62.4063 154.512 62.2672 154.392 62.2725 153.624C62.3314 146.552 62.6898 139.491 62.8343 132.422C62.8904 129.676 63.0028 126.931 63.1152 124.189C63.1366 123.648 63.0189 123.418 62.4116 123.421C60.3465 123.431 58.2786 123.327 56.2135 123.375C54.6084 123.41 53.3351 122.795 52.2624 121.692C50.6921 120.079 49.9591 118.059 49.6114 115.891C49.3145 114.032 49.4027 112.169 49.7585 110.315C49.8762 109.702 50.0768 109.438 50.7724 109.443C54.2954 109.467 57.8212 109.408 61.3469 109.421C61.9997 109.424 62.1575 109.202 62.1762 108.592C62.3314 104.027 62.5106 99.4652 62.6978 94.9005C62.8423 91.3578 63.0028 87.8152 63.166 84.2726C63.3666 79.954 63.4335 75.6221 63.8134 71.3195C64.3029 65.7648 66.5072 60.9807 70.905 57.3631C71.2046 57.117 71.5229 56.8895 71.852 56.6808C72.938 55.9905 74.0081 55.4527 75.4178 55.5383C77.5953 55.6694 79.7916 55.5035 81.9771 55.5035C95.1786 55.5008 108.377 55.5089 121.576 55.5142C122.78 55.5169 123.976 55.4446 125.182 55.7336C127.496 56.2821 129.034 57.6976 130.043 59.7712C131.447 62.6583 131.701 65.7354 131.423 68.874C131.3 70.2707 131.129 71.6701 130.824 73.048C130.693 73.6394 130.455 73.8106 129.856 73.8213C123.366 73.9257 116.876 73.8855 110.384 73.8641C109.752 73.8615 109.576 74.0059 109.562 74.6535C109.496 77.6181 109.378 80.5801 109.249 83.5421C109.225 84.0853 109.365 84.2405 109.918 84.2458C115.046 84.2806 120.177 84.3395 125.305 84.4117C125.806 84.4197 126.097 84.3101 126.266 83.799C126.589 82.8197 127.197 81.9929 127.809 81.1741C129.203 79.3119 131.041 78.7178 133.28 79.2476C133.847 79.3814 134.422 79.4831 134.989 79.6142C138.614 80.4544 141.832 79.4563 144.718 77.3131C146.564 75.9405 146.775 73.9498 145.475 72.034C144.611 70.763 143.424 69.8426 142.14 69.0345C140.904 68.2559 139.585 67.6351 138.287 66.9715C138.199 66.9287 138.114 66.8832 138.025 66.8431C134.221 65.0236 134.023 62.0937 136.204 59.0274C137.434 57.2962 139.138 56.0734 140.872 54.8961C143.627 53.0285 146.543 51.407 149.202 49.3949C150.21 48.6297 151.152 47.7895 152 46.845C155.547 42.8903 155.071 38.1409 150.796 34.9863C147.987 32.9126 144.764 31.9119 141.356 31.4223C139.767 31.1921 138.167 31.0771 136.562 31.1092C136.19 31.1172 135.877 31.1413 135.669 31.5641C133.734 35.492 130.615 38.2934 126.961 40.5491C124.053 42.3444 120.998 43.8214 117.569 44.3459C116.579 44.4984 115.584 44.5037 114.602 44.2629C112.695 43.7973 111.914 42.2802 112.692 40.4741C113.409 38.8125 114.712 37.6299 116.124 36.5783C120.14 33.5922 124.714 31.9092 129.569 30.9032C131.212 30.5634 132.873 30.3359 134.545 30.2342C135.099 30.1995 135.289 29.9533 135.438 29.4931C136.998 24.7089 134.906 20.4011 130 18.3729C126.945 17.11 123.73 16.8076 120.482 17.1019C109.29 18.1133 99.6941 22.9376 90.9359 29.6831C85.3905 33.9561 80.5219 38.9517 75.7602 44.0569C71.3357 48.8036 67.0769 53.7081 62.2698 58.0856C60.7771 59.4448 59.2309 60.7372 57.5002 61.7914C56.6709 62.2971 55.8283 62.7921 54.8171 62.8429C54.464 62.859 54.3864 63.0677 54.3596 63.3701C54.0253 67.504 52.34 71.1884 50.5022 74.8113C49.5258 76.7352 48.0839 78.3352 46.5752 79.855C44.5715 81.8752 42.4074 83.7214 40.2326 85.5543C37.1883 88.1229 33.7027 89.913 30.0539 91.4354C27.8042 92.3746 25.5063 93.1238 23.1014 93.5091C21.59 93.7526 20.0679 93.8409 18.5297 93.6268C18.0642 93.5626 17.8208 93.2576 17.4864 93.0542C12.5777 90.0976 10.3359 85.7014 10.5071 80.0263C10.657 74.9585 12.6151 70.5222 15.5577 66.5301C21.9511 57.8608 30.5033 52.4773 41.0164 50.1762C43.2608 49.6839 45.5346 49.5501 47.8137 49.5233C51.2432 49.4859 53.9744 51.8378 54.5228 55.2573C54.8358 57.2053 54.9722 59.1612 54.6833 61.1305C54.5603 61.9707 54.702 62.0723 55.5206 61.7406C56.8849 61.1867 58.0593 60.3144 59.1908 59.394C63.2516 56.0788 66.7961 52.2365 70.3512 48.4049C75.2573 43.1097 80.0805 37.7369 85.4734 32.9153C92.0086 27.0689 99.1564 22.1965 107.422 19.098C111.28 17.6531 115.231 16.5561 119.34 16.1681C123.502 15.7748 127.614 15.9621 131.426 17.926C134.318 19.4137 136.313 21.672 136.864 24.9792C137.116 26.4829 136.977 27.9893 136.492 29.4396C136.303 30.0122 136.367 30.1513 137.017 30.1459C141.452 30.1192 145.721 30.8577 149.656 33.0303C151.47 34.0311 153.035 35.3234 154.172 37.0733C156.063 39.9791 155.737 43.7144 153.313 46.8503C151.526 49.1594 149.154 50.7756 146.746 52.3408C144.304 53.9302 141.77 55.3831 139.464 57.1785C138.191 58.1739 137.054 59.2976 136.335 60.7773C135.339 62.8269 135.751 64.3253 137.71 65.4785C139.004 66.2438 140.379 66.8699 141.701 67.5923C143.397 68.5181 144.962 69.6258 146.136 71.1965C147.963 73.634 147.696 76.3793 145.253 78.1934C141.947 80.647 138.245 81.5514 134.173 80.4811C133.702 80.3607 133.215 80.3126 132.745 80.2002C130.99 79.7854 129.658 80.4303 128.612 81.8163C128.114 82.4772 127.699 83.1729 127.456 83.9783C127.33 84.3903 127.451 84.4358 127.79 84.4144C127.983 84.4037 128.178 84.4144 128.374 84.4171C142.667 84.484 156.959 84.5402 171.252 84.7515C172.4 84.7676 172.416 84.7917 172.413 85.9663C172.389 97.6109 172.373 109.256 172.322 120.898C172.32 121.574 172.603 121.698 173.144 121.778C176.552 122.284 179.96 122.808 183.368 123.324C183.627 123.365 183.895 123.378 184.192 123.597C181.832 126.011 179.912 128.708 177.766 131.215C176.268 132.968 174.861 134.803 173.352 136.548C172.863 137.115 173.015 137.321 173.553 137.658C176.121 139.274 178.67 140.925 181.228 142.563C184.315 144.543 187.404 146.52 190.489 148.503C191.532 149.172 191.551 149.41 190.714 150.341Z" fill="black"/>
<path d="M116.748 152.595V152.518C119.714 152.531 122.678 152.544 125.645 152.558C133.472 152.59 141.3 152.622 149.127 152.657C149.528 152.657 149.876 152.742 149.75 152.076C148.958 147.851 148.191 143.621 147.452 139.385C146.224 132.348 145.146 125.29 144.261 118.202C144.165 117.423 144.282 117.314 145.077 117.434C148.506 117.964 151.936 118.507 155.365 119.037C160.426 119.818 165.49 120.581 170.549 121.381C171.188 121.482 171.362 121.373 171.365 120.688C171.392 109.311 171.442 97.9335 171.52 86.5592C171.525 85.7886 171.293 85.6548 170.586 85.6521C156.78 85.6039 142.974 85.529 129.168 85.3524C122.751 85.2721 116.333 85.2855 109.916 85.2347C109.846 85.2347 109.536 85.1919 109.349 85.3792C109.215 85.5103 109.159 86.1043 109.193 85.9197C109.193 87.6107 109.193 90.0215 109.164 92.922C109.094 100.114 108.958 101.602 108.851 102.533C108.637 104.409 108.236 107.724 106.77 111.614C105.545 114.865 102.808 122.116 97.1422 123.484C96.428 123.655 95.8849 123.682 94.7293 123.69C90.8932 123.714 66.9139 123.481 64.8327 123.462C64.2656 123.457 64.0649 123.618 64.0515 124.177C64.0007 126.387 63.9098 128.597 63.8482 130.807C63.7172 135.495 63.5968 140.183 63.4737 144.873C63.4042 147.522 63.3507 150.168 63.2704 152.817C63.257 153.302 63.3908 153.427 63.8884 153.379C65.0707 153.267 66.2638 153.229 67.4516 153.168C67.7244 153.155 70.1507 152.997 75.0167 152.785C75.0167 152.785 79.789 152.577 84.8797 152.453C90.8665 152.309 102.142 152.255 116.748 152.598V152.595Z" fill="white"/>
<path d="M120.596 56.0334C120.213 55.8702 119.9 55.9344 119.6 55.9344C105.093 55.9183 90.5839 55.9371 76.077 55.8595C74.3783 55.8515 72.9899 56.3143 71.7005 57.2803C67.1797 60.6731 64.7293 65.3127 64.2478 70.8353C63.7582 76.4436 63.6887 82.0866 63.4372 87.7136C63.3142 90.4562 63.2018 93.1961 63.0734 95.9387C62.8781 100.134 62.6855 104.33 62.4582 108.525C62.4207 109.218 62.5812 109.419 63.3088 109.419C70.1864 109.408 77.0641 109.44 83.9417 109.454C84.8646 109.454 85.7928 109.478 86.7104 109.397C87.2106 109.355 87.2507 109.523 87.2748 109.938C87.3845 111.728 87.5343 113.515 87.965 115.265C88.4866 117.384 89.2357 119.399 90.6989 121.069C92.6758 123.319 95.2225 123.833 97.9377 122.562C98.5369 122.281 99.1013 121.952 99.631 121.577C99.631 121.577 100.789 120.75 101.766 119.584C106.388 114.053 107.819 104.908 107.819 104.908C108.403 101.18 108.443 97.9936 108.526 91.6201C108.614 84.7008 109.128 77.7922 109.261 70.8728C109.344 66.5516 111.064 63.0919 114.103 60.1888C115.973 58.4041 118.065 56.9298 120.601 56.0361L120.596 56.0334Z" fill="white"/>
<path d="M45.2865 58.0757C41.7046 57.9714 38.1226 58.6028 34.5996 59.5313C28.043 61.2571 22.0053 64.0559 16.8023 68.4975C12.8352 71.885 10.4864 76.0082 10.8182 81.3864C10.9412 83.3931 11.396 85.3116 12.2787 87.1284C12.4794 87.5431 12.6827 87.6234 13.1241 87.4468C14.1085 87.0481 14.4456 86.1999 14.6997 85.3036C14.9913 84.2788 15.2401 83.2379 15.4701 82.1971C16.0051 79.7542 17.3774 77.9668 19.6539 76.934C22.7757 75.5186 26.0581 75.6631 29.3136 76.2196C33.2727 76.8965 37.2185 77.512 41.2418 76.8912C43.636 76.522 45.7118 75.7166 47.2714 73.6269C50.3344 69.5223 52.1266 64.9362 53.0843 59.9567C53.2047 59.336 53.0148 59.1647 52.4905 59.0095C50.1658 58.3299 47.793 58.0356 45.2865 58.0784V58.0757Z" fill="white"/>
<path d="M12.6523 72.5366C14.0166 70.6289 15.627 68.9539 17.4434 67.4715C20.7846 64.7423 24.5297 62.7115 28.5155 61.1061C28.9168 60.9455 29.1014 60.785 29.1469 60.3034C29.2378 59.3026 29.6792 58.4437 30.5566 57.8658C33.0578 56.2149 35.7623 55.6744 38.6942 56.3754C39.2747 56.5146 39.9515 56.7099 40.1521 57.2424C40.4758 58.1013 41.0028 57.9354 41.6261 57.831C42.03 57.7614 42.45 57.7962 42.862 57.7614C46.1576 57.4778 49.4052 57.7133 52.5939 58.6203C53.2118 58.7969 53.4686 58.5936 53.3135 57.9782C53.0807 57.039 52.8667 56.0945 52.6126 55.158C51.9947 52.8596 50.4618 51.5191 48.2897 50.8582C45.9249 50.1384 43.4665 50.0929 41.0857 50.5879C31.3618 52.6054 23.3687 57.5501 17.0395 65.1838C15.2044 67.3966 13.717 69.8342 12.655 72.5366H12.6523Z" fill="white"/>
<path d="M116.375 43.4176C117.033 43.431 117.731 43.3346 118.416 43.1661C122.273 42.2135 125.7 40.378 128.851 38.0047C131.104 36.3056 133.025 34.2961 134.397 31.8051C134.477 31.6606 134.651 31.5081 134.563 31.3475C134.45 31.1362 134.212 31.2485 134.038 31.2673C130.349 31.6419 126.751 32.4232 123.303 33.8038C120.24 35.0293 117.354 36.5598 114.997 38.9358C114.326 39.6128 113.751 40.3646 113.483 41.3038C113.269 42.0557 113.515 42.639 114.203 43.0162C114.866 43.3801 115.588 43.4363 116.375 43.4203V43.4176Z" fill="white"/>
<path d="M158.384 152.615C162.34 152.633 166.128 152.65 170.047 152.668C168.15 150.453 166.334 148.339 164.525 146.214C164.25 145.891 164.124 146.145 163.969 146.316C163.225 147.148 162.484 147.986 161.743 148.823C160.652 150.054 159.558 151.285 158.381 152.615H158.384Z" fill="white"/>
<path d="M46.8687 41.9106C46.9516 39.3661 47.1977 36.8268 47.2004 34.2769C47.2004 33.6775 47.6471 33.5625 48.0751 33.4956C48.9365 33.3618 49.8059 33.2815 50.6726 33.1825C51.1301 33.1317 51.5902 33.0916 52.0476 33.0434C52.6174 32.9845 52.9037 33.2414 52.794 33.8033C52.2402 36.685 52.0289 39.6203 51.4029 42.4886C51.2317 43.2646 50.8198 43.8559 49.9504 43.987C49.1853 44.1047 48.4229 44.2492 47.6552 44.3536C47.0452 44.4365 46.759 44.1502 46.7804 43.5054C46.7965 42.9729 46.8393 42.4404 46.8687 41.908V41.9106Z" fill="black"/>
<path d="M61.25 34.3496C61.3265 34.3357 61.4038 34.3479 61.4785 34.3926L61.5527 34.4482C62.4319 35.2505 63.2415 36.1182 63.9834 37.0479L64.2969 37.4492C64.3207 37.4814 64.3347 37.5228 64.3477 37.5742C64.3591 37.62 64.3695 37.6749 64.3867 37.7334C62.5533 40.0813 60.6452 41.8346 57.2588 44.7881L55.71 46.1348C55.6245 46.2096 55.4302 46.3698 55.1777 46.3672L55.1113 46.3623C55.0007 46.3479 54.8891 46.3016 54.7773 46.2217L54.6426 46.1094C54.2761 45.7569 53.9215 45.3815 53.5293 45.0576L53.3594 44.9219C53.0878 44.7148 52.9817 44.5074 52.9785 44.2969C52.9762 44.1377 53.0326 43.9737 53.126 43.8027L53.2305 43.6289C53.8498 42.6847 54.5464 41.7976 55.2744 40.9355L56.0107 40.0811C56.8253 39.1513 57.6481 38.2281 58.4727 37.3066L60.9463 34.543V34.542C61.0417 34.4348 61.1469 34.3684 61.25 34.3496ZM61.46 35.7139C61.3653 35.7155 61.2709 35.7643 61.1689 35.8535L61.0645 35.9551V35.9561C59.1288 38.0092 57.1776 40.0484 55.3916 42.2354L54.6377 43.1816C54.4378 43.4385 54.2883 43.6439 54.1953 43.8184C54.1026 43.9926 54.0636 44.1395 54.0869 44.2793C54.1104 44.4193 54.1958 44.5483 54.3398 44.6875C54.4118 44.7571 54.4996 44.8294 54.6025 44.9082L54.958 45.166C55.0371 45.2208 55.1067 45.2557 55.1738 45.2676L55.2402 45.2715H55.2412C55.3075 45.2657 55.363 45.2397 55.4043 45.2119L55.4834 45.1445C55.655 44.9703 58.8989 41.9687 63.3848 37.8242L63.4287 37.7842H63.3779C63.3448 37.7356 63.3149 37.6869 63.2832 37.6387L63.1748 37.4922C62.8413 37.1064 62.4995 36.7292 62.168 36.3447L61.8408 35.957C61.7065 35.7958 61.587 35.7119 61.46 35.7139Z" fill="black" stroke="black" stroke-width="0.047025"/>
<path d="M67.4427 46.8241C67.4346 47.097 67.3704 47.4315 67.135 47.6776C66.9531 47.8676 66.7391 47.9318 66.6642 47.9559C63.9784 48.7907 61.3783 49.8503 58.7514 50.851C57.8204 51.2042 57.6867 51.1373 57.3041 50.1928C56.7959 48.9316 57.083 47.873 58.1655 47.0167C60.45 45.2106 62.8549 43.5758 65.2598 41.9409C65.637 41.6841 66.0302 41.7135 66.0864 42.2032C66.2549 43.6427 66.9531 44.9698 67.3169 46.3692C67.3651 46.5565 67.4079 46.7144 67.4373 46.8268L67.4427 46.8241ZM66.4342 46.6555C66.1158 45.6896 65.7654 44.7344 65.4952 43.7551C65.3401 43.1905 65.1635 43.2226 64.7328 43.5089C62.5981 44.9377 60.4928 46.4093 58.4544 47.9746C57.6251 48.6114 57.6251 48.6596 58.0853 49.6389C58.2324 49.9493 58.3688 50.0001 58.6898 49.8717C61.1161 48.9004 63.5451 47.9265 66.0222 47.0916C66.2228 47.0248 66.4689 46.9766 66.4315 46.6528L66.4342 46.6555Z" fill="black"/>
<path d="M161.69 80.3318C162.851 78.9378 163.824 77.5518 164.785 76.1577C164.977 75.8794 165.135 75.5664 165.427 75.3737C165.676 75.2105 165.935 75.2025 166.149 75.4406C166.331 75.644 166.371 75.8875 166.189 76.1042C164.844 77.6962 163.779 79.5023 162.377 81.0516C162.281 81.1586 162.185 81.2736 162.072 81.3646C161.604 81.7446 161.144 81.6429 160.919 81.0756C160.32 79.5692 159.796 78.0307 158.977 76.6179C158.825 76.353 158.846 76.0828 159.122 75.9196C159.493 75.7002 159.742 75.949 159.881 76.2407C160.341 77.2012 160.769 78.1779 161.206 79.1518C161.363 79.505 161.5 79.8662 161.69 80.3345V80.3318Z" fill="black"/>
<path d="M138.754 117.914C137.954 116.48 137.219 115.147 136.472 113.823C133.214 108.049 129.953 102.277 126.69 96.5056C126.51 96.1872 126.353 95.8554 126.692 95.5958C127.075 95.3015 127.388 95.6146 127.642 95.8607C129.402 97.5705 131.149 99.2963 132.901 101.014C136.253 104.297 139.602 107.58 142.959 110.855C143.179 111.069 143.35 111.348 143.743 111.473C144.131 109.959 144.514 108.461 144.896 106.962C145.522 104.517 146.145 102.068 146.771 99.6227C146.862 99.2669 146.921 98.8334 147.411 98.8923C147.876 98.9485 148.203 99.216 148.232 99.7539C148.376 102.422 148.483 105.092 148.697 107.752C148.919 110.526 148.74 113.344 149.575 116.057C149.802 116.801 149.455 117.17 148.657 117.063C147.047 116.849 145.437 116.605 143.832 116.346C143.27 116.255 143.085 116.3 143.184 116.98C143.655 120.22 144.059 123.474 144.476 126.722C144.516 127.043 144.655 127.447 144.251 127.632C143.896 127.792 143.559 127.667 143.248 127.407C138.885 123.72 134.255 120.378 129.664 116.985C129.394 116.785 128.942 116.603 129.156 116.142C129.381 115.653 129.833 115.872 130.189 115.955C132.816 116.557 135.437 117.175 138.061 117.788C138.246 117.831 138.433 117.858 138.754 117.916V117.914Z" fill="black"/>
</g>
<defs>
<clipPath id="clip0_12028_7408">
<rect width="180.811" height="147" fill="white" transform="translate(10.5 16)"/>
</clipPath>
</defs>
</svg>
