<svg width="14" height="16" viewBox="0 0 14 16" fill="none" xmlns="http://www.w3.org/2000/svg">
<path fill-rule="evenodd" clip-rule="evenodd" d="M12.8254 5.12201L12.4055 4.39332C12.0502 3.77674 11.2629 3.56404 10.6455 3.91782C10.3516 4.09096 10.0009 4.14008 9.67073 4.05435C9.34058 3.96863 9.05807 3.7551 8.88553 3.46085C8.77453 3.27382 8.71488 3.06079 8.71262 2.84332C8.72263 2.49464 8.59109 2.15677 8.34795 1.90665C8.10482 1.65653 7.7708 1.51548 7.42198 1.51563H6.57596C6.23423 1.51563 5.90658 1.6518 5.66552 1.89402C5.42446 2.13624 5.28985 2.46454 5.2915 2.80627C5.28137 3.51182 4.70649 4.07845 4.00086 4.07838C3.78338 4.07612 3.57035 4.01647 3.38333 3.90547C2.7659 3.55169 1.97862 3.76439 1.62336 4.38097L1.17256 5.12201C0.81774 5.73782 1.02755 6.5246 1.64189 6.88197C2.04122 7.11252 2.28722 7.5386 2.28722 7.9997C2.28722 8.46081 2.04122 8.88688 1.64189 9.11743C1.02833 9.47239 0.818291 10.2573 1.17256 10.8712L1.59866 11.6061C1.76511 11.9064 2.04439 12.1281 2.37469 12.2219C2.705 12.3158 3.05909 12.2742 3.35862 12.1063C3.65308 11.9345 4.00398 11.8874 4.33331 11.9755C4.66264 12.0637 4.94312 12.2797 5.11241 12.5756C5.22342 12.7626 5.28306 12.9757 5.28532 13.1931C5.28532 13.9059 5.86316 14.4838 6.57596 14.4838H7.42198C8.13238 14.4838 8.70922 13.9097 8.71262 13.1993C8.71097 12.8565 8.84641 12.5273 9.08882 12.2849C9.33122 12.0425 9.66046 11.907 10.0033 11.9087C10.2202 11.9145 10.4324 11.9739 10.6208 12.0816C11.2366 12.4364 12.0234 12.2266 12.3808 11.6123L12.8254 10.8712C12.9975 10.5758 13.0447 10.224 12.9566 9.89366C12.8685 9.56333 12.6524 9.28174 12.3561 9.11126C12.0597 8.94077 11.8436 8.65919 11.7555 8.32885C11.6674 7.99852 11.7146 7.6467 11.8867 7.35129C11.9986 7.1559 12.1607 6.99389 12.3561 6.88197C12.9667 6.5248 13.176 5.74261 12.8254 5.12818V5.12201Z" stroke="#C4C4C4" stroke-width="1.5" stroke-linecap="round" stroke-linejoin="round"/>
<path d="M7.00299 9.77552C7.98517 9.77552 8.78138 8.97931 8.78138 7.99713C8.78138 7.01496 7.98517 6.21875 7.00299 6.21875C6.02082 6.21875 5.22461 7.01496 5.22461 7.99713C5.22461 8.97931 6.02082 9.77552 7.00299 9.77552Z" stroke="#C4C4C4" stroke-width="1.5" stroke-linecap="round" stroke-linejoin="round"/>
</svg>
