<svg width="25" height="25" viewBox="0 0 25 25" fill="none" xmlns="http://www.w3.org/2000/svg">
<g id="discovery">
<path id="Vector" d="M6.66072 4.10374C10.6207 1.46374 15.8997 1.98474 19.2807 5.34374C21.1697 7.23474 22.2197 9.79374 22.2098 12.4637C22.1907 17.2237 18.8097 21.3137 14.1397 22.2347C9.45972 23.1547 4.78072 20.6437 2.96972 16.2347C1.14972 11.8337 2.69072 6.75374 6.66072 4.10374ZM15.7097 8.67374C15.5807 8.61374 15.4297 8.59374 15.2907 8.64374L10.3497 10.2037C10.1797 10.2537 10.0497 10.3937 10.0007 10.5637L8.42972 15.5037C8.39972 15.6037 8.39972 15.7137 8.42972 15.8137C8.46972 15.9537 8.57072 16.0737 8.70072 16.1437C8.83972 16.2237 8.99072 16.2347 9.12972 16.1937L14.0707 14.6337C14.2407 14.5837 14.3707 14.4537 14.4297 14.2837L15.9797 9.34374C16.0207 9.23474 16.0207 9.11374 15.9797 9.00374C15.9407 8.86374 15.8397 8.74374 15.7097 8.67374Z" fill="#D0BCFF"/>
</g>
</svg>
