<svg width="20" height="20" viewBox="0 0 20 20" fill="none" xmlns="http://www.w3.org/2000/svg">
<g id="Sign Out">
<path id="Vector" d="M14.1654 1.66602H5.83203C4.41536 1.66602 3.33203 2.74935 3.33203 4.16602V9.16602H10.4987L8.58203 7.24935C8.2487 6.91602 8.2487 6.41602 8.58203 6.08268C8.91537 5.74935 9.41536 5.74935 9.7487 6.08268L13.082 9.41602C13.4154 9.74935 13.4154 10.2493 13.082 10.5827L9.7487 13.916C9.41536 14.2493 8.91537 14.2493 8.58203 13.916C8.2487 13.5827 8.2487 13.0827 8.58203 12.7493L10.4987 10.8327H3.33203V15.8327C3.33203 17.2493 4.41536 18.3327 5.83203 18.3327H14.1654C15.582 18.3327 16.6654 17.2493 16.6654 15.8327V4.16602C16.6654 2.74935 15.582 1.66602 14.1654 1.66602Z" fill="white"/>
</g>
</svg>
