<svg width="20" height="20" viewBox="0 0 20 20" fill="none" xmlns="http://www.w3.org/2000/svg">
<g id="Sign Out">
<path id="Vector" d="M5.83463 1.66602H14.168C15.5846 1.66602 16.668 2.74935 16.668 4.16602V9.16602H9.5013L11.418 7.24935C11.7513 6.91602 11.7513 6.41602 11.418 6.08268C11.0846 5.74935 10.5846 5.74935 10.2513 6.08268L6.91797 9.41602C6.58463 9.74935 6.58463 10.2493 6.91797 10.5827L10.2513 13.916C10.5846 14.2493 11.0846 14.2493 11.418 13.916C11.7513 13.5827 11.7513 13.0827 11.418 12.7493L9.5013 10.8327H16.668V15.8327C16.668 17.2493 15.5846 18.3327 14.168 18.3327H5.83463C4.41797 18.3327 3.33463 17.2493 3.33463 15.8327V4.16602C3.33463 2.74935 4.41797 1.66602 5.83463 1.66602Z" fill="white"/>
</g>
</svg>
