<svg width="32" height="33" viewBox="0 0 32 33" fill="none" xmlns="http://www.w3.org/2000/svg">
<g id="Smiley">
<path id="Vector" d="M16 28.1885C22.6274 28.1885 28 22.8159 28 16.1885C28 9.56106 22.6274 4.18848 16 4.18848C9.37258 4.18848 4 9.56106 4 16.1885C4 22.8159 9.37258 28.1885 16 28.1885Z" stroke="#898989" stroke-width="2" stroke-linecap="round" stroke-linejoin="round"/>
<path id="Vector_2" d="M21.1973 19.1885C20.6701 20.1003 19.9124 20.8573 19.0001 21.3836C18.0879 21.91 17.0532 22.187 16 22.187C14.9468 22.187 13.9122 21.91 12.9999 21.3837C12.0876 20.8574 11.3299 20.1003 10.8027 19.1886" stroke="#898989" stroke-width="2" stroke-linecap="round" stroke-linejoin="round"/>
<path id="Vector_3" d="M12 13.6885C12 13.9646 11.7761 14.1885 11.5 14.1885C11.2239 14.1885 11 13.9646 11 13.6885C11 13.4123 11.2239 13.1885 11.5 13.1885C11.7761 13.1885 12 13.4123 12 13.6885Z" stroke="#898989" stroke-width="2"/>
<path id="Vector_4" d="M21 13.6885C21 13.9646 20.7761 14.1885 20.5 14.1885C20.2239 14.1885 20 13.9646 20 13.6885C20 13.4123 20.2239 13.1885 20.5 13.1885C20.7761 13.1885 21 13.4123 21 13.6885Z" stroke="#898989" stroke-width="2"/>
</g>
</svg>
