<svg width="20" height="20" viewBox="0 0 20 20" fill="none" xmlns="http://www.w3.org/2000/svg">
<g id="sort by time">
<path id="Vector" fill-rule="evenodd" clip-rule="evenodd" d="M8.95964 5.83301C8.95964 6.17818 8.6798 6.45801 8.33464 6.45801H1.66797C1.32279 6.45801 1.04297 6.17818 1.04297 5.83301C1.04297 5.48783 1.32279 5.20801 1.66797 5.20801H8.33464C8.6798 5.20801 8.95964 5.48783 8.95964 5.83301ZM7.29297 9.99967C7.29297 10.3448 7.01314 10.6247 6.66797 10.6247H1.66797C1.32279 10.6247 1.04297 10.3448 1.04297 9.99967C1.04297 9.65451 1.32279 9.37467 1.66797 9.37467H6.66797C7.01314 9.37467 7.29297 9.65451 7.29297 9.99967ZM8.95964 14.1663C8.95964 14.5115 8.6798 14.7913 8.33464 14.7913H1.66797C1.32279 14.7913 1.04297 14.5115 1.04297 14.1663C1.04297 13.8212 1.32279 13.5413 1.66797 13.5413H8.33464C8.6798 13.5413 8.95964 13.8212 8.95964 14.1663Z" fill="#CAC4D0"/>
<path id="Vector_2" fill-rule="evenodd" clip-rule="evenodd" d="M14.1667 6.45801C12.2107 6.45801 10.625 8.04367 10.625 9.99967C10.625 11.9557 12.2107 13.5413 14.1667 13.5413C16.1227 13.5413 17.7083 11.9557 17.7083 9.99967C17.7083 8.04367 16.1227 6.45801 14.1667 6.45801ZM9.375 9.99967C9.375 7.35331 11.5203 5.20801 14.1667 5.20801C16.813 5.20801 18.9583 7.35331 18.9583 9.99967C18.9583 12.646 16.813 14.7913 14.1667 14.7913C11.5203 14.7913 9.375 12.646 9.375 9.99967Z" fill="#CAC4D0"/>
<path id="Vector_3" fill-rule="evenodd" clip-rule="evenodd" d="M14.168 7.70801C14.5131 7.70801 14.793 7.98783 14.793 8.33301V9.63834L15.4736 10.4237C15.6996 10.6845 15.6715 11.0793 15.4106 11.3053C15.1498 11.5313 14.7551 11.5032 14.529 11.2423L13.6956 10.2808C13.5972 10.1672 13.543 10.0218 13.543 9.87151V8.33301C13.543 7.98783 13.8228 7.70801 14.168 7.70801Z" fill="#CAC4D0"/>
</g>
</svg>
