<svg width="20" height="20" viewBox="0 0 20 20" fill="none" xmlns="http://www.w3.org/2000/svg">
<g id="Stopwatch" clip-path="url(#clip0_10770_12720)">
<path id="Path 3740" d="M16.5423 5.76799C16.4374 5.87286 16.3038 5.94426 16.1583 5.97318C16.0128 6.0021 15.862 5.98724 15.725 5.93046C15.588 5.87369 15.4708 5.77756 15.3884 5.65423C15.306 5.5309 15.2621 5.3859 15.2621 5.23758C15.2621 5.08925 15.306 4.94425 15.3884 4.82092C15.4708 4.69759 15.588 4.60146 15.725 4.54469C15.862 4.48792 16.0128 4.47305 16.1583 4.50197C16.3038 4.53089 16.4374 4.60229 16.5423 4.70716C16.612 4.77681 16.6672 4.8595 16.7049 4.95051C16.7426 5.04152 16.7621 5.13906 16.7621 5.23758C16.7621 5.33609 16.7426 5.43364 16.7049 5.52465C16.6672 5.61566 16.612 5.69834 16.5423 5.76799ZM16.7515 11.2488C16.7515 12.5838 16.3556 13.8889 15.6139 14.9989C14.8722 16.109 13.818 16.9741 12.5846 17.485C11.3512 17.9959 9.99399 18.1296 8.68461 17.8691C7.37524 17.6087 6.1725 16.9658 5.2285 16.0218C4.28449 15.0778 3.64162 13.8751 3.38117 12.5657C3.12072 11.2563 3.25439 9.89911 3.76528 8.66571C4.27617 7.43231 5.14134 6.37811 6.25137 5.63641C7.3614 4.89471 8.66645 4.49883 10.0015 4.49883C11.7914 4.49927 13.5079 5.21062 14.7734 6.47644C16.0389 7.74227 16.7498 9.4589 16.7498 11.2488H16.7515ZM15.2515 11.2488C15.2515 10.2105 14.9436 9.19544 14.3667 8.33208C13.7898 7.46872 12.9699 6.79582 12.0106 6.39846C11.0512 6.0011 9.99564 5.89713 8.97724 6.0997C7.95884 6.30227 7.02339 6.80229 6.28916 7.53651C5.55494 8.27074 5.05492 9.2062 4.85234 10.2246C4.64977 11.243 4.75374 12.2986 5.1511 13.2579C5.54846 14.2172 6.22137 15.0372 7.08473 15.614C7.94809 16.1909 8.96312 16.4988 10.0015 16.4988C11.3936 16.4984 12.7285 15.9451 13.7127 14.9605C14.6969 13.976 15.2498 12.6409 15.2498 11.2488H15.2515ZM10.0015 7.24883C9.80256 7.24883 9.61179 7.32784 9.47114 7.46849C9.33049 7.60915 9.25146 7.79991 9.25146 7.99883V10.9988C9.25146 11.1977 9.33049 11.3885 9.47114 11.5292C9.61179 11.6698 9.80256 11.7488 10.0015 11.7488C10.2004 11.7488 10.3912 11.6698 10.5318 11.5292C10.6725 11.3885 10.7515 11.1977 10.7515 10.9988V7.99883C10.7515 7.90019 10.732 7.80253 10.6942 7.71143C10.6564 7.62032 10.601 7.53757 10.5312 7.46791C10.4614 7.39824 10.3785 7.34303 10.2873 7.30544C10.1961 7.26784 10.0984 7.24861 9.99981 7.24883H10.0015ZM12.9648 3.33883C12.9954 3.2452 13.0072 3.14647 12.9997 3.04827C12.9921 2.95007 12.9653 2.85433 12.9207 2.7665C12.8761 2.67867 12.8147 2.60048 12.7399 2.53639C12.6651 2.47231 12.5784 2.42358 12.4848 2.39299C10.871 1.869 9.13278 1.869 7.51897 2.39299C7.42535 2.42358 7.33867 2.47231 7.26388 2.53639C7.18909 2.60048 7.12765 2.67867 7.08308 2.7665C7.0385 2.85433 7.01167 2.95007 7.0041 3.04827C6.99653 3.14647 7.00838 3.2452 7.03897 3.33883C7.06955 3.43245 7.11829 3.51913 7.18237 3.59392C7.24646 3.66871 7.32465 3.73014 7.41248 3.77471C7.5003 3.81929 7.59605 3.84612 7.69425 3.85369C7.79245 3.86126 7.89119 3.84941 7.98481 3.81883C9.29611 3.39303 10.7085 3.39303 12.0198 3.81883C12.1134 3.84941 12.2122 3.86126 12.3104 3.85369C12.4086 3.84612 12.5043 3.81929 12.5921 3.77471C12.68 3.73014 12.7582 3.66871 12.8222 3.59392C12.8863 3.51913 12.9342 3.43245 12.9648 3.33883Z" fill="#E4E4E4"/>
</g>
<defs>
<clipPath id="clip0_10770_12720">
<rect width="20" height="20" fill="white"/>
</clipPath>
</defs>
</svg>
