<svg width="32" height="33" viewBox="0 0 32 33" fill="none" xmlns="http://www.w3.org/2000/svg">
<path id="Subtract" fill-rule="evenodd" clip-rule="evenodd" d="M0 16.1016C0 7.26456 7.164 0.101562 16 0.101562C24.836 0.101562 32 7.26556 32 16.1016C32 24.9376 24.836 32.1016 16 32.1016C7.164 32.1016 0 24.9386 0 16.1016ZM6.11329 15.3223V16.8737C6.17237 17.0629 6.20385 17.2597 6.20675 17.4578C6.46806 19.3302 7.25994 21.0887 8.48878 22.5254C9.71762 23.9621 11.3321 25.0169 13.1413 25.5653C13.7877 25.7565 14.4513 25.8832 15.1226 25.9438C15.1307 25.945 15.1408 25.9447 15.1515 25.9444C15.1837 25.9435 15.2208 25.9425 15.2208 25.9812H16.7067C16.9197 25.9292 17.1373 25.8979 17.3563 25.8877C19.3166 25.629 21.1501 24.7742 22.6086 23.4391C24.3177 21.9154 25.4374 19.8398 25.7722 17.5747C25.7778 17.5376 25.7837 17.5004 25.7897 17.4631C25.8181 17.2841 25.8469 17.103 25.8469 16.9251C25.8469 16.9018 25.8516 16.8737 25.8796 16.8737V15.355C25.8251 15.1537 25.7937 14.9467 25.7862 14.7382C25.5022 12.7137 24.5989 10.8266 23.2001 9.33574C21.8013 7.84489 19.9755 6.82331 17.9731 6.41111C17.5661 6.32851 17.1539 6.27386 16.7395 6.24756C16.733 6.24648 16.7257 6.24615 16.7184 6.24582C16.6942 6.24471 16.6694 6.24358 16.6694 6.21485H15.2208C15.0377 6.27198 14.8472 6.3019 14.6553 6.30364C12.6974 6.57473 10.8653 7.42532 9.39473 8.74604C7.92412 10.0668 6.88221 11.7972 6.40301 13.7149C6.28416 14.2052 6.19984 14.7033 6.15067 15.2055C6.14943 15.2167 6.15051 15.2303 6.15161 15.2441C6.15464 15.2821 6.15784 15.3223 6.11329 15.3223ZM7.12731 16.5373H8.91703H8.93105C9.12783 16.5373 9.32461 16.5378 9.52087 16.5383C9.91183 16.5394 10.3007 16.5404 10.6834 16.5373C10.7862 16.5373 10.8329 16.556 10.8329 16.6728C10.8635 18.049 11.0644 19.4161 11.431 20.7429C11.4393 20.7599 11.4438 20.7785 11.4441 20.7973C11.4445 20.8162 11.4408 20.835 11.4333 20.8523C11.4257 20.8696 11.4145 20.8851 11.4004 20.8977C11.3863 20.9102 11.3697 20.9196 11.3516 20.9251C10.6942 21.2673 10.0807 21.6878 9.5245 22.1775C9.44507 22.2663 9.40768 22.2522 9.34226 22.1775C8.17206 20.8999 7.39634 19.3111 7.10862 17.6027C7.10248 17.5642 7.09628 17.526 7.09011 17.488C7.04462 17.2077 7.00114 16.9397 7.00114 16.6681C6.99647 16.5606 7.0245 16.5373 7.12731 16.5373ZM21.3002 16.5373H23.0525H23.0666C23.6414 16.5373 24.2116 16.5419 24.7864 16.5465L24.8002 16.5466C24.9404 16.5466 24.9778 16.5606 24.9778 16.7242C24.8339 18.7473 24.0106 20.6625 22.6413 22.1588C22.5572 22.2476 22.5105 22.2429 22.417 22.1588C21.8743 21.6802 21.2766 21.2676 20.6367 20.9298C20.6157 20.9244 20.5961 20.9144 20.5795 20.9005C20.5629 20.8866 20.5496 20.8691 20.5406 20.8494C20.5317 20.8297 20.5273 20.8082 20.5277 20.7865C20.5281 20.7648 20.5334 20.7435 20.5432 20.7242C20.9041 19.4075 21.1034 18.0517 21.1367 16.6868C21.1413 16.5606 21.1787 16.5373 21.3002 16.5373ZM10.6647 15.6588H8.93105C8.7308 15.6588 8.53212 15.6583 8.33431 15.6577C7.94128 15.6567 7.55168 15.6557 7.16002 15.6588C7.0432 15.6588 7.01516 15.6354 7.01516 15.5139C7.14673 13.6059 7.88521 11.79 9.12264 10.3317C9.21142 10.2195 9.35161 10.0606 9.39834 10.0139C9.44507 9.96719 9.4731 9.96252 9.52918 10.0139C10.0989 10.5177 10.7263 10.9522 11.3983 11.3083C11.4647 11.3415 11.4612 11.3805 11.4568 11.43C11.4557 11.4432 11.4544 11.4571 11.4544 11.4719C11.2471 12.2015 11.091 12.9448 10.9871 13.6962C10.9077 14.2913 10.8609 14.8903 10.8469 15.4906C10.8423 15.6354 10.8002 15.6588 10.6647 15.6588ZM24.8376 15.6588H23.0666C22.95 15.6588 22.8328 15.6586 22.7155 15.6584C22.2448 15.6577 21.7705 15.6569 21.3142 15.6681C21.1787 15.6728 21.146 15.6261 21.146 15.5046C21.1132 14.151 20.917 12.8064 20.5619 11.4999C20.5528 11.482 20.5476 11.4624 20.5467 11.4423C20.5459 11.4223 20.5493 11.4023 20.5568 11.3836C20.5644 11.365 20.5758 11.3483 20.5904 11.3345C20.605 11.3207 20.6223 11.3101 20.6413 11.3036C21.2931 10.9613 21.9018 10.5424 22.4544 10.056C22.5432 9.97186 22.5806 9.96719 22.66 10.056C23.7742 11.2781 24.5265 12.786 24.8329 14.4111C24.9044 14.7737 24.9528 15.1405 24.9778 15.5092C24.9824 15.6307 24.9544 15.6588 24.8376 15.6588ZM16.5946 16.5373H18.361L20.132 16.5233C20.1408 16.5233 20.1494 16.523 20.1578 16.5228C20.2202 16.5209 20.2675 16.5194 20.2675 16.6307C20.235 17.8926 20.0595 19.1468 19.7441 20.3691L19.7428 20.3738C19.7204 20.4547 19.7094 20.4944 19.6039 20.4532C18.6406 20.0744 17.6233 19.8504 16.5899 19.7896C16.4731 19.7849 16.4357 19.7569 16.4357 19.6261V16.6962C16.4357 16.57 16.4638 16.5373 16.5946 16.5373ZM11.8796 16.5373H13.6507C14.2301 16.5373 14.8096 16.542 15.3843 16.556C15.5058 16.556 15.5525 16.5747 15.5525 16.7149V19.6494C15.5525 19.7616 15.5338 19.8083 15.4124 19.8083C14.3737 19.8641 13.3511 20.0882 12.3843 20.4719C12.2909 20.5092 12.2488 20.4859 12.2488 20.4018C12.0101 19.4829 11.8537 18.5446 11.7815 17.598C11.7717 17.4728 11.766 17.3467 11.7603 17.2201C11.7524 17.0445 11.7444 16.868 11.7254 16.6915C11.7161 16.5373 11.7581 16.5373 11.8796 16.5373ZM15.3937 15.6588H13.6226C13.4264 15.6588 13.2301 15.6583 13.0339 15.6577C12.6413 15.6567 12.2488 15.6557 11.8563 15.6588C11.7535 15.6588 11.7254 15.6401 11.7254 15.5326C11.7594 14.3188 11.9255 13.1123 12.2208 11.9345C12.246 11.8357 12.2589 11.7855 12.2898 11.7689C12.3218 11.7516 12.3732 11.7703 12.4778 11.8083C13.4116 12.1646 14.3955 12.3728 15.3937 12.4251C15.5105 12.4298 15.5525 12.4578 15.5525 12.5887V15.5046C15.5572 15.6354 15.5152 15.6588 15.3937 15.6588ZM20.1273 15.6588H18.3423C18.0502 15.6588 17.7581 15.6576 17.4661 15.6564C17.174 15.6553 16.882 15.6541 16.5899 15.6541C16.4824 15.6588 16.4357 15.6448 16.4357 15.5139V12.584C16.4357 12.4812 16.4591 12.4345 16.5712 12.4345C17.6143 12.3743 18.6411 12.1488 19.6133 11.7663C19.7094 11.7296 19.7203 11.7647 19.7427 11.8364L19.7441 11.841C19.925 12.5303 20.0577 13.2314 20.1413 13.9392C20.2067 14.4625 20.2628 14.9906 20.2628 15.5186C20.2628 15.6261 20.2395 15.6588 20.1273 15.6588ZM15.5385 7.42513V9.3971H15.5525C15.5525 9.56336 15.5522 9.72933 15.552 9.89493C15.5511 10.3902 15.5502 10.8823 15.5572 11.3691C15.5619 11.5326 15.5152 11.5326 15.3796 11.5326C14.4456 11.4658 13.5271 11.2579 12.6553 10.9158C12.5806 10.8877 12.5432 10.8691 12.5806 10.7709C12.8989 9.82319 13.3971 8.94578 14.0479 8.18682C14.3931 7.77833 14.8418 7.47008 15.3469 7.29429C15.5385 7.22887 15.5385 7.23354 15.5385 7.42513ZM16.4264 11.3691V9.3971H16.4404C16.4404 9.23106 16.4407 9.06532 16.441 8.89972C16.4419 8.40352 16.4427 7.90863 16.4357 7.41111C16.431 7.24756 16.4824 7.24289 16.6133 7.28495C17.2048 7.49643 17.7214 7.87657 18.0993 8.3784C18.6573 9.10354 19.0901 9.91695 19.3796 10.7849C19.417 10.8784 19.3796 10.9018 19.3096 10.9251C18.5606 11.2242 17.7747 11.4207 16.9731 11.5092C16.9282 11.5146 16.8874 11.5179 16.8461 11.5213C16.7798 11.5267 16.7118 11.5322 16.6226 11.5466C16.4778 11.57 16.4264 11.5326 16.4264 11.3691ZM15.5385 24.942V20.7709C15.5385 20.6821 15.5011 20.6728 15.4264 20.6775C14.4641 20.7301 13.517 20.9401 12.6226 21.299C12.5572 21.299 12.5292 21.3457 12.5572 21.4298C12.839 22.2295 13.2391 22.9824 13.7441 23.6635C14.0842 24.1397 14.5348 24.5261 15.0572 24.7896C15.2077 24.8678 15.3705 24.9193 15.5385 24.942ZM16.4824 24.9438C16.464 24.9482 16.4448 24.9482 16.4264 24.9438L16.4217 24.2663V20.8457C16.4217 20.7195 16.4404 20.6821 16.5853 20.6821C17.5212 20.7466 18.4416 20.9547 19.3142 21.299L19.3176 21.2999C19.3947 21.3226 19.4305 21.3331 19.3937 21.4345C19.0704 22.3806 18.5692 23.2561 17.917 24.0139C17.5665 24.4272 17.1114 24.7387 16.5993 24.9158L16.4824 24.9438ZM10.132 9.30364C11.1063 8.461 12.2554 7.84496 13.4965 7.4999C13.1046 7.92906 12.76 8.39904 12.4684 8.90177C12.1889 9.41638 11.9468 9.95047 11.7441 10.4999C11.1693 10.2012 10.6287 9.84086 10.132 9.42513C10.1298 9.42273 10.1277 9.42038 10.1257 9.41809C10.0917 9.3803 10.0703 9.3565 10.132 9.30364ZM18.5619 7.61828C18.5269 7.58001 18.4911 7.5408 18.4544 7.4999V7.45784C18.6825 7.52057 18.9046 7.60345 19.118 7.70551C20.1036 8.07228 21.0177 8.60837 21.8189 9.28962C21.903 9.35971 21.9124 9.39242 21.8189 9.47186C21.3673 9.84978 20.8825 10.186 20.3703 10.4765C20.2628 10.542 20.2348 10.5233 20.1927 10.4111C19.8694 9.49485 19.3956 8.63888 18.7909 7.8784C18.7191 7.79032 18.6428 7.70679 18.5619 7.61828ZM21.9077 22.9205C20.9213 23.7961 19.7483 24.4353 18.4778 24.7896V24.7289C19.2173 23.9157 19.7918 22.9667 20.1694 21.9345C20.2254 21.7896 20.2722 21.7663 20.4077 21.8457C20.9404 22.1559 21.4427 22.5158 21.9077 22.9205ZM13.42 24.6931C13.4012 24.6711 13.3824 24.6491 13.3636 24.6271C13.2711 24.5191 13.1787 24.4111 13.0946 24.299C12.5466 23.5803 12.1131 22.7811 11.8096 21.9298C11.7722 21.8317 11.7441 21.7896 11.6273 21.8597C11.1267 22.1286 10.6499 22.4397 10.2021 22.7896C10.118 22.8597 10.118 22.8924 10.2021 22.9625C10.5682 23.2668 10.9555 23.5447 11.361 23.7943C12.0003 24.192 12.6939 24.4947 13.42 24.6931Z" fill="white" fill-opacity="0.41"/>
</svg>
