<svg width="16" height="20" viewBox="0 0 16 20" fill="none" xmlns="http://www.w3.org/2000/svg">
<g id="Group">
<g id="Group_2">
<path id="Vector" d="M8.99609 19V3.41404L14.2891 8.70704C14.3816 8.80159 14.4919 8.87687 14.6137 8.92849C14.7354 8.98012 14.8662 9.00708 14.9985 9.00781C15.1308 9.00854 15.2619 8.98302 15.3842 8.93274C15.5065 8.88245 15.6177 8.8084 15.7112 8.71487C15.8047 8.62134 15.8787 8.51018 15.929 8.38784C15.9793 8.2655 16.0047 8.1344 16.004 8.00214C16.0032 7.86988 15.9763 7.73908 15.9246 7.61732C15.873 7.49556 15.7977 7.38525 15.7031 7.29279L8.70309 0.292786C8.51557 0.105315 8.26126 0 7.99609 0C7.73093 0 7.47662 0.105315 7.28909 0.292786L0.289095 7.29279C0.196056 7.38555 0.122272 7.49578 0.0719886 7.61716C0.0217047 7.73854 -0.00408762 7.86866 -0.00390529 8.00004C-0.00386307 8.19779 0.0548086 8.39108 0.164693 8.55549C0.274577 8.7199 0.43074 8.84804 0.61344 8.92371C0.79614 8.99938 0.997173 9.01919 1.19113 8.98062C1.38508 8.94205 1.56324 8.84685 1.70309 8.70704L6.99609 3.41404V19C6.99609 19.2653 7.10145 19.5196 7.28899 19.7071C7.47652 19.8947 7.73088 20 7.99609 20C8.26131 20 8.51567 19.8947 8.7032 19.7071C8.89074 19.5196 8.99609 19.2653 8.99609 19Z" fill="#c4c4c4"/>
</g>
</g>
</svg>
