<svg width="20" height="20" viewBox="0 0 20 20" fill="none" xmlns="http://www.w3.org/2000/svg">
<path id="Vector" d="M9.6875 0.0410156C4.34376 0.0410156 0 4.38477 0 9.72852C0 15.0723 4.34376 19.416 9.6875 19.416C15.0312 19.416 19.375 15.0723 19.375 9.72852C19.375 4.38477 15.0312 0.0410156 9.6875 0.0410156ZM10.625 14.5223C10.625 15.041 10.2063 15.4598 9.6875 15.4598C9.16874 15.4598 8.75 15.041 8.75 14.5223V8.54725C8.75 8.02849 9.16874 7.60975 9.6875 7.60975C10.2063 7.60975 10.625 8.02849 10.625 8.54725V14.5223ZM10.625 5.78477C10.625 6.30349 10.2063 6.72227 9.6875 6.72227C9.16874 6.72227 8.75 6.30349 8.75 5.78477V4.93474C8.75 4.41602 9.16874 3.99724 9.6875 3.99724C10.2063 3.99724 10.625 4.41602 10.625 4.93474V5.78477Z" fill="#A3A3A3"/>
</svg>
