<svg width="20" height="20" viewBox="0 0 20 20" fill="none" xmlns="http://www.w3.org/2000/svg">
<g id="Xls">
<path id="Vector" d="M11.875 4.21875V6.40625C11.875 6.66514 12.0849 6.875 12.3438 6.875H14.5312" stroke="#CAC4D0"/>
<path id="Vector_2" d="M7.3 10.2496L6.5875 11.3152L7.33437 12.4309C7.34687 12.4517 7.34895 12.4684 7.34062 12.4809C7.33437 12.4934 7.3198 12.4996 7.29688 12.4996H6.7625C6.725 12.4996 6.6927 12.4767 6.66562 12.4309L6.25 11.8121L5.83437 12.4309C5.81562 12.46 5.8 12.4788 5.7875 12.4871C5.775 12.4955 5.7573 12.4996 5.73438 12.4996H5.20625C5.18333 12.4996 5.1677 12.4944 5.15937 12.484C5.15312 12.4715 5.15625 12.4538 5.16875 12.4309L5.91562 11.3152L5.20937 10.2496C5.19687 10.2309 5.1927 10.2152 5.19687 10.2027C5.20105 10.1882 5.21458 10.1809 5.2375 10.1809H5.77812C5.80105 10.1809 5.81875 10.1861 5.83125 10.1965C5.84375 10.2069 5.85833 10.2246 5.875 10.2496L6.25312 10.8121L6.62812 10.2496C6.6427 10.2267 6.6573 10.21 6.67188 10.1996C6.68645 10.1871 6.7052 10.1809 6.72813 10.1809H7.2625C7.28542 10.1809 7.3 10.1882 7.30625 10.2027C7.3125 10.2173 7.31042 10.233 7.3 10.2496ZM7.64239 12.4309V10.2496C7.64239 10.2267 7.64864 10.21 7.66113 10.1996C7.67572 10.1871 7.69134 10.1809 7.70802 10.1809H8.17677C8.22052 10.1809 8.24239 10.2038 8.24239 10.2496V11.9465H9.11114C9.15489 11.9465 9.17677 11.9694 9.17677 12.0152V12.4309C9.17677 12.4767 9.15489 12.4996 9.11114 12.4996H7.70802C7.66427 12.4996 7.64239 12.4767 7.64239 12.4309ZM9.81289 11.7527C9.83164 11.7673 9.85456 11.7871 9.88164 11.8121C9.90872 11.835 9.93997 11.859 9.97539 11.884C10.0275 11.9194 10.0796 11.9475 10.1316 11.9684C10.1858 11.9871 10.241 11.9965 10.2973 11.9965C10.4056 11.9965 10.4785 11.9746 10.516 11.9309C10.5556 11.8871 10.5754 11.8361 10.5754 11.7777C10.5754 11.7444 10.5629 11.7152 10.5379 11.6902C10.5129 11.6652 10.4827 11.6434 10.4473 11.6246C10.4139 11.6038 10.3775 11.5871 10.3379 11.5746C10.3004 11.56 10.2671 11.5475 10.2379 11.5371C9.98581 11.4496 9.79727 11.3465 9.67227 11.2277C9.54934 11.109 9.48789 10.958 9.48789 10.7746C9.48789 10.6767 9.50769 10.5882 9.54727 10.509C9.58684 10.4298 9.64206 10.3621 9.71289 10.3059C9.78581 10.2496 9.87331 10.2069 9.97539 10.1777C10.0775 10.1465 10.191 10.1309 10.316 10.1309C10.4098 10.1309 10.5004 10.1413 10.5879 10.1621C10.6775 10.183 10.7639 10.2173 10.8473 10.2652C10.9181 10.3069 10.9796 10.3496 11.0316 10.3934C11.0837 10.4371 11.1098 10.4736 11.1098 10.5027C11.1098 10.5215 11.0962 10.5465 11.0691 10.5777L10.8285 10.834C10.8118 10.8507 10.7941 10.859 10.7754 10.859C10.7608 10.859 10.7473 10.8548 10.7348 10.8465C10.7243 10.8382 10.7118 10.8277 10.6973 10.8152L10.6816 10.8027C10.64 10.7673 10.5889 10.733 10.5285 10.6996C10.4702 10.6642 10.4077 10.6465 10.341 10.6465C10.2723 10.6465 10.2129 10.658 10.1629 10.6809C10.1129 10.7038 10.0879 10.7455 10.0879 10.8059C10.0879 10.8642 10.1171 10.909 10.1754 10.9402C10.2337 10.9715 10.3202 11.0059 10.4348 11.0434C10.5452 11.0809 10.6473 11.1194 10.741 11.159C10.8348 11.1986 10.915 11.2465 10.9816 11.3027C11.0504 11.3569 11.1035 11.4225 11.141 11.4996C11.1785 11.5746 11.1973 11.6663 11.1973 11.7746C11.1973 11.8892 11.1733 11.9934 11.1254 12.0871C11.0796 12.1788 11.016 12.258 10.9348 12.3246C10.8535 12.3892 10.7577 12.4402 10.6473 12.4777C10.5368 12.5132 10.4181 12.5309 10.291 12.5309C10.2098 12.5309 10.1296 12.5205 10.0504 12.4996C9.97122 12.4788 9.89414 12.4507 9.81914 12.4152C9.74622 12.3798 9.67747 12.3382 9.61289 12.2902C9.54831 12.2423 9.49102 12.1902 9.44102 12.134L9.43477 12.1309C9.43269 12.1267 9.43059 12.1246 9.42852 12.1246C9.42644 12.1225 9.42434 12.1205 9.42227 12.1184C9.39934 12.0934 9.38789 12.0725 9.38789 12.0559C9.38789 12.0392 9.39934 12.0194 9.42227 11.9965L9.69414 11.7371C9.71497 11.7225 9.73269 11.7152 9.74727 11.7152C9.76394 11.7152 9.78581 11.7277 9.81289 11.7527Z" fill="#CAC4D0"/>
<path id="Vector_3" d="M7.3 10.2496L6.5875 11.3152L7.33437 12.4309C7.34687 12.4517 7.34895 12.4684 7.34062 12.4809C7.33437 12.4934 7.3198 12.4996 7.29687 12.4996H6.7625C6.725 12.4996 6.6927 12.4767 6.66562 12.4309L6.25 11.8121L5.83437 12.4309C5.81562 12.46 5.8 12.4788 5.7875 12.4871C5.775 12.4955 5.7573 12.4996 5.73438 12.4996H5.20625C5.18333 12.4996 5.1677 12.4944 5.15937 12.484C5.15312 12.4715 5.15625 12.4538 5.16875 12.4309L5.91562 11.3152L5.20937 10.2496C5.19687 10.2309 5.1927 10.2152 5.19687 10.2027C5.20105 10.1882 5.21458 10.1809 5.2375 10.1809H5.77812C5.80105 10.1809 5.81875 10.1861 5.83125 10.1965C5.84375 10.2069 5.85833 10.2246 5.875 10.2496L6.25312 10.8121L6.62812 10.2496C6.6427 10.2267 6.6573 10.21 6.67187 10.1996C6.68645 10.1871 6.7052 10.1809 6.72813 10.1809H7.2625C7.28542 10.1809 7.3 10.1882 7.30625 10.2027C7.3125 10.2173 7.31042 10.233 7.3 10.2496ZM7.64239 12.4309V10.2496C7.64239 10.2267 7.64864 10.21 7.66113 10.1996C7.67572 10.1871 7.69134 10.1809 7.70802 10.1809H8.17677C8.22052 10.1809 8.24239 10.2038 8.24239 10.2496V11.9465H9.11114C9.15489 11.9465 9.17677 11.9694 9.17677 12.0152V12.4309C9.17677 12.4767 9.15489 12.4996 9.11114 12.4996H7.70802C7.66427 12.4996 7.64239 12.4767 7.64239 12.4309ZM9.81289 11.7527C9.83164 11.7673 9.85456 11.7871 9.88164 11.8121C9.90872 11.835 9.93997 11.859 9.97539 11.884C10.0275 11.9194 10.0796 11.9475 10.1316 11.9684C10.1858 11.9871 10.241 11.9965 10.2973 11.9965C10.4056 11.9965 10.4785 11.9746 10.516 11.9309C10.5556 11.8871 10.5754 11.8361 10.5754 11.7777C10.5754 11.7444 10.5629 11.7152 10.5379 11.6902C10.5129 11.6652 10.4827 11.6434 10.4473 11.6246C10.4139 11.6038 10.3775 11.5871 10.3379 11.5746C10.3004 11.56 10.2671 11.5475 10.2379 11.5371C9.98581 11.4496 9.79727 11.3465 9.67227 11.2277C9.54934 11.109 9.48789 10.958 9.48789 10.7746C9.48789 10.6767 9.50769 10.5882 9.54727 10.509C9.58684 10.4298 9.64206 10.3621 9.71289 10.3059C9.78581 10.2496 9.87331 10.2069 9.97539 10.1777C10.0775 10.1465 10.191 10.1309 10.316 10.1309C10.4098 10.1309 10.5004 10.1413 10.5879 10.1621C10.6775 10.183 10.7639 10.2173 10.8473 10.2652C10.9181 10.3069 10.9796 10.3496 11.0316 10.3934C11.0837 10.4371 11.1098 10.4736 11.1098 10.5027C11.1098 10.5215 11.0962 10.5465 11.0691 10.5777L10.8285 10.834C10.8118 10.8507 10.7941 10.859 10.7754 10.859C10.7608 10.859 10.7473 10.8548 10.7348 10.8465C10.7243 10.8382 10.7118 10.8277 10.6973 10.8152L10.6816 10.8027C10.64 10.7673 10.5889 10.733 10.5285 10.6996C10.4702 10.6642 10.4077 10.6465 10.341 10.6465C10.2723 10.6465 10.2129 10.658 10.1629 10.6809C10.1129 10.7038 10.0879 10.7455 10.0879 10.8059C10.0879 10.8642 10.1171 10.909 10.1754 10.9402C10.2337 10.9715 10.3202 11.0059 10.4348 11.0434C10.5452 11.0809 10.6473 11.1194 10.741 11.159C10.8348 11.1986 10.915 11.2465 10.9816 11.3027C11.0504 11.3569 11.1035 11.4225 11.141 11.4996C11.1785 11.5746 11.1973 11.6663 11.1973 11.7746C11.1973 11.8892 11.1733 11.9934 11.1254 12.0871C11.0796 12.1788 11.016 12.258 10.9348 12.3246C10.8535 12.3892 10.7577 12.4402 10.6473 12.4777C10.5368 12.5132 10.4181 12.5309 10.291 12.5309C10.2098 12.5309 10.1296 12.5205 10.0504 12.4996C9.97122 12.4788 9.89414 12.4507 9.81914 12.4152C9.74622 12.3798 9.67747 12.3382 9.61289 12.2902C9.54831 12.2423 9.49102 12.1902 9.44102 12.134L9.43477 12.1309C9.43269 12.1267 9.43059 12.1246 9.42852 12.1246C9.42644 12.1225 9.42434 12.1205 9.42227 12.1184C9.39934 12.0934 9.38789 12.0725 9.38789 12.0559C9.38789 12.0392 9.39934 12.0194 9.42227 11.9965L9.69414 11.7371C9.71497 11.7225 9.73269 11.7152 9.74727 11.7152C9.76394 11.7152 9.78581 11.7277 9.81289 11.7527Z" stroke="#CAC4D0" stroke-width="0.2"/>
<path id="Vector_4" d="M5.46875 8.51562V5.46875C5.46875 4.69209 6.09834 4.0625 6.875 4.0625H11.5748C11.8611 4.0625 12.136 4.17475 12.3404 4.37517L13.758 5.76467L14.2382 6.28073C14.4265 6.48314 14.5312 6.74936 14.5312 7.02584V14.5312C14.5312 15.3079 13.9017 15.9375 13.125 15.9375H6.875C6.09834 15.9375 5.46875 15.3079 5.46875 14.5312V14.0625" stroke="#CAC4D0" stroke-linecap="round"/>
</g>
</svg>
