<svg width="17" height="17" viewBox="0 0 17 17" fill="none" xmlns="http://www.w3.org/2000/svg">
<g clip-path="url(#clip0_10062_11787)">
<mask id="mask0_10062_11787" style="mask-type:luminance" maskUnits="userSpaceOnUse" x="0" y="0" width="17" height="18">
<path d="M16.3911 7.49778H8.89295V10.6068H13.2089C12.8066 12.5819 11.1241 13.7157 8.89295 13.7157C6.25947 13.7157 4.13805 11.5943 4.13805 8.96082C4.13805 6.32734 6.25947 4.20592 8.89295 4.20592C10.0268 4.20592 11.0509 4.60826 11.8556 5.26663L14.1965 2.92575C12.77 1.68216 10.9412 0.914062 8.89295 0.914062C4.43066 0.914062 0.846191 4.49853 0.846191 8.96082C0.846191 13.4231 4.43066 17.0076 8.89295 17.0076C12.9163 17.0076 16.574 14.0815 16.574 8.96082C16.574 8.48533 16.5008 7.97327 16.3911 7.49778Z" fill="white"/>
</mask>
<g mask="url(#mask0_10062_11787)">
<path d="M0.113281 13.7149V4.20508L6.33123 8.95998L0.113281 13.7149Z" fill="#FBBC05"/>
</g>
<mask id="mask1_10062_11787" style="mask-type:luminance" maskUnits="userSpaceOnUse" x="0" y="0" width="17" height="18">
<path d="M16.3911 7.49778H8.89295V10.6068H13.2089C12.8066 12.5819 11.1241 13.7157 8.89295 13.7157C6.25947 13.7157 4.13805 11.5943 4.13805 8.96082C4.13805 6.32734 6.25947 4.20592 8.89295 4.20592C10.0268 4.20592 11.0509 4.60826 11.8556 5.26663L14.1965 2.92575C12.77 1.68216 10.9412 0.914062 8.89295 0.914062C4.43066 0.914062 0.846191 4.49853 0.846191 8.96082C0.846191 13.4231 4.43066 17.0076 8.89295 17.0076C12.9163 17.0076 16.574 14.0815 16.574 8.96082C16.574 8.48533 16.5008 7.97327 16.3911 7.49778Z" fill="white"/>
</mask>
<g mask="url(#mask1_10062_11787)">
<path d="M0.113281 4.20502L6.33123 8.95993L8.89157 6.72878L17.6699 5.30231V0.181641H0.113281V4.20502Z" fill="#EA4335"/>
</g>
<mask id="mask2_10062_11787" style="mask-type:luminance" maskUnits="userSpaceOnUse" x="0" y="0" width="17" height="18">
<path d="M16.3911 7.49778H8.89295V10.6068H13.2089C12.8066 12.5819 11.1241 13.7157 8.89295 13.7157C6.25947 13.7157 4.13805 11.5943 4.13805 8.96082C4.13805 6.32734 6.25947 4.20592 8.89295 4.20592C10.0268 4.20592 11.0509 4.60826 11.8556 5.26663L14.1965 2.92575C12.77 1.68216 10.9412 0.914062 8.89295 0.914062C4.43066 0.914062 0.846191 4.49853 0.846191 8.96082C0.846191 13.4231 4.43066 17.0076 8.89295 17.0076C12.9163 17.0076 16.574 14.0815 16.574 8.96082C16.574 8.48533 16.5008 7.97327 16.3911 7.49778Z" fill="white"/>
</mask>
<g mask="url(#mask2_10062_11787)">
<path d="M0.113281 13.7148L11.0861 5.30231L13.9757 5.66807L17.6699 0.181641V17.7382H0.113281V13.7148Z" fill="#34A853"/>
</g>
<mask id="mask3_10062_11787" style="mask-type:luminance" maskUnits="userSpaceOnUse" x="0" y="0" width="17" height="18">
<path d="M16.3911 7.49778H8.89295V10.6068H13.2089C12.8066 12.5819 11.1241 13.7157 8.89295 13.7157C6.25947 13.7157 4.13805 11.5943 4.13805 8.96082C4.13805 6.32734 6.25947 4.20592 8.89295 4.20592C10.0268 4.20592 11.0509 4.60826 11.8556 5.26663L14.1965 2.92575C12.77 1.68216 10.9412 0.914062 8.89295 0.914062C4.43066 0.914062 0.846191 4.49853 0.846191 8.96082C0.846191 13.4231 4.43066 17.0076 8.89295 17.0076C12.9163 17.0076 16.574 14.0815 16.574 8.96082C16.574 8.48533 16.5008 7.97327 16.3911 7.49778Z" fill="white"/>
</mask>
<g mask="url(#mask3_10062_11787)">
<path d="M17.6693 17.7383L6.33072 8.95998L4.86768 7.8627L17.6693 4.20508V17.7383Z" fill="#4285F4"/>
</g>
</g>
<defs>
<clipPath id="clip0_10062_11787">
<rect width="16.0935" height="16.0935" fill="white" transform="translate(0.588867 0.912109)"/>
</clipPath>
</defs>
</svg>
