<svg width="387" height="322" viewBox="0 0 387 322" fill="none" xmlns="http://www.w3.org/2000/svg">
<g clip-path="url(#clip0_10062_11902)">
<path d="M386.981 1.58793C383.844 5.59393 380.575 9.47247 376.905 13.0141C368.187 21.4313 358.339 28.2825 347.695 34.0138C346.73 34.5327 346.425 34.9698 346.639 36.1534C348.701 47.3702 350.668 58.6052 352.662 69.8356C354.961 82.8142 357.26 95.7927 359.555 108.776C361.085 117.402 362.56 126.038 364.185 134.646C364.522 136.431 363.766 137.027 362.332 137.296C359.491 137.828 356.637 138.311 353.787 138.807C340.233 141.179 326.68 143.551 313.126 145.918C296.8 148.772 280.479 151.626 264.148 154.449C263.033 154.64 261.94 155.305 260.702 154.481C260.06 154.053 259.768 153.62 259.654 152.951C256.918 137.077 254.182 121.204 251.446 105.325C249.019 91.2404 246.574 77.1603 244.198 63.0664C243.998 61.8646 243.397 61.291 242.395 60.8449C241.421 60.4079 240.451 59.4382 239.545 59.5065C238.589 59.5794 238.161 60.9997 237.487 61.81C231.591 68.8888 224.389 74.4016 216.554 79.1132C199.895 89.1327 181.93 95.597 162.718 98.5605C157.441 99.3754 152.119 99.7578 146.774 99.6348C146.059 99.6166 145.782 99.7168 146.018 100.491C146.455 101.925 146.565 103.413 146.66 104.897C146.688 105.312 146.642 105.671 147.225 105.817C155.256 107.87 162.563 111.662 169.815 115.509C178.293 120.006 186.506 124.955 194.095 130.868C199.335 134.951 204.066 139.586 208.236 144.743C209.397 146.177 209.82 148.144 210.271 149.983C211.359 154.444 211.432 158.987 211.373 163.535C211.254 172.835 210.271 182.108 210.567 191.418C210.908 202.193 211.874 212.877 216.203 222.942C218.338 227.909 220.587 232.83 222.805 237.76C223.574 239.467 223.397 241.311 223.601 243.091C224.557 251.339 225.422 259.597 226.319 267.855C226.342 268.06 226.347 268.269 226.369 268.474C226.442 269.061 226.365 269.63 225.682 269.722C224.926 269.822 224.721 269.248 224.649 268.62C224.621 268.388 224.694 268.119 224.339 267.864C222.745 269.02 221.116 270.195 219.495 271.388C213.695 275.644 207.904 279.909 202.103 284.161C201.594 284.535 201.011 285.181 200.396 284.439C199.822 283.747 200.305 283.151 200.842 282.618C208.213 275.307 215.575 267.983 222.964 260.69C223.529 260.134 223.715 259.615 223.629 258.851C222.932 252.528 222.281 246.2 221.575 239.881C221.398 238.302 220.496 236.95 219.918 235.498C219.285 233.904 218.552 232.352 217.587 230.795C216.959 233.171 216.322 235.543 215.707 237.924C213.708 245.681 211.719 253.438 209.734 261.2C209.447 262.315 208.614 262.015 207.935 261.846C205.655 261.272 203.387 260.631 201.12 260.016C199.445 259.561 197.769 259.124 196.098 258.655C194.509 258.209 194.223 257.676 194.428 256.037C195.402 248.335 196.353 240.632 197.314 232.925C198.188 225.92 199.067 218.914 199.936 211.903C200.228 209.577 200.505 207.251 200.792 204.911C200.232 204.874 199.959 205.239 199.631 205.457C196.317 207.715 193.007 209.977 189.715 212.263C188.746 212.936 187.74 213.187 186.57 213C184.817 212.718 183.05 212.513 181.284 212.295C179.672 212.094 179.149 211.225 179.795 209.736C183.952 200.204 188.117 190.671 192.279 181.139C197.182 169.904 202.085 158.664 207.002 147.434C207.239 146.892 207.275 146.514 206.888 145.991C204.416 142.654 201.471 139.754 198.461 136.918C191.181 130.062 182.741 124.854 174.127 119.902C166.533 115.531 158.725 111.589 150.539 108.43C150.425 108.384 150.307 108.339 150.189 108.307C145.472 106.891 146.501 106.34 142.249 109.613C136.744 113.852 133.512 119.455 133.53 126.621C133.535 128.747 134.054 130.554 135.793 132.093C138.802 134.751 141.807 137.401 145.035 139.786C145.194 139.904 145.34 140.077 145.7 139.982C145.258 137.241 144.821 134.487 144.37 131.738C144.024 129.616 143.669 127.499 143.296 125.383C143.118 124.376 143.583 123.871 144.521 123.776C145.549 123.671 146.583 123.657 147.612 123.589C148.399 123.539 148.923 123.985 149.428 124.49C151.013 126.065 152.629 127.609 154.181 129.216C154.705 129.757 155.015 129.876 155.652 129.302C158.821 126.457 162.067 123.698 165.245 120.858C166.091 120.097 166.797 120.07 167.63 120.794C168.909 121.905 170.18 123.029 171.514 124.076C172.306 124.7 172.397 125.305 172.005 126.216C169.547 131.942 167.166 137.701 164.675 143.419C164.216 144.47 164.366 145.012 165.313 145.608C166.642 146.441 167.89 147.406 169.146 148.349C170.389 149.277 170.467 149.719 169.747 151.057C169.51 151.494 169.269 151.927 169.028 152.359C168.085 154.062 168.076 154.076 169.793 154.863C171.291 155.55 172.788 156.666 174.364 156.648C176.003 156.625 176.658 154.64 177.805 153.593C181.293 150.411 185.163 147.857 189.456 145.922C189.793 145.772 190.139 145.622 190.499 145.545C190.936 145.449 191.341 145.563 191.514 146.032C191.687 146.496 191.468 146.86 191.068 147.065C190.262 147.484 189.424 147.843 188.618 148.253C178.803 153.215 172.11 160.74 169.41 171.57C169.187 172.467 169.315 173.118 169.92 173.823C172.506 176.837 174.896 180.005 177.154 183.274C178.056 184.576 177.979 184.867 176.617 185.709C174.578 186.966 172.547 188.245 170.48 189.456C169.825 189.843 169.683 190.23 169.888 190.958C170.576 193.384 171.35 195.774 172.333 198.101C172.383 198.214 172.433 198.328 172.483 198.442C172.747 199.038 172.989 199.694 172.219 200.044C171.423 200.409 171.131 199.758 170.881 199.161C169.92 196.876 169.028 194.563 168.459 192.151C168.222 191.149 167.967 190.99 167.047 191.564C157.842 197.263 148.609 202.917 139.385 208.584C136.954 210.078 134.527 211.575 132.096 213.059C130.184 214.229 129.815 214.102 129.082 212.053C128.723 211.043 128.322 210.041 128.04 209.008C127.803 208.138 127.316 207.933 126.496 208.075C124.839 208.357 123.491 209.194 122.285 210.301C119.444 212.9 117.7 216.228 116.162 219.674C115.251 221.709 114.554 223.83 113.831 225.938C113.494 226.921 113.781 227.19 114.709 227.394C121.042 228.797 127.361 230.253 133.685 231.678C135.752 232.142 135.816 232.183 135.761 234.287C135.693 236.85 135.584 239.408 135.533 241.971C135.515 242.767 135.183 243.159 134.423 243.355C132.069 243.969 129.729 244.652 127.375 245.267C126.788 245.421 126.328 245.685 125.936 246.15C123.032 249.596 120.136 253.051 117.186 256.461C116.612 257.125 116.576 257.49 117.204 258.159C120.409 261.559 123.519 265.051 126.728 268.447C127.63 269.403 127.917 270.336 127.553 271.583C127.015 273.404 126.574 275.248 126.082 277.083C125.713 278.466 125.404 278.662 123.947 278.321C119.886 277.36 115.829 276.395 111.782 275.38C110.767 275.125 110.507 275.312 110.707 276.377C111.34 279.709 112.023 283.023 113.025 286.264C113.134 286.62 113.239 286.984 113.266 287.348C113.293 287.739 113.157 288.094 112.72 288.208C112.301 288.318 111.969 288.135 111.782 287.78C111.591 287.421 111.45 287.025 111.331 286.629C109.738 281.521 108.836 276.277 108.249 270.969C107.552 264.664 107.63 258.341 107.762 252.018C107.762 251.977 107.766 251.936 107.762 251.895C107.653 250.893 108.317 249.86 107.68 248.881C106.442 246.983 104.966 245.344 102.754 244.538C98.9432 243.159 95.2873 243.846 91.8682 245.667C85.367 249.127 81.3196 254.526 79.7671 261.75C79.5668 262.675 79.6624 263.526 80.1632 264.363C80.755 265.356 81.2467 266.403 81.7931 267.423C81.8477 267.527 81.9524 267.609 82.1072 267.782C83.4821 264.596 84.8388 261.464 86.191 258.336C86.7191 257.113 87.6297 256.544 88.9226 256.629C89.7467 256.684 90.5753 256.697 91.3993 256.77C92.3554 256.857 92.7378 257.203 92.4692 258.318C91.6543 261.691 91.0123 265.101 90.252 268.488C90.0881 269.207 90.507 269.239 90.9486 269.339C92.319 269.653 93.6848 269.99 95.0597 270.259C96.0659 270.454 96.5485 270.932 96.5257 272.02C96.4938 273.919 96.5484 275.826 96.6304 277.724C96.6668 278.567 96.1706 278.776 95.5286 278.944C93.7804 279.4 92.0321 279.864 90.1655 280.36C91.7772 282.645 93.5072 284.694 95.301 286.688C100.277 292.219 105.709 297.213 112.356 300.718C115.042 302.134 117.855 303.204 120.892 303.536C126.478 304.146 130.484 301.46 133.712 297.249C137.687 292.064 140.173 286.128 142.235 280.001C145.645 269.867 147.703 259.424 149.192 248.858C149.802 244.525 150.343 240.182 150.712 235.816C150.74 235.488 150.817 235.165 150.903 234.847C151.013 234.437 151.3 234.209 151.727 234.246C152.142 234.287 152.415 234.546 152.447 234.969C152.474 235.338 152.46 235.711 152.424 236.08C150.849 251.94 148.459 267.641 143.114 282.75C142.973 283.151 142.923 283.492 143.1 283.929C144.525 287.421 145.39 291.072 146.123 294.759C146.241 295.342 146.342 296.015 145.559 296.166C144.698 296.334 144.58 295.633 144.466 294.996C143.915 291.882 143.164 288.823 142.117 285.65C141.019 287.931 140.063 290.066 138.984 292.141C137.182 295.606 135.046 298.838 132.128 301.492C127.962 305.279 123.132 306.135 117.81 304.724C111.582 303.072 106.428 299.516 101.625 295.396C95.4604 290.111 90.2702 283.966 85.7539 277.237C85.1848 276.386 84.8297 276.29 83.9738 276.837C71.0168 285.113 58.0369 293.352 45.0662 301.601C43.6685 302.489 43.195 302.366 42.1752 300.827C31.5401 284.767 20.9094 268.706 10.2743 252.65C10.0922 252.373 9.92827 252.081 9.70973 251.836C8.59432 250.566 8.60342 250.488 9.95558 249.4C17.6952 243.186 25.4212 236.959 33.1836 230.777C34.0167 230.112 34.0532 229.671 33.4886 228.787C22.5803 211.776 11.7129 194.741 0.831918 177.711C-0.392765 175.794 -0.319922 175.421 1.50117 174.074C2.81691 173.095 4.10533 172.075 5.43472 171.119C5.92642 170.764 5.57131 170.578 5.36643 170.373C4.33752 169.353 3.31315 168.329 2.25237 167.345C1.46019 166.608 1.20524 165.816 1.37825 164.696C3.01723 154.085 4.59702 143.46 6.19958 132.839C6.6503 129.857 7.17387 126.885 7.54264 123.894C7.69743 122.624 8.28473 122.296 9.43202 122.437C13.3701 122.911 17.3082 123.366 21.2509 123.817C27.3652 124.518 33.4795 125.21 39.5938 125.906C42.7125 126.261 45.8356 126.593 48.9451 127.008C49.6463 127.099 49.9786 126.989 50.2472 126.307C51.3444 123.543 52.5008 120.807 53.6344 118.058C53.73 117.83 53.8666 117.584 53.8575 117.357C53.7892 116.182 54.5177 116.1 55.3963 116.182C58.688 116.496 61.975 116.811 65.2667 117.12C65.5125 117.143 65.7584 117.175 66.0088 117.188C67.9118 117.27 67.9209 117.27 68.1713 119.123C68.3944 120.762 68.5947 122.401 68.8087 124.053C69.3095 124.172 69.5599 123.771 69.8604 123.548C80.4637 115.704 91.0488 107.838 101.675 100.026C102.563 99.3708 103.082 98.5878 103.528 97.65C107.243 89.8156 111.008 82.0039 114.664 74.1421C115.269 72.8356 116.157 72.3849 117.427 72.2939C119.28 72.1619 121.042 72.5898 122.758 73.2316C126.46 74.611 129.642 76.7824 132.451 79.5411C133.334 80.4106 133.535 81.3165 132.947 82.4409C132.41 83.4652 131.987 84.544 131.477 85.582C131.217 86.1146 131.117 86.3786 131.9 86.5607C137.905 87.9355 142.144 91.5227 144.775 97.04C145.121 97.7684 145.577 97.9141 146.31 97.9277C158.252 98.1781 169.843 96.0568 181.234 92.6972C195.748 88.4135 209.42 82.2861 221.862 73.5913C227.549 69.6171 232.775 65.1331 237.059 59.6249C237.729 58.7645 237.947 58.2865 236.727 57.7903C235.174 57.1576 233.859 55.9922 232.11 55.7782C231.814 55.7418 231.491 55.5051 231.282 55.2729C228.764 52.5142 227.298 49.3732 228.09 45.5538C229.151 40.4234 234.373 38.8255 237.769 39.3991C239.144 39.6313 240.219 40.6783 241.444 41.3293C245.341 43.4142 249.165 45.6403 253.044 47.7662C256.786 49.8193 260.761 50.4839 264.986 49.7146C282.714 46.487 300.447 43.2822 318.18 40.0683C325.054 38.8255 331.924 37.5828 338.799 36.3445C340.256 36.0805 341.485 35.3021 342.774 34.6557C356.254 27.891 368.565 19.5011 378.959 8.48007C381.426 5.86251 383.794 3.15391 385.76 0.122093C387.299 -0.319478 386.985 0.786726 387.003 1.61069L386.981 1.58793Z" fill="black"/>
<path d="M157.487 160.624C157.542 160.569 157.596 160.51 157.646 160.455C156.367 158.839 155.124 157.191 153.799 155.611C147.43 148.032 142.149 139.524 134.436 133.096C132.961 131.867 131.709 130.483 131.937 128.316C132.033 127.433 131.555 127.169 130.653 127.192C124.889 127.337 119.54 125.826 114.555 122.99C113.781 122.548 113.521 122.767 113.166 123.436C112.215 125.22 111.204 126.978 110.216 128.744C109.847 129.399 109.419 129.982 108.718 130.346C104.361 132.622 100.013 134.917 95.6609 137.198C95.3331 137.37 94.9506 137.666 94.6228 137.439C93.9399 136.97 93.4892 137.393 92.9748 137.716C84.3291 143.138 75.6744 148.546 67.0424 153.991C66.1046 154.583 65.4626 154.505 64.6386 153.786C59.9083 149.648 55.137 145.555 50.384 141.445C49.9105 141.035 49.5827 140.662 48.8315 141.222C38.1189 149.193 27.3791 157.123 16.6301 165.048C16.0746 165.458 15.8425 165.754 16.3159 166.409C16.8759 167.188 17.1081 168.13 17.2857 169.068C17.8866 172.264 16.4571 175.505 13.8893 176.816C11.3626 178.1 8.43517 177.481 6.30904 175.3C5.8219 174.804 5.67621 173.725 4.87493 173.857C4.21934 173.966 3.69578 174.726 3.04929 175.082C1.96119 175.678 1.95208 176.242 2.62133 177.285C20.0446 204.498 37.4315 231.73 54.791 258.985C55.3692 259.895 55.7152 259.763 56.4391 259.23C60.5002 256.24 64.5703 253.262 68.6905 250.358C69.51 249.78 69.6557 249.511 68.9728 248.669C63.2864 241.677 57.6501 234.644 52.0002 227.624C50.9349 226.299 51.2581 225.084 52.8652 224.437C53.5755 224.151 54.2993 224.151 55.0551 224.314C56.0248 224.519 56.8352 225.084 58.0053 225.553C57.6593 224.774 57.4043 224.232 57.1812 223.682C56.389 221.729 55.5286 219.799 55.565 217.623C55.5969 215.565 56.8352 214.7 58.7701 215.465C59.5577 215.774 60.2907 216.22 61.174 216.667C60.9645 215.356 60.6413 214.195 60.7961 212.988C61.0101 211.35 62.1801 210.521 63.7872 210.899C64.8526 211.149 65.7904 211.682 66.6554 212.324C67.871 213.23 69.0411 214.195 70.2475 215.146C70.3932 214.659 70.0836 214.318 69.9562 213.944C69.4554 212.501 68.9409 211.058 68.7861 209.529C68.6905 208.609 68.7042 207.639 69.5783 207.061C70.4797 206.465 71.4085 206.779 72.2735 207.243C73.6348 207.976 74.7912 208.982 75.8702 210.066C80.3592 214.563 84.0969 219.662 87.6481 224.906C88.2081 225.73 88.7726 226.554 89.4965 227.619C89.6012 224.592 89.4555 221.906 89.8106 219.243C90.0519 217.445 90.1839 215.61 91.0672 213.972C91.9094 212.406 93.2752 212.26 94.4681 213.585C95.0554 214.236 95.4332 215.028 95.7883 215.815C97.441 219.494 98.306 223.404 99.0344 227.346C99.212 228.311 99.4032 228.525 100.277 227.838C104.083 224.852 107.912 221.897 111.782 218.997C114.332 217.085 116.877 215.214 118.288 212.21C118.547 211.659 118.998 211.195 119.399 210.726C120.842 209.051 122.463 207.635 124.543 206.743C125.317 206.41 126.629 206.793 126.797 205.814C126.934 205.026 126.273 204.116 126.018 203.246C125.809 202.523 125.554 202.6 125.021 203.001C122.094 205.204 118.934 205.304 115.829 203.57C111.395 201.093 109.456 197.06 109.219 192.103C109.192 191.497 109.378 190.882 108.996 190.3C105.14 184.391 103.915 177.822 104.234 170.898C104.275 170.019 104.061 169.578 103.296 169.186C101.648 168.344 101.456 167.839 102.135 166.114C104.816 159.312 109.656 154.537 116.221 151.501C119.522 149.976 122.982 149.266 126.533 150.772C127.188 151.05 127.193 150.499 127.38 150.199C128.559 148.291 130.262 147.313 132.497 147.194C134.509 147.09 136.449 147.413 138.338 148.091C143.342 149.889 147.703 152.794 151.869 156.012C153.786 157.492 155.616 159.085 157.487 160.628V160.624Z" fill="white"/>
<path d="M253.189 66.6445C253.216 67.0679 253.216 67.3137 253.253 67.5504C254.159 73.0131 255.065 78.4759 255.975 83.9386C259.362 104.237 262.754 124.531 266.114 144.834C266.269 145.768 266.592 145.927 267.475 145.768C275.078 144.388 282.691 143.059 290.298 141.707C303.155 139.422 316.008 137.127 328.864 134.842C337.328 133.34 345.791 131.838 354.26 130.358C354.992 130.231 355.32 129.999 355.175 129.165C353.654 120.416 352.17 111.667 350.672 102.912C348.787 91.9233 346.898 80.9341 345.017 69.9404C343.574 61.5141 342.136 53.0878 340.715 44.657C340.579 43.8376 340.41 43.4916 339.395 43.6783C327.08 45.9089 314.756 48.0894 302.427 50.2518C291.564 52.1592 280.697 54.0256 269.829 55.9057C268.466 56.1424 268.066 56.9239 268.627 58.2501C269.779 60.9769 269.542 63.5854 267.917 66.0436C265.536 69.6581 260.751 70.7871 257.009 68.6657C255.802 67.9829 254.559 67.3592 253.198 66.64L253.189 66.6445Z" fill="white"/>
<path d="M324.212 44.3934C324.808 44.5982 325.195 44.4389 325.591 44.3706C330.394 43.5239 335.193 42.6726 339.996 41.8396C341.539 41.571 341.917 41.835 342.19 43.3646C342.668 46.0504 343.119 48.7362 343.579 51.4266C345.782 64.2959 347.986 77.1652 350.189 90.0345C352.434 103.15 354.674 116.26 356.909 129.375C357.137 130.718 356.431 131.67 355.074 131.911C344.662 133.759 334.246 135.607 323.834 137.46C308.172 140.246 292.515 143.032 276.854 145.818C273.558 146.405 270.257 146.942 266.97 147.58C264.899 147.98 264.912 148.04 264.639 146.396C262.486 133.445 260.323 120.494 258.174 107.538C255.907 93.8903 253.653 80.2425 251.386 66.5994C251.313 66.1669 251.327 65.6571 250.858 65.4021C249.278 64.5463 247.698 63.6996 245.937 62.7527C246.014 63.4082 246.037 63.8179 246.11 64.214C247.794 73.9422 249.488 83.6704 251.168 93.4032C254.509 112.787 257.846 132.17 261.184 151.554C261.47 153.216 261.47 153.225 263.105 152.938C277.35 150.452 291.596 147.967 305.841 145.468C323.542 142.363 341.243 139.245 358.944 136.131C360.078 135.931 361.626 136.058 362.222 135.371C362.923 134.565 362.118 133.117 361.913 131.956C359.8 119.957 357.67 107.966 355.548 95.9707C353.677 85.3957 351.819 74.8253 349.948 64.2504C348.391 55.4691 346.825 46.6877 345.268 37.9018C345.172 37.3692 345.104 36.914 344.376 37.0642C342.605 37.4329 340.774 37.5422 339.094 38.3343C336.181 39.7091 333.221 40.9746 330.212 42.1218C328.263 42.8638 326.315 43.6058 324.216 44.4025L324.212 44.3934Z" fill="white"/>
<path d="M3.0683 165.074C2.91351 165.575 3.26862 165.834 3.56455 166.121C4.45233 166.986 5.40385 167.796 6.21424 168.73C6.96544 169.599 7.489 169.681 8.4906 168.939C21.3156 159.393 34.1771 149.897 47.0613 140.424C48.0447 139.7 48.0993 139.217 47.0932 138.63C45.7683 137.856 45.8139 136.832 46.3602 135.589C47.2252 133.627 47.9992 131.624 48.8414 129.653C49.1191 129.007 49.2238 128.61 48.2723 128.583C47.3709 128.56 46.474 128.365 45.5726 128.26C39.5448 127.568 33.5169 126.881 27.4937 126.189C22.0395 125.56 16.5899 124.946 11.1403 124.277C9.26456 124.049 9.27822 123.99 8.99595 125.875C7.68932 134.533 6.37813 143.187 5.0715 151.845C4.4068 156.256 3.73755 160.663 3.07285 165.07L3.0683 165.074Z" fill="#2C2C2C"/>
<path d="M92.1895 216.935C92.103 216.945 92.0165 216.954 91.93 216.963C91.8936 217.122 91.8481 217.277 91.8162 217.436C91.1333 221.283 91.1561 225.166 91.147 229.054C91.147 229.837 91.7069 230.984 90.5278 231.316C89.4169 231.626 89.1665 230.447 88.7295 229.764C84.9279 223.791 80.8714 218.019 76.0774 212.788C75.5584 212.219 75.1714 211.805 74.4293 212.561C73.8466 213.152 73.0863 213.057 72.3578 212.665C72.0118 212.479 71.7523 212.11 71.2242 212.092C71.5292 213.635 72.2622 214.969 72.8678 216.353C73.0453 216.762 73.3731 217.163 73.2183 217.636C73.0362 218.196 73.3913 218.47 73.6964 218.802C76.8013 222.193 79.6286 225.803 82.301 229.536C82.729 230.132 83.6258 230.874 82.7335 231.544C81.7319 232.295 81.3404 231.125 80.8897 230.51C77.0654 225.307 73.059 220.259 68.3014 215.857C67.8734 215.46 67.5866 215.201 66.9856 215.706C65.8383 216.676 65.2328 216.58 64.0673 215.561C63.5984 215.151 63.2615 214.568 62.4511 214.24C62.9656 216.061 62.9383 217.919 64.1629 219.225C66.0842 221.278 67.9918 223.34 69.7446 225.544C72.0619 228.457 74.2245 231.484 76.2003 234.639C76.5509 235.199 76.815 235.841 76.0956 236.251C75.4491 236.619 75.0349 236.11 74.7116 235.582C74.5386 235.299 74.361 235.022 74.1835 234.744C71.0421 229.814 67.5092 225.193 63.4026 221.019C62.8062 220.413 62.4284 220.272 61.6954 220.887C60.4525 221.92 59.3917 221.734 58.3628 220.532C58.1624 220.3 58.0714 219.954 57.5888 219.858C57.8028 220.459 57.9621 221.005 58.1852 221.529C59.7422 225.225 61.4541 228.794 64.4179 231.676C66.8764 234.066 68.8796 236.883 70.9237 239.642C71.288 240.129 71.5884 240.726 70.9966 241.181C70.4093 241.632 69.9176 241.208 69.5397 240.712C68.916 239.888 68.3105 239.05 67.6685 238.24C65.0371 234.89 62.3373 231.594 59.0912 228.803C58.859 228.603 58.6086 228.029 58.2125 228.425C57.22 229.413 56.2275 229.34 55.0894 228.671C62.9747 238.486 70.8646 248.301 78.7954 258.17C78.9456 257.874 79.0504 257.692 79.1323 257.505C82.9429 248.81 88.9116 242.879 98.8866 242.078C99.401 242.037 99.483 241.836 99.4284 241.372C98.7363 235.254 97.8121 229.176 96.3462 223.19C96.1641 222.448 95.859 222.416 95.2171 222.557C93.6464 222.903 93.1137 222.498 92.8497 220.9C92.6311 219.58 92.4126 218.26 92.1941 216.94L92.1895 216.935Z" fill="white"/>
<path d="M51.0532 139.631C51.1716 139.804 51.2217 139.927 51.3127 140.004C55.9702 144.033 60.6413 148.048 65.2896 152.09C65.8041 152.536 66.1728 152.473 66.6964 152.145C75.4012 146.673 84.1151 141.206 92.8382 135.766C93.4072 135.411 93.6167 135.047 93.5529 134.377C93.3116 131.915 93.2297 129.429 92.8928 126.98C92.3829 123.229 92.6105 119.737 94.5454 116.287C96.7398 112.372 98.479 108.197 100.396 104.132C100.56 103.786 100.887 103.463 100.728 102.939C100.496 103.099 100.286 103.226 100.091 103.372C90.6528 110.351 81.2469 117.366 71.759 124.271C69.9744 125.573 68.4947 126.739 69.4553 129.197C69.4827 129.27 69.469 129.361 69.4645 129.443C69.4235 130.617 69.0046 130.991 67.8255 130.859C66.8421 130.745 65.8632 130.585 64.8799 130.476C64.2743 130.408 63.6734 130.276 63.0997 130.704C59.1252 133.667 55.137 136.608 51.0532 139.631Z" fill="white"/>
<path d="M106 110.248C106.218 110.353 106.432 110.467 106.651 110.567C108.877 111.555 111.112 112.515 113.325 113.531C114.623 114.127 114.764 114.837 113.903 115.934C113.316 116.681 112.77 117.464 112.141 118.178C111.645 118.747 111.668 119.062 112.323 119.521C117.737 123.345 123.682 125.508 130.366 125.48C131.304 125.48 131.955 125.385 131.873 124.183C131.827 123.541 132.018 122.872 132.164 122.23C133.762 115.233 137.805 110.021 143.897 106.356C144.68 105.883 144.944 105.405 144.939 104.513C144.93 101.991 144.056 99.6871 143.036 97.502C140.755 92.6174 136.885 89.531 131.622 88.2199C130.739 88.0014 130.247 88.1607 129.829 89.0803C126.947 95.4307 124.038 101.768 121.033 108.059C120.377 109.434 120.031 110.576 121.092 111.864C121.515 112.379 121.743 113.075 121.219 113.69C120.637 114.368 119.958 114.031 119.285 113.786C117.35 113.071 115.419 112.333 113.462 111.682C111.035 110.877 108.572 110.212 105.995 110.253L106 110.248Z" fill="white"/>
<path d="M104.422 108.324C105.3 108.324 105.983 108.215 106.616 108.351C107.527 108.551 107.882 108.205 108.273 107.413C112.266 99.3923 116.313 91.3985 120.347 83.4001C120.516 83.0678 120.675 82.731 120.894 82.4305C121.13 82.1073 121.467 81.948 121.872 82.121C122.332 82.3167 122.455 82.7036 122.332 83.1452C122.246 83.4593 122.077 83.7507 121.927 84.0466C118.125 91.6079 114.319 99.1692 110.518 106.735C109.516 108.729 109.539 108.688 111.697 109.348C112.526 109.603 112.908 109.512 113.3 108.665C115.927 102.97 118.626 97.3028 121.294 91.6261C122.259 89.573 123.206 87.5108 124.171 85.4532C124.372 85.0299 124.645 84.6611 125.196 84.7066C125.569 84.734 125.801 84.9434 125.879 85.3121C125.979 85.781 125.829 86.1998 125.633 86.6186C122.15 93.966 118.672 101.313 115.189 108.661C114.319 110.495 114.429 110.076 116.049 110.718C116.163 110.764 116.3 110.768 116.405 110.828C117.397 111.41 117.83 111.01 118.276 110.036C121.563 102.825 124.914 95.6458 128.251 88.4577C129.375 86.0314 129.293 85.5443 127.331 83.646C127.122 83.4457 126.903 83.2545 126.68 83.0724C123.347 80.4139 119.464 79.1529 115.312 78.5474C114.62 78.4473 114.388 78.7705 114.133 79.3122C112.881 82.0071 111.588 84.6839 110.308 87.3652C105.41 97.6533 100.502 107.937 95.6259 118.23C95.4756 118.548 94.8792 119.063 95.6077 119.336C96.0721 119.509 96.6138 119.887 97.0782 118.967C103.361 106.553 109.703 94.1663 116.027 81.775C116.332 81.1786 116.682 80.6187 117.433 80.9783C118.23 81.3607 117.902 81.9889 117.606 82.5625C114.893 87.8523 112.175 93.142 109.466 98.4363C107.814 101.664 106.175 104.901 104.435 108.319L104.422 108.324Z" fill="white"/>
<path d="M145.974 142.971C153.213 152.098 160.456 161.225 167.85 170.548C169.107 165.932 171.005 161.917 173.696 158.225C163.721 154.301 154.975 148.515 145.974 142.975V142.971Z" fill="black"/>
<path d="M108.131 246.435C109.083 237.071 110.781 228.125 114.123 219.521C109.329 223.063 104.662 226.682 99.9774 230.274C99.5585 230.593 99.7179 230.916 99.7679 231.257C100.264 234.69 100.838 238.118 101.116 241.577C101.147 241.964 101.193 242.274 101.685 242.383C104.221 242.938 106.315 244.254 108.131 246.439V246.435Z" fill="white"/>
<path d="M269.083 50.6704C269.088 50.7842 269.092 50.9026 269.101 51.0164C290.927 52.0543 311.765 47.6841 331.87 39.3125C310.941 43.1 290.012 46.8829 269.088 50.6704H269.083Z" fill="white"/>
<path d="M109.724 188.18C110.015 187.529 110.174 187.147 110.352 186.778C112.282 182.781 116.43 181.056 120.636 182.48C121.948 182.927 123.09 183.65 124.128 184.552C124.433 184.816 124.666 185.125 125.166 184.743C127.01 183.332 127.912 179.221 126.769 177.209C126.091 176.016 125.071 175.693 123.833 176.276C123.1 176.622 122.562 177.177 122.102 177.828C121.57 178.579 121.219 179.412 120.964 180.286C120.718 181.128 119.949 181.224 119.289 181.342C118.638 181.461 118.397 180.874 118.178 180.373C117.814 179.544 117.409 178.725 117.113 177.869C116.794 176.959 116.229 176.38 115.374 175.925C112.97 174.646 110.611 173.276 108.235 171.947C107.534 171.555 106.824 171.177 105.918 170.686C105.649 176.927 106.673 182.622 109.733 188.171L109.724 188.18Z" fill="white"/>
<path d="M67.087 124.489C66.8776 122.809 66.6454 121.298 66.5134 119.782C66.4542 119.099 66.14 118.848 65.5209 118.794C62.4842 118.525 59.4475 118.257 56.4109 117.974C55.86 117.924 55.4958 118.02 55.259 118.612C54.2073 121.248 53.1147 123.874 52.0084 126.487C51.7398 127.129 51.849 127.334 52.5638 127.402C54.5306 127.593 56.5065 127.775 58.4505 128.131C61.3506 128.659 64.0321 128.681 66.2356 126.255C66.7911 125.645 67.4512 125.258 67.0824 124.484L67.087 124.489Z" fill="#2C2C2C"/>
<path d="M121.569 184.867C117.822 182.559 113.761 183.738 111.885 187.571C110.806 189.77 110.856 190.148 112.482 191.928C115.286 194.996 118.687 196.922 122.866 197.372C123.704 197.463 123.955 197.309 123.622 196.407C122.493 193.357 121.437 190.28 120.367 187.207C119.812 185.614 119.93 185.386 121.573 184.863L121.569 184.867Z" fill="white"/>
<path d="M231.78 47.6504C231.939 49.0161 232.171 50.7687 233.637 51.7429C235.376 52.9037 237.339 53.7231 239.187 54.7246C239.733 55.0205 240.029 55.0205 240.334 54.4014C241.459 52.1253 242.201 49.7444 242.451 47.2134C242.488 46.8355 242.497 46.4076 242.16 46.1845C240.626 45.1603 239.069 44.0632 237.43 43.3348C234.857 42.1876 231.825 44.5366 231.78 47.6413V47.6504Z" fill="white"/>
<path d="M265.399 61.6028C265.422 59.2356 263.533 57.1006 261.502 57.392C258.52 57.8199 255.556 58.4026 252.588 58.9215C252.306 58.9716 252.023 58.9944 251.928 59.3631C251.732 60.137 252.447 61.8395 253.166 62.2219C255.169 63.2917 257.163 64.3797 259.185 65.4222C261.912 66.8288 265.367 64.6893 265.395 61.6028H265.399Z" fill="white"/>
<path d="M94.3184 123.006C94.4003 124.035 94.5141 125.059 94.5597 126.088C94.587 126.707 94.8192 126.908 95.4566 126.949C97.5463 127.081 99.2991 128.023 100.965 129.238C101.803 129.848 102.131 131.323 103.237 131.178C104.271 131.046 105.218 130.226 106.201 129.707C106.492 129.553 106.77 129.361 107.075 129.243C107.858 128.947 107.876 128.601 107.271 128.046C104.075 125.11 100.492 122.801 96.3762 121.395C94.1863 120.648 94.1636 120.717 94.3184 123.006Z" fill="white"/>
<path d="M61.0145 130.071C57.6319 129.666 54.618 129.306 51.6041 128.942C51.1579 128.887 50.9166 129.11 50.7618 129.497C49.8239 131.782 48.8679 134.059 47.9482 136.353C47.543 137.368 48.6402 137.505 49.0409 138.046C49.3322 138.442 49.6919 138.447 50.1062 138.142C53.6437 135.515 57.1857 132.902 61.0145 130.08V130.071Z" fill="#2C2C2C"/>
<path d="M110.926 192.961C111.581 197.076 113.229 200.217 116.735 202.134C119.362 203.572 122.198 203.258 124.224 201.419C124.68 201.005 125.126 200.663 124.848 199.871C124.575 199.107 124.038 199.184 123.478 199.152C119.266 198.915 115.647 197.304 112.551 194.463C112.078 194.031 111.609 193.589 110.93 192.965L110.926 192.961Z" fill="white"/>
<path d="M259.622 55.9222C258.083 55.0573 256.886 54.4108 255.721 53.7189C255.12 53.3593 254.541 53.2773 253.84 53.4139C251.245 53.9237 248.636 54.3425 246.041 54.8524C245.572 54.9434 244.753 54.7022 244.717 55.4396C244.671 56.3091 244.539 57.4426 245.34 57.9616C246.875 58.9631 248.559 59.737 250.307 60.6702C250.28 60.3242 250.275 60.1695 250.253 60.0101C250.002 57.8979 250.339 57.5109 252.456 57.1832C254.733 56.8281 257 56.3911 259.622 55.9267V55.9222Z" fill="white"/>
<path d="M252.069 51.987C252.091 51.8959 252.119 51.8003 252.142 51.7093C249.701 50.3618 247.256 49.0189 244.816 47.6623C244.083 47.2526 244.106 47.7579 244.047 48.2359C243.778 50.5075 243.095 52.6516 242.089 54.7047C241.434 56.0385 241.452 56.0476 242.972 56.6075C242.95 56.3435 242.941 56.1022 242.9 55.8655C242.595 54.2085 242.931 53.685 244.539 53.38C247.047 52.9065 249.556 52.4513 252.064 51.9915L252.069 51.987Z" fill="white"/>
<path d="M102.872 111.342C101.702 113.641 100.604 115.799 99.5027 117.961C98.3372 120.256 98.3508 120.228 100.586 121.321C101.178 121.608 101.433 121.526 101.729 120.966C102.517 119.477 103.286 117.966 104.201 116.555C104.952 115.399 105.021 114.474 104.042 113.418C103.559 112.899 103.318 112.153 102.867 111.338L102.872 111.342Z" fill="white"/>
<path d="M106.403 116.262C106.089 116.726 105.938 116.917 105.82 117.122C105.214 118.196 104.627 119.28 104.022 120.359C102.756 122.612 102.765 122.598 104.991 123.996C105.478 124.306 105.715 124.328 105.97 123.746C106.516 122.503 107.031 121.228 107.75 120.09C108.47 118.952 108.292 118.187 107.277 117.418C106.935 117.159 106.74 116.721 106.398 116.262H106.403Z" fill="white"/>
<path d="M261.39 51.8991C261.345 52.0539 261.299 52.2086 261.254 52.3589C262.57 53.0963 263.89 53.8384 265.206 54.5758C265.502 54.7397 265.807 54.8307 266.153 54.767C269.303 54.2207 272.454 53.6745 275.604 53.1328C270.846 52.7959 266.107 52.4772 261.39 51.8945V51.8991Z" fill="white"/>
<path d="M109.745 119.914C109.103 121.23 108.548 122.614 107.783 123.87C107.05 125.072 107.132 125.887 108.306 126.733C108.889 127.152 109.112 127.271 109.458 126.569C109.913 125.65 110.446 124.767 110.956 123.875C111.839 122.315 111.54 121.029 110.059 120.019C109.995 119.973 109.904 119.969 109.745 119.914Z" fill="white"/>
<path d="M67.4092 127.543C66.7946 128.003 66.3165 128.358 65.7793 128.758C67.6323 129.368 67.696 129.323 67.4092 127.543Z" fill="white"/>
<path d="M149.946 319.622C150.333 313.19 150.729 306.757 151.097 300.325C151.393 295.126 151.644 289.928 151.931 284.733C152.149 280.773 152.39 276.817 152.618 272.861C152.636 272.524 152.691 272.21 152.964 271.964C156.524 268.737 159.493 264.954 162.798 261.49C164.655 259.546 166.399 257.497 168.243 255.544C168.83 254.925 168.844 254.447 168.462 253.705C166.449 249.818 164.501 245.903 162.525 241.997C161.673 240.312 161.91 239.652 163.595 238.901C167.478 237.171 171.362 235.432 175.245 233.698C177.189 232.828 177.635 233.056 177.927 235.141C178.865 241.851 179.716 248.575 180.749 255.271C181.018 257.001 180.69 258.298 179.702 259.723C176.402 264.471 173.256 269.333 170.01 274.122C169.563 274.782 169.541 275.21 170.046 275.834C172.099 278.374 174.089 280.96 176.119 283.513C176.474 283.96 176.584 284.479 176.711 284.993C179.174 294.717 181.628 304.445 184.077 314.173C184.451 315.657 184.219 315.926 182.648 316.167C172.723 317.706 162.803 319.253 152.882 320.801C152.472 320.865 152.067 320.956 151.667 321.056C150.055 321.461 149.886 321.325 149.937 319.627L149.946 319.622Z" fill="black"/>
<path d="M104.001 70.0914C104.911 70.0914 105.817 70.0914 106.728 70.0914C107.702 70.0914 107.98 70.5967 107.934 71.5299C107.656 76.9153 105.289 81.381 101.779 85.2778C96.3019 91.3642 89.5684 95.3201 81.4464 96.7723C78.396 97.3186 75.3548 97.2594 72.3454 96.4809C70.5835 96.0257 70.406 95.6843 70.8294 93.9499C71.1344 92.7025 71.4531 91.4552 72.0495 90.3217C72.4593 89.5387 72.391 89.1654 71.526 88.7785C69.2314 87.7451 66.9914 86.5888 64.7151 85.5054C64.105 85.2141 63.5132 84.8863 63.8683 84.1352C64.2143 83.4114 64.8699 83.5934 65.4708 83.8939C67.8018 85.0502 70.1465 86.1791 72.4638 87.3627C73.0921 87.6859 73.4199 87.6905 73.8296 87.0167C74.8586 85.3188 76.0423 83.7209 77.4946 82.3552C78.0864 81.7998 78.1046 81.4994 77.4354 80.9713C75.2 79.2005 73.0238 77.3568 70.8157 75.5496C70.2922 75.1217 69.6229 74.6664 70.1875 73.9472C70.8294 73.1278 71.4258 73.806 71.963 74.2431C74.1984 76.0822 76.4384 77.9122 78.651 79.7786C79.2155 80.2521 79.607 80.3386 80.2126 79.7877C81.5556 78.5586 83.0079 77.4524 84.5786 76.5283C85.2797 76.1186 85.2069 75.7772 84.8381 75.1763C83.3175 72.7181 81.8606 70.2189 80.3491 67.7515C79.9849 67.1597 79.5297 66.5452 80.2991 66.0444C81.0867 65.53 81.46 66.2083 81.8151 66.8046C83.3221 69.3221 84.8654 71.8167 86.3314 74.3569C86.7184 75.0306 87.0189 75.0625 87.6699 74.7165C88.9811 74.02 90.3242 73.3736 91.7036 72.8273C92.4685 72.5269 92.5459 72.1581 92.3638 71.4389C91.7082 68.8395 91.1118 66.222 90.4881 63.6089C90.4425 63.4086 90.3788 63.2083 90.3424 63.008C90.2422 62.4527 90.2012 61.87 90.8887 61.6924C91.6354 61.4967 91.9176 62.0293 92.0633 62.6439C92.7144 65.3752 93.3927 68.0975 93.98 70.8425C94.1485 71.6346 94.3533 71.8759 95.1728 71.5982C96.2655 71.2295 97.3946 70.9472 98.5327 70.7515C99.3067 70.6149 99.5161 70.2507 99.5525 69.5224C99.6891 66.5543 99.8849 63.5862 100.049 60.6135C100.085 59.9353 100.076 59.1432 101.014 59.2023C101.961 59.2615 101.824 60.0445 101.783 60.7228C101.61 63.486 101.501 66.2538 101.264 69.0079C101.169 70.1096 101.465 70.4146 102.521 70.146C102.994 70.0231 103.509 70.0732 104.005 70.0459C104.005 70.0641 104.005 70.0823 104.005 70.1005L104.001 70.0914ZM77.8406 95.4066C78.3277 95.3656 79.2019 95.3429 80.0578 95.2245C88.3619 94.0546 95.1592 90.0804 100.682 83.8893C103.5 80.7301 105.535 77.1201 106.099 72.8091C106.2 72.058 106.113 71.7666 105.284 71.7621C102.621 71.7393 100.012 72.0807 97.431 72.7226C96.8346 72.8683 96.739 73.0959 96.8846 73.6649C98.1275 78.5086 96.5887 82.5692 93.156 85.9606C88.5349 90.522 81.1231 91.132 77.1031 86.4523C76.7798 86.0744 76.5567 86.0471 76.2562 86.4705C74.6355 88.7421 73.3379 91.1593 72.6323 93.8816C72.4502 94.5872 72.7689 94.7511 73.2924 94.9013C74.6582 95.2837 76.0559 95.3793 77.8451 95.4066H77.8406Z" fill="black"/>
<path d="M338.424 93.1503C338.11 101.622 334.996 109.042 329.824 115.652C327.079 119.167 323.855 122.166 319.831 124.22C318.337 124.984 318.005 124.952 316.944 123.546C314.854 120.773 312.806 117.974 310.739 115.188C310.074 114.291 309.4 113.403 308.736 112.507C307.948 111.437 308.085 110.727 309.305 110.158C313.493 108.209 316.27 104.954 318.087 100.798C319.007 98.6995 319.507 96.4962 319.526 94.1882C319.535 93.3779 319.353 93.1503 318.483 93.2868C314.645 93.8832 310.793 94.3976 306.946 94.9348C305.385 95.1533 305.107 94.9484 304.848 93.4689C303.368 85.0108 301.888 76.5572 300.409 68.0991C300.163 66.6925 300.632 65.9869 301.998 65.7456C311.923 64.0021 321.852 62.2767 331.777 60.5241C332.578 60.383 333.029 60.6061 333.279 61.38C333.976 63.515 334.14 65.7456 334.518 67.9398C335.756 75.1005 336.935 82.2749 338.155 89.4402C338.365 90.6693 338.415 91.903 338.419 93.1548L338.424 93.1503Z" fill="black"/>
<path d="M302.176 100.013C302.145 105.922 300.419 110.734 297.842 115.304C294.405 121.4 289.729 126.507 283.702 130.527C282.618 131.246 281.876 131.128 281.025 130.236C277.564 126.585 274.063 122.97 270.585 119.338C269.388 118.086 269.602 117.407 271.168 116.488C276.627 113.269 280.679 108.949 282.9 103.232C283.246 102.339 283.356 101.42 283.274 100.478C283.187 99.5034 282.768 99.0436 281.589 99.212C277.505 99.7993 273.408 100.3 269.319 100.864C267.512 101.115 267.134 100.942 266.852 99.3031C265.509 91.3776 264.193 83.4475 262.864 75.522C262.754 74.8847 262.591 74.2519 262.486 73.61C262.317 72.5903 262.773 72.2125 263.838 72.2808C265.805 72.4037 267.712 71.8984 269.634 71.6343C277.983 70.4917 286.324 69.2808 294.664 68.0972C296.199 67.8787 296.727 68.2383 297.014 69.8225C298.188 76.2549 299.345 82.6964 300.506 89.1333C300.897 91.2911 301.271 93.4534 301.685 95.6112C302.008 97.291 302.258 98.9753 302.176 100.022V100.013Z" fill="black"/>
<path d="M125.289 178.72C124.984 179.653 125.002 180.573 125.781 181.401C125.995 181.629 125.931 182.039 125.653 182.298C125.33 182.603 124.966 182.553 124.647 182.307C124.392 182.107 124.119 181.884 123.964 181.611C123.646 181.056 123.427 180.55 122.658 181.156C122.289 181.447 121.752 181.347 121.488 180.864C121.219 180.368 121.438 179.995 121.929 179.785C122.767 179.43 123.222 178.675 123.787 178.033C124.042 177.746 124.329 177.505 124.747 177.664C125.203 177.837 125.316 178.215 125.285 178.725L125.289 178.72Z" fill="black"/>
</g>
<defs>
<clipPath id="clip0_10062_11902">
<rect width="387" height="321.245" fill="white"/>
</clipPath>
</defs>
</svg>
