<svg width="387" height="288" viewBox="0 0 387 288" fill="none" xmlns="http://www.w3.org/2000/svg">
<g clip-path="url(#clip0_9937_1606)">
<path d="M0 0H387V279.506C387 283.924 383.418 287.506 379 287.506H0V0Z" fill="#2C2C2C"/>
<path d="M255.398 28.215C255.061 27.7258 254.639 27.425 254.078 27.2051C252.363 26.5228 250.554 26.2355 248.767 25.8585C233.412 22.6132 218.07 19.3186 202.711 16.0912C198.805 15.2698 194.877 14.4933 190.854 14.5202C188.955 14.5337 187.302 14.8883 185.996 15.8848C185.143 16.5356 184.725 17.2313 183.881 18.7799C181.695 22.7928 180.056 26.3208 179.517 27.4744C179.032 28.5113 178.301 30.0554 177.376 31.9361C173.16 40.3074 168.971 48.6922 164.778 57.0725C163.027 60.5691 161.271 64.0658 159.341 67.9125C158.523 65.5605 157.675 63.581 156.584 61.7272C152.75 55.2142 147.29 51.0712 139.608 50.3261C130.018 49.3924 122.399 55.2501 120.231 63.3655C118.83 68.5993 119.741 73.6355 121.883 78.5147C122.534 80.0049 122.305 80.6872 120.909 81.5221C120.374 81.8408 119.795 82.0338 119.193 82.1415C116.064 82.716 112.926 83.2322 109.729 83.2726C105.239 83.331 100.772 83.6003 96.3094 84.2108C93.4944 84.5968 91.1238 85.6247 89.0001 87.4695C84.47 91.406 84.7304 96.6084 89.8577 99.5709C95.1196 102.61 100.889 102.942 106.708 101.752C110.896 100.895 115.005 99.6562 119.153 98.5879C119.422 98.516 119.674 98.4038 119.889 98.7539C120.383 99.5439 120.253 100.958 119.575 101.64C117.299 103.925 115.045 106.228 112.737 108.476C112.005 109.19 111.853 109.881 112.32 110.761C112.531 111.156 112.639 111.618 112.899 111.973C113.321 112.548 113.258 112.889 112.701 113.373C109.85 115.878 108.27 119.074 107.929 122.831C107.821 124.007 107.489 124.034 106.537 123.603C100.633 120.928 94.7066 118.306 88.7891 115.667C88.4165 115.501 88.0483 115.317 87.6577 115.205C87.1594 115.057 86.7867 115.236 86.5892 115.743C84.6541 120.636 82.1668 125.273 80.0252 130.071C79.7468 130.695 79.4146 131.014 78.6693 131.023C76.3796 131.054 74.1078 131.314 71.8629 131.754C66.1475 132.868 60.8676 134.914 56.7236 139.183C52.822 143.2 51.318 147.972 52.8445 153.457C54.2991 158.682 57.8146 162.362 62.237 165.253C62.9778 165.738 63.108 166.061 62.7263 166.864C58.5644 175.626 54.4473 184.411 50.3123 193.181C49.6343 194.618 49.7376 194.95 51.1923 195.628C64.7557 201.934 78.3281 208.232 91.8915 214.543C103.273 219.839 114.65 225.154 126.027 230.459C127.109 230.962 128.128 230.54 128.68 229.315C130.238 225.859 131.783 222.398 133.341 218.942C135.235 214.749 137.139 210.561 139.038 206.364C141.902 207.927 144.677 209.48 147.483 210.961C152.965 213.856 158.474 216.706 163.96 219.597C164.324 219.79 165.065 219.817 164.724 220.567C163.561 223.107 162.133 225.369 159.251 226.307C157.733 226.801 156.193 227.174 154.635 227.492C151.596 228.112 148.812 229.135 147.106 231.986C146.832 232.443 146.415 232.627 145.88 232.654C145.108 232.695 144.336 232.794 143.568 232.888C143.258 232.928 142.836 232.942 142.832 233.346C142.832 233.687 143.245 233.714 143.501 233.75C144.107 233.83 144.718 233.866 145.328 233.88C155.533 234.064 165.734 233.736 175.934 233.624C182.139 233.557 188.34 233.422 194.54 233.296C195.222 233.283 196.075 233.287 196.08 232.313C196.08 231.326 195.249 231.38 194.549 231.362C194.221 231.353 193.898 231.362 193.57 231.371C186.225 231.532 178.88 231.698 171.539 231.851C171.131 231.86 170.682 231.986 170.161 231.613C170.839 231.182 171.413 230.81 171.997 230.45C176.864 227.461 181.735 224.476 186.607 221.491C187.635 220.858 187.653 220.418 186.638 219.723C185.83 219.166 185.026 218.605 184.182 218.111C183.459 217.689 183.468 217.335 183.989 216.706C185.322 215.104 186.454 213.353 187.365 211.473C188.196 209.758 188.039 207.989 187.581 206.221C187.28 205.049 186.045 204.982 185.309 204.322C185.188 204.214 185.04 204.143 184.9 204.053C173.582 196.687 162.394 189.119 150.927 181.982C150.446 181.681 150.325 181.439 150.563 180.927C151.443 179.042 152.305 177.152 153.14 175.249C153.378 174.711 153.58 174.545 154.222 174.791C157.078 175.887 159.96 176.919 162.842 177.938C166.264 179.15 169.658 180.474 173.137 181.488C176.55 182.485 179.688 184.173 183.41 184.482C187.549 184.828 192.232 183.095 194.315 179.285C194.881 178.252 195.406 177.184 195.846 176.093C200.668 164.095 205.472 152.092 210.267 140.09C213.401 132.253 216.526 124.406 219.628 116.556C219.956 115.73 220.288 115.506 221.141 115.914C222.578 116.601 224.105 117.072 225.649 117.454C228.473 118.149 231.324 118.652 234.233 118.001C234.777 117.88 235.518 117.772 235.468 117.045C235.392 115.972 235.984 115.869 236.793 115.82C237.233 115.793 237.677 115.654 238.095 115.497C239.617 114.922 239.953 113.701 238.934 112.408C238.571 111.946 238.113 111.556 237.596 111.03C238.333 110.972 238.934 110.968 239.518 110.86C240.313 110.712 241.219 110.608 241.516 109.688C241.745 108.979 241.049 108.194 240.528 107.606C239.783 106.762 238.943 106.322 238.422 106.097C238.876 106.174 239.23 106.115 239.433 106.061C239.648 106.008 239.913 105.94 240.137 105.711C240.191 105.657 240.308 105.545 240.371 105.357C240.443 105.15 240.425 104.975 240.416 104.899C240.371 104.535 240.111 104.163 239.567 103.696C239.015 103.22 238.606 103.005 238.606 103.005C235.89 101.559 233.336 99.7639 230.476 98.6328C230.309 98.5654 229.86 98.3949 229.717 97.9954C229.623 97.7395 229.699 97.4298 229.887 96.9989C234.988 85.2611 240.066 73.5188 245.13 61.7676C248.888 53.0507 252.547 44.2888 256.39 35.6123C257.634 32.8069 256.992 30.5087 255.402 28.2061L255.398 28.215Z" fill="black"/>
<path d="M97.9105 153.14L98.2869 153.977L96.279 155.031C93.9014 156.302 91.9354 157.73 90.381 159.314C90.0214 159.631 89.7384 159.746 89.532 159.659C89.3404 159.578 89.1876 159.488 89.0736 159.388C88.9805 159.279 88.9214 159.028 88.8961 158.635C88.8856 158.249 88.9473 157.815 89.0812 157.333C89.2151 156.851 89.3284 156.439 89.4211 156.096C89.5137 155.753 89.5838 155.504 89.6313 155.351C89.685 155.182 89.7313 155.011 89.7703 154.836C89.8302 154.653 89.8714 154.514 89.894 154.42C89.9166 154.325 89.9392 154.23 89.9618 154.136C89.9844 154.041 89.9965 153.951 89.9981 153.864C90.006 153.764 90.015 153.681 90.0251 153.615C90.0415 153.535 90.0544 153.402 90.0639 153.215C90.0881 153.034 90.1104 152.879 90.1307 152.748C89.0157 153.25 87.9491 153.946 86.9308 154.836C86.544 155.177 85.7778 155.86 84.6321 156.888C84.3812 157.112 84.1379 157.174 83.902 157.075C83.6809 156.981 83.506 156.881 83.3772 156.775C83.2695 156.66 83.2041 156.424 83.1811 156.067C83.1582 155.71 83.2343 155.221 83.4094 154.6C84.3063 151.488 84.8196 149.325 84.9495 148.113C85.4268 148.175 85.8791 148.297 86.3066 148.477C86.3243 148.641 86.249 149.087 86.0808 149.814C85.7776 151.232 85.4443 152.906 85.081 154.837C86.3881 153.756 87.7223 152.817 89.0835 152.02C90.4657 151.214 91.2969 150.87 91.5769 150.988C91.9012 151.125 92.0259 151.447 91.951 151.953C91.897 152.452 91.6902 153.25 91.3307 154.349C90.9921 155.439 90.7546 156.372 90.6181 157.148C93.0054 155.36 95.4362 154.024 97.9105 153.14ZM111.104 158.709L111.48 159.545L109.472 160.599C107.095 161.871 105.129 163.299 103.574 164.883C103.215 165.2 102.932 165.315 102.725 165.228C102.534 165.147 102.381 165.057 102.267 164.956C102.174 164.848 102.115 164.597 102.089 164.204C102.079 163.818 102.14 163.383 102.274 162.902C102.408 162.42 102.522 162.007 102.614 161.664C102.707 161.321 102.777 161.073 102.824 160.92C102.878 160.751 102.925 160.58 102.963 160.405C103.023 160.222 103.065 160.083 103.087 159.988C103.11 159.894 103.132 159.799 103.155 159.704C103.178 159.61 103.19 159.519 103.191 159.433C103.199 159.332 103.208 159.249 103.218 159.184C103.235 159.104 103.248 158.971 103.257 158.784C103.281 158.603 103.304 158.447 103.324 158.317C102.209 158.819 101.142 159.515 100.124 160.405C99.7372 160.745 98.971 161.429 97.8253 162.456C97.5744 162.681 97.3311 162.743 97.0952 162.643C96.8741 162.55 96.6992 162.45 96.5705 162.344C96.4627 162.229 96.3973 161.993 96.3743 161.636C96.3514 161.279 96.4275 160.79 96.6026 160.169C97.4995 157.057 98.0128 154.894 98.1427 153.681C98.62 153.744 99.0723 153.865 99.4998 154.046C99.5175 154.209 99.4422 154.655 99.274 155.383C98.9708 156.801 98.6375 158.475 98.2742 160.406C99.5813 159.325 100.916 158.386 102.277 157.588C103.659 156.782 104.49 156.439 104.77 156.557C105.094 156.694 105.219 157.015 105.144 157.522C105.09 158.02 104.883 158.819 104.524 159.918C104.185 161.008 103.948 161.941 103.811 162.717C106.199 160.928 108.629 159.592 111.104 158.709ZM124.297 164.278L124.673 165.114L122.665 166.168C120.288 167.44 118.322 168.868 116.767 170.452C116.408 170.769 116.125 170.884 115.918 170.797C115.727 170.716 115.574 170.625 115.46 170.525C115.367 170.416 115.308 170.166 115.283 169.773C115.272 169.386 115.334 168.952 115.468 168.47C115.602 167.988 115.715 167.576 115.807 167.233C115.9 166.89 115.97 166.642 116.018 166.488C116.071 166.32 116.118 166.148 116.157 165.974C116.217 165.791 116.258 165.652 116.28 165.557C116.303 165.462 116.326 165.368 116.348 165.273C116.371 165.178 116.383 165.088 116.385 165.002C116.392 164.901 116.401 164.818 116.412 164.753C116.428 164.673 116.441 164.539 116.45 164.352C116.475 164.172 116.497 164.016 116.517 163.886C115.402 164.388 114.336 165.084 113.317 165.974C112.93 166.314 112.164 166.998 111.019 168.025C110.768 168.249 110.524 168.312 110.288 168.212C110.067 168.119 109.892 168.019 109.764 167.912C109.656 167.797 109.591 167.561 109.568 167.204C109.545 166.847 109.621 166.358 109.796 165.738C110.693 162.625 111.206 160.463 111.336 159.25C111.813 159.312 112.266 159.434 112.693 159.614C112.711 159.778 112.635 160.224 112.467 160.952C112.164 162.369 111.831 164.044 111.467 165.974C112.775 164.894 114.109 163.954 115.47 163.157C116.852 162.351 117.683 162.007 117.963 162.125C118.288 162.262 118.412 162.584 118.337 163.091C118.283 163.589 118.077 164.388 117.717 165.486C117.379 166.576 117.141 167.509 117.004 168.285C119.392 166.497 121.823 165.161 124.297 164.278ZM118.939 171.993C118.836 171.742 118.838 171.491 118.944 171.24C119.05 170.99 119.228 170.813 119.48 170.711C119.732 170.609 119.983 170.611 120.233 170.716C120.484 170.822 120.66 171.001 120.762 171.252C120.865 171.504 120.863 171.755 120.757 172.005C120.651 172.256 120.473 172.432 120.221 172.535C119.97 172.637 119.718 172.635 119.468 172.529C119.217 172.424 119.041 172.245 118.939 171.993Z" fill="white"/>
<path d="M183.429 81.913C184.147 81.7155 184.484 82.0073 184.843 82.1644C187.685 83.3988 190.536 84.6152 193.355 85.9124C194.298 86.3433 194.5 86.1144 194.608 85.1583C195.053 81.2173 195.865 77.3481 197.32 73.6494C197.603 72.9357 197.446 72.6619 196.777 72.3747C194.114 71.2346 191.51 69.9553 188.825 68.8825C184.735 67.2486 180.632 65.6148 176.155 65.3544C174.984 65.2871 173.708 65.3275 172.896 66.1085C171.163 67.7783 169.309 69.3134 167.571 70.9742C167.203 71.3243 167.158 71.4949 167.549 71.9213C169.403 73.9367 170.642 76.3112 171.356 78.955C173.228 85.8855 169.856 91.981 162.902 93.8214C156.073 95.6303 149.922 93.8348 144.341 89.7277C143.96 89.4449 143.663 89.0006 143.066 89.234C140.543 90.217 138.069 91.2898 136.197 93.3366C134.751 94.9121 134.073 96.7704 134.841 98.8576C135.29 100.079 136.287 101.053 137.221 101.905C143.816 107.934 150.483 113.881 157.132 119.851C157.317 120.017 157.487 120.219 157.734 120.25C157.828 120.264 157.896 120.241 158.084 120.188C158.322 120.12 158.565 120.071 158.798 119.995C159.103 119.896 162.309 119.267 171.266 117.607C170.35 116.565 169.6 115.721 168.86 114.873C168.595 114.568 168.28 114.635 167.962 114.72C162.197 116.282 154.196 110.941 152.207 105.568C151.951 104.877 151.651 104.159 151.911 103.346C152.36 103.526 152.387 103.876 152.508 104.163C154.452 108.701 157.959 111.498 162.525 113.06C163.997 113.567 165.658 114.034 167.077 113.36C168.931 112.481 169.686 113.293 170.768 114.626C175.042 119.878 179.532 124.955 183.815 130.202C185.085 131.759 186.468 132.047 188.224 131.598C188.776 131.459 189.333 131.315 189.871 131.135C195.358 129.291 200.458 126.674 205.289 123.509C206.142 122.953 207.013 122.418 207.889 121.902C208.167 121.736 208.531 121.593 208.719 122.014C208.872 122.351 208.567 122.522 208.329 122.679C202.73 126.364 197.006 129.802 190.594 131.93C188.745 132.545 186.886 132.787 184.933 132.509C184.228 132.41 183.819 131.836 183.038 131.845C169.003 131.997 154.964 132.1 140.929 132.177C140.094 132.181 139.991 132.352 140.188 133.115C140.565 134.574 141.068 136.109 140.538 137.559C140.161 138.587 140.57 138.775 141.311 139.103C148.615 142.339 155.911 145.598 163.207 148.852C164.922 149.615 164.918 149.624 164.006 151.24C163.948 151.343 163.93 151.473 163.881 151.586C162.758 154.072 161.667 156.577 160.491 159.041C160.051 159.961 160.1 160.226 161.218 160.244C173.866 160.455 186.513 160.707 199.161 160.985C200.014 161.003 200.445 160.814 200.781 159.966C206.021 146.644 211.287 133.335 216.585 120.039C216.931 119.173 216.819 118.697 216.069 118.114C212.212 115.129 208.993 111.574 206.995 107.067C205.15 102.906 204.948 98.705 207.067 94.553C207.372 93.956 207.345 93.6867 206.712 93.359C204.494 92.2189 202.182 91.3032 199.901 90.3157C199.277 90.0464 198.9 90.0778 198.752 90.8095C198.631 91.411 198.276 91.2673 197.836 91.1461C192.112 89.611 188.013 85.5757 183.438 81.922L183.429 81.913Z" fill="white"/>
<path d="M241.085 66.7823C236.344 67.6351 234.095 67.5768 230.58 66.715C221.057 64.3854 212.764 59.6095 204.916 53.9224C199.084 49.6986 193.966 44.6444 188.569 39.9133C185.628 37.3369 182.679 34.7738 179.545 32.332C179.343 32.6866 179.168 32.9604 179.024 33.2477C174.404 42.4674 169.847 51.7229 165.146 60.8977C163.544 64.0263 162.471 67.4556 160.1 70.1712C160.019 70.2655 160.046 70.4899 160.073 70.6425C160.401 72.2495 160.729 73.8519 160.872 75.598C161.137 75.4139 161.281 75.3376 161.397 75.2344C164.729 72.1642 168.069 69.1074 171.374 66.0103C172.743 64.7265 174.359 64.1699 176.178 64.2776C178.211 64.3988 180.218 64.7624 182.194 65.319C191.124 67.8326 195.219 70.2116 197.432 71.2575C201.949 73.3941 206.658 75.7865 213.617 79.0857C214.021 79.2787 215.602 80.0238 217.752 80.8766C221.681 82.4342 223.643 83.2152 225.735 83.3409C229.161 83.5518 231.222 82.5374 233.017 82.5733C234.09 82.5913 234.49 82.1738 234.849 81.2851C235.734 79.0946 236.717 76.9446 237.655 74.7721C238.796 72.1328 239.927 69.4889 241.085 66.7868V66.7823Z" fill="white"/>
<path d="M144.547 88.7706C146.895 90.3776 149.279 91.4863 151.829 92.2224C155.798 93.367 159.785 93.6363 163.723 92.1192C168.284 90.3641 170.695 86.5218 170.3 81.6651C170.017 78.2134 168.194 75.4663 166.147 72.8315C165.923 72.5442 165.739 72.634 165.545 72.809C164.275 73.9536 162.87 74.995 161.788 76.3012C161.123 77.1047 160.706 77.0418 159.987 76.6289C155.955 74.3127 151.906 72.0235 147.887 69.6894C147.367 69.3887 146.451 69.3124 146.518 68.4955C146.576 67.8042 147.402 67.7234 147.928 67.4721C149.391 66.7763 150.653 65.8337 151.672 64.5769C152.92 63.0373 152.611 61.9241 150.783 61.1655C150.316 60.9725 149.84 60.8962 149.347 60.9321C147.214 61.0892 145.31 61.8972 143.6 63.1181C143.164 63.4323 142.783 63.5804 142.275 63.5714C136.475 63.4817 131.967 61.2373 129.278 55.8555C129.228 55.9138 129.129 55.9946 129.075 56.0979C125.371 63.1989 124.662 70.5243 128.083 77.8632C130.759 83.5997 136.021 83.9274 139.819 78.8597C141.364 76.7994 142.275 74.4564 142.868 71.9742C142.994 71.449 143.088 70.7981 143.815 71.0001C144.538 71.2021 144.282 71.844 144.147 72.3422C143.712 73.9626 143.142 75.5381 142.325 77.0014C141.961 77.6523 142.114 77.953 142.648 78.3974C145.746 80.9918 148.803 83.6267 151.87 86.257C152.229 86.5667 152.79 86.8585 152.525 87.4285C152.215 88.0928 151.726 87.7023 151.291 87.4869C151.156 87.4196 150.972 87.4196 150.819 87.433C148.745 87.6215 146.725 88.048 144.556 88.7661L144.547 88.7706Z" fill="white"/>
<path d="M184.227 205.934C182.817 204.969 181.609 204.143 180.402 203.321C170.578 196.651 160.719 190.044 151.039 183.167C150.136 182.525 149.827 182.498 149.355 183.553C146.235 190.551 143.07 197.526 139.882 204.493C139.509 205.31 139.438 205.754 140.43 206.086C141.274 206.369 142.051 206.845 142.854 207.249C149.845 210.777 156.79 214.399 163.664 218.152C164.346 218.524 164.728 218.618 165.182 217.815C165.904 216.522 167.027 215.535 168.163 214.601C172.872 210.732 178.125 207.85 184.236 205.934H184.227Z" fill="white"/>
<path d="M206.638 100.758C206.683 102.406 206.957 103.963 207.465 105.48C208.982 110.045 211.981 113.546 215.528 116.653C217.293 118.197 217.239 118.17 218.114 116.024C218.514 115.05 218.316 114.61 217.396 114.143C215.425 113.142 213.633 111.854 212.089 110.256C211.873 110.036 211.492 109.776 211.811 109.448C212.098 109.156 212.3 109.551 212.484 109.731C216.996 114.13 222.537 116.41 228.634 117.505C230.317 117.806 232.041 117.887 233.747 117.559C234.196 117.474 234.659 117.33 234.749 116.805C234.766 116.702 234.74 116.59 234.731 116.558C234.663 116.266 234.457 116.069 234.273 115.934C233.033 115.014 230.411 114.265 230.411 114.265C229.954 114.134 229.725 114.067 229.523 114.018C221.49 111.935 219.883 110.144 218.428 109.641C218.339 109.61 217.966 109.48 217.908 109.233C217.89 109.152 217.903 109.053 217.961 108.941C218.159 108.568 218.514 108.761 218.819 108.887C220.889 109.753 223.003 110.517 225.019 111.486C227.754 112.801 230.793 113.295 233.487 114.642C234.991 115.391 236.324 115.113 237.721 114.651C238.587 114.363 238.767 113.811 238.102 113.084C237.173 112.074 236.033 111.369 234.816 110.781C230.061 108.479 225.073 106.84 219.964 105.543C219.569 105.444 218.918 105.485 219.075 104.82C219.187 104.345 219.695 104.538 220.027 104.614C225.239 105.817 230.42 107.159 235.144 109.762C236.769 110.656 238.286 110.391 239.853 109.96C240.801 109.7 240.868 109.152 240.123 108.452C239.31 107.693 238.318 107.19 237.339 106.688C232.288 104.107 226.901 102.531 221.369 101.382C220.92 101.288 220.224 101.333 220.35 100.628C220.386 100.422 220.462 100.3 220.561 100.233C220.866 100.027 221.405 100.251 221.549 100.314C223.794 101.279 230.129 102.37 236.113 105.04C236.113 105.04 236.508 105.215 237.779 105.494C238.327 105.615 238.789 105.687 239.189 105.44C239.297 105.373 239.508 105.242 239.548 105.045C239.651 104.551 238.637 103.936 237.999 103.586C232.059 100.3 225.81 97.7195 219.416 95.4706C218.963 95.3091 218.339 95.1699 218.554 94.5235C218.806 93.7605 219.412 94.1285 219.888 94.3126C222.285 95.2372 224.683 96.1529 227.062 97.118C227.632 97.3469 227.911 97.3155 228.171 96.705C229.832 92.8089 231.525 88.9217 233.218 85.0391C233.487 84.4196 233.384 84.1279 232.647 84.1772C231.588 84.2446 230.524 84.2401 229.469 84.3299C223.879 84.7922 218.487 85.9862 213.692 89.0609C209.422 91.7989 206.769 95.5559 206.643 100.763L206.638 100.758Z" fill="white"/>
<path d="M168.125 130.957C167.793 130.477 167.743 130.36 167.658 130.284C160.416 123.816 153.174 117.348 145.928 110.884C145.717 110.696 145.515 110.511 145.214 110.449C139.332 109.223 133.42 108.272 127.376 108.752C122.622 109.129 118.141 110.35 114.23 113.214C112.861 114.219 111.694 115.422 110.76 116.939C110.814 116.953 110.926 116.975 111.065 116.975C111.667 116.98 112.125 116.576 112.215 116.504C112.96 115.898 118.406 114.013 124.305 113.398C129.325 112.872 129.976 113.447 131.467 113.654C131.956 113.721 132.652 113.645 132.809 114.277C132.953 114.843 132.441 115.242 132.077 115.615C130.789 116.948 129.204 117.891 127.673 118.901C125.661 120.229 123.762 121.702 121.926 123.264C121.432 123.686 121.046 124.215 121.392 124.862C121.49 125.041 121.643 125.149 121.737 125.198C122.155 125.423 122.752 125.104 122.891 125.032C124.593 124.152 132.311 121.473 133.833 121.037C134.668 120.799 135.471 120.463 136.293 120.176C136.486 120.108 136.764 120.077 136.845 119.938C137.429 118.914 138.039 119.484 138.646 119.875C144.199 123.457 149.749 127.039 155.293 130.634C155.576 130.818 155.841 130.957 156.187 130.957C160.057 130.953 163.927 130.957 168.121 130.957H168.125Z" fill="white"/>
<path d="M53.6909 149.638C53.7178 149.997 53.7493 150.527 53.8076 151.057C53.8435 151.38 53.8974 151.703 53.9737 152.022C55.2488 157.498 58.9349 161.161 63.254 164.352C63.8646 164.801 63.923 164.235 64.0756 163.912C65.1307 161.704 66.1678 159.491 67.2094 157.278C70.9179 149.387 74.6175 141.487 78.3529 133.605C78.7884 132.689 78.8423 132.353 77.6345 132.447C75.5558 132.609 73.4905 132.828 71.4567 133.286C66.3654 134.44 61.6332 136.334 57.8573 140.1C55.2758 142.677 53.7403 145.751 53.6909 149.638Z" fill="white"/>
<path d="M147.951 232.479C148.382 232.51 148.579 232.542 148.772 232.533C154.317 232.362 159.857 232.183 165.402 232.026C166.7 231.99 167.845 231.806 169.034 231.051C174.292 227.698 179.643 224.494 184.977 221.266C185.723 220.813 185.494 220.566 184.995 220.149C183.837 219.184 182.643 218.25 181.592 217.177C181.139 216.715 180.739 216.508 180.137 216.508C175.841 216.486 171.706 217.267 167.741 218.928C166.323 219.52 165.16 220.337 164.567 221.895C163.296 225.239 160.665 226.989 157.303 227.811C155.561 228.237 153.823 228.677 152.099 229.157C150.335 229.651 149.028 230.746 147.946 232.479H147.951Z" fill="white"/>
<path d="M221.483 84.1361C221.295 84.0014 221.147 83.8578 220.976 83.7815C217.631 82.2912 214.466 80.4374 211.112 78.9562C207.166 77.2146 203.367 75.1319 199.367 73.489C198.734 73.2287 198.361 73.1524 198.096 73.9424C196.83 77.6949 195.865 81.5147 195.299 85.4423C195.156 86.4298 195.483 86.8562 196.368 87.2826C199.996 89.0332 203.825 90.3618 207.269 92.4939C207.83 92.8395 208.162 92.7273 208.562 92.2021C210.717 89.3743 213.568 87.4397 216.769 86.0033C218.287 85.3211 219.867 84.7779 221.488 84.1406L221.483 84.1361Z" fill="white"/>
<path d="M127.091 117.971C124.783 117.226 122.637 117.132 120.455 117.549C116.244 118.357 112.652 120.108 110.466 124.044C110.044 124.803 110.062 125.18 110.955 125.575C120.119 129.619 129.269 133.695 138.405 137.802C139.357 138.229 139.635 137.923 139.712 137.048C139.734 136.806 139.761 136.554 139.734 136.316C139.16 131.401 137.207 127.083 133.992 123.34C133.444 122.698 132.757 122.563 131.9 122.882C128.959 123.973 125.987 124.974 123.037 126.046C122.166 126.365 121.385 126.576 120.779 125.638C120.186 124.713 120.164 123.802 120.895 122.936C121.614 122.092 122.48 121.41 123.356 120.745C124.541 119.843 125.749 118.968 127.096 117.971H127.091Z" fill="white"/>
<path d="M134.39 122.047C136.895 124.524 138.255 127.473 139.432 130.521C139.616 130.997 139.71 131.311 140.406 131.284C144.433 131.136 148.465 131.087 152.497 130.997C152.878 130.988 153.264 130.957 153.682 130.93C153.606 130.75 153.597 130.651 153.543 130.615C148.537 127.411 143.526 124.215 138.52 121.01C138.147 120.772 137.797 120.714 137.375 120.889C136.437 121.275 135.485 121.62 134.39 122.042V122.047Z" fill="white"/>
<path d="M350.067 269.314C349.416 269.503 349.115 269.606 348.81 269.682C346.78 270.176 344.953 270.364 343.018 268.883C340.243 266.76 337.15 265.059 334.187 263.178C310.297 248.011 286.407 232.848 262.513 217.686C260.69 216.528 259.116 216.806 257.79 218.521C253.78 223.692 249.538 228.643 244.24 232.57C242.296 234.011 240.253 235.286 237.905 235.95C235.503 236.628 233.024 236.794 231.058 235.03C229.774 233.876 228.597 232.476 228.036 230.716C227.336 228.526 226.954 226.29 226.873 223.997C226.523 213.79 228.759 203.977 231.673 194.318C237.994 173.343 247.167 153.673 259.289 135.409C264.17 128.052 269.539 121.068 276.319 115.305C278.784 113.208 281.414 111.359 284.58 110.425C289.069 109.101 292.509 110.722 294.21 115.094C295.755 119.057 295.894 123.209 295.598 127.388C294.408 144.18 288.814 159.769 282.447 175.138C281.854 176.565 280.755 178.002 280.79 179.411C280.826 180.821 281.985 182.208 282.658 183.599C283.192 184.699 283.825 185.758 284.256 186.898C285.065 189.026 286.596 190.462 288.392 191.733C306.579 204.651 324.754 217.583 342.937 230.505C351.979 236.933 361.022 243.352 370.082 249.753C370.607 250.121 370.85 250.754 371.51 251.009C371.851 251.144 371.707 251.656 371.555 252.01C370.796 253.819 369.974 255.601 368.641 257.069C368.142 257.617 368.165 257.864 368.865 258.173C370.095 258.721 371.281 259.363 372.484 259.964C373.18 260.31 373.377 260.7 372.991 261.517C369.534 268.856 366.14 276.231 362.692 283.574C362.229 284.557 362.454 284.706 363.451 284.67C370.791 284.373 378.132 284.122 385.468 283.862C385.751 283.853 386.043 283.835 386.321 283.889C386.707 283.965 387.026 284.176 386.999 284.62C386.977 284.984 386.73 285.208 386.375 285.276C386.137 285.321 385.89 285.334 385.648 285.343C374.105 285.738 362.566 286.137 351.023 286.523C341.033 286.856 91.0393 287.17 81.0452 287.489C80.3942 287.511 79.7387 287.502 79.0877 287.475C78.7869 287.462 78.5265 287.322 78.504 286.968C78.4816 286.613 78.7195 286.438 79.0159 286.389C79.4963 286.313 79.9856 286.268 80.475 286.245C84.2239 286.088 327.977 285.927 331.726 285.805C332.485 285.783 332.992 285.666 333.239 284.809C333.45 284.068 334.052 283.498 334.591 282.942C336.427 281.047 338.631 279.714 341.195 279.171C342.551 278.884 343.413 278.215 344.181 277.16C346.03 274.629 347.939 272.142 350.067 269.319V269.314Z" fill="black"/>
<path d="M366.844 249.884C366.66 249.336 366.247 249.206 365.933 248.986C339.609 230.268 313.282 211.551 286.945 192.842C286.101 192.245 285.392 191.549 284.79 190.705C282.087 186.908 280.255 182.648 278.199 178.501C272.771 167.54 267.334 156.587 261.901 145.631C260.896 143.602 259.877 141.582 258.741 139.311C257.991 140.545 257.268 141.725 256.568 142.875C255.445 144.719 254.655 146.061 254.52 146.29C254.52 146.29 243.848 164.196 239.278 176.274C239.156 176.602 238.865 177.392 239.165 178.164C239.228 178.326 239.3 178.442 239.323 178.478C240.535 180.453 246.542 193.771 259.782 211.883C261.205 213.826 261.619 215.128 262.727 215.833C283.609 229.047 304.473 242.298 325.337 255.544C331.191 259.26 337.046 262.968 342.882 266.707C343.641 267.196 344.036 267.394 344.351 266.272C344.71 264.974 345.437 263.816 346.232 262.721C349.761 257.842 354.394 254.327 359.804 251.791C362.022 250.754 364.348 250.063 366.849 249.884H366.844Z" fill="white"/>
<path d="M347.71 285.226C347.71 285.226 347.71 285.249 347.71 285.262C351.661 285.101 355.612 284.908 359.568 284.809C360.484 284.786 360.933 284.459 361.305 283.66C364.668 276.46 368.053 269.274 371.474 262.101C371.825 261.369 371.596 261.113 370.994 260.804C369.8 260.184 368.623 259.529 367.47 258.842C366.181 258.074 364.821 257.558 363.321 257.917C358.827 258.995 355.19 261.392 352.528 265.189C351.98 265.97 351.616 266.827 352.025 267.828C352.169 268.174 352.106 268.537 351.841 268.856C349.358 271.832 347.284 275.104 345.043 278.26C344.41 279.149 343.741 279.692 342.668 279.939C339.692 280.63 337.128 282.075 335.175 284.477C334.924 284.782 334.475 285.132 334.627 285.5C334.807 285.935 335.355 285.693 335.732 285.684C339.723 285.545 343.719 285.383 347.71 285.226Z" fill="white"/>
<path d="M209.438 174.311C209.523 161.787 214.924 148.371 224.388 136.494C233.754 124.743 245.732 116.47 259.466 110.608C260.126 110.325 260.903 110.078 261.249 110.954C261.657 111.99 260.773 112.269 260.05 112.565C250.132 116.605 241.121 122.108 233.246 129.384C221.937 139.833 214.439 152.438 211.907 167.78C210.407 176.869 211.162 185.824 213.581 194.671C213.73 195.219 213.851 195.78 213.954 196.341C214.008 196.637 213.918 196.942 213.59 197.037C213.272 197.126 213.038 196.924 212.904 196.651C212.728 196.287 212.562 195.91 212.428 195.528C210.353 189.577 209.451 183.432 209.438 174.32V174.311Z" fill="black"/>
<path d="M261.976 42.9166C262.021 45.6232 261.361 47.9304 260.324 50.1163C256.292 58.6178 252.157 67.0654 247.659 75.3335C244.817 80.5627 242.5 86.0434 239.851 91.3669C239.146 92.7853 238.082 94.0062 237.602 95.5548C237.444 96.0575 236.973 96.3672 236.425 96.1248C235.788 95.8465 235.887 95.3169 236.093 94.7737C236.78 92.9738 237.997 91.4611 238.791 89.7151C244.686 76.8192 251.686 64.4755 257.805 51.6918C258.824 49.5597 259.844 47.4366 260.27 45.0756C260.652 42.9659 260.468 40.9416 259.687 38.9621C259.462 38.3965 259.202 37.8399 258.95 37.2833C258.739 36.812 258.542 36.3138 259.148 36.022C259.727 35.7437 260.041 36.1387 260.284 36.619C261.316 38.6793 262.124 40.7979 261.972 42.9121L261.976 42.9166Z" fill="black"/>
<path d="M185.206 195.196C183.118 195.155 178.004 194.864 177.286 194.769C177.066 194.742 176.859 194.742 176.653 194.787C176.505 194.819 176.496 194.846 176.334 194.895C176.145 194.953 175.589 195.124 175.189 194.864C175.09 194.801 175.019 194.724 174.987 194.689C174.933 194.63 174.803 194.482 174.745 194.258C174.686 194.029 174.722 193.782 174.834 193.548C175.104 192.974 175.634 192.898 176.19 192.978C178.206 193.279 180.231 193.468 182.269 193.468C183.41 193.468 185.345 193.562 189.237 193.468C189.686 193.459 190.468 193.432 191.406 193.109C192.443 192.749 193.157 192.206 193.786 191.681C197.849 188.265 199.425 184.311 199.748 183.705C199.878 183.462 199.954 183.175 199.977 182.901C200.017 182.408 200.242 182.129 200.74 182.147C201.306 182.17 201.481 182.574 201.503 183.067C201.521 183.44 201.418 183.786 201.247 184.122C198.091 190.308 195.159 192.615 195.159 192.615C194.127 193.513 193.462 193.948 192.699 194.28C192.093 194.545 191.316 194.792 189.381 194.998C187.195 195.232 185.511 195.205 185.201 195.196H185.206Z" fill="black"/>
<path d="M182.74 104.808C177.959 104.422 174.048 100.818 174.241 100.351C174.255 100.324 174.318 100.212 174.425 100.19C174.677 100.14 174.969 100.629 175.013 100.701C175.413 101.33 178.915 104.189 183.068 104.166C186.911 104.144 190.512 101.648 191.141 100.634C191.208 100.522 191.616 99.8304 192.056 99.8708C192.214 99.8888 192.393 100.001 192.514 100.131C192.514 100.131 192.681 100.315 192.73 100.567C192.847 101.132 188.33 105.262 182.74 104.808Z" fill="black"/>
<path d="M159.344 121.226C159.747 121.081 160.378 120.862 161.166 120.634C163.753 119.883 165.341 119.793 168.574 119.218C169.365 119.077 170.534 118.858 171.953 118.549C175.436 122.604 178.924 126.659 182.407 130.714C178.032 130.795 173.662 130.873 169.288 130.954C169.201 130.761 169.11 130.572 169.024 130.379C165.796 127.328 162.572 124.277 159.344 121.226Z" fill="white"/>
<path d="M242.154 64.5815C239.478 64.9765 235.46 65.2817 230.755 64.4469C224.433 63.3247 219.912 60.6899 216.581 58.5623C201.908 49.199 182.656 32.0748 180.331 30.0011C159.584 5.11159 132.866 -4.62426 115.984 3.9625C112.514 5.72653 107.193 9.42068 102.744 17.7426C102.008 19.2239 101.087 21.338 100.369 23.9863C99.9649 25.4765 99.242 28.1293 99.251 30.7103C99.269 35.0328 101.321 42.0979 107.117 44.4904C109.743 45.5721 114.821 46.3981 117.785 43.1348C120.389 40.2666 119.621 36.146 119.5 35.54C119.5 35.54 118.458 31.59 115.14 28.5333C109.802 23.6227 97.7245 22.4018 88.2063 26.6705C69.6593 34.9879 74.6788 57.9428 54.3853 68.3385C46.7123 72.2705 39.3627 72.3738 35.6003 72.4232C17.5965 72.6745 4.88616 62.6918 0.903778 59.2804" stroke="black" stroke-width="2.03256" stroke-miterlimit="10" stroke-linecap="round"/>
<path d="M118.18 184.819C115.145 183.266 111.661 182.943 108.388 184.002C108.28 184.038 108.132 184.146 108.096 184.218C108.06 184.29 108.055 184.469 108.096 184.581L111.733 195.83L100.445 199.538C100.225 199.609 100.077 199.897 100.113 200.188C101.173 203.465 103.471 206.1 106.507 207.649C112.792 210.862 120.55 208.358 123.765 202.074C126.98 195.79 124.474 188.033 118.189 184.819H118.18ZM114.655 189.034C115.172 188.024 116.483 187.598 117.493 188.118C118.503 188.639 118.93 189.945 118.413 190.96C117.897 191.974 116.586 192.396 115.571 191.875C114.557 191.355 114.099 190.12 114.655 189.034Z" fill="white"/>
<path d="M129.162 68.3182C129.358 68.2082 129.427 67.9603 129.317 67.7646C129.207 67.5689 128.96 67.4994 128.764 67.6094L129.162 68.3182ZM123.711 67.096C124.05 67.6268 124.721 68.3109 125.657 68.6755C126.612 69.0477 127.816 69.0748 129.162 68.3182L128.764 67.6094C127.63 68.2467 126.68 68.2019 125.952 67.918C125.203 67.6264 124.659 67.0702 124.396 66.6579L123.711 67.096Z" fill="black"/>
<path d="M131.564 79.1852C132.539 80.0872 135.023 80.7853 137.155 76.3613" stroke="black" stroke-width="0.813025" stroke-linecap="round"/>
<path d="M132.521 67.6484C133.457 68.7186 135.95 70.284 138.432 67.9837" stroke="black" stroke-width="0.813025" stroke-linecap="round"/>
<path d="M130.169 66.832C131.785 71.2875 131.174 75.3934 130.65 76.2234C129.977 77.2886 133.227 76.7475 133.663 75.2624" stroke="black" stroke-width="0.813025" stroke-linecap="round"/>
</g>
<defs>
<clipPath id="clip0_9937_1606">
<path d="M0 0H387V279.506C387 283.924 383.418 287.506 379 287.506H0V0Z" fill="white"/>
</clipPath>
</defs>
</svg>
