<svg xmlns="http://www.w3.org/2000/svg" width="24" height="24" viewBox="0 0 24 24" fill="none">
<g id="category">
<path id="Vector" d="M7.93563 13.9697C9.0654 13.9697 9.97563 14.8827 9.97563 16.0307V19.4397C9.97563 20.5787 9.06439 21.4997 7.93563 21.4997H4.55562C3.43559 21.4997 2.51562 20.5774 2.51562 19.4397V16.0307C2.51562 14.884 3.43457 13.9697 4.55562 13.9697H7.93563ZM19.4757 13.9697C20.5968 13.9697 21.5157 14.884 21.5157 16.0307V19.4397C21.5157 20.5774 20.5958 21.4997 19.4757 21.4997H16.0957C14.967 21.4997 14.0557 20.5787 14.0557 19.4397V16.0307C14.0557 14.8827 14.966 13.9697 16.0957 13.9697H19.4757ZM7.93563 2.5C9.06426 2.5 9.97563 3.42089 9.97563 4.561V7.97C9.97563 9.1177 9.06565 10.03 7.93563 10.03H4.55562C3.43432 10.03 2.51562 9.11642 2.51562 7.97V4.561C2.51562 3.42218 3.43571 2.5 4.55562 2.5H7.93563ZM19.4757 2.5C20.5956 2.5 21.5157 3.42218 21.5157 4.561V7.97C21.5157 9.11642 20.597 10.03 19.4757 10.03H16.0957C14.9657 10.03 14.0557 9.1177 14.0557 7.97V4.561C14.0557 3.42089 14.9671 2.5 16.0957 2.5H19.4757Z" fill="none" stroke="#898989"/>
</g>
</svg>