<svg width="20" height="20" viewBox="0 0 20 20" fill="none" xmlns="http://www.w3.org/2000/svg">
<path d="M13.9992 20H5.89922C4.24922 20 2.94922 18.65 2.94922 17.05V8C2.94922 7.7 3.14922 7.5 3.44922 7.5C3.74922 7.5 3.94922 7.7 3.94922 8V17.05C3.94922 18.15 4.84922 19 5.89922 19H13.9992C15.0992 19 15.9492 18.1 15.9492 17.05V8C15.9492 7.7 16.1492 7.5 16.4492 7.5C16.7492 7.5 16.9492 7.7 16.9492 8V17.05C16.9492 18.65 15.5992 20 13.9992 20ZM16.6492 2.45H12.8492C12.5992 1.05 11.3992 0 9.94922 0C8.49922 0 7.29922 1.05 7.04922 2.45H3.24922C2.09922 2.45 1.19922 3.35 1.19922 4.5C1.19922 5.65 2.09922 6.5 3.24922 6.5H16.6992C17.8492 6.5 18.7492 5.6 18.7492 4.45C18.7492 3.3 17.7992 2.45 16.6492 2.45ZM9.94922 1C10.8492 1 11.5992 1.6 11.7992 2.45H8.04922C8.29922 1.6 9.04922 1 9.94922 1ZM16.6492 5.5H3.24922C2.69922 5.5 2.19922 5.05 2.19922 4.45C2.19922 3.9 2.64922 3.4 3.24922 3.4H16.6992C17.2492 3.4 17.7492 3.85 17.7492 4.45C17.6992 5.05 17.2492 5.5 16.6492 5.5Z" fill="#898989"/>
<path d="M6.44922 17.5492C6.14922 17.5492 5.94922 17.3492 5.94922 17.0492V8.69922C5.94922 8.39922 6.14922 8.19922 6.44922 8.19922C6.74922 8.19922 6.94922 8.39922 6.94922 8.69922V17.0492C6.94922 17.2992 6.69922 17.5492 6.44922 17.5492ZM13.4492 17.5492C13.1492 17.5492 12.9492 17.3492 12.9492 17.0492V8.69922C12.9492 8.39922 13.1492 8.19922 13.4492 8.19922C13.7492 8.19922 13.9492 8.39922 13.9492 8.69922V17.0492C13.9492 17.2992 13.6992 17.5492 13.4492 17.5492ZM9.94922 17.5492C9.64922 17.5492 9.44922 17.3492 9.44922 17.0492V8.69922C9.44922 8.39922 9.64922 8.19922 9.94922 8.19922C10.2492 8.19922 10.4492 8.39922 10.4492 8.69922V17.0492C10.4492 17.2992 10.1992 17.5492 9.94922 17.5492Z" fill="#898989"/>
</svg>
