<svg width="244" height="156" viewBox="0 0 244 156" fill="none" xmlns="http://www.w3.org/2000/svg">
<g clip-path="url(#clip0_11877_14270)">
<rect width="244" height="156" fill="#EFEFEF"/>
<path d="M100 -0.678862L0.5 124.5L-1 -1.5L100 -0.678862L245 0.5V133L100 -0.678862Z" fill="#E9E9E9"/>
<path d="M21 156L61.2162 99.27L153.324 95L213 156H21Z" fill="#E9E9E9"/>
<path d="M-76.8889 -73.8393C-72.5515 -73.473 -66.0883 -72.6133 -58.7282 -70.325C-48.8399 -67.25 -42.0876 -63.0811 -37.1446 -59.8091C-15.373 -45.4063 12.3496 -21.3068 15.6977 -18.39C44.4504 14.4994 85.3726 32.8634 113.8 28.6226C119.644 27.7521 128.775 25.3535 137.325 17.7225C138.758 16.3478 140.595 14.3471 142.203 11.7125C143.108 10.2299 144.724 7.59176 145.16 4.81452C145.885 0.162385 143.845 -8.03924 135.016 -12.3245C131.015 -14.2638 123.059 -16.6527 117.763 -14.0205C113.108 -11.7069 113.614 -7.05025 113.702 -6.363C113.702 -6.363 114.674 -1.80877 119.434 2.45806C127.092 9.31498 146.145 14.1975 162.073 12.4221C193.111 8.96316 189.109 -17.1975 223.295 -22.3743C236.221 -24.3333 247.963 -22.2717 253.973 -21.2126C282.737 -16.161 301.27 -1.67226 307.028 3.1722" stroke="black" stroke-miterlimit="10" stroke-linecap="round"/>
<rect width="106.287" height="99.0308" rx="8.41057" transform="matrix(0.999999 -0.00128986 0.00112979 0.999999 57.293 34.2305)" fill="black"/>
<path d="M109.955 131.36C124.321 131.275 138.686 131.199 153.052 131.122C153.15 131.121 153.247 131.121 153.345 131.122C153.931 131.123 154.514 131.125 155.077 130.87C159.279 128.963 161.874 125.554 162.807 120.857C162.781 120.758 162.759 120.674 162.739 120.602C162.74 120.529 162.74 120.445 162.74 120.349C162.673 109.072 162.699 100.502 162.726 91.6542C162.748 84.4527 162.771 77.0673 162.744 67.8881C162.739 65.6267 162.712 63.365 162.685 61.103C162.627 56.3256 162.57 51.547 162.717 46.7676C162.757 45.4721 162.322 44.2858 161.73 43.1802C160.082 40.1148 157.586 38.2497 154.351 37.653C152.528 37.3184 150.655 37.224 148.797 37.1797C137.64 36.9163 126.483 36.6657 115.326 36.4152C106.4 36.2147 97.4744 36.0142 88.5487 35.8072C88.0424 35.7961 87.5386 35.8079 87.0347 35.8197C86.3623 35.8354 85.6896 35.8512 85.01 35.8126C83.0671 35.6949 81.1197 35.6585 79.1712 35.6221C78.197 35.6038 77.2226 35.5856 76.2483 35.5572C75.5097 35.5379 75.0948 35.7477 75.0752 36.653C75.0171 39.3109 75.0525 41.9618 75.3912 44.6089C75.4827 45.3415 75.7821 45.645 76.4742 45.647C78.3408 45.6417 80.2071 45.6612 82.0732 45.6973C82.773 45.7078 83.0883 45.3885 83.129 44.6496C83.1954 43.5372 83.0998 42.4396 83.0042 41.3401C82.9849 41.1187 82.9656 40.8972 82.9477 40.6755C82.8068 38.9535 83.3351 38.4047 85.1174 38.3067C86.4637 38.2354 86.9317 38.7326 86.9571 40.3531C86.9721 41.1952 86.9524 42.0369 86.9328 42.8785C86.923 43.2993 86.9131 43.7201 86.9076 44.141C86.8943 45.16 87.3618 45.6876 88.3102 45.7239L88.87 45.7323C94.2419 45.7709 99.6137 45.8127 104.986 45.8545C118.954 45.9632 132.922 46.072 146.891 46.1244C150.849 46.1419 153.021 48.9908 152.758 53.0664C152.744 53.2869 152.728 53.5069 152.712 53.7267C152.662 54.4335 152.612 55.1377 152.62 55.8477C152.682 62.0134 152.751 68.1806 152.819 74.3481C152.916 82.9928 153.012 91.6379 153.089 100.28C153.102 101.662 153.138 103.046 153.174 104.43C153.249 107.297 153.324 110.168 153.187 113.035C153.046 116.074 152.425 118.956 150.582 121.388C149.331 123.031 147.779 123.963 145.714 123.716C144.898 123.616 144.068 123.613 143.248 123.609C143.139 123.609 143.031 123.609 142.923 123.608C138.695 123.558 134.467 123.508 130.239 123.458C111.209 123.233 92.1788 123.008 73.1479 122.833C70.224 122.806 68.3293 121.39 67.0885 118.738C66.12 116.671 65.8224 114.448 65.8367 112.164C65.8516 109.647 65.8678 107.13 65.884 104.612C65.9378 96.2355 65.9916 87.8559 65.9994 79.4806C66.0022 76.4691 66.0427 73.4581 66.0832 70.447C66.1633 64.495 66.2434 58.543 66.032 52.5867C65.9012 48.9124 67.9025 46.3334 71.2475 45.6771C71.7038 45.5892 72.1812 45.5927 72.6573 45.5963C72.8077 45.5974 72.9579 45.5986 73.1073 45.5968C73.6674 45.5885 73.8966 45.3095 73.8109 44.7266C73.4341 42.0207 73.4229 39.3037 73.4741 36.5793C73.4821 35.9646 73.3479 35.5222 72.6948 35.5042C72.2525 35.4886 71.8097 35.4651 71.3671 35.4416C68.9623 35.3141 66.5607 35.1867 64.2537 36.3171C61.4045 37.712 59.4177 39.776 59.1925 43.3204C59.1686 43.6952 59.1306 44.0711 59.0925 44.4473C59.037 44.9959 58.9814 45.5452 58.9696 46.0921C58.517 72.9881 58.0721 99.8925 57.635 126.789C57.5883 129.771 57.7471 118.218 57.9258 121.203C58.2786 126.941 62.003 131.766 68.1874 131.651C77.9857 131.469 87.7896 131.445 97.593 131.42C101.722 131.409 105.85 131.399 109.978 131.377L109.955 131.36Z" fill="white"/>
<path d="M109.955 131.36C124.321 131.275 138.686 131.199 153.052 131.122C153.15 131.121 153.247 131.121 153.345 131.122C153.931 131.123 154.514 131.125 155.077 130.87C159.279 128.963 161.874 125.554 162.807 120.857C162.781 120.758 162.759 120.674 162.739 120.602C162.74 120.529 162.74 120.445 162.74 120.349C162.673 109.072 162.699 100.502 162.726 91.6542C162.748 84.4527 162.771 77.0673 162.744 67.8881C162.739 65.6267 162.712 63.365 162.685 61.103C162.627 56.3256 162.57 51.547 162.717 46.7676C162.757 45.4721 162.322 44.2858 161.73 43.1802C160.082 40.1148 157.586 38.2497 154.351 37.653C152.528 37.3184 150.655 37.224 148.797 37.1797C137.64 36.9163 126.483 36.6657 115.326 36.4152C106.4 36.2147 97.4744 36.0142 88.5487 35.8072C88.0424 35.7961 87.5386 35.8079 87.0347 35.8197C86.3623 35.8354 85.6896 35.8512 85.01 35.8126C83.0671 35.6949 81.1197 35.6585 79.1712 35.6221C78.197 35.6038 77.2226 35.5856 76.2483 35.5572C75.5097 35.5379 75.0948 35.7477 75.0752 36.653C75.0171 39.3109 75.0525 41.9618 75.3912 44.6089C75.4827 45.3415 75.7821 45.645 76.4742 45.647C78.3408 45.6417 80.2071 45.6612 82.0732 45.6973C82.773 45.7078 83.0883 45.3885 83.129 44.6496C83.1954 43.5372 83.0998 42.4396 83.0042 41.3401C82.9849 41.1187 82.9656 40.8972 82.9477 40.6755C82.8068 38.9535 83.3351 38.4047 85.1174 38.3067C86.4637 38.2354 86.9317 38.7326 86.9571 40.3531C86.9721 41.1952 86.9524 42.0369 86.9328 42.8785C86.923 43.2993 86.9131 43.7201 86.9076 44.141C86.8943 45.16 87.3618 45.6876 88.3102 45.7239L88.87 45.7323C94.2419 45.7709 99.6137 45.8127 104.986 45.8545C118.954 45.9632 132.922 46.072 146.891 46.1244C150.849 46.1419 153.021 48.9908 152.758 53.0664C152.744 53.2869 152.728 53.5069 152.712 53.7267C152.662 54.4335 152.612 55.1377 152.62 55.8477C152.682 62.0134 152.751 68.1806 152.819 74.3481C152.916 82.9928 153.012 91.6379 153.089 100.28C153.102 101.662 153.138 103.046 153.174 104.43C153.249 107.297 153.324 110.168 153.187 113.035C153.046 116.074 152.425 118.956 150.582 121.388C149.331 123.031 147.779 123.963 145.714 123.716C144.898 123.616 144.068 123.613 143.248 123.609C143.139 123.609 143.031 123.609 142.923 123.608C138.695 123.558 134.467 123.508 130.239 123.458C111.209 123.233 92.1788 123.008 73.1479 122.833C70.224 122.806 68.3293 121.39 67.0885 118.738C66.12 116.671 65.8224 114.448 65.8367 112.164C65.8516 109.647 65.8678 107.13 65.884 104.612C65.9378 96.2355 65.9916 87.8559 65.9994 79.4806C66.0022 76.4691 66.0427 73.4581 66.0832 70.447C66.1633 64.495 66.2434 58.543 66.032 52.5867C65.9012 48.9124 67.9025 46.3334 71.2475 45.6771C71.7038 45.5892 72.1812 45.5927 72.6573 45.5963C72.8077 45.5974 72.9579 45.5986 73.1073 45.5968C73.6674 45.5885 73.8966 45.3095 73.8109 44.7266C73.4341 42.0207 73.4229 39.3037 73.4741 36.5793C73.4821 35.9646 73.3479 35.5222 72.6948 35.5042C72.2525 35.4886 71.8097 35.4651 71.3671 35.4416C68.9623 35.3141 66.5607 35.1867 64.2537 36.3171C61.4045 37.712 59.4177 39.776 59.1925 43.3204C59.1686 43.6952 59.1306 44.0711 59.0925 44.4473C59.037 44.9959 58.9814 45.5452 58.9696 46.0921C58.517 72.9881 58.0721 99.8925 57.635 126.789C57.5883 129.771 57.7471 118.218 57.9258 121.203C58.2786 126.941 62.003 131.766 68.1874 131.651C77.9857 131.469 87.7896 131.445 97.593 131.42C101.722 131.409 105.85 131.399 109.978 131.377L109.955 131.36Z" stroke="black"/>
<path d="M67.7879 93.4896C68.3505 93.2903 68.5507 92.8529 68.8196 92.508C72.2279 88.1969 75.6285 83.8857 79.0369 79.5663C83.6001 73.7769 88.1631 67.9959 92.734 62.2066C94.2523 60.2851 94.6872 60.3331 95.9891 62.4795C96.1261 62.7059 96.2555 62.9238 96.3925 63.1502C102.771 73.7639 109.142 84.3857 115.528 94.9912C115.879 95.5697 116.126 96.2713 116.674 96.6118C117.166 96.4114 117.35 96.0486 117.595 95.7448C122.9 89.144 128.197 82.5513 133.494 75.9504C133.778 75.5974 134.055 75.2359 134.347 74.8996C135.414 73.661 135.655 73.6563 136.729 74.7773C136.951 75.0133 137.166 75.2491 137.381 75.4933C141.44 80.2564 145.492 85.0194 149.552 89.7826C150.027 90.338 150.422 91.0169 151.126 91.3182C151.453 90.7 151.344 90.1583 151.335 89.6513C151.234 78.3005 151.134 66.9413 150.986 55.5898C150.971 54.3932 151.134 53.2075 151.095 52.0188C151.014 49.3173 149.617 47.8675 147.105 47.8715C146.545 47.8715 145.985 47.888 145.425 47.888C126.28 47.7353 107.134 47.5742 87.9886 47.4215C86.6433 47.4098 86.6198 47.426 86.3442 48.8759C85.935 51.03 85.4638 53.1582 84.4662 55.1041C82.3429 59.2848 79.1375 59.37 76.7874 55.3136C75.6616 53.3776 75.013 51.2326 74.5131 49.0234C74.0942 47.1561 74.0785 47.1641 72.2871 47.37C72.0378 47.3996 71.7888 47.4125 71.5472 47.4504C69.0538 47.8037 67.6394 49.5108 67.7445 52.1793C67.8032 53.6425 67.7608 55.0958 67.7496 56.5497C67.6807 68.3715 67.6352 80.1855 67.5895 92.0077C67.5837 92.4563 67.4842 92.9284 67.7882 93.473L67.7879 93.4896Z" fill="white"/>
<path d="M129.377 121.435C117.655 101.926 106.032 82.5848 94.3096 63.0762C92.1033 65.8681 90.0948 68.3972 88.0941 70.9263C81.4357 79.3431 74.7927 87.7685 68.1035 96.1599C67.637 96.7429 67.5366 97.2814 67.5357 97.9461C67.5087 102.989 67.4738 108.04 67.4545 113.083C67.4466 114.287 67.6568 115.462 68.023 116.598C68.8601 119.194 69.9641 121.013 73.5723 121.042C91.4739 121.168 109.381 121.469 127.281 121.694C127.88 121.703 128.501 121.829 129.377 121.443L129.377 121.435Z" fill="white"/>
<circle cx="9" cy="9" r="8.29912" transform="matrix(0.999889 0.0149183 -0.0130673 0.999915 110.43 55.9609)" fill="white" stroke="black" stroke-width="1.40176"/>
<path d="M74.5187 35.8568C74.5187 35.8568 73.6642 27.5315 76.1862 23.8655C77.4333 22.0528 78.2837 20.2904 80.2362 20.3177C82.1886 20.345 83.0208 22.1017 84.1855 23.9772C86.1961 27.2148 85.5084 36.611 85.534 34.8091" stroke="black"/>
</g>
<defs>
<clipPath id="clip0_11877_14270">
<rect width="244" height="156" fill="white"/>
</clipPath>
</defs>
</svg>
