<svg width="24" height="24" viewBox="0 0 24 24" fill="none" xmlns="http://www.w3.org/2000/svg">
<rect width="24" height="24" rx="12" fill="#ECEAEA"/>
<path fill-rule="evenodd" clip-rule="evenodd" d="M17.8254 9.12201L17.4055 8.39332C17.0502 7.77674 16.2629 7.56404 15.6455 7.91782C15.3516 8.09096 15.0009 8.14008 14.6707 8.05435C14.3406 7.96863 14.0581 7.7551 13.8855 7.46085C13.7745 7.27382 13.7149 7.06079 13.7126 6.84332C13.7226 6.49464 13.5911 6.15677 13.348 5.90665C13.1048 5.65653 12.7708 5.51548 12.422 5.51563H11.576C11.2342 5.51563 10.9066 5.6518 10.6655 5.89402C10.4245 6.13624 10.2899 6.46454 10.2915 6.80627C10.2814 7.51182 9.70649 8.07845 9.00086 8.07838C8.78338 8.07612 8.57035 8.01647 8.38333 7.90547C7.7659 7.55169 6.97862 7.76439 6.62336 8.38097L6.17256 9.12201C5.81774 9.73782 6.02755 10.5246 6.64189 10.882C7.04122 11.1125 7.28722 11.5386 7.28722 11.9997C7.28722 12.4608 7.04122 12.8869 6.64189 13.1174C6.02833 13.4724 5.81829 14.2573 6.17256 14.8712L6.59866 15.6061C6.76511 15.9064 7.04439 16.1281 7.37469 16.2219C7.705 16.3158 8.05909 16.2742 8.35862 16.1063C8.65308 15.9345 9.00398 15.8874 9.33331 15.9755C9.66264 16.0637 9.94312 16.2797 10.1124 16.5756C10.2234 16.7626 10.2831 16.9757 10.2853 17.1931C10.2853 17.9059 10.8632 18.4838 11.576 18.4838H12.422C13.1324 18.4838 13.7092 17.9097 13.7126 17.1993C13.711 16.8565 13.8464 16.5273 14.0888 16.2849C14.3312 16.0425 14.6605 15.907 15.0033 15.9087C15.2202 15.9145 15.4324 15.9739 15.6208 16.0816C16.2366 16.4364 17.0234 16.2266 17.3808 15.6123L17.8254 14.8712C17.9975 14.5758 18.0447 14.224 17.9566 13.8937C17.8685 13.5633 17.6524 13.2817 17.3561 13.1113C17.0597 12.9408 16.8436 12.6592 16.7555 12.3289C16.6674 11.9985 16.7146 11.6467 16.8867 11.3513C16.9986 11.1559 17.1607 10.9939 17.3561 10.882C17.9667 10.5248 18.176 9.74261 17.8254 9.12818V9.12201Z" stroke="#898989" stroke-width="1.5" stroke-linecap="round" stroke-linejoin="round"/>
<path d="M12.003 13.7755C12.9852 13.7755 13.7814 12.9793 13.7814 11.9971C13.7814 11.015 12.9852 10.2188 12.003 10.2188C11.0208 10.2188 10.2246 11.015 10.2246 11.9971C10.2246 12.9793 11.0208 13.7755 12.003 13.7755Z" stroke="#898989" stroke-width="1.5" stroke-linecap="round" stroke-linejoin="round"/>
</svg>
