<svg width="24" height="24" viewBox="0 0 24 24" fill="none" xmlns="http://www.w3.org/2000/svg">
<g clip-path="url(#clip0_11877_14257)">
<path d="M12 0C9.62663 0 7.30655 0.703788 5.33316 2.02236C3.35977 3.34094 1.8217 5.21508 0.913451 7.4078C0.00519941 9.60051 -0.232441 12.0133 0.230582 14.3411C0.693605 16.6689 1.83649 18.807 3.51472 20.4853C5.19295 22.1635 7.33115 23.3064 9.65892 23.7694C11.9867 24.2324 14.3995 23.9948 16.5922 23.0865C18.7849 22.1783 20.6591 20.6402 21.9776 18.6668C23.2962 16.6934 24 14.3734 24 12C23.9963 8.81853 22.7309 5.76842 20.4812 3.51878C18.2316 1.26914 15.1815 0.00367709 12 0ZM16.1538 8.30769C16.4277 8.30769 16.6954 8.3889 16.9231 8.54104C17.1508 8.69318 17.3283 8.90943 17.4331 9.16244C17.5379 9.41544 17.5653 9.69384 17.5119 9.96243C17.4584 10.231 17.3266 10.4777 17.1329 10.6714C16.9393 10.865 16.6926 10.9969 16.424 11.0503C16.1554 11.1037 15.877 11.0763 15.624 10.9715C15.371 10.8667 15.1547 10.6893 15.0026 10.4616C14.8504 10.2339 14.7692 9.96616 14.7692 9.69231C14.7693 9.32509 14.9151 8.97292 15.1748 8.71325C15.4345 8.45359 15.7866 8.30771 16.1538 8.30769ZM7.84616 8.30769C8.12001 8.30769 8.38771 8.3889 8.61541 8.54104C8.84311 8.69318 9.02058 8.90943 9.12538 9.16244C9.23017 9.41544 9.25759 9.69384 9.20417 9.96243C9.15074 10.231 9.01887 10.4777 8.82523 10.6714C8.63159 10.865 8.38487 10.9969 8.11628 11.0503C7.84769 11.1037 7.56929 11.0763 7.31629 10.9715C7.06328 10.8667 6.84704 10.6893 6.69489 10.4616C6.54275 10.2339 6.46154 9.96616 6.46154 9.69231C6.46156 9.32509 6.60745 8.97292 6.86711 8.71325C7.12677 8.45359 7.47894 8.30771 7.84616 8.30769ZM17.5962 15.2317C16.8919 16.4487 15.8112 17.4038 14.5168 17.9531C13.065 18.5649 11.4399 18.626 9.94626 18.1249C8.45263 17.6239 7.19308 16.5952 6.40385 15.2317C6.34312 15.1268 6.30365 15.011 6.28768 14.8908C6.27171 14.7707 6.27956 14.6486 6.31078 14.5315C6.34201 14.4144 6.39599 14.3046 6.46965 14.2083C6.54331 14.1121 6.6352 14.0313 6.74009 13.9706C6.84497 13.9098 6.96079 13.8703 7.08093 13.8544C7.20107 13.8384 7.32318 13.8463 7.44028 13.8775C7.55739 13.9087 7.6672 13.9627 7.76344 14.0363C7.85969 14.11 7.94048 14.2019 8.00121 14.3068C8.50563 15.1768 9.2787 15.8598 10.2043 16.253C10.7735 16.4904 11.3842 16.6127 12.0009 16.6127C12.6176 16.6127 13.2283 16.4904 13.7975 16.253C14.3453 16.0206 14.843 15.6845 15.2632 15.2632C15.5484 14.9773 15.7956 14.6558 15.9988 14.3068C16.0595 14.2019 16.1403 14.11 16.2366 14.0363C16.3328 13.9627 16.4426 13.9087 16.5597 13.8775C16.6768 13.8463 16.7989 13.8384 16.9191 13.8544C17.0392 13.8703 17.155 13.9098 17.2599 13.9706C17.3648 14.0313 17.4567 14.1121 17.5304 14.2083C17.604 14.3046 17.658 14.4144 17.6892 14.5315C17.7204 14.6486 17.7283 14.7707 17.7123 14.8908C17.6964 15.011 17.6569 15.1268 17.5962 15.2317Z" fill="#898989"/>
</g>
<defs>
<clipPath id="clip0_11877_14257">
<rect width="24" height="24" fill="white"/>
</clipPath>
</defs>
</svg>
