<svg width="28" height="32" viewBox="0 0 28 32" fill="none" xmlns="http://www.w3.org/2000/svg">
<path d="M21.5889 14.8314C21.451 14.7653 21.311 14.7017 21.1692 14.6409C20.9222 10.0897 18.4353 7.48417 14.2597 7.4575C14.2407 7.45738 14.2219 7.45738 14.203 7.45738C11.7054 7.45738 9.6282 8.52348 8.34968 10.4635L10.6462 12.0388C11.6013 10.5897 13.1002 10.2808 14.2041 10.2808C14.2169 10.2808 14.2297 10.2808 14.2423 10.2809C15.6172 10.2897 16.6547 10.6894 17.3262 11.469C17.8148 12.0366 18.1417 12.8208 18.3035 13.8106C17.0845 13.6035 15.7662 13.5398 14.3568 13.6206C10.3868 13.8492 7.83453 16.1646 8.00595 19.382C8.09293 21.014 8.90597 22.418 10.2952 23.3352C11.4697 24.1105 12.9825 24.4897 14.5547 24.4038C16.631 24.29 18.2598 23.4978 19.3962 22.0493C20.2592 20.9493 20.805 19.5238 21.046 17.7277C22.0355 18.3248 22.7688 19.1107 23.1738 20.0553C23.8625 21.6612 23.9027 24.3 21.7495 26.4513C19.863 28.336 17.5953 29.1513 14.1683 29.1765C10.3667 29.1483 7.49165 27.9292 5.62237 25.5528C3.87193 23.3277 2.9673 20.1137 2.93355 16C2.9673 11.8863 3.87193 8.67227 5.62237 6.44712C7.49165 4.07082 10.3667 2.85167 14.1682 2.82342C17.9973 2.85188 20.9225 4.0769 22.8633 6.46467C23.815 7.6356 24.5325 9.10813 25.0055 10.8251L27.6967 10.107C27.1234 7.9937 26.2212 6.17262 24.9935 4.66233C22.5053 1.60111 18.8664 0.0325247 14.1776 0H14.1588C9.47962 0.0324117 5.88137 1.60697 3.46407 4.67988C1.313 7.4144 0.203416 11.2193 0.166132 15.9888L0.166016 16L0.166132 16.0112C0.203416 20.7807 1.313 24.5857 3.46407 27.3202C5.88137 30.393 9.47962 31.9677 14.1588 32H14.1776C18.3377 31.9712 21.27 30.882 23.6857 28.4685C26.8462 25.311 26.751 21.3532 25.7093 18.9235C24.962 17.1812 23.5372 15.766 21.5889 14.8314ZM14.4061 21.5845C12.6661 21.6825 10.8584 20.9015 10.7693 19.2287C10.7032 17.9883 11.652 16.6043 14.5129 16.4395C14.8405 16.4206 15.162 16.4113 15.4778 16.4113C16.517 16.4113 17.4892 16.5123 18.373 16.7055C18.0433 20.8225 16.1097 21.491 14.4061 21.5845Z" fill="#202020"/>
</svg>
