<svg width="32" height="32" viewBox="0 0 32 32" fill="none" xmlns="http://www.w3.org/2000/svg">
<g id="Github" clip-path="url(#clip0_6984_9625)">
<path id="Vector" fill-rule="evenodd" clip-rule="evenodd" d="M15.9993 0C7.16334 0 9.83608e-06 7.19133 9.83608e-06 16.0647C-0.0037153 19.4314 1.05074 22.7142 3.01434 25.4491C4.97795 28.184 7.75139 30.2326 10.9427 31.3053C11.7427 31.4533 12.0353 30.9573 12.0353 30.532C12.0353 30.15 12.0213 29.14 12.0127 27.8C7.56201 28.7707 6.62268 25.6467 6.62268 25.6467C5.89601 23.7907 4.84734 23.2967 4.84734 23.2967C3.39401 22.3 4.95734 22.32 4.95734 22.32C6.56201 22.4333 7.40668 23.9753 7.40668 23.9753C8.83534 26.4307 11.152 25.722 12.064 25.31C12.2087 24.272 12.6227 23.564 13.08 23.1627C9.52668 22.7567 5.79201 21.3793 5.79201 15.224C5.79201 13.4707 6.41468 12.0367 7.43868 10.9133C7.27401 10.5067 6.72534 8.874 7.59534 6.662C7.59534 6.662 8.93868 6.23067 11.9953 8.30867C13.272 7.95267 14.64 7.77467 16.0007 7.768C17.36 7.77467 18.7287 7.95267 20.0073 8.30867C23.0607 6.23067 24.402 6.662 24.402 6.662C25.2753 8.874 24.726 10.5067 24.5613 10.9133C25.5867 12.0367 26.206 13.47 26.206 15.224C26.206 21.3947 22.4653 22.7527 18.9013 23.1507C19.4747 23.6467 19.9873 24.626 19.9873 26.1253C19.9873 28.272 19.9673 30.0047 19.9673 30.532C19.9673 30.9613 20.2553 31.4613 21.0673 31.3033C27.42 29.1753 32 23.1587 32 16.0647C32 7.19133 24.836 0 15.9993 0Z" fill="#3E75C3"/>
</g>
<defs>
<clipPath id="clip0_6984_9625">
<rect width="32" height="31.3333" fill="white"/>
</clipPath>
</defs>
</svg>
