<svg width="32" height="32" viewBox="0 0 32 32" fill="none" xmlns="http://www.w3.org/2000/svg">
<path id="Subtract" fill-rule="evenodd" clip-rule="evenodd" d="M0 16C0 7.163 7.164 0 16 0C24.836 0 32 7.164 32 16C32 24.836 24.836 32 16 32C7.164 32 0 24.837 0 16ZM6.11329 15.2208V16.7722C6.17237 16.9614 6.20385 17.1581 6.20675 17.3563C6.46806 19.2287 7.25994 20.9871 8.48878 22.4238C9.71762 23.8605 11.3321 24.9154 13.1413 25.4638C13.7877 25.6549 14.4513 25.7817 15.1226 25.8423C15.1307 25.8434 15.1408 25.8431 15.1515 25.8429C15.1837 25.842 15.2208 25.841 15.2208 25.8796H16.7067C16.9197 25.8276 17.1373 25.7963 17.3563 25.7862C19.3166 25.5274 21.1501 24.6726 22.6086 23.3376C24.3177 21.8138 25.4374 19.7382 25.7722 17.4731C25.7778 17.436 25.7837 17.3989 25.7897 17.3616C25.8181 17.1826 25.8469 17.0015 25.8469 16.8236C25.8469 16.8002 25.8516 16.7722 25.8796 16.7722V15.2535C25.8251 15.0521 25.7937 14.8452 25.7862 14.6367C25.5022 12.6121 24.5989 10.725 23.2001 9.23418C21.8013 7.74333 19.9755 6.72175 17.9731 6.30955C17.5661 6.22694 17.1539 6.1723 16.7395 6.146C16.733 6.14492 16.7257 6.14459 16.7184 6.14426C16.6942 6.14315 16.6694 6.14202 16.6694 6.11329H15.2208C15.0377 6.17042 14.8472 6.20034 14.6553 6.20208C12.6974 6.47316 10.8653 7.32376 9.39473 8.64448C7.92412 9.9652 6.88221 11.6956 6.40301 13.6133C6.28416 14.1037 6.19984 14.6018 6.15067 15.1039C6.14943 15.1152 6.15051 15.1287 6.15161 15.1425C6.15464 15.1805 6.15784 15.2208 6.11329 15.2208ZM7.12731 16.4357H8.91703H8.93105C9.12783 16.4357 9.32461 16.4362 9.52087 16.4368C9.91183 16.4378 10.3007 16.4388 10.6834 16.4357C10.7862 16.4357 10.8329 16.4544 10.8329 16.5712C10.8635 17.9474 11.0644 19.3145 11.431 20.6413C11.4393 20.6583 11.4438 20.6769 11.4441 20.6958C11.4445 20.7147 11.4408 20.7334 11.4333 20.7507C11.4257 20.768 11.4145 20.7835 11.4004 20.7961C11.3863 20.8087 11.3697 20.818 11.3516 20.8236C10.6942 21.1657 10.0807 21.5862 9.5245 22.0759C9.44507 22.1647 9.40768 22.1507 9.34226 22.0759C8.17206 20.7983 7.39634 19.2096 7.10862 17.5011C7.10248 17.4626 7.09628 17.4244 7.09011 17.3864C7.04462 17.1061 7.00114 16.8381 7.00114 16.5666C6.99647 16.4591 7.0245 16.4357 7.12731 16.4357ZM21.3002 16.4357H23.0525H23.0666C23.6414 16.4357 24.2116 16.4403 24.7864 16.445L24.8002 16.4451C24.9404 16.4451 24.9778 16.4591 24.9778 16.6226C24.8339 18.6458 24.0106 20.5609 22.6413 22.0572C22.5572 22.146 22.5105 22.1413 22.417 22.0572C21.8743 21.5786 21.2766 21.1661 20.6367 20.8282C20.6157 20.8229 20.5961 20.8129 20.5795 20.799C20.5629 20.785 20.5496 20.7676 20.5406 20.7478C20.5317 20.7281 20.5273 20.7066 20.5277 20.6849C20.5281 20.6633 20.5334 20.642 20.5432 20.6226C20.9041 19.3059 21.1034 17.9501 21.1367 16.5853C21.1413 16.4591 21.1787 16.4357 21.3002 16.4357ZM10.6647 15.5572H8.93105C8.7308 15.5572 8.53212 15.5567 8.33431 15.5562C7.94128 15.5551 7.55168 15.5541 7.16002 15.5572C7.0432 15.5572 7.01516 15.5338 7.01516 15.4124C7.14673 13.5043 7.88521 11.6884 9.12264 10.2301C9.21142 10.118 9.35161 9.95908 9.39834 9.91236C9.44507 9.86563 9.4731 9.86095 9.52918 9.91236C10.0989 10.4161 10.7263 10.8506 11.3983 11.2067C11.4647 11.2399 11.4612 11.279 11.4568 11.3284C11.4557 11.3416 11.4544 11.3555 11.4544 11.3703C11.2471 12.1 11.091 12.8432 10.9871 13.5946C10.9077 14.1897 10.8609 14.7888 10.8469 15.389C10.8423 15.5339 10.8002 15.5572 10.6647 15.5572ZM24.8376 15.5572H23.0666C22.95 15.5572 22.8328 15.557 22.7155 15.5568C22.2448 15.5561 21.7705 15.5553 21.3142 15.5666C21.1787 15.5712 21.146 15.5245 21.146 15.403C21.1132 14.0495 20.917 12.7049 20.5619 11.3983C20.5528 11.3805 20.5476 11.3608 20.5467 11.3408C20.5459 11.3207 20.5493 11.3007 20.5568 11.2821C20.5644 11.2635 20.5758 11.2467 20.5904 11.2329C20.605 11.2191 20.6223 11.2086 20.6413 11.2021C21.2931 10.8597 21.9018 10.4409 22.4544 9.95441C22.5432 9.8703 22.5806 9.86563 22.66 9.95441C23.7742 11.1765 24.5265 12.6844 24.8329 14.3096C24.9044 14.6722 24.9528 15.0389 24.9778 15.4077C24.9824 15.5292 24.9544 15.5572 24.8376 15.5572ZM16.5946 16.4357H18.361L20.132 16.4217C20.1408 16.4217 20.1494 16.4214 20.1578 16.4212C20.2202 16.4193 20.2675 16.4179 20.2675 16.5292C20.235 17.7911 20.0595 19.0452 19.7441 20.2675L19.7428 20.2723C19.7204 20.3532 19.7094 20.3929 19.6039 20.3516C18.6406 19.9728 17.6233 19.7489 16.5899 19.6881C16.4731 19.6834 16.4357 19.6553 16.4357 19.5245V16.5946C16.4357 16.4684 16.4638 16.4357 16.5946 16.4357ZM11.8796 16.4357H13.6507C14.2301 16.4357 14.8096 16.4404 15.3843 16.4544C15.5058 16.4544 15.5525 16.4731 15.5525 16.6133V19.5479C15.5525 19.66 15.5338 19.7067 15.4124 19.7067C14.3737 19.7626 13.3511 19.9867 12.3843 20.3703C12.2909 20.4077 12.2488 20.3843 12.2488 20.3002C12.0101 19.3814 11.8537 18.4431 11.7815 17.4965C11.7717 17.3712 11.766 17.2451 11.7603 17.1186C11.7524 16.943 11.7444 16.7664 11.7254 16.5899C11.7161 16.4357 11.7581 16.4357 11.8796 16.4357ZM15.3937 15.5572H13.6226C13.4264 15.5572 13.2301 15.5567 13.0339 15.5562C12.6413 15.5551 12.2488 15.5541 11.8563 15.5572C11.7535 15.5572 11.7254 15.5385 11.7254 15.431C11.7594 14.2172 11.9255 13.0108 12.2208 11.8329C12.246 11.7342 12.2589 11.684 12.2898 11.6673C12.3218 11.65 12.3732 11.6687 12.4778 11.7067C13.4116 12.0631 14.3955 12.2712 15.3937 12.3236C15.5105 12.3282 15.5525 12.3563 15.5525 12.4871V15.403C15.5572 15.5338 15.5152 15.5572 15.3937 15.5572ZM20.1273 15.5572H18.3423C18.0502 15.5572 17.7581 15.556 17.4661 15.5549C17.174 15.5537 16.882 15.5525 16.5899 15.5525C16.4824 15.5572 16.4357 15.5432 16.4357 15.4124V12.4824C16.4357 12.3796 16.4591 12.3329 16.5712 12.3329C17.6143 12.2727 18.6411 12.0472 19.6133 11.6647C19.7094 11.6281 19.7203 11.6632 19.7427 11.7349L19.7441 11.7395C19.925 12.4288 20.0577 13.1298 20.1413 13.8376C20.2067 14.361 20.2628 14.889 20.2628 15.417C20.2628 15.5245 20.2395 15.5572 20.1273 15.5572ZM15.5385 7.32357V9.29553H15.5525C15.5525 9.4618 15.5522 9.62777 15.552 9.79337C15.5511 10.2887 15.5502 10.7807 15.5572 11.2675C15.5619 11.431 15.5152 11.431 15.3796 11.431C14.4456 11.3643 13.5271 11.1563 12.6553 10.8142C12.5806 10.7862 12.5432 10.7675 12.5806 10.6694C12.8989 9.72163 13.3971 8.84422 14.0479 8.08525C14.3931 7.67677 14.8418 7.36852 15.3469 7.19273C15.5385 7.12731 15.5385 7.13198 15.5385 7.32357ZM16.4264 11.2675V9.29553H16.4404C16.4404 9.1295 16.4407 8.96376 16.441 8.79816C16.4419 8.30196 16.4427 7.80707 16.4357 7.30955C16.431 7.146 16.4824 7.14133 16.6133 7.18338C17.2048 7.39487 17.7214 7.77501 18.0993 8.27684C18.6573 9.00198 19.0901 9.81539 19.3796 10.6834C19.417 10.7768 19.3796 10.8002 19.3096 10.8236C18.5606 11.1226 17.7747 11.3191 16.9731 11.4077C16.9282 11.4131 16.8874 11.4164 16.8461 11.4198C16.7798 11.4252 16.7118 11.4307 16.6226 11.4451C16.4778 11.4684 16.4264 11.431 16.4264 11.2675ZM15.5385 24.8404V20.6694C15.5385 20.5806 15.5011 20.5712 15.4264 20.5759C14.4641 20.6286 13.517 20.8385 12.6226 21.1974C12.5572 21.1974 12.5292 21.2441 12.5572 21.3282C12.839 22.1279 13.2391 22.8809 13.7441 23.5619C14.0842 24.0381 14.5348 24.4246 15.0572 24.6881C15.2077 24.7662 15.3705 24.8177 15.5385 24.8404ZM16.4824 24.8423C16.464 24.8466 16.4448 24.8466 16.4264 24.8423L16.4217 24.1647V20.7441C16.4217 20.618 16.4404 20.5806 16.5853 20.5806C17.5212 20.6451 18.4416 20.8531 19.3142 21.1974L19.3176 21.1984C19.3947 21.221 19.4305 21.2316 19.3937 21.3329C19.0704 22.279 18.5692 23.1545 17.917 23.9124C17.5665 24.3256 17.1114 24.6371 16.5993 24.8142L16.4824 24.8423ZM10.132 9.20208C11.1063 8.35944 12.2554 7.7434 13.4965 7.39834C13.1046 7.8275 12.76 8.29748 12.4684 8.80021C12.1889 9.31481 11.9468 9.84891 11.7441 10.3983C11.1693 10.0997 10.6287 9.7393 10.132 9.32357C10.1298 9.32116 10.1277 9.31882 10.1257 9.31652C10.0917 9.27873 10.0703 9.25494 10.132 9.20208ZM18.5619 7.51671C18.5269 7.47844 18.4911 7.43924 18.4544 7.39834V7.35628C18.6825 7.41901 18.9046 7.50189 19.118 7.60394C20.1036 7.97072 21.0177 8.50681 21.8189 9.18806C21.903 9.25815 21.9124 9.29086 21.8189 9.3703C21.3673 9.74822 20.8825 10.0845 20.3703 10.375C20.2628 10.4404 20.2348 10.4217 20.1927 10.3096C19.8694 9.39328 19.3956 8.53732 18.7909 7.77684C18.7191 7.68876 18.6428 7.60523 18.5619 7.51671ZM21.9077 22.8189C20.9213 23.6945 19.7483 24.3338 18.4778 24.6881V24.6273C19.2173 23.8142 19.7918 22.8651 20.1694 21.8329C20.2254 21.6881 20.2722 21.6647 20.4077 21.7441C20.9404 22.0543 21.4427 22.4142 21.9077 22.8189ZM13.42 24.5916C13.4012 24.5695 13.3824 24.5475 13.3636 24.5255C13.2711 24.4175 13.1787 24.3096 13.0946 24.1974C12.5466 23.4787 12.1131 22.6795 11.8096 21.8282C11.7722 21.7301 11.7441 21.6881 11.6273 21.7581C11.1267 22.0271 10.6499 22.3382 10.2021 22.6881C10.118 22.7582 10.118 22.7909 10.2021 22.861C10.5682 23.1652 10.9555 23.4432 11.361 23.6927C12.0003 24.0904 12.6939 24.3931 13.42 24.5916Z" fill="white"/>
</svg>
