<svg width="32" height="32" viewBox="0 0 32 32" fill="none" xmlns="http://www.w3.org/2000/svg">
<g id="Threads">
<path id="Vector" d="M23.5908 14.8314C23.453 14.7653 23.313 14.7017 23.1711 14.6409C22.9241 10.0897 20.4373 7.48417 16.2616 7.4575C16.2427 7.45738 16.2239 7.45738 16.205 7.45738C13.7074 7.45738 11.6302 8.52348 10.3516 10.4635L12.6481 12.0388C13.6032 10.5897 15.1022 10.2808 16.2061 10.2808C16.2188 10.2808 16.2316 10.2808 16.2442 10.2809C17.6191 10.2897 18.6566 10.6894 19.3281 11.469C19.8168 12.0366 20.1436 12.8208 20.3055 13.8106C19.0865 13.6035 17.7681 13.5398 16.3588 13.6206C12.3888 13.8492 9.83649 16.1646 10.0079 19.382C10.0949 21.014 10.9079 22.418 12.2971 23.3352C13.4717 24.1105 14.9845 24.4897 16.5567 24.4038C18.633 24.29 20.2618 23.4978 21.3981 22.0493C22.2611 20.9493 22.807 19.5238 23.048 17.7277C24.0375 18.3248 24.7708 19.1107 25.1758 20.0553C25.8645 21.6612 25.9046 24.3 23.7515 26.4513C21.865 28.336 19.5973 29.1513 16.1702 29.1765C12.3687 29.1483 9.4936 27.9292 7.62432 25.5528C5.87389 23.3277 4.96925 20.1137 4.9355 16C4.96925 11.8863 5.87389 8.67227 7.62432 6.44712C9.4936 4.07082 12.3686 2.85167 16.1702 2.82342C19.9993 2.85188 22.9245 4.0769 24.8653 6.46467C25.817 7.6356 26.5345 9.10813 27.0075 10.8251L29.6986 10.107C29.1253 7.9937 28.2231 6.17262 26.9955 4.66233C24.5073 1.60111 20.8683 0.0325247 16.1796 0H16.1608C11.4816 0.0324117 7.88332 1.60697 5.46602 4.67988C3.31495 7.4144 2.20537 11.2193 2.16809 15.9888L2.16797 16L2.16809 16.0112C2.20537 20.7807 3.31495 24.5857 5.46602 27.3202C7.88332 30.393 11.4816 31.9677 16.1608 32H16.1796C20.3396 31.9712 23.272 30.882 25.6876 28.4685C28.8481 25.311 28.753 21.3532 27.7113 18.9235C26.964 17.1812 25.5391 15.766 23.5908 14.8314ZM16.4081 21.5845C14.6681 21.6825 12.8604 20.9015 12.7712 19.2287C12.7052 17.9883 13.6539 16.6043 16.5148 16.4395C16.8425 16.4206 17.164 16.4113 17.4798 16.4113C18.519 16.4113 19.4911 16.5123 20.375 16.7055C20.0453 20.8225 18.1116 21.491 16.4081 21.5845Z" fill="white"/>
</g>
</svg>
