<svg width="32" height="32" viewBox="0 0 32 32" fill="none" xmlns="http://www.w3.org/2000/svg">
<g id="Group 1171275377">
<circle id="Ellipse 7204" cx="16" cy="16" r="16" fill="black"/>
<path id="Vector" d="M25.9908 26.5389H19.2306L14.1581 19.1515L7.80369 26.5389H5L12.913 17.3439L5.11989 6H11.8801L16.6759 12.9816L22.6798 6H25.4835L17.9209 14.7892L26 26.5389H25.9908ZM19.6733 25.6996H24.4045L16.8603 14.7246L23.6574 6.82082H23.058L16.5929 14.3373L11.4282 6.82082H6.69697L13.9644 17.39L6.81686 25.6996H7.41634L14.2319 17.7773L19.6733 25.6996ZM23.6667 25.3123H20.0329L7.41634 7.27273H11.0501L23.6667 25.3123ZM20.4664 24.4822H22.0619L10.6166 8.11199H9.02108L20.4664 24.4822Z" fill="white"/>
</g>
</svg>
