<svg width="32" height="32" viewBox="0 0 32 32" fill="none" xmlns="http://www.w3.org/2000/svg">
<g id="Youtube" clip-path="url(#clip0_6984_9616)">
<path id="Vector" d="M32 16C32 7.16344 24.8366 0 16 0C7.16344 0 0 7.16344 0 16C0 24.8366 7.16344 32 16 32C24.8366 32 32 24.8366 32 16Z" fill="#FF0000"/>
<path id="Vector_2" fill-rule="evenodd" clip-rule="evenodd" d="M23.8253 9.42638C24.6819 9.65698 25.3574 10.3324 25.5881 11.1891C26.0164 12.7542 25.9999 16.0161 25.9999 16.0161C25.9999 16.0161 25.9999 19.2616 25.5881 20.8266C25.3574 21.6833 24.6819 22.3588 23.8253 22.5894C22.2602 23.0012 15.9999 23.0012 15.9999 23.0012C15.9999 23.0012 9.75613 23.0012 8.1746 22.5729C7.31793 22.3422 6.6425 21.6668 6.41186 20.8102C6 19.2616 6 15.9996 6 15.9996C6 15.9996 6 12.7542 6.41186 11.1891C6.6425 10.3324 7.3344 9.64051 8.1746 9.40985C9.73967 8.99805 15.9999 8.99805 15.9999 8.99805C15.9999 8.99805 22.2602 8.99805 23.8253 9.42638ZM19.2125 15.9996L14.0065 18.998V13.0013L19.2125 15.9996Z" fill="white"/>
</g>
<defs>
<clipPath id="clip0_6984_9616">
<rect width="32" height="32" fill="white"/>
</clipPath>
</defs>
</svg>
